<svg width="72" height="72" viewBox="0 0 72 72" fill="none" xmlns="http://www.w3.org/2000/svg">
<rect width="72" height="72" fill="#F8133C"/>
<path opacity="0.35" d="M56.8043 38.0804H44.3218V21.437C44.3218 19.1382 46.1838 17.2762 48.4826 17.2762H52.6435C54.9423 17.2762 56.8043 19.1382 56.8043 21.437V38.0804Z" fill="white"/>
<path d="M44.3218 38.0804H56.8043V50.563C56.8043 52.8619 54.9423 54.7238 52.6435 54.7238H48.4826C46.1838 54.7238 44.3218 52.8619 44.3218 50.563V38.0804Z" fill="white"/>
<path opacity="0.35" d="M42.2413 44.3217H29.7588V31.8391C29.7588 29.5403 31.6208 27.6783 33.9196 27.6783H38.0805C40.3794 27.6783 42.2413 29.5403 42.2413 31.8391V44.3217Z" fill="white"/>
<path d="M29.7588 44.3217H42.2413V50.563C42.2413 52.8619 40.3794 54.7238 38.0805 54.7238H33.9196C31.6208 54.7238 29.7588 52.8619 29.7588 50.563V44.3217Z" fill="white"/>
<path opacity="0.35" d="M27.6783 36H15.1958V25.5979C15.1958 23.299 17.0578 21.437 19.3566 21.437H23.5175C25.8164 21.437 27.6783 23.299 27.6783 25.5979V36Z" fill="white"/>
<path d="M15.1958 36H27.6783V50.563C27.6783 52.8618 25.8164 54.7238 23.5175 54.7238H19.3566C17.0578 54.7238 15.1958 52.8618 15.1958 50.563V36Z" fill="white"/>
</svg>
