<svg width="72" height="72" viewBox="0 0 72 72" fill="none" xmlns="http://www.w3.org/2000/svg">
<rect width="72" height="72" fill="#F8133C"/>
<path d="M45.2808 26.7192C43.6386 25.0771 40.9768 25.0771 39.3346 26.7192L26.7191 39.3347C25.077 40.9768 25.077 43.6387 26.7191 45.2808C28.3613 46.9229 31.0231 46.9229 32.6652 45.2808L45.2808 32.6653C46.9229 31.0232 46.9229 28.3613 45.2808 26.7192Z" fill="white"/>
<path opacity="0.35" d="M53.6386 18.3614C49.1222 13.845 41.801 13.845 37.2846 18.3614C36.9251 18.7209 35.5416 20.1044 35.1821 20.464C31.9273 23.7188 31.0547 28.4244 32.4929 32.495C28.4223 31.0568 23.7188 31.9273 20.464 35.1821C20.1044 35.5416 18.7209 36.9251 18.3614 37.2846C13.845 41.801 13.845 49.1222 18.3614 53.6386C22.8777 58.1549 30.1989 58.1549 34.7153 53.6386C35.0748 53.279 36.4583 51.8955 36.8179 51.536C40.0727 48.2812 40.9452 43.5756 39.5071 39.505C43.5777 40.9431 48.2812 40.0727 51.536 36.8179C51.8955 36.4583 53.279 35.0748 53.6386 34.7153C58.1549 30.1989 58.1549 22.8777 53.6386 18.3614Z" fill="white"/>
</svg>
