<svg width="72" height="72" viewBox="0 0 72 72" fill="none" xmlns="http://www.w3.org/2000/svg">
<rect width="72" height="72" fill="#F8133C"/>
<path opacity="0.35" d="M32.0591 28.1189H20.2373V51.7625H32.0591V28.1189Z" fill="white"/>
<path opacity="0.35" d="M51.7625 53.7327H34.0298V22.2079C34.0298 20.0308 35.7932 18.2673 37.9704 18.2673H49.7922C51.9694 18.2673 53.7328 20.0308 53.7328 22.2079V51.7624C53.7328 52.85 52.8501 53.7327 51.7625 53.7327Z" fill="white"/>
<path d="M49.7917 26.1485H45.8511V22.2079H49.7917V26.1485Z" fill="white"/>
<path d="M41.9103 26.1485H37.9697V22.2079H41.9103V26.1485Z" fill="white"/>
<path d="M49.7917 34.0297H45.8511V30.0891H49.7917V34.0297Z" fill="white"/>
<path d="M41.9103 34.0297H37.9697V30.0891H41.9103V34.0297Z" fill="white"/>
<path d="M49.7917 41.9109H45.8511V37.9703H49.7917V41.9109Z" fill="white"/>
<path d="M41.9103 41.9109H37.9697V37.9703H41.9103V41.9109Z" fill="white"/>
<path d="M49.7917 49.7922H45.8511V45.8516H49.7917V49.7922Z" fill="white"/>
<path d="M41.9103 49.7922H37.9697V45.8516H41.9103V49.7922Z" fill="white"/>
<path d="M30.0889 24.1782H22.2077C20.0305 24.1782 18.2671 25.9416 18.2671 28.1188V51.7624C18.2671 52.85 19.1498 53.7327 20.2374 53.7327H34.0295V28.1188C34.0295 25.9416 32.2661 24.1782 30.0889 24.1782ZM30.0889 49.7921H22.2077V45.8515H30.0889V49.7921ZM30.0889 41.9109H22.2077V37.9703H30.0889V41.9109ZM30.0889 34.0297H22.2077V30.0891H30.0889V34.0297Z" fill="white"/>
</svg>
