<svg width="72" height="72" viewBox="0 0 72 72" fill="none" xmlns="http://www.w3.org/2000/svg">
<rect width="72" height="72" fill="#F8133C"/>
<path opacity="0.35" d="M58.0028 27.0944C58.1289 24.8603 56.5606 22.8098 54.3508 22.4448C45.1687 20.934 45.8744 13.8799 35.9999 13.8799C26.1255 13.8799 26.8312 20.934 17.6491 22.4448C15.4393 22.8076 13.871 24.8581 13.9971 27.0944C14.9438 43.9721 21.6971 51.9906 35.9999 58.1201C50.3028 51.9906 57.0561 43.9721 58.0028 27.0944Z" fill="white"/>
<path d="M33.7878 44.848C33.2215 44.848 32.6553 44.6312 32.2239 44.1999L25.5879 37.5639C24.723 36.699 24.723 35.301 25.5879 34.4361C26.4528 33.5712 27.8508 33.5712 28.7157 34.4361L33.7878 39.5082L43.284 30.0121C44.1489 29.1472 45.5468 29.1472 46.4117 30.0121C47.2766 30.877 47.2766 32.275 46.4117 33.1399L35.3517 44.1999C34.9203 44.6312 34.3541 44.848 33.7878 44.848Z" fill="white"/>
</svg>
