<svg width="194" height="42" viewBox="0 0 194 42" fill="none" xmlns="http://www.w3.org/2000/svg">
<path d="M6.31304 6.42624L8.33754 8.64696C7.83851 9.09629 7.36032 9.62342 7.0023 10.2434C5.49701 12.8501 5.94798 16.0225 7.91562 18.0976L14.9457 5.92348L17.5386 7.4202L16.2042 9.73104L19.4171 11.5857L20.2308 10.1766L27.4458 14.3414L24.3213 19.7522L17.1063 15.5874L17.92 14.1783L14.707 12.3237L12.0382 16.9454L15.2511 18.8L16.0648 17.3909L23.2798 21.5557L20.1553 26.9665L12.9403 22.8017L13.754 21.3926L10.5411 19.538L8.39297 23.2579L21.132 30.6113L23.8453 25.9778L28.4343 18.0307L31.8398 12.0683L34.4327 13.565L31.0153 19.483L38.7376 23.9406L39.9896 24.7009L38.4274 27.4063L40.7829 28.7284L46.3474 33.6689L39.2857 31.321L36.9628 29.9426L35.4005 32.6479L34.116 31.944L26.3937 27.4864L22.9763 33.4044L22.2158 34.6562L20.9313 33.9523L5.59938 25.1022L4.34739 24.3419L5.05151 23.0575L6.37401 20.7022C3.05197 17.7513 2.15903 12.7739 4.46578 8.77922C4.97839 7.89152 5.58299 7.0804 6.31304 6.42624ZM29.5182 22.0756L27.8908 24.8937L34.3286 28.6475L35.9885 25.773L29.5182 22.0756Z" fill="#F8133C"/>
<path d="M65.488 14.2C65.6 14.2 65.688 14.232 65.752 14.296C65.816 14.36 65.848 14.448 65.848 14.56V17.728C65.848 17.84 65.816 17.928 65.752 17.992C65.688 18.056 65.6 18.088 65.488 18.088H61.456C61.376 18.088 61.336 18.128 61.336 18.208V30.64C61.336 30.752 61.304 30.84 61.24 30.904C61.176 30.968 61.088 31 60.976 31H57.184C57.072 31 56.984 30.968 56.92 30.904C56.856 30.84 56.824 30.752 56.824 30.64V18.208C56.824 18.128 56.784 18.088 56.704 18.088H52.792C52.68 18.088 52.592 18.056 52.528 17.992C52.464 17.928 52.432 17.84 52.432 17.728V14.56C52.432 14.448 52.464 14.36 52.528 14.296C52.592 14.232 52.68 14.2 52.792 14.2H65.488ZM76.7539 31C76.5299 31 76.3939 30.896 76.3459 30.688L75.8179 28.816C75.7859 28.752 75.7459 28.72 75.6979 28.72H70.6099C70.5619 28.72 70.5219 28.752 70.4899 28.816L69.9619 30.688C69.9139 30.896 69.7779 31 69.5539 31H65.4499C65.1619 31 65.0579 30.864 65.1379 30.592L70.2019 14.488C70.2659 14.296 70.4019 14.2 70.6099 14.2H75.6979C75.9059 14.2 76.0419 14.296 76.1059 14.488L81.1699 30.592C81.1859 30.624 81.1939 30.672 81.1939 30.736C81.1939 30.912 81.0819 31 80.8579 31H76.7539ZM71.5459 25.12C71.5299 25.216 71.5619 25.264 71.6419 25.264H74.6419C74.7379 25.264 74.7699 25.216 74.7379 25.12L73.2019 19.744C73.1859 19.696 73.1619 19.672 73.1299 19.672C73.0979 19.672 73.0739 19.696 73.0579 19.744L71.5459 25.12ZM92.8161 14.2C92.9281 14.2 93.0161 14.232 93.0801 14.296C93.1441 14.36 93.1761 14.448 93.1761 14.56V17.728C93.1761 17.84 93.1441 17.928 93.0801 17.992C93.0161 18.056 92.9281 18.088 92.8161 18.088H88.7841C88.7041 18.088 88.6641 18.128 88.6641 18.208V30.64C88.6641 30.752 88.6321 30.84 88.5681 30.904C88.5041 30.968 88.4161 31 88.3041 31H84.5121C84.4001 31 84.3121 30.968 84.2481 30.904C84.1841 30.84 84.1521 30.752 84.1521 30.64V18.208C84.1521 18.128 84.1121 18.088 84.0321 18.088H80.1201C80.0081 18.088 79.9201 18.056 79.8561 17.992C79.7921 17.928 79.7601 17.84 79.7601 17.728V14.56C79.7601 14.448 79.7921 14.36 79.8561 14.296C79.9201 14.232 80.0081 14.2 80.1201 14.2H92.8161ZM107.09 14.2C107.202 14.2 107.29 14.232 107.354 14.296C107.418 14.36 107.45 14.448 107.45 14.56V17.728C107.45 17.84 107.418 17.928 107.354 17.992C107.29 18.056 107.202 18.088 107.09 18.088H103.058C102.978 18.088 102.938 18.128 102.938 18.208V30.64C102.938 30.752 102.906 30.84 102.842 30.904C102.778 30.968 102.69 31 102.578 31H98.7856C98.6736 31 98.5856 30.968 98.5216 30.904C98.4576 30.84 98.4256 30.752 98.4256 30.64V18.208C98.4256 18.128 98.3856 18.088 98.3056 18.088H94.3936C94.2816 18.088 94.1936 18.056 94.1296 17.992C94.0656 17.928 94.0336 17.84 94.0336 17.728V14.56C94.0336 14.448 94.0656 14.36 94.1296 14.296C94.1936 14.232 94.2816 14.2 94.3936 14.2H107.09ZM114.987 31.288C113.659 31.288 112.483 31.024 111.459 30.496C110.451 29.952 109.667 29.2 109.107 28.24C108.547 27.264 108.267 26.136 108.267 24.856V20.344C108.267 19.096 108.547 17.992 109.107 17.032C109.667 16.072 110.451 15.328 111.459 14.8C112.483 14.272 113.659 14.008 114.987 14.008C116.331 14.008 117.507 14.272 118.515 14.8C119.539 15.328 120.331 16.072 120.891 17.032C121.451 17.992 121.731 19.096 121.731 20.344V24.856C121.731 26.136 121.451 27.264 120.891 28.24C120.331 29.2 119.539 29.952 118.515 30.496C117.507 31.024 116.331 31.288 114.987 31.288ZM114.987 27.424C115.659 27.424 116.195 27.208 116.595 26.776C117.011 26.328 117.219 25.736 117.219 25V20.296C117.219 19.56 117.011 18.976 116.595 18.544C116.195 18.096 115.659 17.872 114.987 17.872C114.331 17.872 113.795 18.096 113.379 18.544C112.979 18.976 112.779 19.56 112.779 20.296V25C112.779 25.736 112.979 26.328 113.379 26.776C113.795 27.208 114.331 27.424 114.987 27.424ZM129.893 31.288C128.565 31.288 127.389 31.024 126.365 30.496C125.357 29.952 124.573 29.2 124.013 28.24C123.453 27.264 123.173 26.136 123.173 24.856V20.344C123.173 19.096 123.453 17.992 124.013 17.032C124.573 16.072 125.357 15.328 126.365 14.8C127.389 14.272 128.565 14.008 129.893 14.008C131.237 14.008 132.413 14.272 133.421 14.8C134.445 15.328 135.237 16.072 135.797 17.032C136.357 17.992 136.637 19.096 136.637 20.344V24.856C136.637 26.136 136.357 27.264 135.797 28.24C135.237 29.2 134.445 29.952 133.421 30.496C132.413 31.024 131.237 31.288 129.893 31.288ZM129.893 27.424C130.565 27.424 131.101 27.208 131.501 26.776C131.917 26.328 132.125 25.736 132.125 25V20.296C132.125 19.56 131.917 18.976 131.501 18.544C131.101 18.096 130.565 17.872 129.893 17.872C129.237 17.872 128.701 18.096 128.285 18.544C127.885 18.976 127.685 19.56 127.685 20.296V25C127.685 25.736 127.885 26.328 128.285 26.776C128.701 27.208 129.237 27.424 129.893 27.424ZM138.655 31C138.543 31 138.455 30.968 138.391 30.904C138.327 30.84 138.295 30.752 138.295 30.64V14.56C138.295 14.448 138.327 14.36 138.391 14.296C138.455 14.232 138.543 14.2 138.655 14.2H142.447C142.559 14.2 142.647 14.232 142.711 14.296C142.775 14.36 142.807 14.448 142.807 14.56V30.64C142.807 30.752 142.775 30.84 142.711 30.904C142.647 30.968 142.559 31 142.447 31H138.655ZM151.03 31.192C149.686 31.192 148.51 30.976 147.502 30.544C146.494 30.096 145.71 29.464 145.15 28.648C144.606 27.832 144.334 26.888 144.334 25.816V25.48C144.334 25.368 144.366 25.28 144.43 25.216C144.494 25.152 144.582 25.12 144.694 25.12H148.414C148.526 25.12 148.614 25.152 148.678 25.216C148.742 25.28 148.774 25.368 148.774 25.48V25.624C148.774 26.072 149.006 26.472 149.47 26.824C149.95 27.16 150.582 27.328 151.366 27.328C151.958 27.328 152.382 27.208 152.638 26.968C152.894 26.712 153.022 26.432 153.022 26.128C153.022 25.776 152.862 25.512 152.542 25.336C152.222 25.16 151.638 24.944 150.79 24.688L150.094 24.496C148.51 24.016 147.182 23.376 146.11 22.576C145.038 21.776 144.502 20.616 144.502 19.096C144.502 18.088 144.774 17.2 145.318 16.432C145.862 15.648 146.606 15.048 147.55 14.632C148.51 14.216 149.582 14.008 150.766 14.008C152.014 14.008 153.142 14.24 154.15 14.704C155.174 15.168 155.974 15.824 156.55 16.672C157.142 17.52 157.438 18.488 157.438 19.576V19.792C157.438 19.904 157.406 19.992 157.342 20.056C157.278 20.12 157.19 20.152 157.078 20.152H153.358C153.246 20.152 153.158 20.12 153.094 20.056C153.03 19.992 152.998 19.904 152.998 19.792V19.768C152.998 19.288 152.782 18.856 152.35 18.472C151.918 18.072 151.334 17.872 150.598 17.872C150.086 17.872 149.678 17.976 149.374 18.184C149.086 18.392 148.942 18.68 148.942 19.048C148.942 19.336 149.046 19.584 149.254 19.792C149.478 19.984 149.814 20.176 150.262 20.368C150.71 20.544 151.398 20.776 152.326 21.064C152.454 21.112 153.014 21.288 154.006 21.592C155.014 21.88 155.854 22.416 156.526 23.2C157.198 23.968 157.534 24.904 157.534 26.008C157.534 27.08 157.262 28.008 156.718 28.792C156.174 29.56 155.414 30.152 154.438 30.568C153.462 30.984 152.326 31.192 151.03 31.192ZM171.66 14.2C171.772 14.2 171.86 14.232 171.924 14.296C171.988 14.36 172.02 14.448 172.02 14.56V17.728C172.02 17.84 171.988 17.928 171.924 17.992C171.86 18.056 171.772 18.088 171.66 18.088H167.628C167.548 18.088 167.508 18.128 167.508 18.208V30.64C167.508 30.752 167.476 30.84 167.412 30.904C167.348 30.968 167.26 31 167.148 31H163.356C163.244 31 163.156 30.968 163.092 30.904C163.028 30.84 162.996 30.752 162.996 30.64V18.208C162.996 18.128 162.956 18.088 162.876 18.088H158.964C158.852 18.088 158.764 18.056 158.7 17.992C158.636 17.928 158.604 17.84 158.604 17.728V14.56C158.604 14.448 158.636 14.36 158.7 14.296C158.764 14.232 158.852 14.2 158.964 14.2H171.66ZM178.162 31C178.066 31 177.986 30.984 177.922 30.952C177.874 30.904 177.85 30.848 177.85 30.784C177.85 30.704 177.874 30.632 177.922 30.568L182.29 22.672C182.322 22.624 182.322 22.576 182.29 22.528L177.922 14.632C177.874 14.552 177.85 14.48 177.85 14.416C177.85 14.352 177.874 14.304 177.922 14.272C177.986 14.224 178.066 14.2 178.162 14.2H182.314C182.522 14.2 182.666 14.288 182.746 14.464L185.098 19C185.146 19.064 185.194 19.064 185.242 19L187.594 14.464C187.69 14.288 187.834 14.2 188.026 14.2H192.154C192.25 14.2 192.322 14.224 192.37 14.272C192.434 14.304 192.466 14.352 192.466 14.416C192.466 14.48 192.442 14.552 192.394 14.632L188.05 22.528C188.034 22.576 188.034 22.624 188.05 22.672L192.394 30.568C192.442 30.632 192.466 30.704 192.466 30.784C192.466 30.848 192.434 30.904 192.37 30.952C192.322 30.984 192.25 31 192.154 31H188.05C187.858 31 187.714 30.912 187.618 30.736L185.242 26.224C185.194 26.144 185.146 26.144 185.098 26.224L182.722 30.736C182.642 30.912 182.498 31 182.29 31H178.162Z" fill="white"/>
</svg>
