<svg width="72" height="72" viewBox="0 0 72 72" fill="none" xmlns="http://www.w3.org/2000/svg">
<rect width="72" height="72" fill="#F8133C"/>
<path d="M38.0983 29.7051C42.7337 29.7051 46.4915 25.9474 46.4915 21.3119C46.4915 16.6765 42.7337 12.9187 38.0983 12.9187C33.4628 12.9187 29.7051 16.6765 29.7051 21.3119C29.7051 25.9474 33.4628 29.7051 38.0983 29.7051Z" fill="white"/>
<path d="M23.4101 29.7051C26.8867 29.7051 29.705 26.8868 29.705 23.4102C29.705 19.9336 26.8867 17.1153 23.4101 17.1153C19.9336 17.1153 17.1152 19.9336 17.1152 23.4102C17.1152 26.8868 19.9336 29.7051 23.4101 29.7051Z" fill="white"/>
<path opacity="0.35" d="M42.295 59.0814H21.312C17.8351 59.0814 15.0171 56.2634 15.0171 52.7865V36C15.0171 32.5232 17.8351 29.7051 21.312 29.7051H42.295C45.7719 29.7051 48.5899 32.5232 48.5899 36V52.7865C48.5899 56.2634 45.7719 59.0814 42.295 59.0814Z" fill="white"/>
<path d="M56.9831 46.4916H48.5898V38.0984L53.8146 37.0555C55.3737 36.5351 56.9831 37.6955 56.9831 39.3385V46.4916V46.4916Z" fill="white"/>
<path d="M56.9831 42.2949H48.5898V50.6881L53.8146 51.731C55.3737 52.2514 56.9831 51.091 56.9831 49.448V42.2949V42.2949Z" fill="white"/>
</svg>
