<svg width="74" height="74" viewBox="0 0 74 74" fill="none" xmlns="http://www.w3.org/2000/svg">
<path d="M36.4508 2.17349C11.955 -0.356462 -3.58926 25.2943 10.115 45.8151M12.018 36.117C12.3708 39.6876 11.0351 42.8638 10.115 45.8151M36.4508 72C25.5312 71.3082 20.2638 71.6412 19.6832 59.8773C8.18103 55.2817 8.53608 50.8797 10.115 45.8151" stroke="white" stroke-width="3" stroke-linecap="square"/>
<path d="M17.7459 44.1503L17.7041 44.3237V44.5021C17.7041 46.8715 18.5549 48.7434 20.0779 49.9904C21.5544 51.1993 23.488 51.679 25.4321 51.679C27.7547 51.679 29.93 50.249 31.451 48.4847C32.9922 46.697 34.1181 44.2806 34.1181 41.8528C34.1181 39.6216 33.5316 37.4933 32.3497 35.8813C31.1431 34.2355 29.3284 33.162 27.0822 33.162H26.9801L26.879 33.1759C23.5924 33.6252 21.5015 35.4072 20.1513 37.5867C18.8496 39.688 18.2199 42.1859 17.7459 44.1503Z" stroke="white" stroke-width="3"/>
<path d="M37.6036 50.9184C38.0118 50.5465 38.0413 49.914 37.6694 49.5057C37.2975 49.0974 36.665 49.068 36.2567 49.4399L37.6036 50.9184ZM37.9135 57.6349C38.014 57.0918 37.6554 56.57 37.1123 56.4695C36.5693 56.3689 36.0475 56.7275 35.9469 57.2706L37.9135 57.6349ZM36.2567 49.4399C31.3574 53.903 30.5407 58.1791 31.9406 60.5129C32.6554 61.7045 34.0155 62.3399 35.3836 61.7301C36.64 61.1701 37.5289 59.7111 37.9135 57.6349L35.9469 57.2706C35.6129 59.0736 34.9449 59.736 34.5694 59.9034C34.3056 60.021 33.959 59.9896 33.6557 59.4841C33.0195 58.4235 32.9214 55.1836 37.6036 50.9184L36.2567 49.4399Z" fill="white"/>
<path d="M62.2802 36.6517C62.1011 40.0059 63.3499 43.012 64.2238 45.8151C65.8028 50.8797 66.1578 55.2817 54.6557 59.8773C54.1477 70.1703 50.0516 71.2023 41.7208 71.7629M65.6745 43.43C76.1874 24.3349 62.8578 2.0149 41.2418 2" stroke="white" stroke-width="2" stroke-linecap="square" stroke-dasharray="4 4"/>
<path d="M41.2411 41.8089C41.2411 46.0866 44.4584 50.7773 48.4272 50.7773C52.396 50.7773 55.6133 48.9402 55.6133 44.6625C55.6133 40.3848 54.0164 34.8788 47.6287 34.0635C43.66 34.0635 41.2411 37.5313 41.2411 41.8089Z" stroke="white" stroke-width="1.5" stroke-linecap="square" stroke-dasharray="3.5 3.5"/>
<path d="M36.7353 50.9184L35.9961 50.245L37.3429 48.7665L38.0822 49.4399L36.7353 50.9184ZM36.4254 57.6349L36.2433 56.6516L38.2098 56.2873L38.392 57.2706L36.4254 57.6349ZM39.2095 50.5352L39.9025 51.2561L38.4608 52.6422L37.7677 51.9213L39.2095 50.5352ZM39.5445 54.1021L38.9894 53.2704L40.6529 52.1601L41.208 52.9919L39.5445 54.1021ZM42.6503 55.924L42.948 56.8787L41.0386 57.4739L40.741 56.5192L42.6503 55.924ZM40.909 58.9251L41.1574 57.9564L43.0947 58.4532L42.8463 59.4219L40.909 58.9251ZM39.664 61.9366L38.6742 61.7942L38.959 59.8145L39.9488 59.9569L39.664 61.9366ZM38.7404 58.5367L39.1038 59.4684L37.2405 60.1952L36.8772 59.2635L38.7404 58.5367ZM38.0822 49.4399C38.4863 49.8081 38.8616 50.1734 39.2095 50.5352L37.7677 51.9213C37.4518 51.5927 37.1082 51.2581 36.7353 50.9184L38.0822 49.4399ZM41.208 52.9919C41.8935 54.019 42.3633 55.0034 42.6503 55.924L40.741 56.5192C40.5177 55.8032 40.1374 54.9906 39.5445 54.1021L41.208 52.9919ZM42.8463 59.4219C42.4541 60.9512 41.244 62.1639 39.664 61.9366L39.9488 59.9569C40.1624 59.9877 40.6698 59.8578 40.909 58.9251L42.8463 59.4219ZM36.8772 59.2635C36.6899 58.7833 36.5376 58.2406 36.4254 57.6349L38.392 57.2706C38.4844 57.7695 38.6048 58.1889 38.7404 58.5367L36.8772 59.2635Z" fill="white"/>
</svg>
