<svg width="72" height="72" viewBox="0 0 72 72" fill="none" xmlns="http://www.w3.org/2000/svg">
<rect width="72" height="72" fill="#F8133C"/>
<path d="M54 26V24L22 30H50C52.21 30 54 28.21 54 26Z" fill="white"/>
<path d="M54 38V36L22 42H50C52.21 42 54 40.21 54 38Z" fill="white"/>
<path opacity="0.35" d="M54 26V22C54 19.79 52.21 18 50 18H22C19.79 18 18 19.79 18 22V26C18 28.21 19.79 30 22 30C19.79 30 18 31.79 18 34V38C18 40.21 19.79 42 22 42C19.79 42 18 43.79 18 46V50C18 52.21 19.79 54 22 54H50C52.21 54 54 52.21 54 50V46C54 43.79 52.21 42 50 42C52.21 42 54 40.21 54 38V34C54 31.79 52.21 30 50 30C52.21 30 54 28.21 54 26Z" fill="white"/>
<path d="M54 50V48L22 54H50C52.21 54 54 52.21 54 50Z" fill="white"/>
</svg>
