<svg width="70" height="67" viewBox="0 0 70 67" fill="none" xmlns="http://www.w3.org/2000/svg">
<path d="M59.3478 8.89575L40.1738 28.0697" stroke="white" stroke-width="2"/>
<path d="M32.6168 59.9582L33.158 60.3007L33.6954 59.9524C42.361 54.3373 48.1753 50.1287 51.887 45.7324C55.6535 41.2713 57.2272 36.6552 57.5601 30.3403C57.592 29.9399 57.6082 29.5353 57.6082 29.1269C57.6082 20.9501 51.1059 14.2871 43.0429 14.2871C39.081 14.2871 35.4912 15.8995 32.869 18.5075C30.2469 15.8995 26.6571 14.2871 22.6951 14.2871C14.6322 14.2871 8.12988 20.9501 8.12988 29.1269C8.12988 29.5497 8.14726 29.9686 8.18137 30.3829C8.52795 36.6894 10.1476 41.3008 14.0053 45.7558C17.8062 50.1452 23.755 54.3494 32.6168 59.9582Z" fill="#121213" stroke="white" stroke-width="2"/>
<path d="M26.4781 40.8525L7.3042 60.0265" stroke="white" stroke-width="2"/>
<line x1="15.6089" y1="51.8091" x2="15.6089" y2="62.7656" stroke="white" stroke-width="2"/>
<line y1="-1" x2="10.9565" y2="-1" transform="matrix(-1 2.3597e-08 2.3597e-08 1 14.6089 53.6348)" stroke="white" stroke-width="2"/>
<line x1="11.9565" y1="55.4609" x2="11.9565" y2="64.5914" stroke="white" stroke-width="2"/>
<line y1="-1" x2="9.13044" y2="-1" transform="matrix(-1 2.3597e-08 2.3597e-08 1 10.9565 57.2871)" stroke="white" stroke-width="2"/>
<line x1="8.3042" y1="59.1133" x2="8.3042" y2="66.4176" stroke="white" stroke-width="2"/>
<line y1="-1" x2="7.30435" y2="-1" transform="matrix(-1 2.3597e-08 2.3597e-08 1 7.3042 60.9395)" stroke="white" stroke-width="2"/>
<path d="M62.3154 12.5479L56.6089 6.8414L65.7393 3.41748L62.3154 12.5479Z" fill="#121213"/>
<path fill-rule="evenodd" clip-rule="evenodd" d="M52.998 6.05945L69.1566 0L63.0971 16.1585L52.998 6.05945ZM62.3151 12.548L65.739 3.4176L56.6085 6.84152L62.3151 12.548Z" fill="white"/>
</svg>
