<svg width="226" height="206" viewBox="0 0 226 206" fill="none" xmlns="http://www.w3.org/2000/svg">
<g opacity="0.05">
<path d="M123.858 82.2058L122.077 82.9209L114.047 107.895L119.648 83.8964L118.644 84.2997L111.419 106.394L116.242 85.2642L115.21 85.6786L108.795 104.903L112.845 86.6284L111.777 87.0574L106.162 103.416L109.448 87.9926L108.334 88.4399L103.534 101.916L106.069 89.3494L104.892 89.8225L100.91 100.424L102.7 90.7026L101.422 91.216L98.2856 98.9333L99.3579 92.0447L97.8968 92.6315L95.6577 97.4331L96.0888 93.3576L94.1803 94.124L93.0334 95.9419L93.0023 94.5971L90.1807 95.7302L115.67 110.509L123.858 82.2058Z" fill="#121213"/>
<path d="M43.8253 78.1326L41.4197 80.2227L42.2443 80.5066L40.7207 80.8321L38.5324 82.7502L43.0543 83.6064L36.9062 84.1667L35.3421 85.5266L43.8681 86.7154L33.4111 87.214L32.066 88.3798L44.6782 89.8152L29.969 90.2082L28.7516 91.2697L45.4883 92.915L26.5596 93.1786L25.4226 94.176L46.2984 96.0149L23.1595 96.1453L22.0662 97.0933L47.1122 99.1238L19.7647 99.0992L18.7427 99.9869L49.2041 101.56L43.8253 78.1326Z" fill="#121213"/>
<path d="M133.677 150.147L134.479 146.888L133.91 142.991L132.127 145.998L133.53 140.408L133.038 137.043L130.565 141.843L132.593 133.955L132.158 130.97L129.011 137.684L131.654 127.524L131.258 124.821L127.453 133.538L130.719 121.103L130.348 118.622L125.899 129.38L129.784 114.681L129.443 112.379L124.346 125.221L128.839 108.263L128.526 106.109L122.787 121.075L127.908 101.851L127.607 99.808L121.233 116.917L126.973 95.4288L126.685 93.4978L119.674 112.771L126.032 89.0199L125.567 86.9375L117.911 112.949L135.642 157.099L134.596 148.792L133.677 150.147Z" fill="#121213"/>
<path d="M93.2205 102.006L114.424 114.879L95.8697 105.724L96.9737 107.285L116.175 118.948L99.5717 110.929L100.74 112.57L117.92 123.03L103.263 116.106L104.502 117.846L119.67 127.098L106.941 121.278L108.259 123.134L121.416 131.18L110.608 126.422L112.025 128.419L123.17 135.258L114.242 131.537L115.791 133.704L124.921 139.327L117.854 136.597L119.561 138.998L126.666 143.408L121.423 141.601L123.334 144.301L128.42 147.486L124.91 146.51L127.14 149.633L130.162 151.559L128.507 151.163L133.587 157.924L115.857 113.774L92.2826 100.304L93.2205 102.006Z" fill="#121213"/>
<path d="M89.8273 121.915L62.5474 109.86L123.295 155.399L89.8273 121.915Z" fill="#121213"/>
<path d="M106.636 146.659L103.329 144.181L103.497 144.654L106.636 146.659Z" fill="#121213"/>
<path d="M57.2609 84.1267L60.1486 84.5577L56.6522 86.6511L56.4905 87.331L58.2289 87.7782L55.969 89.4916L55.671 90.7035L56.3128 91.0078L55.3367 92.0891L54.7044 94.6866L66.7969 75.6313L58.9162 77.2903L58.7617 77.9356L63.9881 78.1166L58.0676 80.8018L58.0241 81.0101L62.0683 81.3371L57.359 83.7374L57.2609 84.1267Z" fill="#121213"/>
<path d="M23.2148 103.228L64.5126 121.064L50.396 104.634L48.2415 104.524L58.0243 116.077L44.2138 104.317L43.3129 104.266L50.5796 113.277L39.3601 104.061L38.3222 104.011L43.135 110.477L34.5101 103.814L33.2309 103.744L35.6904 107.677L29.6473 103.561L27.7742 103.465L28.2458 104.877L24.8467 103.357L24.8942 103.317L23.2148 103.228Z" fill="#121213"/>
<path d="M88.7881 118.166L85.5746 97.4106L55.9718 103.679L58.6102 104.835L85.2799 99.7134L61.7075 106.211L63.7316 107.105L85.7871 103.062L66.7832 108.446L68.8712 109.368L86.2996 106.398L71.8406 110.688L74.0146 111.639L86.8067 109.747L76.8651 112.902L79.1999 113.936L87.323 113.092L81.7999 115.077L84.6285 116.337L87.8264 116.432L86.4441 117.135L88.7881 118.166Z" fill="#121213"/>
<path d="M177.148 35.8219L157.284 54.8805L174.144 35.8936L172.768 35.9266L155.721 52.0723L169.795 35.9964L168.384 36.0221L154.162 49.2731L165.464 36.0919L163.995 36.1305L152.603 46.474L161.146 36.1929L159.593 36.2334L151.044 43.6749L156.863 36.3011L155.16 36.3381L149.482 40.8667L152.661 36.3982L150.559 36.4468L147.923 38.0676L148.732 36.4913L145.958 36.5554L157.553 58.0066L178.489 35.7817L177.148 35.8219Z" fill="#121213"/>
<path d="M54.2866 100.961L56.2814 100.542L55.5702 98.9294L54.2866 100.961Z" fill="#121213"/>
<path d="M51.1545 96.6211L55.8006 77.4281L46.6415 76.9601L51.1545 96.6211Z" fill="#121213"/>
<path d="M49.2745 58.2991L53.9965 71.7471L47.7893 59.8818L47.2674 60.4307L51.1681 71.9392L45.8114 61.9804L45.2549 62.5751L48.3305 72.1349L43.8389 64.0663L43.2295 64.714L45.5021 72.327L41.8847 66.1447L41.1932 66.8785L42.6646 72.5228L39.9451 68.2068L39.1222 69.0887L39.8362 72.7149L38.0402 70.2231L36.9126 71.4288L36.9987 72.9107L36.2594 72.1259L35.0989 73.3555L57.5195 74.3937L82.7288 68.9356L110.708 57.6995L132.699 44.2021L142.364 34.0217L148.154 27.9215L146.882 27.8703L146.92 29.0744L145.769 27.8188L144.634 27.7655L145.097 30.7398L142.955 27.6765L142.229 27.6391L143.27 32.396L140.312 27.5394L139.771 27.5127L141.452 34.0485L137.714 27.4059L137.282 27.3882L139.626 35.7047L135.137 27.2742L134.781 27.2583L137.802 37.3701L132.57 27.1389L132.266 27.1229L135.975 39.0263L130.002 27.0035L129.746 27.0002L134.158 40.6789L127.447 26.8737L127.222 26.8685L128.292 30.0867L128.4 30.4356L132.331 42.3351L129.125 45.9977L130.567 39.2366L124.475 48.4911L129.166 35.6953L129.098 35.5529L119.82 50.9753L127.447 32.1016L115.17 53.4686L125.849 28.8621L125.647 28.3069L121.248 34.2517L123.621 27.2224L122.741 27.4064L115.773 39.0486L120.211 27.9453L119.029 28.1972L110.298 43.8454L116.477 28.7343L115.313 28.9789L104.826 48.6514L112.752 29.5197L111.601 29.7698L99.3506 53.4483L109.04 30.3105L107.886 30.5515L93.8752 58.2452L105.315 31.0959L104.174 31.3423L88.3999 63.0421L101.6 31.8776L100.458 32.124L82.9136 67.8116L97.6069 33.1841L95.3058 34.1082L95.3839 35.1479L94.7214 34.3429L91.8815 35.4834L93.1506 40.2016L90.7948 35.9198L88.2745 36.9319L90.9173 45.2553L87.0692 37.416L84.6219 38.3988L88.6748 50.3127L83.3618 38.9048L80.9694 39.8656L86.4415 55.3664L79.6818 40.3827L77.2985 41.3398L84.2081 60.4202L75.9927 41.8642L73.6368 42.8104L81.9895 65.5104L80.7284 62.6342L78.4786 62.3924L79.8888 60.702L79.3132 59.3744L73.6697 61.4287L78.4278 57.3546L77.8853 56.1091L68.857 60.4559L76.9926 54.0711L76.4536 52.8347L64.0481 59.4922L75.5664 50.7839L75.0275 49.5475L59.2263 58.523L74.1274 47.4912L73.5959 46.2732L54.4137 57.5502L72.6922 44.2077L72.3585 43.4297L51.3734 56.4488L56.834 71.5513L49.7635 57.774L49.2745 58.2991Z" fill="#121213"/>
<path d="M142.224 100.873L141.207 148.195L153.588 73.2985L142.224 100.873Z" fill="#121213"/>
<path d="M30.4295 79.6315L33.7132 80.9956L28.9125 82.0328L28.4767 82.7168L30.9397 83.9121L27.0198 85.0303L26.5075 85.8405L28.1625 86.8195L25.1327 88.0151L24.4982 89.0228L25.3762 89.7306L23.251 90.987L21.7139 93.4176L40.9434 76.6605L32.5847 76.2316L32.3622 76.5754L36.4995 78.0845L30.8051 79.0353L30.4295 79.6315Z" fill="#121213"/>
<path d="M96.6809 112.049L97.7067 124.531L94.2221 108.593L92.5194 106.202L93.7743 120.469L90.013 102.68L89.2715 101.652L92.0997 119.943L127.58 155.428L125.251 152.164L125.164 152.952L124.195 150.669L121.324 146.637L121.241 148.886L119.676 144.329L117.296 140.99L117.321 144.83L115.359 138.28L113.217 135.269L113.402 140.773L111.102 132.301L109.107 129.497L109.469 136.711L106.869 126.355L104.976 123.701L105.55 132.654L102.644 120.428L100.835 117.878L101.626 128.588L98.4312 114.506L96.6809 112.049Z" fill="#121213"/>
<path d="M148.068 126.808L147.863 126.35L147.198 130.371L148.068 126.808Z" fill="#121213"/>
<path d="M137.324 145.577L138.131 147.745L137.57 147.27L138.145 151.185L139.218 101.021L128.61 85.8541L128.809 87.1951L138.336 102.573L129.427 91.4537L129.859 94.3768L138.315 108.223L130.466 98.555L130.899 101.562L138.289 113.864L131.497 105.638L131.953 108.753L138.268 119.514L132.53 112.699L133.004 115.966L138.234 125.159L133.556 119.742L134.059 123.188L138.212 130.809L134.579 126.754L135.114 130.462L138.187 136.45L135.59 133.707L136.197 137.832L138.162 142.091L136.596 140.567L137.324 145.577Z" fill="#121213"/>
<path d="M82.0027 72.4086L72.6022 74.4023L84.514 90.0953L82.0027 72.4086Z" fill="#121213"/>
<path d="M153.456 61.1147L150.992 60.4712L151.642 62.2464L153.456 61.1147Z" fill="#121213"/>
<path d="M69.1926 126.354L44.1254 115.531L100.836 146.53L69.1926 126.354Z" fill="#121213"/>
<path d="M124.203 74.4323L122.361 54.2924L113.634 59.7059L124.203 74.4323Z" fill="#121213"/>
<path d="M153.06 66.7033L152.788 65.4447L153.417 65.8495L154.062 64.2863L128.346 80.2337L140.39 97.4432L140.752 96.5765L130.522 79.8159L141.69 94.2911L142.473 92.386L133.697 77.7668L143.404 90.1353L144.198 88.2046L136.881 75.714L145.109 85.9832L145.928 84.0104L140.065 73.6613L146.821 81.8493L147.66 79.7942L143.245 71.5994L148.514 77.7227L149.411 75.5708L146.429 69.5466L150.205 73.64L151.175 71.2778L149.604 67.4975L151.858 69.625L153.06 66.7033Z" fill="#121213"/>
<path d="M176.252 42.5433L176.292 42.5377L174.888 45.9859L174.26 44.6584L172.964 46.027L171.448 53.1574L170.512 48.6342L169.627 49.5728L168.008 60.3288L167.01 52.3521L166.29 53.1187L164.568 67.5002L163.591 55.984L162.958 56.6519L161.128 74.6716L160.201 59.583L158.759 61.1162L159.918 82.7499L177.409 41.3046L176.252 42.5433Z" fill="#121213"/>
<path d="M160.197 89.8074L151.297 126.265L170.816 64.6528L160.197 89.8074Z" fill="#121213"/>
<path d="M156.455 74.3642L156.142 76.3034L156.16 76.2961L156.259 91.0916L154.81 84.3143L154.652 85.2684L154.67 85.261L154.622 98.2386L153.387 92.9448L153.17 94.2516L152.982 105.376L151.972 101.488L151.669 103.348L151.345 112.523L150.582 109.935L150.154 112.514L149.705 119.661L149.208 118.239L148.565 122.102L148.069 126.808L157.254 89.1862L156.455 74.3642Z" fill="#121213"/>
<path d="M127.483 77.2397L127.94 76.9504L127.659 56.2895L129.963 75.7032L130.717 75.2308L130.575 56.8154L132.712 73.9946L133.494 73.5111L133.486 57.3322L135.471 72.2823L136.276 71.7787L136.401 57.8581L138.212 70.5773L139.062 70.0553L139.326 58.3803L140.956 68.8814L141.854 68.3192L142.241 58.9063L143.687 67.1801L144.664 66.5758L145.153 59.423L146.394 65.4989L147.497 64.8122L148.077 59.9453L149.06 63.8452L150.428 62.9991L150.992 60.4712L125.321 53.74L127.483 77.2397Z" fill="#121213"/>
<path d="M84.9414 71.6206L85.0024 72.1157L92.633 70.5996L85.3679 74.7685L85.4324 75.1667L91.4923 74.2813L85.7978 77.7665L85.8679 78.2579L90.3553 77.9722L86.2276 80.7645L86.3162 81.4076L89.2183 81.6631L86.6428 83.726L86.7904 84.7272L88.0905 85.3503L87.045 86.523L87.4435 89.258L94.9039 67.6198L84.9414 71.6206Z" fill="#121213"/>
<path d="M122.128 79.22L91.7145 89.7267L118.831 77.6385L118.232 77.3597L93.0319 85.7195L114.909 75.6612L114.269 75.335L94.3255 81.6264L110.994 73.6493L110.299 73.2921L95.6118 77.515L107.105 71.6482L106.313 71.2345L96.8926 73.4164L103.283 69.6836L102.254 69.1533L98.1788 69.3051L99.7886 67.8739L98.1408 66.8602L89.1364 92.5754L122.43 79.205L122.128 79.22Z" fill="#121213"/>
<path d="M143.144 37.6529L136.038 45.2039L153.139 56.1516L143.144 37.6529Z" fill="#121213"/>
<path d="M99.5098 141.325L96.744 139.244L97.391 140.67L91.9095 135.629L89.9962 134.192L91.2695 136.65L84.5836 130.141L84.5927 130.137L83.1495 129.052L85.1443 132.62L77.298 124.7L77.3254 124.689L76.2059 123.855L79.0228 128.599L70.0124 119.259L70.0452 119.235L69.2093 118.606L72.8977 124.569L62.7268 113.818L62.7779 113.787L61.2139 112.613L70.8885 123.87L103.346 144.567L99.5098 141.325Z" fill="#121213"/>
<path d="M133.685 47.2639L127.395 51.1683L148.389 56.6817L146.534 55.4965L145.025 55.3816L145.28 54.696L144.265 54.0432L141.407 54.3742L142.365 52.8234L141.794 52.4587L137.793 53.376L139.596 51.051L139.268 50.8432L134.179 52.3778L136.894 49.3152L136.726 49.2131L130.565 51.3796L134.226 47.6085L133.685 47.2639Z" fill="#121213"/>
<path d="M119.771 73.402L118.16 73.2744L118.681 71.8777L118.114 71.0982L114.787 71.3951L116.735 69.1705L116.374 68.6685L111.422 69.5122L114.884 66.5947L114.611 66.2058L108.048 67.6328L113.057 64.0518L112.835 63.7378L104.674 65.7535L111.265 61.5691L110.975 61.1656L101.004 65.1702L121.367 75.6346L119.771 73.402Z" fill="#121213"/>
<path d="M55.6107 98.871L57.6701 100.25L59.243 99.9149L57.2647 96.4147L61.0405 99.5323L62.3211 99.262L59.0156 94.0148L64.3159 98.8426L65.4394 98.6035L60.761 91.6278L67.542 98.1621L68.5851 97.9341L62.5028 89.2317L70.7553 97.4761L71.7344 97.2737L64.2446 86.8355L73.9722 96.7992L74.8984 96.5969L65.9955 84.4357L77.1672 96.1206L78.066 95.9293L67.741 82.0487L80.3623 95.4419L81.2428 95.258L69.4827 79.6525L83.5609 94.7724L84.1948 94.6344L70.0826 76.0501L55.6107 98.871Z" fill="#121213"/>
<path d="M183.247 33.0004C183.226 32.9767 183.1 33.0061 183.08 32.9823C183.064 32.9678 182.989 32.966 182.972 32.9514C182.956 32.9368 182.916 32.9424 182.899 32.9278C182.887 32.9223 182.865 32.9205 182.852 32.915C182.839 32.9096 182.817 32.9078 182.813 32.8986C182.788 32.8877 182.762 32.8768 182.737 32.8659C182.711 32.8549 182.682 32.8349 182.66 32.8331C182.647 32.8276 182.643 32.8185 182.631 32.813L182.618 32.8076C182.605 32.8021 182.592 32.7966 182.579 32.7912C182.554 32.7802 182.545 32.7839 182.519 32.773C182.506 32.7675 182.493 32.762 182.493 32.762C182.481 32.7566 182.459 32.7548 182.446 32.7493C182.433 32.7439 182.42 32.7384 182.408 32.7329L151.865 25.1477L151.852 25.1422C151.83 25.1405 151.817 25.135 151.795 25.1332C151.748 25.1205 151.691 25.1114 151.638 25.1115C151.616 25.1097 151.591 25.0987 151.569 25.0969L151.547 25.0952L125.657 23.7639C125.648 23.7676 125.636 23.7621 125.617 23.7694C125.564 23.7695 125.515 23.7787 125.471 23.7751C125.418 23.7752 125.369 23.7844 125.319 23.7936C125.301 23.8009 125.288 23.7955 125.279 23.7991L99.699 29.2047C99.6496 29.2139 99.5398 29.0459 99.5033 29.0606C99.4576 29.0789 99.3532 28.8982 99.3075 28.9165L71.0821 40.2516C71.0456 40.2663 71.0861 40.4727 71.0404 40.4911C70.9948 40.5094 70.9949 40.6154 70.9529 40.6429L48.7574 54.4768C48.7392 54.4841 48.7447 54.5243 48.7356 54.528C48.6936 54.5554 48.6589 54.6012 48.6169 54.6287C48.5786 54.6652 48.5403 54.7018 48.502 54.7384C48.4928 54.7421 48.4782 54.7586 48.4691 54.7622L30.7007 73.6261L30.6953 73.6389C30.6715 73.6591 30.6606 73.6847 30.646 73.7011C30.6077 73.7377 30.5822 73.7798 30.5566 73.8219C30.542 73.8383 30.5366 73.8511 30.522 73.8676L30.5165 73.8804L13.7035 100.483C13.698 100.496 13.6926 100.509 13.6871 100.522C13.6816 100.535 13.667 100.551 13.6616 100.564C13.6561 100.577 13.6506 100.589 13.6506 100.589C13.6452 100.602 13.6397 100.615 13.6306 100.619C13.6251 100.632 13.6197 100.644 13.6142 100.657C13.6087 100.67 13.5996 100.674 13.6033 100.683C13.5978 100.696 13.5923 100.708 13.596 100.717C13.5851 100.743 13.5741 100.769 13.5632 100.794C13.5523 100.82 13.5505 100.842 13.5396 100.867C13.5341 100.88 13.5286 100.893 13.5286 100.893C13.5232 100.906 13.5214 100.928 13.525 100.937C13.5141 100.962 13.5123 100.984 13.5105 101.006C13.4996 101.032 13.5015 101.063 13.4997 101.085C13.4979 101.107 13.4869 101.132 13.4851 101.154C13.4888 101.163 13.4833 101.176 13.4779 101.189C13.4779 101.189 13.4815 101.198 13.4724 101.202C13.4761 101.211 13.4797 101.22 13.4743 101.233C13.4725 101.255 13.4707 101.277 13.4689 101.299C13.4708 101.33 13.469 101.352 13.4763 101.37C13.4745 101.392 13.4764 101.423 13.4837 101.441C13.491 101.459 13.4856 101.472 13.4892 101.481C13.4929 101.491 13.4911 101.512 13.4984 101.531C13.5058 101.549 13.5003 101.562 13.5076 101.58C13.5187 101.607 13.526 101.626 13.5278 101.657C13.5352 101.675 13.464 101.735 13.4713 101.754C13.4787 101.772 13.4002 101.814 13.4075 101.832L13.4442 101.924C13.4552 101.951 13.5447 101.936 13.5557 101.964C13.5667 101.991 13.6197 101.991 13.6307 102.018C13.638 102.037 13.6599 102.038 13.6673 102.057C13.6746 102.075 13.6874 102.08 13.7002 102.086C13.7075 102.104 13.7203 102.11 13.7368 102.124C13.7441 102.143 13.7643 102.166 13.7807 102.181C13.7917 102.208 13.8119 102.232 13.8283 102.247C13.832 102.256 13.8357 102.265 13.8485 102.27C13.8521 102.279 13.8521 102.279 13.8558 102.289C13.8595 102.298 13.8723 102.303 13.8759 102.312C13.8924 102.327 13.75 102.395 13.7664 102.409C13.7829 102.424 13.6661 102.503 13.6734 102.521C13.6807 102.539 13.8488 102.482 13.8561 102.501C13.8726 102.515 13.9584 102.491 13.9749 102.506C13.9913 102.52 14.0407 102.511 14.0571 102.526C14.0736 102.54 14.1083 102.548 14.1303 102.549C14.1339 102.559 14.1559 102.56 14.1687 102.566C14.1687 102.566 14.1815 102.571 14.1906 102.568C14.2071 102.582 14.229 102.584 14.2454 102.599C14.2454 102.599 14.313 102.582 14.3258 102.588L138.677 170.493L138.637 170.393L138.518 170.44L138.54 170.495C138.54 170.495 138.551 170.522 138.564 170.528L138.61 170.563L138.614 170.572C138.614 170.572 138.617 170.581 138.63 170.586L138.656 170.597C138.668 170.603 138.681 170.608 138.681 170.608C138.69 170.604 138.694 170.614 138.707 170.619C138.72 170.625 138.732 170.63 138.745 170.635C138.745 170.635 138.758 170.641 138.771 170.646C138.784 170.652 138.796 170.657 138.809 170.663L138.835 170.674C138.835 170.674 138.835 170.674 138.848 170.679C138.848 170.679 138.86 170.685 138.87 170.681C138.879 170.677 138.892 170.683 138.895 170.692C138.895 170.692 138.904 170.688 138.908 170.697C138.908 170.697 138.917 170.694 138.921 170.703C138.921 170.703 138.934 170.708 138.943 170.705C138.943 170.705 138.952 170.701 138.956 170.71C138.956 170.71 138.968 170.716 138.977 170.712C138.977 170.712 138.99 170.717 138.999 170.714C139.012 170.719 139.034 170.721 139.043 170.717C139.043 170.717 139.056 170.723 139.065 170.719C139.074 170.715 139.087 170.721 139.087 170.721C139.087 170.721 139.087 170.721 139.1 170.726C139.109 170.723 139.109 170.723 139.122 170.728C139.131 170.724 139.135 170.734 139.144 170.73C139.144 170.73 139.061 170.498 139.074 170.503L138.995 170.281C138.995 170.281 139.1 170.514 139.109 170.511C139.118 170.507 139.175 170.622 139.175 170.622C139.175 170.622 139.209 170.682 139.219 170.679L139.242 170.711L139.259 170.726C139.268 170.722 139.284 170.737 139.294 170.733C139.294 170.733 139.306 170.739 139.316 170.735C139.334 170.728 139.347 170.733 139.369 170.735C139.378 170.731 139.39 170.737 139.4 170.733C139.4 170.733 139.409 170.73 139.418 170.726C139.427 170.722 139.449 170.724 139.462 170.729C139.471 170.726 139.471 170.726 139.48 170.722C139.489 170.718 139.502 170.724 139.511 170.72C139.52 170.717 139.621 170.941 139.63 170.938L139.722 171.166L139.731 171.162C139.731 171.162 139.643 170.943 139.652 170.939C139.661 170.936 139.617 170.826 139.626 170.822L139.613 170.764C139.623 170.76 139.621 170.729 139.621 170.729C139.639 170.722 139.729 170.919 139.738 170.915C139.738 170.915 139.828 171.113 139.837 171.109L139.846 171.105C139.855 171.102 139.855 171.102 139.864 171.098L139.873 171.094C139.919 171.076 139.974 171.054 140.019 171.036L140.038 171.028L140.056 171.021C140.102 171.003 140.156 170.981 140.202 170.962C140.202 170.962 140.202 170.962 140.211 170.959C140.22 170.955 140.229 170.951 140.229 170.951L140.239 170.948C140.248 170.944 140.163 170.734 140.173 170.73C140.182 170.727 140.156 170.61 140.165 170.606C140.174 170.602 140.161 170.544 140.161 170.544C140.161 170.544 140.159 170.513 140.169 170.509C140.169 170.509 140.262 170.716 140.271 170.712L140.356 170.922L140.374 170.915C140.374 170.915 140.282 170.686 140.291 170.683C140.3 170.679 140.262 170.557 140.271 170.553C140.28 170.549 140.264 170.482 140.273 170.478C140.282 170.474 140.28 170.443 140.276 170.434C140.285 170.43 140.287 170.409 140.293 170.396C140.302 170.392 140.307 170.379 140.307 170.379C140.316 170.376 140.322 170.363 140.327 170.35C140.342 170.334 140.347 170.321 140.366 170.313C140.375 170.31 140.384 170.306 140.38 170.297C140.389 170.293 140.395 170.28 140.395 170.28C140.395 170.28 140.404 170.277 140.413 170.273C140.413 170.273 140.422 170.27 140.419 170.26C140.428 170.257 140.428 170.257 140.433 170.244C140.442 170.24 140.442 170.24 140.448 170.227C140.457 170.224 140.453 170.215 140.462 170.211C140.471 170.207 140.468 170.198 140.477 170.195C140.477 170.195 140.486 170.191 140.492 170.178C140.492 170.178 140.501 170.174 140.497 170.165C140.506 170.162 140.502 170.152 140.512 170.149C140.512 170.149 140.521 170.145 140.517 170.136C140.526 170.132 140.532 170.12 140.532 170.12L140.537 170.107C140.552 170.09 140.557 170.077 140.566 170.074C140.575 170.07 140.572 170.061 140.581 170.057C140.581 170.057 140.517 169.871 140.522 169.858C140.522 169.858 140.449 169.676 140.458 169.672C140.458 169.672 140.537 169.842 140.542 169.829C140.542 169.829 140.575 169.911 140.584 169.907L140.603 169.953C140.603 169.953 140.619 169.968 140.625 169.955C140.634 169.951 140.634 169.951 140.643 169.948C140.652 169.944 140.652 169.944 140.657 169.931L140.667 169.927C140.676 169.924 140.672 169.915 140.681 169.911C140.687 169.898 140.692 169.885 140.698 169.873C140.694 169.863 140.703 169.86 140.712 169.856C140.718 169.843 140.723 169.831 140.729 169.818C140.725 169.809 140.734 169.805 140.74 169.792C140.745 169.779 140.75 169.767 140.747 169.757C140.747 169.757 140.756 169.754 140.752 169.745C140.752 169.745 140.758 169.732 140.763 169.719C140.765 169.697 140.77 169.684 140.776 169.671L140.781 169.659L183.563 34.6336C183.563 34.6336 183.563 34.6336 183.559 34.6244C183.57 34.5988 183.576 34.586 183.578 34.5641C183.578 34.5641 183.583 34.5513 183.589 34.5385C183.594 34.5257 183.59 34.5166 183.596 34.5038C183.598 34.4819 183.603 34.4691 183.605 34.4471C183.61 34.4343 183.616 34.4215 183.612 34.4124C183.614 34.3905 183.619 34.3777 183.621 34.3557C183.623 34.3338 183.625 34.3119 183.627 34.2899C183.628 34.268 183.627 34.237 183.628 34.215C183.63 34.1931 183.636 34.1803 183.628 34.162C183.628 34.162 183.625 34.1529 183.621 34.1438C183.614 34.1255 183.619 34.1127 183.612 34.0944C183.61 34.0634 183.608 34.0323 183.602 33.9921C183.604 33.9702 183.593 33.9428 183.595 33.9209C183.588 33.9026 183.593 33.8898 183.586 33.8716C183.582 33.8624 183.588 33.8496 183.588 33.8496C183.58 33.8314 183.577 33.8222 183.569 33.804C183.558 33.7766 183.693 33.6905 183.679 33.654C183.671 33.6357 183.797 33.5533 183.786 33.5259L183.768 33.4803C183.764 33.4711 183.624 33.517 183.62 33.5079C183.613 33.4896 183.536 33.5098 183.529 33.4915C183.518 33.4642 183.47 33.4514 183.45 33.4277C183.439 33.4003 183.404 33.393 183.393 33.3656C183.386 33.3474 183.364 33.3456 183.357 33.3273C183.353 33.3182 183.349 33.3091 183.337 33.3036C183.329 33.2853 183.316 33.2799 183.304 33.2744C183.284 33.2507 183.263 33.2269 183.252 33.1995C183.236 33.185 183.216 33.1612 183.199 33.1466C183.183 33.132 183.371 33.0459 183.364 33.0276C183.36 33.0185 183.548 32.9324 183.544 32.9232C183.464 32.9343 183.25 33.0095 183.247 33.0004ZM32.3621 76.5749L32.5846 76.2311L40.9433 76.66L21.7138 93.4172L23.2509 90.9866L25.3761 89.7301L24.4889 89.026L25.1235 88.0183L28.1533 86.8227L26.5074 85.8401L27.0198 85.0299L30.9396 83.9117L28.4803 82.7255L28.916 82.0415L33.7168 81.0043L30.4239 79.6438L30.8087 79.0439L36.5031 78.0932L32.3621 76.5749ZM51.3732 56.4485L72.3492 43.4331L72.6919 44.2074L54.4135 57.5499L73.592 46.2637L74.1272 47.4909L59.2224 58.5136L75.0181 49.5509L75.5534 50.7781L64.0351 59.4864L76.4534 52.8344L76.9923 54.0707L68.8568 60.4555L77.885 56.1088L78.4276 57.3542L73.6694 61.4284L79.3075 59.3868L79.8831 60.7145L78.4821 62.4012L80.7355 62.6521L81.9801 65.5138L73.6274 42.8137L75.9834 41.8676L84.1988 60.4235L77.2983 41.3395L79.6725 40.386L86.4413 55.3661L80.9691 39.8653L83.3707 38.9008L88.6837 50.3087L84.6309 38.3948L87.069 37.4156L90.9171 45.255L88.2743 36.9316L90.7946 35.9195L93.1504 40.2012L91.8904 35.4794L94.7211 34.3426L95.3837 35.1475L95.3056 34.1079L97.5976 33.1874L82.9043 67.8149L100.45 32.1054L101.587 31.8718L88.3906 63.0454L104.17 31.3328L105.315 31.0955L93.875 58.2449L107.894 30.5475L109.04 30.3102L99.3504 53.448L111.601 29.7694L112.755 29.5285L104.826 48.6511L115.317 28.9877L116.48 28.7431L110.301 43.8542L119.032 28.206L120.214 27.9541L115.776 39.0574L122.744 27.4152L123.625 27.2312L121.252 34.2605L125.655 28.3248L125.856 28.8801L115.177 53.4866L127.454 32.1195L119.827 50.9932L129.105 35.5708L129.173 35.7133L124.482 48.509L130.578 39.2636L129.136 46.0248L132.342 42.3621L128.411 30.4626L128.294 30.1174L127.23 26.8864L127.458 26.9007L134.169 40.7059L129.762 27.0145L130.022 27.0269L135.992 39.0406L132.282 27.1371L132.577 27.1568L137.819 37.3843L134.797 27.2726L135.144 27.2922L139.636 35.7318L137.29 27.4062L137.712 27.4275L141.45 34.0701L139.769 27.5343L140.31 27.561L143.277 32.4139L142.236 27.657L142.962 27.6944L145.104 30.7577L144.641 27.7835L145.78 27.8459L146.931 29.1015L146.906 27.9028L148.185 27.9723L142.406 34.0999L132.71 44.2291L110.718 57.7265L82.7395 68.9627L57.5303 74.4207L35.084 73.3186L36.2555 72.1165L37.0021 72.9194L36.9197 71.4468L38.051 70.2501L39.8379 72.7456L39.1239 69.1194L39.9504 68.2466L42.6699 72.5626L41.1985 66.9183L41.89 66.1846L45.5075 72.3669L43.2348 64.7538L43.8442 64.1061L48.3358 72.1748L45.2602 62.6149L45.8167 62.0203L51.1734 71.979L47.2727 60.4706L47.7909 59.9125L53.9981 71.7778L49.2671 58.3335L49.7652 57.8048L56.8265 71.5857L51.3732 56.4485ZM155.181 29.0755L155.852 29.2409L154.413 32.5229L158.621 29.9315L159.387 30.1223L158.43 32.7019L162.061 30.7874L162.97 31.0164L162.45 32.8901L165.502 31.6433L166.631 31.9213L166.476 33.0654L147.032 33.5252L151.975 28.2741L152.342 28.3704L150.396 32.3438L155.181 29.0755ZM141.207 148.195L142.224 100.873L153.588 73.2984L141.207 148.195ZM148.068 126.808L147.198 130.37L147.863 126.349L148.068 126.808ZM136.197 137.832L135.595 133.694L138.192 136.436L135.12 130.449L134.575 126.744L138.208 130.799L134.059 123.187L133.555 119.741L138.242 125.155L133.013 115.961L132.542 112.704L138.277 119.51L131.965 108.758L131.506 105.634L138.298 113.86L130.908 101.558L130.471 98.5414L138.32 108.21L129.855 94.3669L129.432 91.4401L138.341 102.56L128.805 87.1852L128.612 85.8315L139.22 100.998L138.141 151.175L137.571 147.248L138.133 147.722L137.317 145.558L136.584 140.539L138.154 142.072L136.197 137.832ZM100.835 117.877L102.653 120.423L105.559 132.649L104.985 123.696L106.878 126.351L109.478 136.706L109.116 129.492L111.111 132.296L113.402 140.772L113.226 135.265L115.368 138.275L117.321 144.829L117.296 140.989L119.68 144.337L121.245 148.894L121.318 146.649L124.189 150.681L125.168 152.96L125.255 152.173L127.587 155.446L92.1032 119.952L89.275 101.661L90.011 102.701L93.7814 120.487L92.5174 106.223L94.2201 108.614L97.7047 124.552L96.6789 112.07L98.4292 114.527L101.624 128.609L100.835 117.877ZM62.5474 109.86L89.8273 121.915L123.295 155.399L62.5474 109.86ZM106.636 146.66L103.501 144.663L103.329 144.181L106.636 146.66ZM28.2457 104.876L27.7833 103.461L29.6564 103.557L35.6995 107.673L33.24 103.74L34.5192 103.81L43.1441 110.473L38.3312 104.007L39.3692 104.057L50.5887 113.273L43.3128 104.265L44.2229 104.314L58.0333 116.073L48.2505 104.52L50.4051 104.63L64.5216 121.06L23.2275 103.233L24.9069 103.322L24.8595 103.363L28.2457 104.876ZM58.0236 81.0093L58.0762 80.7973L63.9967 78.1121L58.7703 77.9311L58.9284 77.295L66.8091 75.6359L54.7166 94.6912L55.349 92.0937L56.3214 91.0033L55.6888 90.6954L55.9777 89.4871L58.2412 87.7828L56.4991 87.3265L56.6608 86.6466L60.1572 84.5532L57.2695 84.1222L57.3676 83.7329L62.077 81.3326L58.0236 81.0093ZM84.6282 116.337L81.7942 115.089L87.3136 113.095L79.1906 113.939L76.8557 112.905L86.8065 109.746L74.0052 111.642L71.8367 110.679L86.2994 106.397L68.871 109.367L66.7829 108.445L85.7831 103.052L63.7277 107.095L61.7036 106.201L85.276 99.7035L58.6063 104.826L55.9733 103.656L85.5798 97.3971L88.7933 118.153L86.4456 117.112L87.8279 116.409L84.6282 116.337ZM54.2867 100.961L55.5703 98.9293L56.2779 100.533L54.2867 100.961ZM84.1946 94.6342L83.5699 94.7685L69.4917 79.6486L81.2517 95.2541L80.3803 95.4344L67.7553 82.032L78.0841 95.9218L77.1853 96.113L66.0136 84.4282L74.9164 96.5894L73.9775 96.7862L64.259 86.8188L71.7488 97.2571L70.7696 97.4594L62.5172 89.215L68.5903 97.9211L67.5527 98.1363L60.7626 91.6057L65.4409 98.5814L64.3175 98.8205L59.0208 94.0019L62.3263 99.249L61.0549 99.5157L57.279 96.398L59.2573 99.8982L57.6845 100.233L55.6287 98.8635L70.1007 76.0425L84.1946 94.6342ZM72.6018 74.4018L82.0061 72.4173L84.5173 90.1039L72.6018 74.4018ZM51.1542 96.6202L46.6412 76.9592L55.8003 77.4272L51.1542 96.6202ZM69.1922 126.353L100.836 146.529L44.125 115.53L69.1922 126.353ZM70.8881 123.869L61.2099 112.603L62.7738 113.777L62.7264 113.818L72.8973 124.568L69.2089 118.605L70.0449 119.235L70.012 119.258L79.0188 128.589L76.2019 123.846L77.3122 124.683L77.2885 124.703L85.1348 132.623L83.14 129.055L84.5796 130.131L84.5704 130.135L91.2563 136.643L89.9921 134.182L91.9055 135.619L97.3815 140.673L96.7345 139.247L99.4966 141.319L103.333 144.561L70.8881 123.869ZM87.4435 89.2575L87.0487 86.5317L88.0941 85.359L86.7904 84.7267L86.652 83.7219L89.2275 81.659L86.3253 81.4035L86.2368 80.7604L90.3645 77.9681L85.877 78.2538L85.8105 77.7715L91.5051 74.2863L85.4415 75.1626L85.3861 74.7607L92.6384 70.5863L85.0115 72.1116L84.9506 71.6165L94.9221 67.612L87.4435 89.2575ZM98.1408 66.8602L99.7446 67.7643L98.1532 69.2412L102.239 69.1168L103.276 69.6654L96.8853 73.3982L106.309 71.2254L107.098 71.63L95.6082 77.5059L110.296 73.2829L110.991 73.6401L94.3219 81.6173L114.269 75.335L114.909 75.6612L93.032 85.7195L118.239 77.378L118.841 77.6878L91.7457 89.8309L122.125 79.2109L122.426 79.1959L89.1328 92.5663L98.1408 66.8602ZM101.004 65.1697L110.975 61.1652L111.27 61.5558L104.687 65.7585L112.844 63.7336L113.066 64.0476L108.053 67.6196L114.617 66.1926L114.889 66.5814L111.427 69.4989L116.38 68.6552L116.744 69.1663L114.796 71.391L118.123 71.0941L118.685 71.8863L118.164 73.2831L119.774 73.4106L121.371 75.6432L101.004 65.1697ZM136.726 49.2121L136.898 49.3234L134.183 52.386L139.281 50.8477L139.608 51.0556L137.806 53.3806L141.806 52.4632L142.373 52.8188L141.416 54.3697L144.274 54.0386L145.289 54.6914L145.034 55.377L146.543 55.4919L148.401 56.6862L127.398 51.1765L133.688 47.2721L134.229 47.6167L130.565 51.3786L136.726 49.2121ZM136.039 45.204L143.147 37.6621L153.143 56.1607L136.039 45.204ZM150.992 60.4707L153.46 61.1233L151.645 62.255L150.992 60.4707L150.437 62.9949L149.069 63.841L148.077 59.9448L147.506 64.808L146.403 65.4947L145.162 59.4188L144.673 66.5716L143.696 67.1759L142.246 58.8929L141.859 68.3059L140.961 68.8681L139.331 58.367L139.077 70.0383L138.23 70.5694L136.42 57.8502L136.294 71.7708L135.489 72.2744L133.513 57.3206L133.517 73.4904L132.736 73.9739L130.589 56.7984L130.731 75.2137L129.977 75.6862L127.674 56.2725L127.967 76.9389L127.511 77.2282L125.348 53.7284L150.992 60.4707ZM151.175 71.2771L150.201 73.6301L146.429 69.5458L149.407 75.5609L148.514 77.722L143.245 71.5986L147.66 79.7935L146.817 81.8394L140.061 73.6514L145.925 84.0005L145.109 85.9824L136.877 75.7042L144.194 88.1947L143.4 90.1254L133.693 77.7569L142.47 92.3761L141.683 94.2721L130.505 79.8006L140.736 96.5612L140.377 97.4369L128.333 80.2275L154.045 64.2709L153.401 65.8341L152.781 65.4257L153.053 66.6843L151.851 69.606L149.597 67.4785L151.175 71.2771ZM124.203 74.4315L113.634 59.7052L122.361 54.2917L124.203 74.4315ZM148.564 122.102L149.199 118.241L149.705 119.661L150.145 112.517L150.572 109.938L151.336 112.526L151.66 103.351L151.966 101.5L152.976 105.388L153.164 94.2636L153.378 92.9477L154.604 98.2452L154.655 85.2767L154.646 85.2804L154.804 84.3263L156.244 91.1073L156.154 76.3081L156.123 76.31L156.446 74.3671L157.248 89.1982L148.063 126.82L148.564 122.102ZM160.196 89.8063L170.815 64.6517L151.296 126.264L160.196 89.8063ZM159.918 82.7497L158.75 61.1197L160.201 59.5827L161.122 74.6841L162.961 56.6607L163.585 55.9966L164.562 67.5127L166.289 53.1185L167.01 52.3519L168.008 60.3285L169.627 49.5726L170.512 48.634L171.448 53.1571L172.964 46.0267L174.256 44.649L174.894 45.9729L176.289 42.5284L176.248 42.5339L177.414 41.2916L159.918 82.7497ZM157.553 58.0058L145.967 36.5509L148.732 36.4904L147.923 38.0667L150.559 36.4459L152.66 36.3973L149.482 40.8658L155.16 36.3372L156.872 36.2965L151.053 43.6704L159.602 36.2288L161.155 36.1883L152.612 46.4695L164.004 36.1259L165.473 36.0874L154.171 49.2686L168.393 36.0176L169.809 35.9791L155.73 52.0677L172.782 35.9092L174.158 35.8762L157.289 54.8668L177.162 35.8045L178.498 35.7771L157.553 58.0058ZM166.485 33.0618L168.938 32.4901L170.834 32.959L166.485 33.0618ZM19.7646 99.0991L47.112 99.1237L22.0661 97.0932L23.1593 96.1452L46.3019 96.0239L25.4133 94.1796L26.5595 93.1785L45.4882 92.9149L28.7515 91.2696L29.9688 90.2081L44.6689 89.8188L32.0567 88.3834L33.3927 87.2212L43.8497 86.7226L35.3237 85.5338L36.8787 84.1776L43.0305 83.6265L38.5049 82.7611L40.6969 80.8522L42.2204 80.5266L41.405 80.239L43.8105 78.149L49.1894 101.577L18.7279 100.003L19.7646 99.0991ZM133.588 157.924L128.502 151.176L130.266 151.528L127.177 149.619L124.932 146.512L128.42 147.487L123.334 144.301L121.414 141.605L126.657 143.412L119.552 139.002L117.849 136.611L124.915 139.34L115.782 133.708L114.233 131.541L123.152 135.266L112.007 128.427L110.59 126.43L121.407 131.184L108.25 123.138L106.932 121.282L119.661 127.102L104.493 117.85L103.254 116.11L117.907 123.024L100.727 112.565L99.559 110.924L116.162 118.943L96.9702 107.276L95.8571 105.719L114.408 114.865L93.2078 102.001L92.2699 100.299L115.853 113.765L133.588 157.924ZM90.1805 95.7297L93.0022 94.5966L93.0332 95.9414L94.1801 94.1235L96.0886 93.3571L95.6611 97.4417L97.8966 92.631L99.3577 92.0442L98.2854 98.9328L101.421 91.2155L102.7 90.7021L100.91 100.424L104.882 89.8256L106.06 89.3526L103.537 101.924L108.334 88.4394L109.448 87.9921L106.162 103.415L111.776 87.0569L112.845 86.6279L108.795 104.903L115.219 85.6744L116.251 85.26L111.419 106.394L118.643 84.2992L119.648 83.8959L114.047 107.894L122.077 82.9204L123.857 82.2053L115.67 110.509L90.1805 95.7297ZM117.912 112.949L125.567 86.9375L125.959 89.0493L119.634 112.776L126.667 93.5051L126.955 95.4362L121.224 116.92L127.607 99.808L127.904 101.841L122.783 121.066L128.522 106.1L128.836 108.254L124.333 125.216L129.436 112.361L129.768 114.667L125.883 129.365L130.341 118.604L130.703 121.088L127.445 133.52L131.254 124.811L131.651 127.515L129.008 137.675L132.155 130.961L132.59 133.946L130.571 141.83L133.044 137.03L133.536 140.395L132.124 145.989L133.907 142.982L134.475 146.879L133.677 150.147L134.593 148.783L135.639 157.09L117.912 112.949Z" fill="white"/>
</g>
</svg>
