<svg width="84" height="80" viewBox="0 0 84 80" fill="none" xmlns="http://www.w3.org/2000/svg">
<path d="M2.46998 28.6398L2.46883 28.6194L2.46709 28.5989C2.41836 28.0263 2.39347 27.4466 2.39347 26.8608C2.39347 15.6831 11.4709 6.61759 22.6735 6.61759C28.7313 6.61759 34.1669 9.26699 37.8847 13.4721L38.9404 14.6661L39.9961 13.4721C43.7139 9.26699 49.1495 6.61759 55.2073 6.61759C66.4099 6.61759 75.4873 15.6831 75.4873 26.8608C75.4873 27.4266 75.4641 27.9867 75.4186 28.5402L75.417 28.5602L75.4159 28.5802C74.9142 37.9448 72.5807 44.5112 67.0593 50.9102C61.5549 57.2896 52.8484 63.5476 39.3834 72.1106C25.6052 63.5526 16.6865 57.2952 11.0436 50.9187C5.3861 44.5258 2.99112 37.9733 2.46998 28.6398Z" fill="#121213" stroke="white" stroke-width="2.81818"/>
<path d="M72.851 10.1647C72.7395 10.4903 72.6183 10.8412 72.4879 11.2147C71.6944 13.487 70.5621 16.5897 69.2056 19.9147C67.8479 23.243 66.2733 26.7752 64.5971 29.9133C62.9084 33.0748 61.1673 35.7389 59.5003 37.4058L19.454 77.4522L5.04621 64.0789L45.6098 23.5153C47.2768 21.8484 49.9409 20.1072 53.1024 18.4186C56.2405 16.7424 59.7727 15.1678 63.1009 13.81C66.426 12.4536 69.5287 11.3212 71.8009 10.5278C72.1744 10.3974 72.5254 10.2762 72.851 10.1647Z" fill="#121213" stroke="white" stroke-width="2.81818"/>
<mask id="path-3-inside-1_6_25112" fill="white">
<path d="M46.3685 27.8666C50.0411 24.097 54.5785 21.336 59.563 19.8378L63.4284 18.676L62.0199 22.7345C60.3846 27.4467 57.7484 31.7265 54.3023 35.2636L51.7519 37.8814C49.6614 40.027 46.2721 40.027 44.1816 37.8814C42.0912 35.7357 42.0912 32.2569 44.1816 30.1112L46.3685 27.8666Z"/>
</mask>
<path d="M46.3685 27.8666C50.0411 24.097 54.5785 21.336 59.563 19.8378L63.4284 18.676L62.0199 22.7345C60.3846 27.4467 57.7484 31.7265 54.3023 35.2636L51.7519 37.8814C49.6614 40.027 46.2721 40.027 44.1816 37.8814C42.0912 35.7357 42.0912 32.2569 44.1816 30.1112L46.3685 27.8666Z" fill="#121213"/>
<path d="M63.4284 18.676L66.0908 19.6L67.899 14.3896L62.6172 15.9771L63.4284 18.676ZM44.1816 30.1112L46.2002 32.0778V32.0778L44.1816 30.1112ZM62.0199 22.7345L59.3575 21.8106V21.8106L62.0199 22.7345ZM46.3685 27.8666L44.35 25.8999H44.35L46.3685 27.8666ZM59.563 19.8378L58.7518 17.1389L59.563 19.8378ZM52.2837 33.297L49.7333 35.9147L53.7704 39.848L56.3209 37.2302L52.2837 33.297ZM46.2002 32.0778L48.3871 29.8332L44.35 25.8999L42.1631 28.1446L46.2002 32.0778ZM60.3742 22.5367L64.2396 21.3749L62.6172 15.9771L58.7518 17.1389L60.3742 22.5367ZM60.7659 17.7521L59.3575 21.8106L64.6824 23.6585L66.0908 19.6L60.7659 17.7521ZM46.2002 35.9147C45.1759 34.8634 45.1759 33.1292 46.2002 32.0778L42.1631 28.1446C39.0064 31.3846 39.0064 36.608 42.1631 39.848L46.2002 35.9147ZM49.7333 35.9147C48.7491 36.925 47.1844 36.925 46.2002 35.9147L42.1631 39.848C45.3597 43.1291 50.5738 43.1291 53.7704 39.848L49.7333 35.9147ZM56.3209 37.2302C60.0584 33.3939 62.9129 28.7572 64.6824 23.6585L59.3575 21.8106C57.8564 26.1363 55.4384 30.0591 52.2837 33.297L56.3209 37.2302ZM48.3871 29.8332C51.7298 26.4022 55.8531 23.8957 60.3742 22.5367L58.7518 17.1389C53.3039 18.7764 48.3524 21.7917 44.35 25.8999L48.3871 29.8332Z" fill="white" mask="url(#path-3-inside-1_6_25112)"/>
</svg>
