<svg width="72" height="72" viewBox="0 0 72 72" fill="none" xmlns="http://www.w3.org/2000/svg">
<rect width="72" height="72" fill="#F8133C"/>
<path opacity="0.35" d="M50.9253 53.0574H21.0748C17.5417 53.0574 14.6782 50.1939 14.6782 46.6609V25.3391C14.6782 21.8061 17.5417 18.9426 21.0748 18.9426H50.9253C54.4583 18.9426 57.3218 21.8061 57.3218 25.3391V46.6609C57.3218 50.1939 54.4583 53.0574 50.9253 53.0574Z" fill="white"/>
<path d="M48.793 40.2643C47.5116 40.2643 46.3772 40.84 45.5947 41.7355C46.2493 42.4839 46.6608 43.4541 46.6608 44.5287C46.6608 45.6033 46.2493 46.5713 45.5947 47.3219C46.3772 48.2174 47.5116 48.7931 48.793 48.7931C51.1491 48.7931 53.0574 46.8848 53.0574 44.5287C53.0574 42.1726 51.1491 40.2643 48.793 40.2643Z" fill="white"/>
<path d="M45.595 41.7355C44.8124 40.84 43.6781 40.2643 42.3967 40.2643C40.0406 40.2643 38.1323 42.1726 38.1323 44.5287C38.1323 46.8848 40.0406 48.7931 42.3967 48.7931C43.6781 48.7931 44.8124 48.2174 45.595 47.3219C44.9404 46.5713 44.5289 45.6033 44.5289 44.5287C44.5289 43.4541 44.9404 42.4839 45.595 41.7355Z" fill="white"/>
<path d="M57.3218 27.4713H14.6782V33.8678H57.3218V27.4713Z" fill="white"/>
</svg>
