<svg width="54" height="80" viewBox="0 0 54 80" fill="none" xmlns="http://www.w3.org/2000/svg">
<line x1="38.2348" y1="55.1999" x2="26.8512" y2="35.483" stroke="white" stroke-width="2.81818"/>
<path d="M32.9277 40.3623L28.7491 28.5029L21.3604 32.7687L29.5418 42.3172L32.9277 40.3623Z" fill="#121213" stroke="white" stroke-width="2.81818"/>
<rect x="8.1021" y="10.3795" width="9.10744" height="18.8648" transform="rotate(-30 8.1021 10.3795)" fill="#121213" stroke="white" stroke-width="2.81818"/>
<rect x="14.355" y="25.5473" width="13.444" height="9.10744" transform="rotate(-30 14.355 25.5473)" fill="#121213" stroke="white" stroke-width="2.81818"/>
<path d="M14.5949 2.87538L16.8906 4.55516L6.55141 10.5245L6.2445 7.69651L14.5949 2.87538Z" fill="#121213" stroke="white" stroke-width="2.81818"/>
<path d="M52.0845 71.6884C52.0845 72.1816 51.7636 72.9083 50.5722 73.792C49.4075 74.6559 47.6323 75.4933 45.312 76.2212C40.6882 77.6719 34.2136 78.5911 27 78.5911C19.7864 78.5911 13.3118 77.6719 8.68795 76.2212C6.36768 75.4933 4.59247 74.6559 3.4278 73.792C2.23636 72.9083 1.91544 72.1816 1.91544 71.6884C1.91544 71.1953 2.23636 70.4686 3.4278 69.5849C4.59247 68.721 6.36768 67.8836 8.68795 67.1556C13.3118 65.705 19.7864 64.7858 27 64.7858C34.2136 64.7858 40.6882 65.705 45.312 67.1556C47.6323 67.8836 49.4075 68.721 50.5722 69.5849C51.7636 70.4686 52.0845 71.1953 52.0845 71.6884Z" fill="#121213" stroke="white" stroke-width="2.81818"/>
<path d="M41.3796 66.6742C41.3796 67.9916 40.3117 69.0596 38.9942 69.0596C37.6768 69.0596 36.6088 67.9916 36.6088 66.6742C36.6088 66.4151 36.7629 65.7222 37.129 64.6276C37.4704 63.6065 37.9315 62.4172 38.4007 61.2733C38.6014 60.7838 38.8024 60.3058 38.9942 59.8567C39.1861 60.3058 39.387 60.7838 39.5878 61.2733C40.057 62.4172 40.518 63.6065 40.8595 64.6276C41.2255 65.7222 41.3796 66.4151 41.3796 66.6742Z" fill="#121213" stroke="white" stroke-width="2.81818"/>
<path d="M11.6836 51.7131L11.6825 51.6929L11.6808 51.6727C11.6752 51.6054 11.6723 51.5369 11.6723 51.4674C11.6723 50.1483 12.7229 49.1105 13.9803 49.1105C14.6626 49.1105 15.2784 49.4116 15.7056 49.9019L16.7681 51.1216L17.8305 49.9019C18.2577 49.4116 18.8735 49.1105 19.5559 49.1105C20.8132 49.1105 21.8639 50.1483 21.8639 51.4674C21.8639 51.5345 21.8611 51.6007 21.8559 51.6658L21.8543 51.6855L21.8532 51.7053C21.778 53.1298 21.4477 54.014 20.6964 54.8977C19.9547 55.7701 18.7749 56.6771 16.8365 57.9522C14.8456 56.6737 13.6317 55.7635 12.8683 54.8881C12.0976 54.0043 11.7613 53.1251 11.6836 51.7131Z" fill="#121213" stroke="white" stroke-width="2.81818"/>
</svg>
