<svg width="58" height="81" viewBox="0 0 58 81" fill="none" xmlns="http://www.w3.org/2000/svg">
<line x1="41.1155" y1="58.1616" x2="29.0854" y2="37.3248" stroke="white" stroke-width="2"/>
<path d="M35.6805 42.9457L30.9338 29.474L22.1053 34.5712L31.3988 45.4178L35.6805 42.9457Z" fill="#121213" stroke="white" stroke-width="2"/>
<rect x="8.17914" y="10.8602" width="10.603" height="20.9145" transform="rotate(-30 8.17914 10.8602)" fill="#121213" stroke="white" stroke-width="2"/>
<rect x="14.7869" y="26.8895" width="15.1859" height="10.603" transform="rotate(-30 14.7869 26.8895)" fill="#121213" stroke="white" stroke-width="2"/>
<path d="M15.7399 2.5262L19.0288 4.9328L6.80263 11.9916L6.36292 7.94L15.7399 2.5262Z" fill="#121213" stroke="white" stroke-width="2"/>
<path d="M56.1819 73.2523C56.1819 73.6057 55.8561 74.2457 54.4707 75.0382C53.1619 75.7868 51.2016 76.4944 48.6925 77.1015C43.6898 78.3118 36.727 79.0704 29.0001 79.0704C21.2731 79.0704 14.3103 78.3118 9.30765 77.1015C6.7985 76.4944 4.8382 75.7868 3.52942 75.0382C2.14404 74.2457 1.81824 73.6057 1.81824 73.2523C1.81824 72.8989 2.14404 72.2588 3.52942 71.4663C4.8382 70.7177 6.7985 70.0101 9.30765 69.403C14.3103 68.1927 21.2731 67.4341 29.0001 67.4341C36.727 67.4341 43.6898 68.1927 48.6925 69.403C51.2016 70.0101 53.1619 70.7177 54.4707 71.4663C55.8561 72.2588 56.1819 72.8989 56.1819 73.2523Z" fill="#121213" stroke="white" stroke-width="2"/>
<path d="M44.5019 70.5323C44.5019 72.1947 43.1542 73.5424 41.4919 73.5424C39.8295 73.5424 38.4818 72.1947 38.4818 70.5323C38.4818 70.1666 38.6735 69.3605 39.0568 68.2145C39.4226 67.1205 39.9144 65.8523 40.412 64.6391C40.7898 63.718 41.1681 62.8355 41.4919 62.0954C41.8156 62.8355 42.1939 63.718 42.5717 64.6391C43.0693 65.8523 43.5611 67.1205 43.9269 68.2145C44.3102 69.3605 44.5019 70.1666 44.5019 70.5323Z" fill="#121213" stroke="white" stroke-width="2"/>
<path d="M12.1424 54.7469L12.1416 54.7325L12.1404 54.7182C12.1333 54.6334 12.1296 54.5475 12.1296 54.4604C12.1296 52.8022 13.4529 51.4805 15.0578 51.4805C15.9275 51.4805 16.7104 51.8653 17.25 52.4847L18.004 53.3502L18.758 52.4847C19.2976 51.8653 20.0805 51.4805 20.9501 51.4805C22.5551 51.4805 23.8783 52.8022 23.8783 54.4604C23.8783 54.5445 23.8749 54.6276 23.8683 54.7095L23.8672 54.7235L23.8664 54.7375C23.7824 56.3291 23.4039 57.3721 22.5281 58.4023C21.6619 59.4211 20.2875 60.4559 18.0795 61.8962C15.8155 60.4542 14.404 59.4174 13.5141 58.3968C12.6161 57.367 12.2294 56.3283 12.1424 54.7469Z" fill="#121213" stroke="white" stroke-width="2"/>
</svg>
