<svg width="72" height="72" viewBox="0 0 72 72" fill="none" xmlns="http://www.w3.org/2000/svg">
<rect width="72" height="72" fill="#F8133C"/>
<path opacity="0.35" d="M48.9477 56.0335H23.0524C19.4767 56.0335 16.5786 53.1354 16.5786 49.5597V29.6311C16.5786 27.279 17.854 25.1146 19.9083 23.973L32.8559 16.7806C34.811 15.6952 37.1891 15.6952 39.1441 16.7806L52.0918 23.973C54.1461 25.1146 55.4215 27.2812 55.4215 29.6311V49.5597C55.4215 53.1354 52.5234 56.0335 48.9477 56.0335Z" fill="white"/>
<path d="M42.474 56.0335H29.5264V43.0859C29.5264 40.7014 31.4577 38.77 33.8422 38.77H38.1581C40.5426 38.77 42.474 40.7014 42.474 43.0859V56.0335Z" fill="white"/>
</svg>
