<svg width="72" height="72" viewBox="0 0 72 72" fill="none" xmlns="http://www.w3.org/2000/svg">
<rect width="72" height="72" fill="#F8133C"/>
<path opacity="0.35" d="M41.2684 14.9263C32.5397 14.9263 25.4631 22.0029 25.4631 30.7316C25.4631 39.4603 32.5397 46.5369 41.2684 46.5369C49.9971 46.5369 57.0737 39.4603 57.0737 30.7316C57.0737 22.0029 49.9971 14.9263 41.2684 14.9263ZM46.5368 29.6779C44.2082 29.6779 42.3221 27.7918 42.3221 25.4632C42.3221 23.1345 44.2082 21.2484 46.5368 21.2484C48.8655 21.2484 50.7516 23.1345 50.7516 25.4632C50.7516 27.7918 48.8655 29.6779 46.5368 29.6779Z" fill="white"/>
<path d="M26.7001 36.8704L15.5437 48.0268C15.1475 48.423 14.9263 48.9582 14.9263 49.5167V54.9663C14.9263 56.1296 15.8704 57.0737 17.0336 57.0737H22.4833C23.0418 57.0737 23.5791 56.8524 23.9732 56.4563L26.698 53.7314C27.2565 53.173 27.5705 52.4143 27.5705 51.6241C27.5705 49.9782 28.9045 48.6442 30.5503 48.6442C31.3406 48.6442 32.0992 48.3302 32.6577 47.7718L35.1296 45.2998C31.3364 43.7003 28.2996 40.6615 26.7001 36.8704Z" fill="white"/>
</svg>
