<svg width="72" height="72" viewBox="0 0 72 72" fill="none" xmlns="http://www.w3.org/2000/svg">
<rect width="72" height="72" fill="#F8133C"/>
<path opacity="0.35" d="M50.7392 58.1089H21.2607C17.1902 58.1089 13.8911 54.8097 13.8911 50.7392V23.7173H58.1089V50.7392C58.1089 54.8097 54.8097 58.1089 50.7392 58.1089Z" fill="white"/>
<path d="M50.7393 33.5435C50.2823 33.5435 41.37 33.5435 40.9131 33.5435C39.5571 33.5435 38.4565 34.644 38.4565 36C38.4565 37.356 39.5571 38.4565 40.9131 38.4565C41.37 38.4565 50.2823 38.4565 50.7393 38.4565C52.0953 38.4565 53.1958 37.356 53.1958 36C53.1958 34.644 52.0953 33.5435 50.7393 33.5435Z" fill="white"/>
<path d="M50.7393 43.3696C50.2823 43.3696 41.37 43.3696 40.9131 43.3696C39.5571 43.3696 38.4565 44.4702 38.4565 45.8262C38.4565 47.1822 39.5571 48.2827 40.9131 48.2827C41.37 48.2827 50.2823 48.2827 50.7393 48.2827C52.0953 48.2827 53.1958 47.1822 53.1958 45.8262C53.1958 44.4702 52.0953 43.3696 50.7393 43.3696Z" fill="white"/>
<path d="M58.1089 23.7173H13.8911V21.2607C13.8911 17.1902 17.1902 13.8911 21.2607 13.8911H50.7392C54.8097 13.8911 58.1089 17.1902 58.1089 21.2607V23.7173Z" fill="white"/>
<path d="M31.0869 48.2827H21.2607C19.9047 48.2827 18.8042 47.1822 18.8042 45.8262V36C18.8042 34.644 19.9047 33.5435 21.2607 33.5435H31.0869C32.4429 33.5435 33.5434 34.644 33.5434 36V45.8262C33.5434 47.1822 32.4429 48.2827 31.0869 48.2827Z" fill="white"/>
</svg>
