<svg width="28" height="26" viewBox="0 0 28 26" fill="none" xmlns="http://www.w3.org/2000/svg">
<path d="M21.6734 0L20.953 0.626506L5.57494 13.9711L5.07383 14.441L5.32438 15.0988C5.32438 15.0988 6.4519 18.106 4.29083 20.2675V20.2988L4.25951 20.3301L4.10291 20.5181L3.97763 20.6434L0 24.5277L5.38702 26L7.45414 23.9325L7.67338 23.7446L7.7047 23.7133H7.73602C9.89709 21.5518 12.9038 22.6795 12.9038 22.6795L13.5615 22.9301L14.0313 22.4289L27.3736 7.04819L28 6.32771L21.6734 0ZM21.5481 2.75663L25.2438 6.45301L16.4743 16.5398L11.4631 11.5277L21.5481 2.75663ZM9.95973 12.8434L15.1588 18.0434L13.217 20.2988L7.7047 14.7855L9.95973 12.8434ZM7.57942 17.4795L10.5235 20.4241C9.27852 20.4711 7.77125 20.8627 6.35794 22.241C6.33837 22.2605 6.31488 22.2527 6.2953 22.2723L6.04474 22.4916L5.5123 21.959L5.73154 21.7084L5.76286 21.6458C7.14094 20.2322 7.53244 18.7247 7.57942 17.4795Z" fill="white"/>
</svg>
