<svg width="72" height="72" viewBox="0 0 72 72" fill="none" xmlns="http://www.w3.org/2000/svg">
<rect width="72" height="72" fill="#F8133C"/>
<path opacity="0.35" d="M51.9848 17.7317H20.0152C16.2317 17.7317 13.1646 20.7988 13.1646 24.5823V47.4178C13.1646 51.2013 16.2317 54.2684 20.0152 54.2684H51.9848C55.7683 54.2684 58.8354 51.2013 58.8354 47.4178V24.5823C58.8354 20.7988 55.7683 17.7317 51.9848 17.7317Z" fill="white"/>
<path d="M47.4177 31.433C49.94 31.433 51.9848 29.3883 51.9848 26.8659C51.9848 24.3436 49.94 22.2988 47.4177 22.2988C44.8953 22.2988 42.8506 24.3436 42.8506 26.8659C42.8506 29.3883 44.8953 31.433 47.4177 31.433Z" fill="white"/>
<path d="M17.7314 45.1342C17.7314 45.7399 17.972 46.3207 18.4003 46.7489C18.8285 47.1772 19.4094 47.4178 20.015 47.4178H51.9846C52.5903 47.4178 53.1711 47.1772 53.5993 46.7489C54.0276 46.3207 54.2682 45.7399 54.2682 45.1342C54.2682 42.0195 50.4135 38.2836 48.5593 38.2836C46.7051 38.2836 45.0244 40.5671 40.5669 40.5671C34.9905 40.5671 31.4327 29.1494 26.8656 29.1494C22.2985 29.1494 17.7314 39.1102 17.7314 45.1342Z" fill="white"/>
</svg>
