<svg width="24" height="25" viewBox="0 0 24 25" fill="none" xmlns="http://www.w3.org/2000/svg">
<path d="M12.0016 22.1396C13.9792 22.1393 15.9124 21.5526 17.5567 20.4537C19.2009 19.3548 20.4824 17.793 21.2391 15.9658C21.9958 14.1386 22.1937 12.128 21.8078 10.1884C21.4219 8.2487 20.4695 6.46702 19.0711 5.06858C17.6726 3.67015 15.8909 2.71778 13.9513 2.33188C12.0116 1.94597 10.0011 2.14388 8.17389 2.90056C6.34669 3.65724 4.78489 4.93872 3.68596 6.58297C2.58702 8.22722 2.00031 10.1604 2 12.1381C1.99979 13.4516 2.25835 14.7522 2.7609 15.9658C3.26346 17.1793 4.00016 18.2819 4.92893 19.2107C5.8577 20.1395 6.96035 20.8762 8.17389 21.3787C9.38743 21.8813 10.6881 22.1399 12.0016 22.1396V22.1396Z" stroke="white" stroke-width="1.3" stroke-linecap="square"/>
<path d="M3.14837 15.2754H21.2153" stroke="white" stroke-width="1.3" stroke-linecap="square"/>
<path d="M2.94922 9.00073H21.2156" stroke="white" stroke-width="1.3" stroke-linecap="square"/>
<path d="M9.8273 2.73779C8.03245 9.21377 8.27642 15.2526 10.5631 21.5716" stroke="white" stroke-width="1.3" stroke-linecap="square"/>
<path d="M14.2377 2.76831C15.0217 5.5866 15.3371 8.1037 15.3337 11.029C15.3416 14.7841 14.7107 18.0848 13.4326 21.6157" stroke="white" stroke-width="1.3" stroke-linecap="square"/>
</svg>
