<svg width="24" height="25" viewBox="0 0 24 25" fill="none" xmlns="http://www.w3.org/2000/svg">
<g clip-path="url(#clip0_6_24948)">
<path d="M5.60276 13.8081L2 17.8334L5.33333 18.5L6.66667 22.5L10.0877 17.1775" stroke="white" stroke-width="1.3" stroke-linecap="square"/>
<path d="M18.6662 13.7397L21.9995 17.8333L18.6662 18.5L17.3328 22.5L14.0029 17.1091" stroke="white" stroke-width="1.3" stroke-linecap="square"/>
<path d="M4.66699 9.83333C4.66699 11.7783 5.43961 13.6435 6.81488 15.0188C8.19014 16.3941 10.0554 17.1667 12.0003 17.1667C13.9452 17.1667 15.8105 16.3941 17.1858 15.0188C18.561 13.6435 19.3337 11.7783 19.3337 9.83333C19.3337 7.88841 18.561 6.02315 17.1858 4.64788C15.8105 3.27262 13.9452 2.5 12.0003 2.5C10.0554 2.5 8.19014 3.27262 6.81488 4.64788C5.43961 6.02315 4.66699 7.88841 4.66699 9.83333Z" stroke="white" stroke-width="1.3" stroke-linecap="square"/>
</g>
<defs>
<clipPath id="clip0_6_24948">
<rect width="24" height="24" fill="white" transform="translate(0 0.5)"/>
</clipPath>
</defs>
</svg>
