<svg width="72" height="72" viewBox="0 0 72 72" fill="none" xmlns="http://www.w3.org/2000/svg">
<rect width="72" height="72" fill="#F8133C"/>
<path d="M21.7349 18.4431H50.2649" stroke="white" stroke-width="6.58385" stroke-miterlimit="10" stroke-linecap="round" stroke-linejoin="round"/>
<path d="M21.7349 53.5569H50.2649" stroke="white" stroke-width="6.58385" stroke-miterlimit="10" stroke-linecap="round" stroke-linejoin="round"/>
<path opacity="0.35" d="M49.1674 23.9297V21.735H22.832V23.9297C22.832 29.3328 26.0888 33.97 30.7436 36.0001C26.0888 38.0301 22.832 42.6673 22.832 48.0704V50.2651H49.1674V48.0704C49.1674 42.6673 45.9106 38.0301 41.2558 36.0001C45.9106 33.97 49.1674 29.3328 49.1674 23.9297Z" fill="white"/>
<path d="M27.2212 50.2651L33.7348 40.4946C34.8124 38.8794 37.1869 38.8794 38.2645 40.4946L44.7781 50.2651H27.2212Z" fill="white"/>
<path d="M42.3509 26.5456C42.1424 26.2801 41.8242 26.1243 41.4863 26.1243H30.5132C30.1774 26.1243 29.8592 26.2779 29.6507 26.5412C29.4422 26.8068 29.3676 27.1513 29.4466 27.4783C29.8811 29.2867 31.8124 32.7081 35.9997 32.7081C40.1519 32.7081 42.1007 29.2933 42.5506 27.4871C42.6318 27.1601 42.5594 26.8112 42.3509 26.5456Z" fill="white"/>
</svg>
