<svg width="74" height="74" viewBox="0 0 74 74" fill="none" xmlns="http://www.w3.org/2000/svg">
<path d="M29.6682 70.5649C28.4121 67.1688 30.1896 62.7174 33.4968 59.7912C35.0993 58.3734 36.8473 57.5276 38.3924 57.3614C39.8427 57.2055 41.2021 57.6252 42.3684 58.9669C45.5804 62.6621 48.5828 65.9608 51.9513 67.6726C53.7008 68.5617 55.5729 69.0419 57.631 68.958C59.6696 68.8749 61.7689 68.2436 63.9964 67.0926C66.4391 65.8304 67.9565 64.0554 68.5678 61.9862C69.1645 59.966 68.8141 57.9491 68.0867 56.2976C67.7401 55.5106 67.2926 54.7693 66.7772 54.1062M25.7882 72C23.7063 66.3714 26.7615 60.2267 30.7554 56.6929C32.8035 54.8808 35.3232 53.5306 37.9501 53.2482C40.6719 52.9556 43.3889 53.8348 45.4907 56.2529C48.8148 60.0771 51.3032 62.7028 53.8255 63.9846C55.0213 64.5923 56.1946 64.8762 57.4625 64.8245C58.7498 64.772 60.2571 64.3681 62.0974 63.4173C63.7226 62.5775 64.3629 61.6178 64.6003 60.8141C64.8522 59.9614 64.7422 58.9675 64.3007 57.965C64.0213 57.3307 63.6364 56.7586 63.2198 56.2976" stroke="white" stroke-width="2.04226"/>
<path d="M36.8208 44.1433L37.8419 44.1339L37.8419 44.1339L36.8208 44.1433ZM34.9523 46.4394L34.8029 45.4292L34.8029 45.4292L34.9523 46.4394ZM32.7866 46.4951L32.5223 47.4814L32.5223 47.4814L32.7866 46.4951ZM35.7173 35.1466L35.7997 44.1526L37.8419 44.1339L37.7595 35.1279L35.7173 35.1466ZM34.8029 45.4292C34.4076 45.4877 34.0263 45.5289 33.6987 45.5417C33.3513 45.5553 33.1418 45.5331 33.0508 45.5087L32.5223 47.4814C32.9155 47.5868 33.3723 47.5983 33.7785 47.5824C34.2044 47.5658 34.6638 47.5143 35.1017 47.4495L34.8029 45.4292ZM33.0508 45.5087C33.2133 45.5522 33.2421 45.6253 33.1235 45.505C33.0331 45.4134 32.9101 45.2635 32.7573 45.0464C32.4539 44.6153 32.1007 44.0164 31.7318 43.3302C30.9973 41.9638 30.2537 40.3511 29.7944 39.2842L27.9185 40.0917C28.3925 41.1928 29.1618 42.8625 29.933 44.2972C30.317 45.0114 30.7148 45.6927 31.0872 46.2218C31.2724 46.4849 31.4684 46.7352 31.6692 46.9389C31.8418 47.1139 32.1338 47.3773 32.5223 47.4814L33.0508 45.5087ZM35.7997 44.1526C35.8059 44.8338 35.3548 45.3476 34.8029 45.4292L35.1017 47.4495C36.7818 47.201 37.8563 45.709 37.8419 44.1339L35.7997 44.1526Z" fill="white"/>
<path d="M3.54104 42.7649C3.71972 42.559 3.9075 42.3455 4.10207 42.1283C5.44213 40.6317 6.98522 39.0893 8.08464 38.4546C9.18326 37.8203 10.3796 37.1664 11.6122 36.5238L12.9816 38.8956C11.8088 39.6417 10.6443 40.3509 9.54568 40.9852C8.44626 41.6199 6.33899 42.1851 4.37288 42.5973C4.08741 42.6572 3.80868 42.7131 3.54104 42.7649Z" stroke="white" stroke-width="2.04226"/>
<path d="M12.8662 32.6782L18.6785 42.7453C19.3526 43.9129 20.8455 44.3129 22.013 43.6388L55.0452 24.5677C56.2127 23.8936 56.6127 22.4007 55.9387 21.2332L52.7637 15.7339" stroke="white" stroke-width="2.04226"/>
<path d="M72.163 50.9893L72.6736 51.8736L73.6559 51.3064L72.9891 50.3889L72.163 50.9893ZM59.2653 58.4358L58.4393 59.0361L58.9797 59.7797L59.7759 59.3201L59.2653 58.4358ZM52.7504 26.0158L71.337 51.5896L72.9891 50.3889L54.4025 24.8151L52.7504 26.0158ZM71.6525 50.1049L58.7547 57.5514L59.7759 59.3201L72.6736 51.8736L71.6525 50.1049ZM60.0913 57.8354L41.5047 32.2616L39.8527 33.4623L58.4393 59.0361L60.0913 57.8354Z" fill="white"/>
<path d="M54.5402 7.6148L57.0635 11.9853C57.4556 12.6644 57.2229 13.5328 56.5438 13.9249L26.3778 31.3412C25.6987 31.7333 24.8303 31.5007 24.4382 30.8215L21.9149 26.451C21.5228 25.7719 21.7555 24.9035 22.4346 24.5114L52.6006 7.09507C53.2797 6.70297 54.1481 6.93566 54.5402 7.6148Z" stroke="white" stroke-width="2.04226"/>
<path d="M59.3838 2L64.7618 11.315" stroke="white" stroke-width="2.04226"/>
<path d="M61.4943 7.68817L56.4785 10.584" stroke="white" stroke-width="2.04226"/>
<path d="M18.1264 43.1049L19.5188 42.8236L18.8085 41.5934L12.1894 30.1287L11.4792 28.8985L10.5394 29.9637L6.49698 34.5456L6.01135 35.096L6.37837 35.7317L11.0507 43.8244L11.4177 44.4601L12.1372 44.3147L18.1264 43.1049Z" fill="#121213" stroke="white" stroke-width="2.04226"/>
</svg>
