<svg width="256" height="256" viewBox="0 0 256 256" fill="none" xmlns="http://www.w3.org/2000/svg">
<rect width="256" height="256" fill="#121213"/>
<path d="M58.7583 75.8868L66.3558 84.2207C64.4831 85.907 62.6885 87.8852 61.3449 90.2118C55.6959 99.9944 57.3883 111.9 64.7724 119.687L91.1551 74L100.886 79.6169L95.8779 88.2891L107.935 95.2492L110.989 89.9613L138.066 105.591L126.34 125.896L99.2634 110.267L102.317 104.979L90.2594 98.0188L80.2438 115.363L92.3013 122.323L95.3548 117.035L122.431 132.665L110.706 152.97L83.6292 137.341L86.6828 132.053L74.6252 125.093L66.5639 139.053L114.371 166.649L124.553 149.26L141.775 119.436L154.556 97.0603L164.286 102.677L151.461 124.886L180.442 141.615L185.14 144.468L179.277 154.621L188.117 159.583L209 178.123L182.499 169.312L173.781 164.139L167.918 174.292L163.098 171.65L134.117 154.922L121.292 177.131L118.438 181.829L113.618 179.187L56.08 145.974L51.3815 143.121L54.024 138.301L58.9871 129.462C46.5201 118.388 43.169 99.7082 51.8258 84.717C53.7496 81.3857 56.0185 78.3417 58.7583 75.8868ZM145.843 134.616L139.736 145.192L163.896 159.279L170.125 148.492L145.843 134.616Z" fill="#F8133C"/>
</svg>
