<svg width="72" height="72" viewBox="0 0 72 72" fill="none" xmlns="http://www.w3.org/2000/svg">
<rect width="72" height="72" fill="#F8133C"/>
<path opacity="0.35" d="M36.0002 57.0871C47.6463 57.0871 57.0873 47.6461 57.0873 36C57.0873 24.3539 47.6463 14.9129 36.0002 14.9129C24.3541 14.9129 14.9131 24.3539 14.9131 36C14.9131 47.6461 24.3541 57.0871 36.0002 57.0871Z" fill="white"/>
<path d="M36.0001 40.2174C38.3294 40.2174 40.2176 38.3292 40.2176 36C40.2176 33.6708 38.3294 31.7826 36.0001 31.7826C33.6709 31.7826 31.7827 33.6708 31.7827 36C31.7827 38.3292 33.6709 40.2174 36.0001 40.2174Z" fill="white"/>
<path d="M36.0004 38.1088C35.4605 38.1088 34.9207 37.9021 34.5095 37.4909C33.685 36.6664 33.685 35.3337 34.5095 34.5092L49.2705 19.7482C50.095 18.9237 51.4277 18.9237 52.2522 19.7482C53.0767 20.5727 53.0767 21.9054 52.2522 22.7299L37.4912 37.4909C37.08 37.9021 36.5402 38.1088 36.0004 38.1088Z" fill="white"/>
<path d="M44.3783 36.5673C44.0789 40.9492 40.4561 44.4349 36.0004 44.4349C31.3486 44.4349 27.5656 40.6519 27.5656 36C27.5656 31.5443 31.0513 27.9216 35.4332 27.6221L39.2647 23.7906C38.2209 23.5101 37.1307 23.3478 36.0004 23.3478C29.0227 23.3478 23.3481 29.0223 23.3481 36C23.3481 42.9778 29.0227 48.6523 36.0004 48.6523C42.9781 48.6523 48.6527 42.9778 48.6527 36C48.6527 34.8698 48.4903 33.7796 48.2099 32.7358L44.3783 36.5673Z" fill="white"/>
<path d="M51.5309 29.4145C52.3912 31.4389 52.8699 33.6657 52.8699 36C52.8699 45.3015 45.3017 52.8697 36.0002 52.8697C26.6987 52.8697 19.1305 45.3015 19.1305 36C19.1305 26.6985 26.6987 19.1303 36.0002 19.1303C38.3345 19.1303 40.5613 19.609 42.5857 20.4694L45.7403 17.3147C42.824 15.788 39.5133 14.9129 36.0002 14.9129C24.3728 14.9129 14.9131 24.3726 14.9131 36C14.9131 47.6275 24.3728 57.0871 36.0002 57.0871C47.6276 57.0871 57.0873 47.6275 57.0873 36C57.0873 32.4869 56.2122 29.1762 54.6855 26.2599L51.5309 29.4145Z" fill="white"/>
</svg>
