<svg width="72" height="72" viewBox="0 0 72 72" fill="none" xmlns="http://www.w3.org/2000/svg">
<rect width="72" height="72" fill="#F8133C"/>
<path opacity="0.35" d="M36.0148 30.8993C30.9373 30.8993 26.2157 32.4493 22.2976 35.0995C20.2384 36.4941 20.0503 39.4735 21.8089 41.2321L21.8866 41.3098C23.2322 42.6554 25.3466 42.8967 26.9293 41.8374C29.5304 40.0972 32.6571 39.0789 36.0148 39.0789C39.3725 39.0789 42.4991 40.0972 45.0982 41.8395C46.6809 42.8987 48.7953 42.6574 50.1409 41.3119L50.2186 41.2342C51.9772 39.4756 51.7911 36.4962 49.7299 35.1015C45.8139 32.4493 41.0922 30.8993 36.0148 30.8993Z" fill="white"/>
<path d="M30.9579 50.381L32.4854 51.9085C34.4342 53.8573 37.5956 53.8573 39.5444 51.9085L41.0719 50.381C43.2845 48.1684 42.2477 44.416 39.2274 43.596C38.2029 43.3179 37.1273 43.1686 36.0149 43.1686C34.9025 43.1686 33.8269 43.3179 32.8024 43.596C29.7821 44.416 28.7453 48.1684 30.9579 50.381Z" fill="white"/>
<path d="M36.015 26.8095C42.5934 26.8095 48.6586 29.0384 53.4988 32.7826C55.147 34.0566 57.4577 33.9973 58.9301 32.5229L58.9853 32.4677C60.7173 30.7357 60.5108 27.8872 58.5783 26.3821C52.3414 21.5235 44.4993 18.6299 35.9802 18.6299C27.4796 18.6299 19.6538 21.5112 13.4251 26.3494C11.4886 27.8524 11.282 30.705 13.0161 32.4371L13.102 32.5229C14.5743 33.9953 16.885 34.0566 18.5332 32.7826C23.3714 29.0384 29.4366 26.8095 36.015 26.8095Z" fill="white"/>
</svg>
