<svg width="72" height="72" viewBox="0 0 72 72" fill="none" xmlns="http://www.w3.org/2000/svg">
<rect width="72" height="72" fill="#F8133C"/>
<path opacity="0.35" d="M45.0001 54H27.0001C24.0175 54 21.6001 51.5826 21.6001 48.6V23.4C21.6001 20.4174 24.0175 18 27.0001 18H39.6001L50.4001 28.8V48.6C50.4001 51.5826 47.9827 54 45.0001 54Z" fill="white"/>
<path d="M39.6001 25.2V18L50.4001 28.8H43.2001C41.2111 28.8 39.6001 27.189 39.6001 25.2Z" fill="white"/>
<path d="M28.0923 45.0521C27.7222 45.0521 27.3506 44.924 27.0517 44.6615C26.3938 44.0858 26.3273 43.0863 26.9014 42.43L32.4368 36.1039C32.7404 35.7528 33.1421 35.5788 33.6466 35.563C34.11 35.5693 34.5465 35.7765 34.8439 36.1308L37.5577 39.3887L42.6724 32.993C43.2212 32.313 44.2128 32.1991 44.896 32.7463C45.5777 33.2935 45.6884 34.2883 45.1427 34.9699L38.8166 42.8775C38.5193 43.2476 38.0717 43.4659 37.5973 43.4706C37.1023 43.5418 36.6705 43.265 36.3669 42.9028L33.5992 39.5801L29.2832 44.5113C28.9701 44.8703 28.532 45.0521 28.0923 45.0521Z" fill="white"/>
</svg>
