<svg width="72" height="72" viewBox="0 0 72 72" fill="none" xmlns="http://www.w3.org/2000/svg">
<rect width="72" height="72" fill="#F8133C"/>
<path opacity="0.35" d="M36 57.9999C48.1503 57.9999 58 48.1501 58 35.9999C58 23.8496 48.1503 13.9999 36 13.9999C23.8497 13.9999 14 23.8496 14 35.9999C14 48.1501 23.8497 57.9999 36 57.9999Z" fill="white"/>
<path d="M28.7289 38.1998C27.3715 38.1998 26.6895 39.8366 27.6443 40.8002L34.4313 47.651C35.2959 48.5222 36.7039 48.5222 37.5685 47.651L44.3555 40.8002C45.3103 39.8366 44.6261 38.1998 43.2709 38.1998H28.7289Z" fill="white"/>
<path d="M38.2 40.3999C38.2 40.3999 38.2 25.7655 38.2 24.9999C38.2 23.7855 37.2144 22.7999 36 22.7999C34.7856 22.7999 33.8 23.7855 33.8 24.9999C33.8 25.7655 33.8 40.3999 33.8 40.3999H38.2Z" fill="white"/>
</svg>
