<svg width="72" height="72" viewBox="0 0 72 72" fill="none" xmlns="http://www.w3.org/2000/svg">
<rect width="72" height="72" fill="#F8133C"/>
<path opacity="0.35" d="M50 47H22C18.686 47 16 44.314 16 41V25C16 21.686 18.686 19 22 19H50C53.314 19 56 21.686 56 25V41C56 44.314 53.314 47 50 47Z" fill="white"/>
<path d="M43 46.9999C42.648 46.9999 29.352 46.9999 29 46.9999C27.344 46.9999 26 48.3439 26 49.9999C26 51.6559 27.344 52.9999 29 52.9999C29.352 52.9999 42.648 52.9999 43 52.9999C44.656 52.9999 46 51.6559 46 49.9999C46 48.3439 44.656 46.9999 43 46.9999Z" fill="white"/>
</svg>
