<svg width="72" height="72" viewBox="0 0 72 72" fill="none" xmlns="http://www.w3.org/2000/svg">
<rect width="72" height="72" fill="#F8133C"/>
<path opacity="0.35" d="M49.196 21.8617H22.8047C19.6811 21.8617 17.1494 24.3934 17.1494 27.517V36.9424C17.1494 40.066 19.6811 42.5977 22.8047 42.5977H49.196C52.3196 42.5977 54.8513 40.066 54.8513 36.9424V27.517C54.8513 24.3934 52.3196 21.8617 49.196 21.8617Z" fill="white"/>
<path d="M36 37.885C37.5617 37.885 38.8276 36.619 38.8276 35.0574C38.8276 33.4957 37.5617 32.2297 36 32.2297C34.4383 32.2297 33.1724 33.4957 33.1724 35.0574C33.1724 36.619 34.4383 37.885 36 37.885Z" fill="white"/>
<path d="M49.196 42.5978H22.8047C19.6811 42.5978 17.1494 40.0661 17.1494 36.9425V48.2531C17.1494 51.3767 19.6811 53.9083 22.8047 53.9083H49.196C52.3196 53.9083 54.8513 51.3767 54.8513 48.2531V36.9425C54.8513 40.0661 52.3196 42.5978 49.196 42.5978Z" fill="white"/>
<path d="M37.8851 18.0916C37.1952 18.0916 34.8049 18.0916 34.1149 18.0916C32.0319 18.0916 30.3447 19.7787 30.3447 21.8617H41.6553C41.6553 19.7787 39.9681 18.0916 37.8851 18.0916Z" fill="white"/>
</svg>
