<svg width="291" height="497" viewBox="0 0 291 497" fill="none" xmlns="http://www.w3.org/2000/svg">
<g opacity="0.05">
<path d="M303.846 129.719L231.221 185.285L235.098 190.352L307.723 134.786L303.846 129.719Z" fill="white"/>
<path d="M308.831 136.161L236.227 191.728C235.44 192.333 234.304 192.18 233.69 191.389L229.813 186.318C229.207 185.53 229.359 184.394 230.15 183.78L302.754 128.214C303.541 127.608 304.677 127.761 305.291 128.552L309.169 133.623C309.771 134.42 309.618 135.555 308.831 136.161ZM235.462 187.76L305.194 134.384L303.516 132.19L233.783 185.566L235.462 187.76Z" fill="#121213"/>
<path d="M300.144 136.568L233.164 187.815L234.496 189.556L301.475 138.309L300.144 136.568Z" fill="#121213"/>
<path d="M206.472 188.933L198.012 195.406L215.965 218.871L224.426 212.398L206.472 188.933Z" fill="white"/>
<path d="M225.542 213.773L217.091 220.244C216.304 220.85 215.168 220.697 214.554 219.905L196.594 196.438C195.988 195.651 196.14 194.515 196.931 193.901L205.382 187.43C206.17 186.824 207.305 186.977 207.919 187.768L225.876 211.244C226.482 212.032 226.329 213.167 225.542 213.773ZM216.326 216.277L221.914 212L206.156 191.401L200.568 195.678L216.326 216.277Z" fill="#121213"/>
<path d="M208.119 191.074L201.174 196.39L202.108 197.611L209.054 192.295L208.119 191.074Z" fill="#121213"/>
<path d="M212.365 197.624L205.902 202.57L208.392 205.823L214.855 200.877L212.365 197.624Z" fill="#121213"/>
<path d="M209.709 207.475L216.66 202.157L220.591 207.291L213.64 212.609C213.64 212.609 209.765 207.109 209.709 207.475Z" fill="#121213"/>
<path d="M196.113 203.951L176.063 219.292L188.925 236.103L208.975 220.762L196.113 203.951Z" fill="white"/>
<path d="M211.498 221.039L188.61 238.559L173.566 218.894L196.454 201.374L211.498 221.039ZM189.276 233.53L206.47 220.372L195.788 206.403L178.594 219.561L189.276 233.53Z" fill="#121213"/>
<path d="M191.69 210.523L177.609 221.299L178.543 222.52L192.625 211.744L191.69 210.523Z" fill="#121213"/>
<path d="M194.238 213.871L180.154 224.646L181.089 225.867L195.172 215.092L194.238 213.871Z" fill="#121213"/>
<path d="M196.41 216.694L182.328 227.47L186.312 232.675L200.393 221.899L196.41 216.694Z" fill="#121213"/>
<path d="M149.512 189.461L178.776 167.058L241.191 248.642C241.191 248.642 230.735 282.885 211.337 265.32C200.535 255.544 211.618 243.138 203.145 229.15C193.117 212.608 170.523 196.256 149.512 189.461Z" fill="white"/>
<path d="M202.068 222.117L201.391 200.397L235.397 244.187C235.397 244.187 235.867 274.022 215.258 265.667C209.445 263.315 207.411 252.114 208.669 245.856C209.934 239.58 213.496 236.142 202.068 222.117Z" fill="#121213"/>
<path d="M188.174 208.176L188.659 200.489L195.122 208.94L193.72 191.825L197.553 196.837L198.302 217.207L188.174 208.176Z" fill="#121213"/>
<path d="M169.51 194.331C174.257 192.458 175.974 185.474 173.755 183.89C176.143 182.885 176.401 177.451 172.251 176.647L177.942 172.294L178.816 171.625L184.417 178.95L184.648 197.127L178.871 187.107L180.454 201.537L169.51 194.331Z" fill="#121213"/>
<path d="M178.018 172.799L236.604 249.383C235.035 253.548 231.618 260.839 227.069 264.317C224.355 266.395 220.427 268.036 214.078 262.284C210.053 258.641 210.088 254.934 210.505 248.158C210.87 242.19 211.331 234.772 206.644 227.036C197.364 211.723 178.01 196.458 157.914 188.191L178.018 172.799ZM178.776 167.058L149.512 189.461C170.52 196.264 193.117 212.608 203.142 229.158C211.618 243.138 200.532 255.552 211.334 265.329C218.74 272.031 224.85 271.187 229.564 267.579C237.2 261.732 241.196 248.654 241.196 248.654L178.776 167.058Z" fill="white"/>
<path d="M230.634 268.996C229.05 270.203 227.322 271.139 225.441 271.66C220.477 273.031 215.323 271.339 210.136 266.642C203.831 260.928 204.238 254.248 204.634 247.783C204.983 242.109 205.346 236.24 201.611 230.079C192.055 214.309 169.91 197.937 148.961 191.158C148.33 190.95 147.859 190.409 147.745 189.76C147.634 189.103 147.894 188.443 148.417 188.036L177.681 165.633C178.465 165.036 179.592 165.185 180.189 165.97L242.604 247.553C242.959 248.014 243.066 248.61 242.898 249.169C242.7 249.825 238.636 262.874 230.634 268.996ZM153.253 188.851C174.234 196.494 195.043 212.338 204.668 228.227C208.986 235.347 208.57 242.073 208.207 248.012C207.815 254.399 207.504 259.439 212.534 263.989C216.759 267.818 220.778 269.237 224.485 268.212C232.815 265.911 237.962 252.523 239.19 248.973L178.441 169.568L153.253 188.851Z" fill="#121213"/>
<path d="M287.153 134.695L269.297 148.357L280.699 163.26L298.555 149.598L287.153 134.695Z" fill="white"/>
<path d="M299.668 150.99L281.821 164.65C281.018 165.269 279.865 165.109 279.255 164.309L267.851 149.403C267.232 148.6 267.391 147.447 268.191 146.837L286.038 133.176C286.841 132.557 287.994 132.717 288.604 133.517L300.008 148.423C300.627 149.226 300.476 150.383 299.668 150.99ZM281.048 160.629L295.989 149.195L286.82 137.201L271.878 148.635L281.048 160.629Z" fill="#121213"/>
<path d="M293.112 142.49L275.258 156.153L278.486 160.372L296.34 146.709L293.112 142.49Z" fill="#121213"/>
<path d="M227.457 180.371L210.09 193.658L221.492 208.56L238.858 195.273L227.457 180.371Z" fill="white"/>
<path d="M233.158 187.819L215.792 201.106L217.795 203.724L235.161 190.436L233.158 187.819Z" fill="#121213"/>
<path d="M235.975 191.498L218.608 204.785L219.559 206.028L236.926 192.741L235.975 191.498Z" fill="#121213"/>
<path d="M239.974 196.647L222.615 209.935C221.828 210.54 220.692 210.388 220.078 209.596L208.674 194.69C208.069 193.902 208.221 192.767 209.012 192.153L226.371 178.865C227.158 178.259 228.293 178.412 228.908 179.203L240.312 194.109C240.914 194.906 240.761 196.041 239.974 196.647ZM221.841 205.964L236.337 194.87L227.132 182.841L212.637 193.934L221.841 205.964Z" fill="#121213"/>
<path d="M273.38 124.621L264.049 131.759L353.429 248.579L362.76 241.44L273.38 124.621Z" fill="white"/>
<path d="M290.881 166.746L292.701 149.792L337.048 207.764L333.208 222.079L290.881 166.746Z" fill="#121213"/>
<path d="M363.872 242.818L354.546 249.958C353.763 250.555 352.636 250.406 352.038 249.622L262.65 132.777C262.053 131.992 262.202 130.865 262.986 130.268L272.311 123.128C273.095 122.531 274.222 122.68 274.819 123.465L364.208 240.31C364.805 241.094 364.656 242.221 363.872 242.818ZM353.787 246.023L360.278 241.06L273.062 127.059L266.572 132.023L353.787 246.023Z" fill="#121213"/>
<path d="M275.449 127.328L266.119 134.466L268.295 137.311L277.625 130.172L275.449 127.328Z" fill="#121213"/>
<path d="M270.107 282.273L230.707 230.768C227.551 226.634 228.332 220.723 232.463 217.567L285.025 177.34C289.156 174.184 295.066 174.967 298.221 179.1L308.539 192.583L314.895 257.919L280.346 291.68L270.107 282.273Z" fill="white"/>
<path d="M252.007 254.658C252.007 254.658 253.322 256.718 266.917 246.311C280.511 235.904 289.344 229.146 289.344 229.146L280.976 228.028L248.735 252.706L252.007 254.658Z" fill="#121213"/>
<path d="M299.603 184.958L296.756 187.139C294.517 184.215 290.316 183.649 287.394 185.889L240.087 222.099C237.165 224.339 236.6 228.541 238.84 231.464L235.992 233.645C232.55 229.149 233.413 222.693 237.906 219.251L285.213 183.04C289.715 179.602 296.161 180.463 299.603 184.958Z" fill="#121213"/>
<path d="M315.575 217.268L263.011 257.496C258.103 261.252 251.058 260.317 247.302 255.408L250.149 253.227C252.703 256.564 257.494 257.201 260.838 254.651L313.402 214.423C316.738 211.87 317.377 207.069 314.824 203.732L317.671 201.551C321.415 206.465 320.482 213.512 315.575 217.268Z" fill="#121213"/>
<path d="M280.375 294.155L268.78 283.49L229.281 231.863C225.525 226.953 226.458 219.906 231.365 216.15L283.926 175.922C288.833 172.166 295.878 173.102 299.635 178.011L310.267 191.908L316.761 258.613L280.375 294.155ZM271.434 281.057L280.304 289.212L313.026 257.235L306.8 193.265L296.791 180.183C294.238 176.846 289.438 176.205 286.103 178.759L233.541 218.987C230.205 221.54 229.566 226.341 232.12 229.678L271.434 281.057Z" fill="#121213"/>
<path d="M302.09 252.733L273.63 274.516C273.334 274.74 272.956 274.83 272.588 274.753L267.769 273.734C267.468 273.666 267.207 273.505 267.022 273.256L262.476 267.311C262.288 267.071 262.198 266.762 262.217 266.46L262.486 261.542C262.504 261.169 262.689 260.828 262.988 260.595L291.449 238.812C292.012 238.381 292.815 238.492 293.237 239.052L302.325 250.932C302.761 251.507 302.65 252.31 302.09 252.733ZM272.542 272.132L299.521 251.48L291.99 241.634L265.011 262.286L264.792 266.145L268.759 271.334L272.542 272.132Z" fill="#121213"/>
<path d="M268.643 273.285L264.906 276.148C264.271 276.629 263.369 276.515 262.88 275.877L258.594 270.282C258.114 269.648 258.227 268.745 258.865 268.256L262.602 265.393C263.236 264.913 264.138 265.026 264.628 265.665L268.913 271.259C269.394 271.894 269.272 272.793 268.643 273.285ZM264.293 272.976L265.742 271.872L263.215 268.566L261.766 269.67L264.293 272.976Z" fill="#121213"/>
<path d="M261.62 271.848L265.362 268.998L267.762 272.13L263.785 275.181L261.62 271.848Z" fill="#121213"/>
<path d="M293.579 182.515L235.059 227.289L236.301 228.912L294.821 184.138L293.579 182.515Z" fill="#121213"/>
<path d="M295.382 184.792L236.873 229.566C236.873 229.566 249.9 231.914 269.66 216.795C289.403 201.689 295.382 184.792 295.382 184.792Z" fill="#121213"/>
<path d="M264.351 261.222L263.13 262.157L272.221 274.039L273.443 273.105L264.351 261.222Z" fill="#121213"/>
<path d="M289.395 251.486L268.292 267.632L271.128 271.34L292.231 255.193L289.395 251.486Z" fill="#121213"/>
<path d="M286.31 247.457L265.207 263.603L266.259 264.978L287.362 248.832L286.31 247.457Z" fill="#121213"/>
<path d="M266.06 268.814L268.463 267.775L270.308 270.19L267.675 270.641L266.06 268.814Z" fill="#121213"/>
<path d="M155.4 213.654L77.4608 273.304L74.1911 290.443L84.2941 303.655L94.397 316.866L111.794 318.182L189.733 258.532L193.006 241.384L182.9 228.181L172.797 214.97L155.4 213.654Z" fill="#121213"/>
<path d="M82.2571 281.556L79.0339 291.851L84.3839 298.849L91.2819 292.478L82.2571 281.556Z" fill="white"/>
<path d="M85.4865 300.276L92.9101 294.599L95.5851 298.098L87.1514 303.115L85.4865 300.276Z" fill="white"/>
<path d="M90.1963 305.999L99.3381 303.554L100.873 305.567L91.0264 307.083L90.1963 305.999Z" fill="white"/>
<path d="M181.313 228.356L174.997 239.667L176.34 240.417L182.655 229.106L181.313 228.356Z" fill="white"/>
<path d="M172.166 235.549L179.968 226.721L174.807 219.984L163.437 224.143L172.166 235.549Z" fill="white"/>
<path d="M176.707 241.565L101.238 299.308L103.107 301.75L178.576 244.007L176.707 241.565Z" fill="white"/>
<path d="M170.284 233.169L94.8148 290.911L96.6834 293.353L172.152 235.611L170.284 233.169Z" fill="white"/>
<path d="M159.469 219.034L84 276.776L84.9343 277.997L160.403 220.255L159.469 219.034Z" fill="white"/>
<path d="M163.624 224.471L88.1545 282.213L93.7548 289.533L169.224 231.791L163.624 224.471Z" fill="white"/>
<path d="M80.9339 270.66L78.9011 272.216L113.23 317.083L115.263 315.528L80.9339 270.66Z" fill="white"/>
<path d="M99.1324 256.743L97.0996 258.299L131.428 303.166L133.461 301.611L99.1324 256.743Z" fill="white"/>
<path d="M108.825 249.247L106.793 250.802L141.129 295.667L143.162 294.111L108.825 249.247Z" fill="white"/>
<path d="M118.697 241.698L116.664 243.254L151 288.118L153.033 286.563L118.697 241.698Z" fill="white"/>
<path d="M128.344 234.307L126.312 235.863L160.648 280.727L162.681 279.172L128.344 234.307Z" fill="white"/>
<path d="M137.972 226.959L135.94 228.515L170.276 273.38L172.309 271.824L137.972 226.959Z" fill="white"/>
<path d="M156.646 217.856L173.748 218.617L181.742 229.071L189.897 239.733L186.002 256.226L110.549 313.982L96.5339 312.923L87.5403 301.174L78.5467 289.424L81.1896 275.621L156.646 217.856ZM155.4 213.655L77.4618 273.305L74.1802 290.449L84.2832 303.661L94.3861 316.872L111.783 318.188L189.721 258.538L193.003 241.394L182.9 228.182L172.797 214.971L155.4 213.655Z" fill="white"/>
<path d="M191.367 259.538L112.345 320.018L93.4646 318.591L72.2769 290.9L75.8357 272.304L154.858 211.823L173.738 213.25L194.926 240.941L191.367 259.538ZM111.247 316.339L188.095 257.515L191.096 241.833L171.864 216.695L155.951 215.49L79.1033 274.314L76.1023 289.996L95.3335 315.134L111.247 316.339Z" fill="#121213"/>
<path d="M79.0138 272.025L75.7603 274.515L110.091 319.377L113.345 316.888L79.0138 272.025Z" fill="#121213"/>
<path d="M156.758 212.538L153.914 214.714L188.245 259.577L191.089 257.4L156.758 212.538Z" fill="#121213"/>
<path d="M97.3489 258.039L94.5046 260.216L128.841 305.08L131.685 302.904L97.3489 258.039Z" fill="#121213"/>
<path d="M106.968 250.647L104.124 252.824L138.454 297.686L141.299 295.51L106.968 250.647Z" fill="#121213"/>
<path d="M116.714 243.302L113.87 245.479L148.199 290.346L151.043 288.17L116.714 243.302Z" fill="#121213"/>
<path d="M126.372 235.791L123.528 237.967L157.859 282.83L160.703 280.653L126.372 235.791Z" fill="#121213"/>
<path d="M136.126 228.44L133.281 230.617L167.61 275.484L170.455 273.308L136.126 228.44Z" fill="#121213"/>
<path d="M78.2527 295.779L90.2939 311.516C90.2939 311.516 57.6858 336.468 46.8759 344.747C36.0576 353.023 20.037 361.417 16.3661 355.624C11.7341 350.562 24.0249 337.29 34.8384 329.002L40.6786 324.532C44.4707 325.755 50.0245 324.385 54.8687 320.682C59.7165 316.971 62.4836 311.965 62.2911 307.991C71.0377 301.295 78.2527 295.779 78.2527 295.779Z" fill="white"/>
<path d="M84.8729 304.446L19.9286 354.156C19.9286 354.156 29.2415 353.474 39.7624 346.322C50.2833 339.171 88.4145 309.084 88.4145 309.084L84.8729 304.446Z" fill="#121213"/>
<path d="M80.4111 299.929L86.8473 308.349L44.0679 341.091C39.2238 344.794 33.7659 348.176 29.0959 350.362C23.1272 353.156 20.6427 353 20.0549 352.9C20.0233 352.856 19.9918 352.813 19.9566 352.778C20.0103 352.18 20.5117 349.752 24.7618 344.716C28.0857 340.777 32.7767 336.399 37.6159 332.684L41.7824 329.494C46.7317 330.088 52.5812 328.233 57.6376 324.361C62.7024 320.492 66.008 315.324 66.7336 310.39L77.3745 302.249L80.4111 299.929ZM78.2525 295.779C78.2525 295.779 71.0461 301.299 62.2876 307.999C62.4765 311.981 59.7094 316.988 54.8653 320.69C50.0176 324.402 44.4675 325.763 40.6754 324.54L34.8352 329.01C24.0171 337.286 11.7228 350.567 16.3633 355.632C20.0343 361.425 36.0631 353.035 46.8728 344.755C57.6825 336.476 90.2901 311.524 90.2901 311.524L78.2525 295.779Z" fill="white"/>
<path d="M92.8021 311.853L47.9626 346.17C40.8031 351.65 26.6337 360.561 18.9598 359.198C17.2036 358.882 15.8145 358.031 14.9328 356.715C13.9017 355.516 13.4338 353.957 13.5915 352.173C14.2781 344.411 26.5809 333.064 33.744 327.576L40.3247 322.541L41.2129 322.829C44.5379 323.903 49.5801 322.465 53.7622 319.261C57.9563 316.053 60.6561 311.558 60.4857 308.074L60.4441 307.135L78.575 293.255L92.8021 311.853ZM35.9179 330.442C27.175 337.129 17.6313 347.137 17.1597 352.51C17.0591 353.617 17.4089 354.136 17.6745 354.429L17.7849 354.546L17.8675 354.682C18.0825 355.023 18.495 355.489 19.5835 355.682C24.8845 356.625 37.04 350.029 45.7744 343.338L87.7703 311.193L77.9102 298.305L64.0639 308.905C63.8408 313.363 60.7488 318.451 55.9445 322.131C51.1401 325.81 45.4229 327.471 41.0575 326.515L35.9179 330.442Z" fill="#121213"/>
<path d="M17.4258 357.046L0.00408914 368.126L15.2533 354.201L17.4258 357.046Z" fill="#121213"/>
<path d="M47.4052 324.197L40.5277 329.528C39.2058 330.566 37.8791 331.593 36.5464 332.657C35.2306 333.729 33.9282 334.816 32.6573 335.946C30.101 338.171 27.6709 340.57 25.4457 343.145C24.3591 344.454 23.3041 345.807 22.3739 347.242C21.4557 348.672 20.6141 350.205 20.1838 351.853C21.0208 350.378 22.0626 349.08 23.1615 347.837C24.2688 346.597 25.4282 345.399 26.6192 344.244C29.0048 341.927 31.491 339.702 34.0306 337.54C35.3004 336.46 36.6017 335.422 37.92 334.392C39.2311 333.378 40.5882 332.374 41.9368 331.367L49.9932 325.287C50.6868 324.762 51.3839 324.228 52.0775 323.702C50.5569 324.196 48.9641 324.39 47.4052 324.197Z" fill="#121213"/>
<path d="M72.5876 304.988C69.8906 307.003 67.202 309.021 64.5316 311.068C63.2868 312.019 62.0421 312.971 60.801 313.914C60.5567 315.501 59.9206 317.021 58.9986 318.39C61.3337 316.591 63.6772 314.796 66.0207 313.001C68.696 310.967 71.3481 308.893 73.9918 306.816C76.644 304.742 79.2926 302.676 81.9266 300.574L80.6874 298.947C77.9769 300.946 75.2762 302.97 72.5876 304.988Z" fill="#121213"/>
<path d="M326.446 217.304C332.986 198.164 343.172 154.691 337.66 118.899C335.436 104.447 323.112 89.6601 305.709 95.9157C288.298 102.168 296.654 120.009 299.777 133.003C301.57 140.439 302.348 159.4 297.366 178.803C293.64 193.296 286.703 208.025 274.575 218.395C258.905 231.781 242.311 231.777 230.596 229.095C221.094 226.925 214.803 222.989 214.803 222.989L197.482 236.283L243.991 297.075C292.878 310.874 341.286 295.023 371.576 271.336C401.865 247.65 399.308 235.726 392.922 225.727C386.77 216.096 375.375 212.661 360.253 224.239C349.596 232.393 330.315 247.404 323.531 241.498C321.422 240.08 319.906 236.444 326.446 217.304ZM284.892 278.032C275.642 285.113 262.408 283.347 255.326 274.091C248.244 264.836 250.006 251.598 259.256 244.517C268.507 237.435 281.741 239.202 288.823 248.457C295.905 257.713 294.143 270.95 284.892 278.032Z" fill="white"/>
<path d="M216.028 226.591L210.929 230.495C210.929 230.495 213.644 229.048 215.264 231.969C216.885 234.889 211.991 239.391 208.702 238.633C204.977 237.769 205.901 233.829 205.901 233.829L202.159 237.01L230.981 274.682L226.849 231.543L216.028 226.591ZM220.356 238.067C219.687 238.582 218.734 238.447 218.218 237.778C217.703 237.108 217.837 236.155 218.507 235.639C219.176 235.123 220.129 235.258 220.645 235.928C221.148 236.602 221.022 237.559 220.356 238.067Z" fill="#121213"/>
<path d="M267.183 286.089L268.223 298.077C268.223 298.077 293.434 303.676 320.136 293.331L304.482 271.336L295.265 238.191L292.057 243.67L289.821 231.083L287.3 236.124L288.058 241.849C288.058 241.849 296.472 249.289 296.832 260.498C297.192 271.707 290.239 289.251 267.183 286.089Z" fill="#121213"/>
<path d="M268.35 240.483L266.658 228.337C266.658 228.337 251.588 235.836 232.314 233.051L237.873 283.66L240.499 287.088L240.198 262.718L243.784 291.387L246.89 295.449L264.403 298.825L263.083 285.117C263.083 285.117 246.565 279.543 249.182 260.385L252.659 252.93C252.659 252.93 258.205 243.572 262.091 242.313C265.969 241.051 268.35 240.483 268.35 240.483Z" fill="#121213"/>
<path d="M272.178 224.566L269.126 224.947L271.056 240.387L274.107 240.006L272.178 224.566Z" fill="#121213"/>
<path d="M277.62 220.745L280.618 241.66L286.991 246.061L282.542 215.634L277.62 220.745Z" fill="#121213"/>
<path d="M294.466 197.803C296.876 211.064 301.491 224.853 309.614 223.676C317.733 222.506 318.464 201.926 314.262 192.695C320.246 203.594 320.662 213.116 316.024 223.54C316.024 223.54 320.413 218.483 321.903 212.103L322.625 212.711C322.625 212.711 321.496 216.263 317.356 225.608C313.225 234.956 318.094 242.64 319.092 243.705C320.09 244.77 330.994 250.278 345.437 239.052L354.106 279.939C354.106 279.939 328.911 293.165 323.415 293.669C317.919 294.173 308.216 268.294 308.216 268.294L297.047 226.885L293.771 232.925L289.393 207.201L294.466 197.803Z" fill="#121213"/>
<path d="M314.659 278.374L301.59 227.122L318.098 277.365L314.659 278.374Z" fill="white"/>
<path d="M296.468 111.686L300.606 112.425C300.606 112.425 302.538 122.922 311.719 124.035C320.896 125.156 328.818 116.939 326.116 109.927C323.416 102.906 319.001 99.4774 312.748 100.35L311.646 95.2688C311.646 95.2688 319.92 94.1353 326.537 98.9506C333.159 103.778 336.598 110.943 338.205 122.912C339.812 134.882 337.085 167.249 337.085 167.249L331.035 201.645L329.591 201.631C329.591 201.631 330.672 184.912 326.701 172.808C322.738 160.707 311.174 149.876 300.593 171.98L301.402 162.659C301.402 162.659 305.994 161.41 308.618 156.763C311.234 152.113 309.61 145.529 307.076 142.05C304.534 138.568 301.82 139.635 301.82 139.635L296.521 118.202L296.468 111.686Z" fill="#121213"/>
<path d="M303.205 102.375C304.276 101.549 305.647 100.842 307.265 100.259C312.555 98.3568 317.456 98.7106 321.816 101.305C327.486 104.677 331.907 111.86 333.108 119.605C335.441 134.765 335.064 153.454 332.022 173.661C328.738 195.427 323.591 211.427 322.089 215.811C315.89 233.935 315.52 241.422 320.709 245.15C327.427 250.669 338.201 244.665 341.765 242.679C348.986 238.657 356.886 232.612 361.612 228.999L362.352 228.433L363.046 227.908C369.433 223.02 375.356 220.877 380.176 221.726C383.704 222.346 386.677 224.531 389.034 228.215C391.847 232.613 393.359 236.638 391.622 241.973C389.345 248.958 381.644 257.619 368.736 267.707C368.393 267.972 368.059 268.24 367.721 268.496C352.035 280.505 333.099 289.31 312.958 293.96C302.01 296.488 290.896 297.714 279.93 297.602C268.654 297.489 257.488 295.962 246.712 293.049L203.945 237.151L215.242 228.478C218.188 229.951 223.228 232.145 229.583 233.597C241.127 236.236 258.378 236.719 274.996 223.997C275.867 223.337 276.739 222.627 277.585 221.906C289.047 212.114 297.206 197.994 301.847 179.958C307.116 159.457 306.13 139.617 304.273 131.934C303.799 129.941 303.224 127.926 302.618 125.797C299.459 114.749 297.673 106.615 303.205 102.375ZM300.409 98.714C290.268 106.477 297.037 121.603 299.777 133.003C301.57 140.439 302.348 159.4 297.366 178.802C293.64 193.296 286.703 208.025 274.575 218.395C273.776 219.075 272.982 219.718 272.183 220.329C257.238 231.772 241.717 231.644 230.596 229.095C221.094 226.925 214.803 222.989 214.803 222.989L197.482 236.283L243.991 297.075C292.316 310.714 340.162 295.385 370.521 272.148C370.875 271.879 371.233 271.601 371.579 271.328C401.872 247.633 399.311 235.718 392.926 225.718C386.773 216.088 375.378 212.652 360.256 224.23C359.796 224.584 359.319 224.952 358.823 225.321C347.954 233.645 330.021 247.129 323.53 241.477C321.433 240.055 319.913 236.427 326.453 217.287C332.994 198.147 343.179 154.674 337.667 118.882C335.444 104.43 323.119 89.643 305.716 95.8986C303.571 96.687 301.822 97.6242 300.409 98.714Z" fill="white"/>
<path d="M233.809 244.212C236.484 247.71 235.959 252.619 232.626 255.164C229.29 257.717 224.416 256.946 221.741 253.447C219.066 249.949 219.591 245.04 222.924 242.495C226.26 239.942 231.134 240.713 233.809 244.212Z" fill="white"/>
<path d="M222.933 242.5C226.269 239.947 231.143 240.719 233.818 244.218C236.493 247.717 235.968 252.627 232.636 255.171C229.3 257.725 224.427 256.953 221.752 253.454C219.068 249.951 219.602 245.045 222.933 242.5ZM220.752 239.652C215.858 243.403 215.027 250.563 218.905 255.635C222.777 260.694 229.914 261.768 234.813 258.029C239.708 254.277 240.539 247.117 236.661 242.046C232.783 236.975 225.647 235.9 220.752 239.652Z" fill="white"/>
<path d="M233.556 256.389C229.554 259.45 223.703 258.553 220.524 254.381C217.333 250.213 217.992 244.33 221.994 241.269C225.996 238.209 231.848 239.105 235.026 243.278C238.217 247.446 237.558 253.328 233.556 256.389ZM223.866 243.716C221.211 245.749 220.804 249.697 222.966 252.518C225.129 255.338 229.038 255.979 231.701 253.95C234.356 251.917 234.764 247.969 232.601 245.148C230.438 242.328 226.52 241.683 223.866 243.716Z" fill="#121213"/>
<path d="M231.104 246.293C232.576 248.219 232.289 250.918 230.45 252.328C228.614 253.728 225.931 253.308 224.459 251.382C222.987 249.455 223.274 246.756 225.113 245.347C226.94 243.943 229.623 244.363 231.104 246.293Z" fill="#121213"/>
<path d="M227.444 249.088C227.091 250.109 226.107 250.681 225.25 250.367C224.397 250.044 223.996 248.963 224.353 247.935C224.707 246.914 225.69 246.342 226.547 246.656C227.404 246.97 227.81 248.063 227.444 249.088Z" fill="white"/>
<path d="M228.364 251.02C228.692 251.45 228.626 252.052 228.221 252.37C227.807 252.684 227.207 252.59 226.879 252.16C226.552 251.731 226.617 251.128 227.023 250.81C227.428 250.493 228.036 250.591 228.364 251.02Z" fill="white"/>
<path d="M230.575 248.879C230.844 249.233 230.793 249.731 230.454 249.988C230.115 250.244 229.615 250.171 229.346 249.817C229.076 249.462 229.128 248.964 229.467 248.708C229.809 248.443 230.305 248.524 230.575 248.879Z" fill="white"/>
<path d="M371.626 273.55C343.087 295.399 294.797 313.281 243.488 298.803L242.917 298.64L194.962 235.952L214.689 220.81L215.74 221.467C215.805 221.504 221.924 225.278 230.987 227.351C241.899 229.851 258.124 230.088 273.402 217.036C283.846 208.111 291.323 195.102 295.623 178.362C300.602 158.988 299.735 140.52 298.026 133.43C297.576 131.568 297.018 129.609 296.436 127.541C294.649 121.268 292.812 114.784 293.286 108.842C293.854 101.759 297.822 96.8441 305.085 94.23C312.158 91.6853 319.068 92.2329 325.076 95.7986C332.429 100.177 337.928 108.919 339.416 118.627C344.966 154.684 334.934 197.983 328.132 217.881C323.606 231.125 322.384 238.569 324.515 240.006L324.688 240.139C326.903 242.062 331.881 240.917 339.097 236.833C345.82 233.018 353.12 227.419 358.461 223.347L359.158 222.813C367.121 216.715 374.569 214.229 381.287 215.416C386.571 216.353 391.114 219.575 394.422 224.764C402.338 237.166 401.669 250.068 372.669 272.743C372.323 273.016 371.977 273.289 371.626 273.55ZM245.033 295.518C295.458 309.51 342.879 291.509 370.453 269.929C400.334 246.569 397.182 235.763 391.39 226.697C388.632 222.382 384.918 219.702 380.648 218.946C375.035 217.959 368.348 220.278 361.319 225.663L360.625 226.188C360.566 226.233 360.507 226.278 360.448 226.323C345.105 238.067 329.565 248.957 322.41 242.912C319.103 240.595 318.368 235.33 324.735 216.717C331.437 197.126 341.318 154.534 335.874 119.171C334.537 110.498 329.695 102.726 323.237 98.8786C318.119 95.8315 312.413 95.3954 306.296 97.5964C293.004 102.369 296.496 114.66 299.877 126.553C300.473 128.657 301.038 130.649 301.508 132.579C303.304 140.007 304.227 159.239 299.089 179.246C294.599 196.716 286.739 210.342 275.728 219.756C274.909 220.458 274.088 221.12 273.261 221.748C257.591 233.744 241.318 233.386 230.176 230.838C222.691 229.125 217.158 226.372 214.924 225.132L199.965 236.609L245.033 295.518ZM285.979 279.455C275.96 287.12 261.566 285.21 253.892 275.183C246.226 265.159 248.131 250.761 258.153 243.088C268.172 235.422 282.566 237.332 290.24 247.36C297.911 257.396 295.998 271.79 285.979 279.455ZM260.343 245.94C251.892 252.411 250.276 264.55 256.748 273.006C263.219 281.461 275.355 283.081 283.806 276.61C292.257 270.139 293.873 257.999 287.402 249.544C280.93 241.089 268.79 239.477 260.343 245.94Z" fill="#121213"/>
<path d="M286.01 296.654C286.021 297.689 283.331 298.556 279.996 298.589C276.661 298.621 273.954 297.811 273.944 296.776C273.934 295.741 276.623 294.873 279.958 294.841C283.285 294.805 286 295.619 286.01 296.654Z" fill="white"/>
<path d="M161.302 161.261L148.243 171.255C146.057 168.394 147.211 163.842 150.814 161.083C154.426 158.326 159.116 158.4 161.302 161.261Z" fill="white"/>
<path d="M170.289 158.759L171.175 165.479L149.858 181.796L143.595 179.183L144.18 174.369L165.497 158.052L170.289 158.759Z" fill="white"/>
<path d="M172.261 166.902L150.944 183.219C150.437 183.614 149.761 183.697 149.164 183.453L142.902 180.84C142.161 180.535 141.718 179.766 141.813 178.976L142.389 174.158C142.442 173.68 142.7 173.24 143.082 172.952L164.402 156.626C164.788 156.33 165.271 156.206 165.75 156.279L170.545 156.978C171.336 157.094 171.961 157.72 172.063 158.514L172.946 165.243C173.035 165.881 172.774 166.52 172.261 166.902ZM149.59 179.742L169.261 164.686L168.691 160.331L165.985 159.941L145.87 175.338L145.547 178.052L149.59 179.742Z" fill="#121213"/>
<path d="M163.179 171.636L157.213 176.202L160.782 180.867L166.749 176.302L163.179 171.636Z" fill="#121213"/>
<path d="M162.388 162.683L149.33 172.678C148.546 173.275 147.419 173.125 146.822 172.341C144.035 168.705 145.341 163.017 149.728 159.66C154.115 156.303 159.941 156.53 162.724 160.175C163.329 160.963 163.172 162.086 162.388 162.683ZM148.961 168.459L158.417 161.224C156.607 160.445 154.04 160.884 151.917 162.512C149.774 164.142 148.683 166.499 148.961 168.459Z" fill="#121213"/>
<path d="M162.676 160.26L159.335 162.816L165.013 170.238L168.355 167.682L162.676 160.26Z" fill="#121213"/>
<path d="M158.095 163.647L152.604 167.849L158.283 175.27L163.774 171.068L158.095 163.647Z" fill="#121213"/>
<path d="M146.831 172.214L145.74 173.296L152.377 179.992L153.469 178.91L146.831 172.214Z" fill="#121213"/>
</g>
</svg>
