<svg width="72" height="72" viewBox="0 0 72 72" fill="none" xmlns="http://www.w3.org/2000/svg">
<rect width="72" height="72" fill="#F8133C"/>
<path opacity="0.35" d="M51.5946 19.4299H20.4048V51.1461C20.4048 53.651 23.0403 55.2788 25.2801 54.1598L35.9997 48.7991L46.7193 54.1598C48.9591 55.2788 51.5946 53.6491 51.5946 51.1461V19.4299Z" fill="white"/>
<path d="M50.6201 17.4806C49.8676 17.4806 22.1321 17.4806 21.3796 17.4806C19.7655 17.4806 18.4556 18.7906 18.4556 20.4046C18.4556 22.0187 19.7655 23.3287 21.3796 23.3287C22.1321 23.3287 49.8676 23.3287 50.6201 23.3287C52.2342 23.3287 53.5441 22.0187 53.5441 20.4046C53.5441 18.7906 52.2342 17.4806 50.6201 17.4806Z" fill="white"/>
</svg>
