<svg width="72" height="72" viewBox="0 0 72 72" fill="none" xmlns="http://www.w3.org/2000/svg">
<rect width="72" height="72" fill="#F8133C"/>
<path opacity="0.35" d="M48.1283 31.1071L34.9896 28.9177V18.8001C34.9896 16.5661 33.1765 14.7531 30.9426 14.7531C28.7086 14.7531 26.8955 16.5661 26.8955 18.8001V39.1648L26.5191 38.7884C24.1476 36.4168 20.3049 36.4168 17.9333 38.7884L17.3688 39.353C16.5776 40.1442 16.5776 41.4251 17.3688 42.2142L28.7835 53.6289L29.0688 53.3436C30.2991 54.501 31.9422 55.2234 33.7654 55.2234H48.6079C51.1454 55.2234 53.2013 53.1675 53.2013 50.63V37.0947C53.2013 34.1262 51.0563 31.5948 48.1283 31.1071Z" fill="white"/>
<path d="M52.1896 51.1764C51.4085 51.1764 28.6884 51.1764 27.9073 51.1764C26.2319 51.1764 24.8721 52.5362 24.8721 54.2117C24.8721 55.8871 26.2319 57.247 27.9073 57.247C28.6884 57.247 51.4085 57.247 52.1896 57.247C53.8651 57.247 55.2249 55.8871 55.2249 54.2117C55.2249 52.5362 53.8651 51.1764 52.1896 51.1764Z" fill="white"/>
</svg>
