<svg width="72" height="72" viewBox="0 0 72 72" fill="none" xmlns="http://www.w3.org/2000/svg">
<rect width="72" height="72" fill="#F8133C"/>
<path opacity="0.35" d="M46.0956 16.7048L17.1279 45.6324C16.5461 46.2143 16.1574 46.961 16.0184 47.7714L14.8335 54.6452C14.5767 56.1317 15.87 57.4249 17.3588 57.1658L24.1525 55.9833C24.9582 55.8419 25.7026 55.4579 26.2821 54.8808L55.2945 25.9037L46.0956 16.7048Z" fill="white"/>
<path d="M41.9289 20.8625L17.1284 45.6324C16.5465 46.2142 16.1578 46.961 16.0188 47.7713L15.5571 50.4474L21.5476 56.4379L24.1506 55.9856C24.9563 55.8442 25.7007 55.4603 26.2802 54.8831L51.1325 30.0614L41.9289 20.8625Z" fill="white"/>
<path d="M54.9509 26.2476L55.2971 25.9036C57.8366 23.3642 57.8366 19.2441 55.2971 16.7047C52.7577 14.1653 48.6377 14.1653 46.0982 16.7047L45.752 17.0487L54.9509 26.2476Z" fill="white"/>
<path opacity="0.35" d="M55.8199 45.8279L26.1714 16.1794C24.3316 14.3396 21.3494 14.3396 19.5096 16.1794L16.1787 19.5103C14.3389 21.3501 14.3389 24.3324 16.1787 26.1722L45.8272 55.8207C47.6669 57.6604 50.6492 57.6604 52.489 55.8207L55.8199 52.4897C57.6597 50.65 57.6597 47.6677 55.8199 45.8279Z" fill="white"/>
</svg>
