<svg width="63" height="81" viewBox="0 0 63 81" fill="none" xmlns="http://www.w3.org/2000/svg">
<path d="M11.2664 74.1008L10.3739 73.985L10.0958 76.1283L11.8129 74.8159L11.2664 74.1008ZM11.2664 74.1008C11.8129 74.8159 11.813 74.8158 11.8131 74.8157L11.8136 74.8154L11.815 74.8143L11.8204 74.8102L11.8406 74.7946L11.9181 74.7349C11.9858 74.6826 12.0847 74.6057 12.2112 74.5067C12.4641 74.3086 12.8274 74.0215 13.2707 73.6638C14.1567 72.9487 15.365 71.9495 16.6527 70.8138C19.1911 68.575 22.1638 65.6986 23.4883 63.4045C26.718 57.8104 30.2075 50.7912 32.6331 45.0108C33.844 42.125 34.8022 39.5185 35.3268 37.5402C35.5872 36.5581 35.7543 35.6816 35.7757 34.983C35.7863 34.6352 35.763 34.28 35.6664 33.9589C35.5688 33.6346 35.3696 33.2643 34.9749 33.0365C34.5802 32.8086 34.16 32.8212 33.8303 32.8988C33.5039 32.9757 33.1847 33.1331 32.8888 33.3162C32.2944 33.6841 31.6189 34.2671 30.8986 34.9836C29.4476 36.427 27.6695 38.5601 25.7757 41.0517C21.9825 46.0425 17.6484 52.5741 14.4187 58.1681C13.0942 60.4622 12.0895 64.4749 11.4198 67.7926C11.0801 69.4756 10.819 71.0217 10.6427 72.1465C10.5546 72.7093 10.4875 73.1674 10.4425 73.4855C10.4199 73.6446 10.4029 73.7687 10.3914 73.8534L10.3784 73.9504L10.3751 73.9757L10.3742 73.9824L10.374 73.9842L10.3739 73.9848C10.3739 73.9849 10.3739 73.985 11.2664 74.1008Z" fill="#121213" stroke="white" stroke-width="1.8"/>
<rect x="35.2267" y="9.51252" width="23.8759" height="42.7981" transform="rotate(30 35.2267 9.51252)" fill="#121213" stroke="white" stroke-width="1.8"/>
<rect x="44.8429" y="2.31843" width="14.4148" height="6.53055" transform="rotate(30 44.8429 2.31843)" fill="#121213" stroke="white" stroke-width="1.8"/>
<path d="M34.6253 56.5057L35.7493 57.1547L34.7475 57.9798L27.5996 63.8674L27.1179 64.2642L26.5774 63.9521L13.0822 56.1606L12.5417 55.8486L12.6445 55.233L14.1693 46.099L14.383 44.8188L15.507 45.4678L34.6253 56.5057Z" fill="#121213" stroke="white" stroke-width="1.8"/>
<path d="M55.8005 19.828L57.2807 20.6826L57.1478 18.9786L56.7015 13.2586L56.6647 12.7861L56.2542 12.5492L42.759 4.75767L42.3486 4.52071L41.921 4.72503L36.7442 7.19858L35.202 7.93546L36.6822 8.79006L55.8005 19.828Z" fill="#121213" stroke="white" stroke-width="1.8"/>
<rect x="35.5436" y="4.23274" width="28.6064" height="8.1074" transform="rotate(30 35.5436 4.23274)" fill="#121213" stroke="white" stroke-width="1.8"/>
<rect x="14.2565" y="41.1038" width="28.6064" height="8.1074" transform="rotate(30 14.2565 41.1038)" fill="#121213" stroke="white" stroke-width="1.8"/>
<path d="M11.2669 74.1013L10.3743 73.9855L10.0963 76.1288L11.8134 74.8164L11.2669 74.1013ZM11.2669 74.1013C11.8134 74.8164 11.8135 74.8163 11.8136 74.8162L11.814 74.8159L11.8155 74.8148L11.8209 74.8107L11.8411 74.7951L11.9186 74.7353C11.9863 74.6831 12.0852 74.6062 12.2117 74.5072C12.4646 74.3091 12.8279 74.022 13.2711 73.6643C14.1572 72.9492 15.3655 71.95 16.6532 70.8143C19.1916 68.5755 22.1643 65.6991 23.4888 63.405C26.7185 57.8109 30.208 50.7917 32.6336 45.0113C33.8445 42.1255 34.8027 39.519 35.3273 37.5407C35.5877 36.5586 35.7548 35.6821 35.7762 34.9835C35.7868 34.6357 35.7635 34.2805 35.6669 33.9594C35.5693 33.635 35.3701 33.2648 34.9754 33.0369C34.5807 32.809 34.1605 32.8217 33.8308 32.8993C33.5044 32.9762 33.1851 33.1336 32.8893 33.3167C32.2949 33.6846 31.6194 34.2675 30.8991 34.9841C29.4481 36.4275 27.67 38.5606 25.7762 41.0522C21.983 46.043 17.6489 52.5746 14.4192 58.1686C13.0947 60.4627 12.09 64.4754 11.4203 67.7931C11.0806 69.4761 10.8195 71.0221 10.6432 72.147C10.5551 72.7098 10.488 73.1679 10.443 73.486C10.4204 73.6451 10.4034 73.7692 10.3919 73.8539L10.3789 73.9509L10.3756 73.9762L10.3747 73.9829L10.3744 73.9847L10.3744 73.9853C10.3744 73.9854 10.3743 73.9855 11.2669 74.1013Z" fill="#121213" stroke="white" stroke-width="1.8"/>
<rect x="35.2272" y="9.51252" width="23.8759" height="42.7981" transform="rotate(30 35.2272 9.51252)" fill="#121213" stroke="white" stroke-width="1.8"/>
<rect x="44.8434" y="2.31892" width="14.4148" height="6.53055" transform="rotate(30 44.8434 2.31892)" fill="#121213" stroke="white" stroke-width="1.8"/>
<path d="M34.6258 56.506L35.7498 57.1549L34.748 57.9801L27.6001 63.8676L27.1184 64.2644L26.5779 63.9523L13.0827 56.1609L12.5422 55.8488L12.645 55.2332L14.1698 46.0993L14.3835 44.8191L15.5075 45.468L34.6258 56.506Z" fill="#121213" stroke="white" stroke-width="1.8"/>
<path d="M55.8015 19.8285L57.2817 20.6831L57.1487 18.9791L56.7025 13.2591L56.6656 12.7866L56.2552 12.5496L42.76 4.75816L42.3496 4.5212L41.922 4.72552L36.7452 7.19906L35.203 7.93595L36.6832 8.79055L55.8015 19.8285Z" fill="#121213" stroke="white" stroke-width="1.8"/>
<rect x="35.5441" y="4.23298" width="28.6064" height="8.1074" transform="rotate(30 35.5441 4.23298)" fill="#121213" stroke="white" stroke-width="1.8"/>
<rect x="14.257" y="41.1038" width="28.6064" height="8.1074" transform="rotate(30 14.257 41.1038)" fill="#121213" stroke="white" stroke-width="1.8"/>
<line x1="9" y1="78.1" x2="56" y2="78.1" stroke="white" stroke-width="1.8"/>
</svg>
