<svg width="72" height="72" viewBox="0 0 72 72" fill="none" xmlns="http://www.w3.org/2000/svg">
<rect width="72" height="72" fill="#F8133C"/>
<path opacity="0.35" d="M35.2024 33.4549L39.9407 17.664C36.1474 16.5284 31.9298 16.3754 27.5485 17.664C19.8732 19.9218 13.9912 26.5098 12.6274 34.3945C10.0583 49.2458 22.7565 61.9467 37.6078 59.3749C45.4898 58.0111 52.0806 52.1291 54.3383 44.4538C55.6269 40.0725 55.4739 35.8523 54.3383 32.0616L38.5474 36.7999C36.4964 37.412 34.5876 35.5033 35.2024 33.4549Z" fill="white"/>
<path d="M43.9143 31.428L59.7052 26.6896C57.6381 19.7929 52.2044 14.3592 45.3076 12.2921L40.5693 28.083C39.9572 30.134 41.8659 32.0428 43.9143 31.428Z" fill="white"/>
</svg>
