<svg width="72" height="72" viewBox="0 0 72 72" fill="none" xmlns="http://www.w3.org/2000/svg">
<rect width="72" height="72" fill="#F8133C"/>
<path d="M35.9999 54.8706C38.6054 54.8706 40.7176 52.7585 40.7176 50.153C40.7176 47.5475 38.6054 45.4353 35.9999 45.4353C33.3944 45.4353 31.2822 47.5475 31.2822 50.153C31.2822 52.7585 33.3944 54.8706 35.9999 54.8706Z" fill="white"/>
<path opacity="0.35" d="M47.7942 59.5883H24.2059C20.2973 59.5883 17.1294 56.4204 17.1294 52.5118V19.4882C17.1294 15.5796 20.2973 12.4117 24.2059 12.4117H47.7942C51.7028 12.4117 54.8707 15.5796 54.8707 19.4882V52.5118C54.8707 56.4204 51.7028 59.5883 47.7942 59.5883Z" fill="white"/>
<path d="M45.4355 26.5647H26.5649C25.2628 26.5647 24.2061 25.5079 24.2061 24.2058V21.847C24.2061 20.5449 25.2628 19.4882 26.5649 19.4882H45.4355C46.7376 19.4882 47.7944 20.5449 47.7944 21.847V24.2058C47.7944 25.5079 46.7376 26.5647 45.4355 26.5647Z" fill="white"/>
<path d="M45.4355 38.3588H26.5649C25.2628 38.3588 24.2061 37.302 24.2061 35.9999V33.6411C24.2061 32.339 25.2628 31.2823 26.5649 31.2823H45.4355C46.7376 31.2823 47.7944 32.339 47.7944 33.6411V35.9999C47.7944 37.302 46.7376 38.3588 45.4355 38.3588Z" fill="white"/>
</svg>
