<svg width="72" height="72" viewBox="0 0 72 72" fill="none" xmlns="http://www.w3.org/2000/svg">
<rect width="72" height="72" fill="#F8133C"/>
<path opacity="0.35" d="M58.7175 23.2962C57.8995 22.4066 56.7366 21.8967 55.5259 21.8967H21.4089L21.1703 20.0937C20.8122 17.4119 18.5015 15.3875 15.7936 15.3875H14.303C13.1032 15.3875 12.1333 16.3574 12.1333 17.5572C12.1333 18.7571 13.1032 19.727 14.303 19.727H15.7936C16.3361 19.727 16.7982 20.1327 16.8698 20.6687L20.2047 45.6814C20.7038 49.4394 23.9388 52.273 27.7294 52.273H50.7221C54.6406 52.273 57.9646 49.2159 58.2901 45.3103L59.8523 26.5942C59.9499 25.3878 59.5377 24.1858 58.7175 23.2962Z" fill="white"/>
<path d="M29.4913 56.6125C31.888 56.6125 33.8308 54.6696 33.8308 52.273C33.8308 49.8764 31.888 47.9335 29.4913 47.9335C27.0947 47.9335 25.1519 49.8764 25.1519 52.273C25.1519 54.6696 27.0947 56.6125 29.4913 56.6125Z" fill="white"/>
<path d="M49.0187 56.6125C51.4153 56.6125 53.3581 54.6696 53.3581 52.273C53.3581 49.8764 51.4153 47.9335 49.0187 47.9335C46.622 47.9335 44.6792 49.8764 44.6792 52.273C44.6792 54.6696 46.622 56.6125 49.0187 56.6125Z" fill="white"/>
<path d="M44.6796 28.4059C44.276 28.4059 34.2344 28.4059 33.8309 28.4059C32.6332 28.4059 31.6611 29.378 31.6611 30.5757C31.6611 31.7734 32.6332 32.7454 33.8309 32.7454C34.2344 32.7454 44.276 32.7454 44.6796 32.7454C45.8772 32.7454 46.8493 31.7734 46.8493 30.5757C46.8493 29.378 45.8772 28.4059 44.6796 28.4059Z" fill="white"/>
</svg>
