<svg width="72" height="72" viewBox="0 0 72 72" fill="none" xmlns="http://www.w3.org/2000/svg">
<rect width="72" height="72" fill="#F8133C"/>
<path d="M55.8436 49.8826C55.2387 49.2776 51.7502 45.7891 49.9395 43.9785C48.424 46.3856 46.3857 48.4239 43.9785 49.9395C45.7892 51.7501 49.2777 55.2386 49.8826 55.8436C51.5288 57.4898 54.1974 57.4898 55.8436 55.8436C57.4899 54.1973 57.4899 51.5288 55.8436 49.8826Z" fill="white"/>
<path opacity="0.35" d="M33.8926 52.8631C44.3698 52.8631 52.8632 44.3696 52.8632 33.8924C52.8632 23.4152 44.3698 14.9217 33.8926 14.9217C23.4153 14.9217 14.9219 23.4152 14.9219 33.8924C14.9219 44.3696 23.4153 52.8631 33.8926 52.8631Z" fill="white"/>
</svg>
