<svg width="205" height="338" viewBox="0 0 205 338" fill="none" xmlns="http://www.w3.org/2000/svg">
<g opacity="0.05">
<path d="M68.1164 148.184C57.9898 140.898 57.5697 128.384 57.5697 128.384C46.9678 123.288 46.216 107.445 46.216 107.445C46.216 107.445 39.7266 104.637 35.194 96.8766C30.6613 89.1158 30.8161 80.3712 30.8161 80.3712C30.8161 80.3712 24.8905 78.2596 19.1971 68.531C13.5037 58.8024 15.5931 50.8316 15.5931 50.8316C15.5931 50.8316 7.75493 48.9633 3.42129 34.0388C-1.36562 17.5334 7.12476 1.95654 7.12476 1.95654C7.12476 1.95654 24.8684 2.21082 36.9075 14.4711C47.7969 25.5705 45.5748 33.3091 45.5748 33.3091C45.5748 33.3091 53.5456 35.3986 59.2391 45.1271C64.9325 54.8557 63.8601 61.0577 63.8601 61.0577C63.8601 61.0577 71.5656 65.2034 76.0983 72.9642C80.6309 80.7249 79.9013 87.756 79.9013 87.756C79.9013 87.756 93.3334 96.1801 92.5816 107.921C92.5816 107.921 103.272 114.432 104.665 126.825C104.665 126.825 110.303 124.526 119.833 128.959C106.301 141.882 100.398 161.45 100.398 161.45C100.398 161.45 80.454 156.995 62.5556 162.456C63.3516 151.965 68.1164 148.184 68.1164 148.184Z" fill="#F8F8F8"/>
<path d="M45.3756 35.233L45.7625 31.3637C37.051 30.5014 29.9425 26.6763 17.5828 16.207L15.0732 19.1698C28.1184 30.225 35.7686 34.2823 45.3756 35.233Z" fill="#121213"/>
<path d="M63.0199 62.805L64.6893 59.3005C61.9476 57.996 59.228 57.0452 56.3537 56.0392C48.7477 53.3749 40.8874 50.6332 32.0211 40.772L29.1357 43.3699C38.6653 53.9719 47.3879 57.0231 55.0713 59.7096C57.8462 60.6714 60.4662 61.5889 63.0199 62.805Z" fill="#121213"/>
<path d="M78.8399 89.3815L80.9624 86.1313C79.0388 84.871 76.2197 83.8207 72.9695 82.6157C65.4188 79.8077 55.0822 75.9495 47.0893 66.5083L44.1265 69.0178C52.7827 79.2328 63.661 83.2901 71.6097 86.2529C74.6499 87.3805 77.27 88.3534 78.8399 89.3815Z" fill="#121213"/>
<path d="M91.5201 109.546L93.6316 106.285C89.3975 103.543 85.0528 102.062 80.8518 100.625C74.1634 98.3363 67.2428 95.9704 59.8469 88.3755L57.061 91.084C65.1092 99.3533 72.472 101.874 79.5916 104.306C83.7594 105.721 87.684 107.07 91.5201 109.546Z" fill="#121213"/>
<path d="M105.704 147.687L108.28 144.779C103.416 140.424 100.995 136.3 101.448 133.172C101.802 130.761 103.825 129.335 105.472 128.562L103.825 125.046C100.298 126.704 98.0761 129.391 97.6118 132.608C97.3354 134.52 97.6007 137.173 99.5243 140.468C96.4399 139.827 92.8028 139.993 89.1104 142.159L91.0671 145.509C98.2973 141.297 105.638 147.621 105.704 147.687Z" fill="#121213"/>
<path d="M6.09668 3.60449C9.41324 5.28488 12.7409 7.09792 16.1348 8.76726C17.8373 9.5964 19.5509 10.4034 21.3087 11.1331C23.0664 11.8517 24.8574 12.5039 26.6925 12.913C24.9569 12.1944 23.3318 11.2658 21.7509 10.2708C20.17 9.27585 18.6443 8.20344 17.1408 7.10897C14.1228 4.90899 11.1932 2.58743 8.14193 0.310059L6.09668 3.60449Z" fill="#121213"/>
<path d="M6.8042 3.80349C8.25243 5.77132 9.94389 7.39642 11.7238 8.8336C13.5258 10.2597 15.4273 11.4647 17.373 12.5703C19.3187 13.6647 21.3308 14.6155 23.3539 15.4889C25.388 16.3512 27.4443 17.1361 29.5448 17.7773C27.5659 16.8376 25.6533 15.7541 23.7961 14.6265C21.9388 13.4768 20.1368 12.2718 18.4343 10.9452C16.7429 9.61855 15.1178 8.21456 13.6806 6.67788C12.2655 5.14121 11.0162 3.48291 10.0986 1.7583L6.8042 3.80349Z" fill="#121213"/>
<path d="M8.9707 8.18158C10.3415 10.0389 11.9335 11.5644 13.6139 12.9242C15.2943 14.273 17.0631 15.4559 18.8761 16.5393C22.5022 18.684 26.3053 20.4418 30.2299 21.7905C26.5706 19.8448 23.1435 17.5343 19.9927 14.9474C18.4229 13.6539 16.9415 12.272 15.6038 10.8017C14.2772 9.33131 13.0943 7.76148 12.2541 6.11426L8.9707 8.18158Z" fill="#121213"/>
<path d="M45.9947 32.6243C45.3866 31.0324 44.6017 29.6394 43.7504 28.3128C42.8881 26.9972 41.9263 25.7591 40.8871 24.6093C38.8088 22.3319 36.3987 20.3199 33.646 19.0928C36.056 20.8837 37.8691 23.2495 39.3173 25.759C40.0359 27.0193 40.655 28.3239 41.1635 29.6505C41.661 30.9771 42.059 32.3369 42.2469 33.6193L45.9947 32.6243Z" fill="#121213"/>
<path d="M43.861 32.094C43.5072 31.508 43.1424 31.0769 42.7997 30.6899C42.4459 30.303 42.0922 29.9492 41.7274 29.5955C41.0088 28.91 40.2791 28.2688 39.5494 27.6387C38.0791 26.3894 36.5867 25.1955 35.061 24.0347C36.1002 25.6266 37.1063 27.2518 38.057 28.8879C38.5213 29.706 38.9856 30.5241 39.3947 31.3422C39.5937 31.7513 39.7927 32.1603 39.9585 32.5583C40.1243 32.9563 40.2459 33.3321 40.2901 33.6085L43.861 32.094Z" fill="#121213"/>
<path d="M19.7939 27.4392C21.6181 29.6282 23.5528 31.6955 25.5648 33.6523C27.5769 35.6201 29.6662 37.4884 31.811 39.2683C33.9667 41.0482 36.1778 42.7507 38.4662 44.3426C40.7546 45.9346 43.1094 47.427 45.5636 48.6984C44.4471 47.8803 43.3636 47.018 42.3023 46.1336C41.23 45.2713 40.1908 44.3648 39.1738 43.4362C37.1286 41.601 35.216 39.6221 33.2924 37.6764C31.3909 35.7086 29.5668 33.6744 27.8311 31.5739C26.9577 30.5236 26.1396 29.4513 25.3105 28.3789L24.0944 26.7649L22.9226 25.1177L19.7939 27.4392Z" fill="#121213"/>
<path d="M23.8405 24.3877L20.9551 26.9636C22.5912 28.5998 24.2717 30.1696 26.0295 31.6399C27.7762 33.1213 29.5892 34.5143 31.4355 35.863C33.2817 37.1896 35.1831 38.45 37.1289 39.6218C39.0746 40.7826 41.0645 41.8771 43.1318 42.7947C42.1811 42.1756 41.2635 41.5233 40.368 40.8379C39.4615 40.1745 38.5882 39.467 37.7259 38.7595C35.9902 37.3334 34.354 35.8077 32.7289 34.2821C31.1148 32.7344 29.556 31.1424 28.0746 29.4841C27.3229 28.666 26.6154 27.8148 25.8968 26.9636C25.7531 26.8088 24.9903 25.847 24.8465 25.6811C24.7139 25.5264 23.9843 24.5535 23.8405 24.3877Z" fill="#121213"/>
<path d="M22.1265 26.4885C23.5636 27.583 25.0119 28.6442 26.5044 29.6281C27.9858 30.6342 29.5224 31.5518 31.0702 32.4473C32.6179 33.3206 34.1988 34.1387 35.8018 34.8904C37.4048 35.6311 39.0409 36.3276 40.7103 36.8804C39.1736 36.0402 37.7143 35.0673 36.2882 34.0613C34.8731 33.0442 33.5023 31.9718 32.1646 30.8663C30.849 29.7387 29.5556 28.6 28.3285 27.384C27.0903 26.19 25.9074 24.9297 24.7576 23.6694L22.1265 26.4885Z" fill="#121213"/>
<path d="M64.1586 60.0522C63.8822 58.8582 63.4511 57.8411 62.9646 56.9125C62.7325 56.4371 62.4561 56.006 62.2018 55.5527L61.3616 54.2703C60.2008 52.6121 58.9185 51.0975 57.5476 49.6713C56.1768 48.2563 54.7286 46.9297 53.2029 45.7136C51.6773 44.4975 50.0743 43.4031 48.3828 42.4634C51.3788 44.8845 53.9104 47.792 56.0441 50.8985C57.1054 52.4573 58.0561 54.0714 58.8411 55.7296C59.6149 57.3658 60.223 59.1456 60.3114 60.5828L62.235 60.3175L64.1586 60.0522Z" fill="#121213"/>
<path d="M49.2119 46.6641C50.1958 47.6148 51.1134 48.6208 51.9757 49.671C52.838 50.7213 53.6451 51.8158 54.4079 52.9324C54.441 52.9876 54.4853 53.0429 54.5185 53.0871C55.2813 54.2369 55.9888 55.4198 56.6079 56.6248C57.1938 57.7856 57.7023 59.0127 57.9234 60.074L59.637 59.3223L61.3506 58.5705C61.0189 57.8187 60.6099 57.1554 60.1787 56.5253C59.9687 56.2157 59.7476 55.9283 59.5264 55.6298C59.438 55.5635 58.9295 54.8559 58.841 54.7896C57.9677 53.7504 57.028 52.7776 56.0551 51.86C55.9998 51.8048 55.9446 51.7605 55.9004 51.7052C54.8943 50.7766 53.8552 49.8922 52.7828 49.063C52.7496 49.0409 52.7164 49.0077 52.6833 48.9856C51.5556 48.1565 50.4059 47.3716 49.2119 46.6641Z" fill="#121213"/>
<path d="M58.5204 57.0892C57.1385 55.9394 55.7455 54.8671 54.3304 53.8389C53.6229 53.3193 52.9154 52.8219 52.1968 52.3244C51.4782 51.8269 50.7596 51.3404 50.041 50.854C50.5385 51.5615 51.0249 52.2801 51.5003 52.9987C51.9757 53.7173 52.4511 54.447 52.9154 55.1656C53.844 56.6138 54.7174 58.0841 55.5244 59.5545L57.0169 58.3163L58.5204 57.0892Z" fill="#121213"/>
<path d="M35.6582 54.5911C37.1175 56.5589 38.6984 58.383 40.3788 60.0966C42.0592 61.8101 43.8391 63.4021 45.6632 64.9056C47.4984 66.3981 49.3999 67.8021 51.3677 69.1066C53.3355 70.4111 55.3476 71.605 57.437 72.6774C53.6119 69.991 50.1405 66.8624 46.9898 63.4905C45.42 61.7991 43.9386 60.0413 42.5898 58.2062C41.2301 56.371 40.0029 54.4805 38.9306 52.5127L35.6582 54.5911Z" fill="#121213"/>
<path d="M40.1576 50.876L38.5214 51.9262L36.8853 52.9764C38.1566 54.6237 39.5275 56.0388 40.9646 57.3764C42.4018 58.7141 43.8942 59.9413 45.4309 61.1021C46.9676 62.2628 48.5485 63.3573 50.1515 64.3854C51.7656 65.4136 53.4128 66.3754 55.1042 67.2598C53.5786 66.099 52.1083 64.8608 50.6932 63.5784C49.3224 62.3292 48.0178 61.0357 46.7576 59.698C46.7133 59.6538 46.6802 59.6096 46.636 59.5654C45.3978 58.2387 44.2259 56.8679 43.1425 55.4529C43.0983 55.3976 43.054 55.3423 43.0098 55.2759C41.9375 53.8609 40.9425 52.3795 40.1576 50.876Z" fill="#121213"/>
<path d="M38.1343 51.3631C39.2066 52.7008 40.3785 53.6958 41.5614 54.6576C42.7443 55.6194 43.9603 56.4817 45.1985 57.2998C46.4367 58.1289 47.6859 58.9139 48.9462 59.6656C50.2065 60.4174 51.489 61.147 52.7824 61.8435C51.6769 60.8817 50.5935 59.8978 49.5322 58.8917C48.4709 57.8857 47.4427 56.8575 46.4478 55.8073C45.4528 54.757 44.491 53.6847 43.6176 52.5792C42.7553 51.4847 41.9151 50.335 41.3955 49.2295L39.7704 50.2797L38.1343 51.3631Z" fill="#121213"/>
<path d="M79.857 86.3857C79.2379 83.7213 78.0549 81.4661 76.7173 79.3877C75.3685 77.3093 73.7987 75.441 72.1073 73.7053C70.4158 71.9807 68.5917 70.3887 66.6239 69.0179C64.656 67.6692 62.5114 66.4531 60.1787 65.9888C62.4229 66.7626 64.3023 68.2219 66.0158 69.7807C67.7294 71.3616 69.255 73.1194 70.6258 74.9767C71.9967 76.8339 73.2128 78.7907 74.1746 80.8248C75.1253 82.859 75.8439 84.9927 76.0097 86.9937L79.857 86.3857Z" fill="#121213"/>
<path d="M78.7847 85.5781C77.845 83.6214 76.6511 81.9409 75.3797 80.3711C74.0973 78.8123 72.7043 77.3752 71.2561 76.0264C69.7968 74.6887 68.2601 73.4284 66.635 72.3229C65.0099 71.2284 63.2742 70.2003 61.3838 69.7139C63.1637 70.5098 64.634 71.7701 66.027 73.0857C67.4089 74.4123 68.6692 75.8495 69.83 77.3531C70.9908 78.8566 72.0631 80.4264 72.9918 82.0405C73.9204 83.6545 74.7054 85.3349 75.1697 86.9821L78.7847 85.5781Z" fill="#121213"/>
<path d="M77.5576 84.7054C75.3466 82.3396 72.9586 80.2833 70.4822 78.3708C69.244 77.42 67.9727 76.5024 66.6572 75.6622C65.3527 74.822 63.9928 74.015 62.5557 73.4512C63.8491 74.3024 64.9657 75.3416 66.0491 76.414C67.1326 77.4974 68.1607 78.614 69.1446 79.7748C71.1124 82.0964 72.9476 84.5285 74.4511 87.0491L77.5576 84.7054Z" fill="#121213"/>
<path d="M76.1424 83.8651C71.9746 81.7757 67.8399 79.4984 63.7495 77.1768C67.0661 80.5375 70.4268 83.8431 73.9424 87.0712L76.1424 83.8651Z" fill="#121213"/>
<path d="M93.0015 106.34C91.885 104.184 90.492 102.493 88.9885 100.934C87.4739 99.3754 85.8488 97.9825 84.1352 96.7222C80.6971 94.2237 76.8941 92.2669 72.8921 91.1172C76.6619 92.875 80.0005 95.3293 82.8638 98.1926C84.29 99.6297 85.5945 101.166 86.7442 102.791C87.8829 104.406 88.8669 106.152 89.3975 107.811L93.0015 106.34Z" fill="#121213"/>
<path d="M88.3584 103.256C86.3685 101.664 84.3011 100.315 82.1785 99.0877C81.1172 98.4797 80.0338 97.8937 78.9394 97.3631C77.8338 96.8435 76.7173 96.3239 75.5454 96.0254C76.5957 96.6224 77.5022 97.3962 78.4087 98.1701C79.3042 98.955 80.1665 99.7731 81.0067 100.624C82.665 102.316 84.2348 104.096 85.5725 105.942L88.3584 103.256Z" fill="#121213"/>
<path d="M48.4712 76.4914C51.3345 79.819 54.4852 82.8039 57.8018 85.5346C61.1294 88.2541 64.6561 90.7084 68.3374 92.831C65.0098 90.1778 61.9475 87.2592 59.1395 84.1306C56.3315 81.013 53.7667 77.6853 51.5998 74.1919L48.4712 76.4914Z" fill="#121213"/>
<path d="M52.0312 77.8072C54.3971 80.2173 56.9177 82.3841 59.5598 84.363C62.202 86.3419 64.9547 88.1549 67.807 89.7358C65.3196 87.6243 63.0091 85.3248 60.8533 82.9148C58.7086 80.5047 56.7186 77.962 55.005 75.3198L52.0312 77.8072Z" fill="#121213"/>
<path d="M55.6016 79.1336C57.4588 80.626 59.3714 81.9637 61.3171 83.2019C63.2739 84.4401 65.2528 85.6009 67.2759 86.6622C65.6286 85.0813 64.0699 83.423 62.5774 81.7205C61.0849 80.029 59.6809 78.2712 58.4317 76.4692L55.6016 79.1336Z" fill="#121213"/>
<path d="M100.508 133.768C100.884 132.464 101.127 131.093 101.205 129.678C101.271 128.263 101.138 126.792 100.784 125.377C100.431 123.962 99.8779 122.602 99.1593 121.386C98.4628 120.159 97.6448 119.054 96.7825 118.037C96.3513 117.528 95.898 117.053 95.4558 116.566C94.9583 116.08 94.4608 115.582 93.9191 115.162C92.8578 114.3 91.7302 113.57 90.5694 112.94C89.3976 112.332 88.2036 111.801 86.9654 111.37C85.7383 110.95 84.4891 110.596 83.1846 110.431C85.2077 112.056 87.1644 113.592 88.9332 115.251C89.8176 116.069 90.6579 116.909 91.4097 117.782C91.7966 118.214 92.1393 118.656 92.4709 119.098C92.8247 119.584 93.1784 120.071 93.5101 120.557C94.1734 121.53 94.7815 122.503 95.279 123.476C95.7544 124.46 96.1523 125.455 96.3955 126.472C96.9261 128.506 96.8819 130.695 96.6829 133.016L100.508 133.768Z" fill="#121213"/>
<path d="M61.4829 96.8115C62.4889 98.4145 63.6055 99.918 64.7773 101.366C65.9381 102.814 67.1763 104.185 68.4587 105.523C69.7301 106.861 71.0346 108.154 72.4275 109.359C73.8205 110.553 75.2356 111.747 76.8276 112.687C75.6225 111.305 74.5612 109.846 73.4889 108.386C72.4276 106.927 71.3773 105.468 70.3602 103.986C69.3431 102.505 68.3924 100.99 67.4527 99.4868C66.5351 97.9722 65.6507 96.4356 64.8547 94.8989L63.1633 95.8607L61.4829 96.8115Z" fill="#121213"/>
<path d="M66.1149 95.8826L64.8545 96.6233L63.5942 97.364C64.5229 98.7238 65.54 99.8735 66.5792 100.979C66.6344 101.034 66.6897 101.09 66.745 101.156C67.7621 102.217 68.8234 103.223 69.9068 104.185C69.9621 104.229 70.0063 104.273 70.0616 104.318C71.156 105.291 72.2837 106.23 73.4445 107.126C73.4776 107.148 73.5108 107.17 73.5439 107.203C74.7379 108.11 75.943 108.994 77.2475 109.746C76.2193 108.629 75.2686 107.457 74.3289 106.297C73.3892 105.125 72.4716 103.942 71.5871 102.748C70.7691 101.631 69.9841 100.504 69.2434 99.365C69.0776 99.1107 68.9228 98.8564 68.757 98.6022C68.1932 97.7067 67.6515 96.7891 67.1761 95.8826C67.0877 95.7167 66.1701 96.0373 66.1149 95.8826Z" fill="#121213"/>
<path d="M65.728 97.9167C66.6235 99.0775 67.5853 99.9067 68.5582 100.714C69.531 101.51 70.526 102.239 71.532 102.936C72.538 103.632 73.5551 104.296 74.5833 104.937C75.6114 105.578 76.6506 106.197 77.7008 106.794C76.8496 105.943 76.0204 105.069 75.2024 104.196C74.3953 103.312 73.5993 102.416 72.8365 101.51C72.0737 100.603 71.3441 99.6744 70.6808 98.7237C70.0286 97.7951 69.3984 96.8112 69.0557 95.9268L67.3863 96.9217L65.728 97.9167Z" fill="#121213"/>
<path d="M111.751 131.27C111.751 131.27 107.274 136.333 106.179 138.732C103.813 134.929 104.012 133.249 104.963 132.21C105.925 131.159 107.915 130.485 111.751 131.27Z" fill="#121213"/>
<path d="M97.3461 156.243C97.3461 156.243 99.9993 149.853 101.204 147.897C98.0757 145.686 93.4768 146.769 92.2275 147.499L97.3461 156.243Z" fill="#121213"/>
<path d="M71.6317 135.172C74.8598 140.689 81.9352 142.546 87.4517 139.318C92.9683 136.09 94.8255 129.015 91.5974 123.498C88.3693 117.982 81.294 116.124 75.7774 119.352C70.2609 122.581 68.4036 129.667 71.6317 135.172Z" fill="#121213"/>
<path d="M89.8617 143.453C97.6446 138.898 100.276 128.871 95.7209 121.088C91.1662 113.305 81.1391 110.674 73.3563 115.229C65.5734 119.784 62.9423 129.811 67.497 137.594C72.0518 145.377 82.0788 147.997 89.8617 143.453ZM74.6718 117.462C81.2276 113.637 89.6627 115.848 93.4988 122.393C97.3239 128.937 95.1129 137.384 88.5682 141.22C82.0236 145.045 73.5773 142.834 69.7412 136.289C65.905 129.733 68.1161 121.287 74.6718 117.462Z" fill="#121213"/>
<path d="M87.8069 125.682C88.4424 124.181 87.3486 122.283 85.3637 121.443C83.3789 120.602 81.2548 121.138 80.6193 122.64C79.9839 124.141 81.0778 126.039 83.0626 126.879C85.0474 127.719 87.1715 127.183 87.8069 125.682Z" fill="#F8F8F8"/>
<path d="M87.7832 130.242C88.2697 131.082 89.2757 131.402 90.0164 130.971C90.7571 130.54 90.9671 129.501 90.4807 128.661C89.9943 127.821 88.9882 127.5 88.2475 127.931C87.4958 128.373 87.2968 129.412 87.7832 130.242Z" fill="#F8F8F8"/>
<path d="M86.545 137.781C87.5953 137.173 88.5018 136.377 89.2536 135.438C89.5852 135.017 89.5189 134.409 89.0988 134.078C88.6787 133.746 88.0707 133.812 87.739 134.233C87.142 134.984 86.4013 135.625 85.5611 136.112C81.8355 138.29 77.0265 137.03 74.8486 133.304C74.2627 132.309 73.92 131.226 73.8094 130.076C73.7652 129.545 73.2899 129.147 72.7482 129.202C72.2175 129.247 71.8195 129.722 71.8748 130.264C72.0074 131.69 72.4386 133.039 73.1683 134.288C75.8989 138.92 81.8908 140.501 86.545 137.781Z" fill="#F8F8F8"/>
<path d="M85.2078 137.218C85.1083 137.262 84.9978 137.307 84.8983 137.373C83.439 138.301 82.1234 138.545 80.5757 137.649C80.5535 137.638 80.5425 137.638 80.5204 137.627C80.4651 136.654 81.0179 135.704 81.9686 135.306C83.1736 134.808 84.5556 135.383 85.0531 136.588C85.1415 136.798 85.1857 137.008 85.2078 137.218Z" fill="#F8F8F8"/>
<path d="M101.724 163.728L102.244 162.003C102.299 161.815 108.169 142.756 121.159 130.352L123.215 128.384L120.64 127.179C113.973 124.084 108.976 124.062 106.257 124.449C104.311 114.665 97.1804 108.772 94.5493 106.893C94.5272 96.512 84.9975 88.9392 81.891 86.7392C81.9131 84.2739 81.5041 78.3483 77.7785 71.9695C74.0087 65.5243 68.271 61.478 65.872 59.9745C65.9052 57.4761 65.3856 51.7715 60.9083 44.1324C56.3867 36.3937 50.4943 33.1656 47.6752 31.9938C47.7968 28.8209 46.8461 21.823 38.2783 13.1005C25.8301 0.420138 7.89851 0.0221212 7.14676 0.011066L5.97491 0L5.41108 1.02813C5.04626 1.69144 -3.39991 17.5115 1.55282 34.5807C4.95783 46.3324 10.5849 50.5887 13.415 52.0369C13.0613 55.055 12.9839 61.7876 17.5166 69.5152C21.9939 77.1654 26.6924 80.4156 28.8923 81.6096C29.025 84.4287 29.7326 91.4156 33.5024 97.8608C37.2391 104.24 42.1918 107.501 44.3586 108.695C44.7456 112.487 46.6802 124.504 55.7123 129.611C56.0661 132.817 57.7023 141.927 65.2751 148.416C63.6057 150.605 61.1626 154.961 60.5988 162.291L60.3776 165.132L63.0972 164.303C80.277 159.062 99.7563 163.297 99.9553 163.341L101.724 163.728ZM116.405 129.633C106.179 140.468 100.74 154.419 99.0819 159.206C94.096 158.3 79.271 156.199 64.8108 159.803C66.0269 152.529 69.2992 149.721 69.3434 149.688L71.2781 148.085L69.2549 146.603C60.0128 139.948 59.5153 128.428 59.5153 128.318L59.4711 127.146L58.4098 126.637C48.9576 122.094 48.1616 107.512 48.1506 107.357L48.0952 106.152L46.9897 105.666C46.9344 105.644 40.9978 102.957 36.8632 95.8929C32.6732 88.7181 32.7507 80.482 32.7507 80.3935L32.7727 79.0006L31.4572 78.5252C31.424 78.5142 26.0512 76.4137 20.8663 67.5363C15.6925 58.6922 17.4502 51.3736 17.4724 51.2962L17.9477 49.3836L16.0351 48.9193C15.9909 48.9083 9.18091 46.9184 5.27842 33.4752C1.47543 20.3748 6.57192 7.66126 8.28548 3.93565C12.3648 4.25625 25.9406 6.0583 35.5034 15.7979C45.3094 25.7919 43.7063 32.7013 43.6842 32.7677L43.2089 34.636L45.0661 35.1556C45.1325 35.1777 52.3737 37.234 57.5475 46.0781C62.7435 54.9555 61.9364 60.6599 61.9253 60.7152L61.7153 62.075L62.9203 62.7383C62.9867 62.7715 70.2168 66.7514 74.4067 73.9151C78.5413 80.9794 77.9664 87.4688 77.9554 87.5352L77.8449 88.7292L78.8619 89.3704C78.9835 89.4478 91.3101 97.3301 90.6357 107.766L90.5583 108.938L91.5643 109.546C91.6638 109.601 101.47 115.748 102.719 127.002L103.007 129.556L105.383 128.583C105.417 128.605 109.463 127.124 116.405 129.633Z" fill="#121213"/>
<path d="M17.3727 51.6167C21.2531 42.7725 21.4743 34.1273 18.2351 17.3345L14.421 18.0642C17.4833 33.9726 17.3285 42.0429 13.813 50.0579L17.3727 51.6167Z" fill="#121213"/>
<path d="M32.7508 80.5044C32.9498 77.6853 33.4252 74.9546 33.9448 72.0582C35.3709 64.0432 36.9849 54.9558 32.4191 41.4463L28.7378 42.6845C32.983 55.2432 31.5237 63.4462 30.1197 71.3728C29.589 74.3687 29.0805 77.1989 28.8705 80.2391L32.7508 80.5044Z" fill="#121213"/>
<path d="M48.1507 107.324C48.0291 105.456 48.4602 102.692 48.9688 99.4858C50.2843 91.106 52.0863 79.6307 47.4321 67.083L43.7949 68.4318C48.1065 80.0287 46.3929 90.9291 45.1436 98.8889C44.6019 102.327 44.1376 105.29 44.2924 107.578L48.1507 107.324Z" fill="#121213"/>
<path d="M59.5042 128.274C59.2278 123.719 59.9796 119.629 60.7866 115.306C62.1575 107.91 63.5725 100.249 60.3112 89.1826L56.5856 90.2771C59.5816 100.448 58.2549 107.634 56.9615 114.588C56.1545 118.954 55.3143 123.465 55.6238 128.506L59.5042 128.274Z" fill="#121213"/>
<path d="M85.7937 159.339C85.7163 158.952 83.9032 149.721 91.0781 145.52L89.1213 142.17C85.4289 144.337 83.5053 147.411 82.5435 150.418C80.6199 147.123 78.431 145.586 76.629 144.901C73.5888 143.74 70.1727 144.348 66.9888 146.615L69.244 149.776C70.7144 148.726 72.9476 147.654 75.236 148.527C78.1877 149.655 80.5867 153.789 82.0018 160.168L85.7937 159.339Z" fill="#121213"/>
<path d="M5.17871 2.03451C5.66514 5.80434 6.25106 9.49676 6.69327 13.2113C6.91437 15.0686 7.0912 16.9258 7.1907 18.7831C7.27914 20.6404 7.30127 22.5087 7.06911 24.3771C7.61081 22.5751 7.92041 20.6957 8.15257 18.8163C8.38473 16.9369 8.51738 15.0354 8.62793 13.145C8.83798 9.3641 8.89321 5.5832 9.05903 1.86865L5.17871 2.03451Z" fill="#121213"/>
<path d="M5.49951 4.46631C6.56081 6.11354 7.38993 8.01498 8.03113 10.0049C8.66128 12.0059 9.09243 14.1064 9.41303 16.229C9.73363 18.3627 9.89948 20.5295 9.98793 22.7074C10.0653 24.8853 10.0653 27.0742 9.9216 29.2632C10.3859 27.1184 10.7176 24.9405 10.9608 22.7405C11.1929 20.5406 11.3588 18.3295 11.3477 16.0964C11.3366 13.8632 11.2261 11.608 10.8613 9.34163C10.4743 7.08637 9.88843 4.80901 8.8824 2.58691L5.49951 4.46631Z" fill="#121213"/>
<path d="M8.22998 8.46834C9.24706 10.005 10.043 11.807 10.6621 13.6864C11.2923 15.5658 11.7677 17.5446 12.1325 19.5456C12.8511 23.5476 13.1827 27.6823 13.0832 31.8169C13.8239 27.7376 14.1556 23.5587 14.0672 19.3466C14.0119 17.2351 13.8571 15.1125 13.4923 12.9899C13.1385 10.8673 12.5858 8.72256 11.6461 6.62207L8.22998 8.46834Z" fill="#121213"/>
<path d="M17.5057 48.0905C16.4776 47.2946 15.4826 46.2886 14.5761 45.2052C13.6696 44.1107 12.8294 42.9388 12.0887 41.6896C10.6183 39.2022 9.43537 36.4605 9.05949 33.4756C8.78311 36.4715 9.34695 39.567 10.3198 42.4855C10.8173 43.9559 11.4143 45.3931 12.1439 46.7971C12.8736 48.2011 13.7027 49.5609 14.7972 50.8654L17.5057 48.0905Z" fill="#121213"/>
<path d="M18.445 46.3884C18.235 46.2225 17.9585 45.924 17.6932 45.5924C17.4279 45.2607 17.1736 44.8848 16.9083 44.509C16.3998 43.7462 15.9023 42.9502 15.4269 42.1431C14.4651 40.518 13.5475 38.8487 12.6631 37.1572C12.9284 39.0477 13.238 40.9381 13.6028 42.8286C13.7908 43.7793 13.9898 44.7301 14.233 45.6919C14.3656 46.1783 14.4982 46.6537 14.6641 47.1622C14.8299 47.6597 15.0289 48.1793 15.3606 48.7763L18.445 46.3884Z" fill="#121213"/>
<path d="M19.584 27.0856C22.0714 31.8615 24.0503 36.9911 25.6644 42.2313C26.4714 44.8513 27.1679 47.5157 27.7538 50.2021C28.3287 52.8885 28.793 55.6191 29.0362 58.3718C29.1136 56.9899 29.1799 55.586 29.1357 54.2041C29.1025 52.8111 29.003 51.4181 28.8925 50.0252C28.6382 47.2503 28.3286 44.4644 27.7869 41.7116C27.2563 38.9589 26.6262 36.2283 25.8744 33.5197C25.1337 30.8002 24.2272 28.1248 23.1438 25.4937L19.584 27.0856Z" fill="#121213"/>
<path d="M18.4785 27.5276C19.9931 30.7336 21.2423 34.1164 22.2594 37.5657C22.8895 39.7104 23.4202 41.8883 23.8845 44.0772C24.3378 46.2772 24.6916 48.4993 24.9127 50.7435C25.0453 50.9204 25.1448 51.0973 25.1116 51.2741C25.2664 49.7154 25.3107 48.1345 25.3328 46.5646C25.2775 44.2872 25.1448 42.0099 24.8795 39.7436C24.6031 37.4772 24.2715 35.222 23.8182 32.9667C23.387 30.7114 22.8232 28.4783 22.1599 26.2783L18.4785 27.5276Z" fill="#121213"/>
<path d="M17.3726 27.97C17.9143 29.5951 18.4339 31.2424 18.8651 32.9007C19.3183 34.57 19.6831 36.2504 20.0258 37.9529C20.3464 39.6554 20.6007 41.38 20.7997 43.1157C20.9877 44.8513 21.1092 46.5981 21.0982 48.3558C21.4409 46.6312 21.6398 44.8734 21.7725 43.1046C21.9052 41.3358 21.9716 39.5559 21.9605 37.776C21.9384 35.9961 21.8942 34.2052 21.7394 32.4253C21.6178 30.6344 21.3966 28.8544 21.1534 27.0635L17.3726 27.97Z" fill="#121213"/>
<path d="M32.1426 77.0557C30.9265 76.2818 29.6773 74.8778 28.627 73.3964C27.5657 71.904 26.615 70.2789 25.7858 68.5874C24.1275 65.2045 22.8341 61.5784 22.1929 57.7754C22.1929 59.7101 22.3587 61.6447 22.6682 63.5683C22.9778 65.4919 23.42 67.4045 23.9838 69.2949C24.5476 71.1853 25.2442 73.0427 26.1175 74.8668L26.825 76.2265C27.0903 76.6688 27.3336 77.122 27.6321 77.5642C28.207 78.4487 28.8923 79.322 29.7878 80.1401L30.9596 78.5924L32.1426 77.0557Z" fill="#121213"/>
<path d="M25.4541 60.5615C25.4873 61.9655 25.6089 63.3585 25.7968 64.7625C25.9958 66.1554 26.2612 67.5484 26.5928 68.9303C26.9245 70.2901 27.3225 71.6388 27.831 72.9765C27.8421 73.0871 28.2179 73.8719 28.229 73.9825C28.3837 74.3142 28.5164 74.6458 28.6822 74.9775C29.0139 75.6519 29.3898 76.3262 29.8873 76.9785L31.3797 75.8619L32.8722 74.7453C32.0541 74.0267 31.2249 72.9876 30.5063 71.9042C29.7656 70.7876 29.0692 69.5936 28.4501 68.3554C28.4169 68.2891 28.3837 68.2228 28.3506 68.1564C27.7536 66.9514 27.2008 65.7132 26.7033 64.4529C26.2169 63.1705 25.7968 61.8771 25.4541 60.5615Z" fill="#121213"/>
<path d="M33.6017 72.3903C32.7173 70.9642 31.8661 69.4828 31.059 67.9682C30.65 67.2054 30.252 66.4427 29.8651 65.6688C29.4781 64.8949 29.0912 64.121 28.7153 63.3472C28.7817 64.2095 28.8591 65.0829 28.9364 65.9452C29.0138 66.8075 29.1133 67.6808 29.2128 68.5431C29.4118 70.2788 29.6661 72.0255 29.9867 73.7833L31.7997 73.0868L33.6017 72.3903Z" fill="#121213"/>
<path d="M35.5811 54.4695C36.764 56.3599 37.8142 58.3719 38.7428 60.4503C39.6715 62.5287 40.4785 64.6845 41.186 66.8845C42.5789 71.2844 43.6071 75.8392 44.0715 80.4934C44.1599 78.1497 44.1046 75.806 43.9388 73.4513C43.7619 71.1076 43.4744 68.7528 43.0765 66.4202C42.6674 64.0875 42.1478 61.7549 41.4845 59.4554C40.8212 57.1559 40.0031 54.8674 39.0081 52.6343L35.5811 54.4695Z" fill="#121213"/>
<path d="M36.9964 52.9219L35.2829 53.8284L33.5693 54.7349C34.509 56.1832 35.3382 57.8304 36.0678 59.5108C36.7975 61.2023 37.4387 62.96 38.0025 64.751C38.5663 66.5419 39.0638 68.3549 39.4838 70.1901C39.9039 72.0363 40.2577 73.9047 40.523 75.7841C40.5783 73.8826 40.5562 71.97 40.4456 70.0575C40.3351 68.1449 40.1582 66.2324 39.904 64.3309C39.6497 62.4515 39.318 60.5611 38.8648 58.6927C38.8537 58.6485 38.8427 58.6153 38.8316 58.5711C38.3563 56.6917 37.8035 54.8123 36.9964 52.9219Z" fill="#121213"/>
<path d="M31.5459 55.011C32.2534 56.006 32.8394 57.2994 33.37 58.5929C33.9007 59.8974 34.365 61.2572 34.7851 62.6391C35.2162 64.021 35.6032 65.425 35.9569 66.8401C36.3107 68.2552 36.6423 69.6813 36.9298 71.1184C36.9519 69.6481 36.9519 68.1888 36.9187 66.7074C36.8856 65.2371 36.8082 63.7557 36.6976 62.2853C36.587 60.8039 36.4323 59.3225 36.178 57.819C35.9127 56.3155 35.6253 54.8009 34.9841 53.209L33.2705 54.1155L31.5459 55.011Z" fill="#121213"/>
<path d="M47.4429 103.698C45.7736 102.57 44.2701 100.89 42.9656 99.0659C41.6611 97.2307 40.5555 95.2077 39.6048 93.1072C38.6651 91.0067 37.8802 88.8067 37.3385 86.5404C36.8189 84.2851 36.4762 81.9303 36.8963 79.5977C36.1556 81.8529 36.1666 84.3182 36.3767 86.6951C36.6088 89.083 37.0953 91.4489 37.7807 93.7704C38.4661 96.092 39.3284 98.3805 40.4782 100.569C41.639 102.758 43.0209 104.892 45.044 106.738L47.4429 103.698Z" fill="#121213"/>
<path d="M47.863 102.946C46.658 101.73 45.5746 100.216 44.6238 98.6237C43.6731 97.0206 42.8328 95.3181 42.0921 93.5714C41.3514 91.8136 40.7213 90.0116 40.2348 88.1543C39.7705 86.3081 39.4057 84.3956 39.5716 82.4609C39.0741 84.3514 39.1183 86.3634 39.273 88.3202C39.4389 90.288 39.7816 92.2337 40.2348 94.1684C40.6881 96.103 41.263 98.0156 41.9927 99.895C42.7334 101.774 43.6177 103.632 44.8559 105.423L47.863 102.946Z" fill="#121213"/>
<path d="M48.2607 102.36C46.8125 99.8061 45.5853 97.0091 44.524 94.1679C43.9934 92.7418 43.518 91.2936 43.109 89.8232C42.6999 88.3529 42.3461 86.8604 42.2356 85.3237C42.0145 86.8604 42.0587 88.4303 42.1472 89.978C42.2467 91.5368 42.4125 93.0845 42.6336 94.6433C43.0869 97.7387 43.717 100.823 44.6899 103.919L48.2607 102.36Z" fill="#121213"/>
<path d="M48.5373 101.919C47.4539 97.2646 46.2157 92.7209 44.9222 88.1772C44.9443 92.8868 44.9001 97.6073 44.668 102.262L48.5373 101.919Z" fill="#121213"/>
<path d="M59.0292 125.565C57.8573 124.283 56.8071 122.569 55.9669 120.79C55.1157 118.999 54.4081 117.097 53.8553 115.151C52.7609 111.249 52.2634 107.136 52.584 102.991C51.6222 107.037 51.4564 111.315 51.9539 115.527C52.2081 117.639 52.6282 119.739 53.2473 121.829C53.8775 123.907 54.6624 125.952 55.989 127.975L59.0292 125.565Z" fill="#121213"/>
<path d="M59.294 121.309C58.3432 119.23 57.5473 116.997 56.895 114.72C56.5744 113.581 56.276 112.42 56.0327 111.26C55.8006 110.088 55.5684 108.916 55.5684 107.711C55.2478 108.883 55.1483 110.11 55.0599 111.326C54.9825 112.542 54.9604 113.769 54.9714 114.996C55.0046 117.451 55.1704 119.916 55.5794 122.436L59.294 121.309Z" fill="#121213"/>
<path d="M48.2612 76.1377C50.2291 79.7417 51.8763 83.6111 53.225 87.5799C54.5627 91.5598 55.613 95.6612 56.2984 99.8622C56.2652 95.6059 55.8562 91.3387 55.1155 87.1045C54.3637 82.8704 53.3135 78.6693 51.81 74.5347L48.2612 76.1377Z" fill="#121213"/>
<path d="M47.5869 79.6754C49.0462 82.4613 50.2955 85.4351 51.3346 88.4974C52.3849 91.5486 53.2472 94.6994 53.8663 97.8943C53.8884 94.622 53.6562 91.3386 53.225 88.0663C52.7939 84.794 52.1527 81.5326 51.202 78.2935L47.5869 79.6754Z" fill="#121213"/>
<path d="M46.9126 83.2241C47.8633 85.1919 48.7035 87.2813 49.4553 89.415C50.207 91.5486 50.8814 93.7265 51.4563 95.9376C51.5226 93.6492 51.4894 91.3497 51.3678 89.0391C51.2462 86.7286 51.0141 84.407 50.6271 82.0522L46.9126 83.2241Z" fill="#121213"/>
<path d="M77.4135 144.282C75.2909 143.32 73.3563 142.281 71.8528 140.822C71.0899 140.103 70.4155 139.274 69.7964 138.379C69.1884 137.461 68.6357 136.466 68.1161 135.405C67.8508 134.874 67.6075 134.333 67.3533 133.78C67.1322 133.271 66.9111 132.752 66.7231 132.21C66.3472 131.127 66.0156 129.988 65.7392 128.805C65.1754 126.45 64.7884 123.985 64.3683 121.431C63.8819 122.647 63.5724 123.907 63.3402 125.19C63.1081 126.472 62.9865 127.777 62.9423 129.092C62.9201 130.408 63.0085 131.757 63.2407 133.105C63.3402 133.78 63.5281 134.454 63.7161 135.129C63.9151 135.748 64.1141 136.378 64.3462 137.008C64.8105 138.257 65.3633 139.517 66.093 140.723C66.8005 141.939 67.7181 143.099 68.7794 144.094C69.8407 145.1 71.0457 145.941 72.3171 146.571C73.5884 147.201 74.9039 147.665 76.2195 147.975L77.4135 144.282Z" fill="#121213"/>
<path d="M59.8032 97.8389C60.754 99.2871 61.6495 100.802 62.5228 102.349C63.3741 103.908 64.2253 105.478 65.0213 107.092C65.8173 108.706 66.569 110.331 67.3208 111.979C68.0725 113.626 68.8243 115.273 69.4323 116.998C69.3992 115.151 69.0564 113.327 68.6916 111.525C68.3157 109.723 67.8293 107.954 67.2876 106.186C66.757 104.417 66.16 102.67 65.4746 100.945C64.7891 99.2208 64.0263 97.5072 63.1198 95.8379L61.4504 96.8329L59.8032 97.8389Z" fill="#121213"/>
<path d="M62.5777 97.9604L61.3174 98.6901L60.0571 99.4197C60.1566 99.5414 59.4269 100.183 59.5264 100.337C60.0792 101.2 60.6098 102.117 61.1073 103.046C61.251 103.311 61.3948 103.577 61.5385 103.842C62.1686 105.047 62.7767 106.285 63.3405 107.545C63.9485 108.905 64.5234 110.287 65.0872 111.68C65.6511 113.073 66.1928 114.477 66.6681 115.914C66.646 114.389 66.4581 112.874 66.2591 111.37C66.038 109.867 65.7616 108.374 65.43 106.882C65.1094 105.412 64.7556 103.952 64.3134 102.504C64.3023 102.46 64.2912 102.416 64.2691 102.372C63.8158 100.912 63.3073 99.4529 62.5777 97.9604Z" fill="#121213"/>
<path d="M58.6421 102.007C59.2501 102.737 59.7918 103.765 60.2893 104.793C60.7868 105.832 61.24 106.927 61.6601 108.032C62.0802 109.138 62.4782 110.265 62.8431 111.415C63.2189 112.554 63.5617 113.704 63.8933 114.864C63.8823 113.659 63.8601 112.454 63.8049 111.238C63.7496 110.033 63.6722 108.817 63.5506 107.601C63.4401 106.385 63.2853 105.158 63.0642 103.92C62.832 102.67 62.5888 101.432 62.0139 100.083L60.3335 101.045L58.6421 102.007Z" fill="#121213"/>
<path d="M68.5142 156.553C68.5142 156.553 75.1252 155.127 77.7452 155.359C75.5895 151.435 74.0307 150.782 72.6599 151.103C71.278 151.412 69.7081 152.827 68.5142 156.553Z" fill="#121213"/>
<path d="M97.3465 156.244C97.3465 156.244 90.4701 155.426 88.1817 155.514C87.7948 151.711 90.9898 148.218 92.239 147.499L97.3465 156.244Z" fill="#121213"/>
<path d="M9.47748 2.15885L6.12793 4.11768L72.3147 117.296L75.6643 115.337L9.47748 2.15885Z" fill="#121213"/>
<path d="M46.4813 171.389C65.3526 153.612 100.375 161.44 100.375 161.44C100.375 161.44 110.734 127.08 135.487 119.352C155.95 112.962 161.942 133.381 151.683 138.345C143.06 142.502 139.953 135.526 138.527 131.071C131.076 134.056 124.222 142.226 126.687 152.219C129.163 162.213 139.013 166.282 145.271 166.436C160.129 180.045 208.783 288.895 201.829 334.918C158.305 318.412 87.2971 222.63 82.7203 203.007C85.6499 197.48 86.9434 186.9 79.4369 179.835C71.9415 172.782 61.4501 174.75 55.2039 179.78C58.3878 183.207 62.9425 189.332 55.0933 194.804C45.7406 201.338 30.8824 186.093 46.4813 171.389Z" fill="#F8F8F8"/>
<path d="M148.189 132.364C148.3 132.298 148.399 132.22 148.499 132.143C149.295 131.435 149.372 130.208 148.664 129.401C147.448 128.03 144.397 126.195 137.72 129.313C136.747 129.766 136.327 130.927 136.78 131.888C137.233 132.861 138.394 133.281 139.356 132.828C142.849 131.192 145.094 131.225 145.757 131.977C146.376 132.673 147.404 132.817 148.189 132.364Z" fill="#121213"/>
<path d="M145.282 166.437L141.302 176.099C141.302 176.099 135.951 176.077 130.998 171.854C133.574 173.136 136.172 173.302 136.172 173.302C136.172 173.302 131.275 171.246 128.743 168.67C130.822 170.052 134.083 171.025 134.083 171.025C134.083 171.025 129.672 168.416 127.417 165.486C130.468 167.609 132.668 168.526 132.668 168.526C132.668 168.526 129.23 165.652 127.516 162.888C131.927 166.758 138.206 168.106 142.219 167.741L145.282 166.437Z" fill="#121213"/>
<path d="M114.283 181.914C116.217 158.289 123.458 145.543 133.773 136.267L131.175 133.382C120.982 142.536 113.675 156.863 109.905 174.994L114.283 181.914Z" fill="#121213"/>
<path d="M203.388 337.582L203.753 335.205C207.898 307.755 192.874 262.418 183.555 237.831C170.852 204.344 154.612 172.351 146.597 164.999L146.055 164.513L145.326 164.49C139.831 164.347 130.832 160.842 128.577 151.744C126.609 143.806 131.33 136.963 137.41 133.724C138.516 136.488 140.296 139.517 143.446 140.865C146.055 141.993 149.107 141.728 152.512 140.081C157.818 137.516 159.963 131.314 157.597 125.322C154.988 118.711 146.951 113.725 134.901 117.495C112.37 124.537 101.547 152.02 99.0597 159.206C91.5864 157.846 62.3232 153.8 45.1434 169.985C35.9455 178.641 36.3546 188.093 40.8319 193.61C44.8892 198.607 51.3454 199.801 56.1876 196.418C59.2941 194.251 61.0187 191.73 61.3172 188.9C61.682 185.484 59.9132 182.444 58.0448 180.134C63.8488 176.43 72.1292 175.667 78.0879 181.272C84.909 187.695 83.5603 197.258 80.9844 202.111L80.6417 202.753L80.8075 203.46C83.2839 214.051 103.194 243.889 126.156 271.383C143.004 291.57 175.153 326.892 201.11 336.742L203.388 337.582ZM144.452 168.338C151.262 175.269 166.452 203.725 179.918 239.213C194.919 278.746 202.238 312.354 200.226 332.165C181.974 324.205 156.27 301.343 129.174 268.885C104.853 239.754 87.4959 212.559 84.7985 203.228C87.6949 197.136 88.8778 186.037 80.7854 178.431C72.6267 170.759 61.1403 172.539 53.9987 178.276L52.3736 179.581L53.7886 181.106C56.4971 184.014 57.7022 186.424 57.4811 188.469C57.3042 190.127 56.1323 191.731 53.9876 193.223C50.4499 195.688 46.2158 194.052 43.861 191.156C40.7545 187.331 39.9253 180.233 47.8188 172.815C65.7061 155.967 99.6235 163.263 99.9662 163.341L101.724 163.728L102.244 162.003C102.343 161.671 112.602 128.528 136.073 121.198C146.409 117.97 152.191 122.171 154.004 126.748C155.375 130.219 154.734 134.719 150.842 136.587C148.499 137.726 146.531 137.958 144.994 137.306C143.104 136.499 141.6 134.265 140.384 130.474L139.743 128.484L137.808 129.257C129.318 132.662 122.121 141.805 124.807 152.672C127.472 163.462 137.72 167.873 144.452 168.338Z" fill="#121213"/>
<path d="M51.3894 188.967C52.1744 188.514 52.5502 187.552 52.2406 186.657C51.909 185.706 52.9814 183.738 56.121 181.494C56.9944 180.875 57.1934 179.659 56.5743 178.786C55.9552 177.912 54.7392 177.713 53.8658 178.332C47.8628 182.633 47.9734 186.181 48.5704 187.917C48.9241 188.934 50.0296 189.465 51.0357 189.122C51.1573 189.089 51.2789 189.034 51.3894 188.967Z" fill="#121213"/>
<path d="M82.5098 203.14L92.8796 204.412C92.8796 204.412 95.4776 199.735 94.2394 193.345C94.0846 196.22 92.968 198.563 92.968 198.563C92.968 198.563 93.5761 193.29 92.5701 189.819C92.7469 192.306 92.0062 195.623 92.0062 195.623C92.0062 195.623 91.8957 190.504 90.4475 187.099C90.8012 190.803 90.5248 193.168 90.5248 193.168C90.5248 193.168 89.7067 188.758 88.1369 185.905C89.3419 191.654 87.4404 197.779 85.152 201.095L82.5098 203.14Z" fill="#121213"/>
<path d="M136.924 223.828L138 219.721L133.894 218.645L132.818 222.751L136.924 223.828Z" fill="#121213"/>
<path d="M125.117 223.791C127.173 214.825 124.774 206.412 122.497 202.443L122.486 202.454C122.42 202.333 122.353 202.211 122.276 202.089C120.938 199.724 119.302 197.49 117.445 195.412C115.499 193.212 113.266 191.244 110.933 189.387C108.601 187.541 106.113 185.849 103.504 184.335C102.2 183.594 100.873 182.875 99.5243 182.19C98.1866 181.494 96.8379 180.819 95.4229 180.222C98.4851 180.631 101.359 181.825 104.156 183.063C106.964 184.335 109.684 185.805 112.293 187.474C113.509 188.27 114.725 189.1 115.897 189.984C115.897 189.984 117.39 191.543 118.119 192.803C118.849 194.063 122.11 199.635 122.11 199.635L132.071 216.671L132.027 216.848L130.037 224.432L138.726 226.709L141.003 218.02L133.42 216.03L133.243 215.986L123.282 198.95C123.282 198.95 120.021 193.378 119.291 192.118C118.561 190.857 117.931 188.801 117.931 188.801C117.732 187.353 117.6 185.883 117.5 184.434C117.323 181.339 117.378 178.254 117.644 175.181C117.931 172.13 118.296 169.045 119.446 166.182C119.269 167.708 119.203 169.211 119.147 170.726C119.081 172.24 119.048 173.744 119.059 175.247C119.103 178.254 119.357 181.25 119.822 184.191C120.297 187.132 120.916 190.039 121.878 192.814C122.784 195.445 123.923 197.966 125.327 200.299C125.405 200.42 125.471 200.531 125.548 200.663L125.537 200.674C127.881 204.61 134.028 210.823 142.861 213.432C142.861 213.432 144.508 210.215 147.813 208.192C144.265 212.957 140.793 227.561 147.449 241.656C138.428 228.943 124.001 224.808 118.108 225.56C121.513 223.658 125.117 223.791 125.117 223.791Z" fill="#121213"/>
<path d="M149.803 240.529C144.132 228.512 147.349 216.45 149.151 210.923C149.748 209.077 150.831 207.462 151.561 205.683L151.959 204.699C151.959 204.699 145.049 206.169 141.788 210.326C134.58 207.65 129.804 202.499 128.002 199.702L127.792 199.348L127.571 198.983C126.3 196.883 125.216 194.528 124.332 191.963C123.525 189.653 122.906 187.043 122.386 183.771C121.944 180.996 121.701 178.111 121.656 175.203C121.645 173.722 121.679 172.252 121.745 170.837C121.767 170.35 121.778 169.864 121.811 169.366C124.431 173.833 128.621 179.99 140.085 183.55C140.085 183.55 161.223 216.174 163.235 222.133C160.206 218.286 158.139 216.262 155.651 217.18C153.153 218.098 150.444 225.67 154.49 239.224C158.526 252.778 164.418 253.95 166.43 253.364C168.431 252.778 172.919 247.659 168.542 234.161C168.542 234.161 190.011 281.289 195.151 321.508C195.151 321.508 166.253 272.102 160.969 263.059C155.673 254.038 150.632 242.452 149.803 240.529Z" fill="#121213"/>
<path d="M123.083 142.933C121.491 146.559 120.374 150.484 120.231 154.53C120.065 158.565 120.949 162.622 122.685 166.193C124.41 169.808 127.063 172.882 130.158 175.259C133.265 177.624 136.88 179.371 140.76 179.979L140.351 179.703C141.213 181.14 142.098 182.555 142.993 183.981C143.9 185.396 144.784 186.811 145.702 188.215C147.537 191.012 149.339 193.842 151.23 196.617C149.66 193.654 148.001 190.736 146.387 187.806C145.58 186.336 144.74 184.888 143.922 183.428C143.082 181.98 142.242 180.532 141.379 179.095L141.247 178.874L140.97 178.818C137.399 178.044 134.094 176.198 131.341 173.821C128.588 171.433 126.344 168.482 125.007 165.176C123.636 161.86 123.083 158.267 123.437 154.762C123.768 151.247 124.951 147.831 126.587 144.636L123.083 142.933Z" fill="#121213"/>
<path d="M145.403 243.105C137.709 232.27 125.625 229.164 119.921 228.014C118.02 227.627 116.085 227.782 114.172 227.55L113.122 227.417C113.122 227.417 117.798 222.122 123.005 221.315C124.21 213.709 122.066 207.031 120.507 204.091L120.297 203.737L120.087 203.372C118.882 201.238 117.356 199.138 115.554 197.104C113.929 195.269 111.961 193.456 109.374 191.388C107.174 189.642 104.775 188.005 102.266 186.546C100.983 185.816 99.6789 185.12 98.4186 184.479C97.9874 184.258 97.5563 184.037 97.103 183.815C99.7121 188.293 103.029 194.959 100.508 206.7C100.508 206.7 118.583 241.115 122.784 245.802C120.916 241.269 120.164 238.483 122.187 236.759C124.21 235.034 132.137 236.394 141.976 246.554C151.804 256.725 149.947 262.429 148.443 263.888C146.951 265.348 140.285 266.752 130.667 256.316C130.667 256.316 161.212 298.137 193.748 322.337C193.748 322.337 164.849 272.932 159.565 263.888C154.292 254.845 146.675 244.774 145.403 243.105Z" fill="#121213"/>
<path d="M111.674 183.45C90.1381 173.545 75.4789 173.611 62.3342 178.056L61.085 174.374C74.0527 169.985 90.1271 170.637 107.782 176.242L111.674 183.45Z" fill="#121213"/>
<path d="M69.3322 167.519C69.3322 167.519 61.3835 167.962 59.0287 168.968C63.9593 165.861 74.1965 165.972 74.1965 165.972L70.3714 165.275C70.3714 165.275 88.6567 162.622 103.813 167.309L103.88 167.265L103.946 167.221C107.296 151.71 118.572 137.073 118.572 137.073L117.301 140.755C117.301 140.755 122.231 131.789 127.35 129.014C125.327 130.562 121.037 137.283 121.037 137.283C121.037 137.283 126.443 130.805 134.447 127.776C114.327 139.074 106.688 172.074 106.688 172.074C106.688 172.074 74.1743 162.545 54.4629 174.539C61.0407 169.045 69.3322 167.519 69.3322 167.519Z" fill="#121213"/>
<path d="M73.124 175.866C76.7059 176.01 80.2657 176.651 83.4938 178.089C86.7219 179.504 89.5853 181.737 91.8074 184.567C94.0295 187.353 95.5109 190.758 96.2405 194.329C96.9591 197.888 96.948 201.669 95.8757 205.174L95.7983 205.439L95.9199 205.66C96.749 207.12 97.6003 208.557 98.4516 210.005C99.3249 211.442 100.165 212.879 101.05 214.305C102.818 217.158 104.543 220.021 106.356 222.84C104.864 219.833 103.283 216.881 101.746 213.907C100.983 212.415 100.176 210.945 99.3912 209.474C98.5952 208.004 97.7882 206.534 96.9591 205.074L97.0033 205.572C98.3742 201.901 98.6174 197.888 98.0867 194.019C97.534 190.15 96.152 186.336 93.8526 183.063C91.5973 179.802 88.4908 177.038 84.8979 175.203C81.3049 173.346 77.3361 172.395 73.4004 171.997L73.124 175.866Z" fill="#121213"/>
<path d="M145.105 172.55L142.872 177.591C142.872 177.591 154.292 198.419 157.52 204.82C154.634 195.876 150.71 189.033 150.71 189.033L161.809 208.767C161.809 208.767 157.785 198.507 154.933 192.991C158.891 198.751 166.928 214.14 166.928 214.14C166.928 214.14 153.009 183.915 145.105 172.55Z" fill="#121213"/>
<path d="M88.1704 205.837L93.6649 206.368C93.6649 206.368 106.213 226.533 110.215 232.492C103.836 225.593 99.8005 218.816 99.8005 218.816L111.552 238.163C111.552 238.163 104.576 229.628 101.171 224.432C104.245 230.701 113.719 245.26 113.719 245.26C113.719 245.26 94.2066 218.297 88.1704 205.837Z" fill="#121213"/>
<path d="M196.08 325.079C196.324 304.98 190.078 282.428 190.078 282.428C200.514 306.838 198.081 328.506 198.081 328.506C198.081 328.506 178.005 320.004 161.854 298.933C161.854 298.933 178.447 315.439 196.08 325.079Z" fill="#F8133C"/>
</g>
</svg>
