<svg width="28" height="27" viewBox="0 0 28 27" fill="none" xmlns="http://www.w3.org/2000/svg">
<path d="M4.79614 -2.02855e-06L5.80941 1.96487C5.37033 2.1893 4.93124 2.47302 4.55971 2.84567C2.99759 4.41248 2.71472 6.75423 3.71532 8.60477L11.0109 1.28733L12.5645 2.84567L11.1797 4.23463L13.1049 6.16562L13.9493 5.31869L18.2726 9.65496L15.0302 12.9072L10.7069 8.57089L11.5513 7.72396L9.62606 5.79297L6.85645 8.57089L8.78166 10.5019L9.62606 9.65496L13.9493 13.9912L10.7069 17.2434L6.3836 12.9072L7.22799 12.0602L5.30278 10.1292L3.07358 12.3651L10.7069 20.0213L13.5103 17.2434L18.2726 12.4668L21.8191 8.87578L23.3727 10.4341L19.8263 13.9912L24.4536 18.6324L25.1966 19.4115L23.5754 21.0376L24.994 22.4266L28 27L23.4403 23.9849L22.0555 22.5621L20.4343 24.1882L19.6574 23.4429L15.0302 18.8018L11.4837 22.3588L10.7069 23.1041L9.93003 22.3588L0.743064 13.1443L8.26355e-07 12.3651L0.743064 11.5859L2.12787 10.1631C0.333535 7.43177 0.64596 3.72224 3.03981 1.3212C3.57177 0.78764 4.1544 0.326064 4.79614 -2.02855e-06ZM18.2726 15.5496L16.5838 17.2434L20.4343 21.1393L22.1568 19.4115L18.2726 15.5496Z" fill="white"/>
</svg>
