<svg width="366" height="497" viewBox="0 0 366 497" fill="none" xmlns="http://www.w3.org/2000/svg">
<g opacity="0.05">
<path d="M61.725 129.719L134.35 185.285L130.473 190.352L57.8479 134.786L61.725 129.719Z" fill="white"/>
<path d="M56.7394 136.161L129.343 191.727C130.131 192.333 131.266 192.18 131.88 191.389L135.758 186.318C136.364 185.53 136.211 184.394 135.42 183.78L62.8165 128.213C62.029 127.608 60.8935 127.761 60.2794 128.552L56.4016 133.623C55.7995 134.419 55.952 135.555 56.7394 136.161ZM130.108 187.76L60.3761 134.384L62.0547 132.189L131.787 185.565L130.108 187.76Z" fill="#121213"/>
<path d="M65.4267 136.568L132.406 187.815L131.075 189.556L64.0951 138.309L65.4267 136.568Z" fill="#121213"/>
<path d="M159.098 188.933L167.559 195.406L149.605 218.87L141.145 212.397L159.098 188.933Z" fill="white"/>
<path d="M140.029 213.773L148.48 220.244C149.267 220.85 150.403 220.697 151.017 219.905L168.977 196.438C169.583 195.651 169.43 194.515 168.639 193.901L160.188 187.43C159.401 186.824 158.265 186.977 157.651 187.768L139.694 211.244C139.089 212.032 139.241 213.167 140.029 213.773ZM149.245 216.277L143.657 212L159.414 191.401L165.003 195.678L149.245 216.277Z" fill="#121213"/>
<path d="M157.451 191.075L164.397 196.39L163.463 197.611L156.517 192.296L157.451 191.075Z" fill="#121213"/>
<path d="M153.206 197.624L159.669 202.57L157.179 205.823L150.716 200.877L153.206 197.624Z" fill="#121213"/>
<path d="M155.862 207.475L148.911 202.157L144.98 207.291L151.931 212.609C151.931 212.609 155.806 207.109 155.862 207.475Z" fill="#121213"/>
<path d="M169.457 203.951L189.507 219.292L176.645 236.103L156.595 220.762L169.457 203.951Z" fill="white"/>
<path d="M154.073 221.039L176.961 238.559L192.004 218.894L169.117 201.374L154.073 221.039ZM176.294 233.529L159.101 220.372L169.783 206.403L186.976 219.561L176.294 233.529Z" fill="#121213"/>
<path d="M173.88 210.523L187.962 221.299L187.028 222.52L172.946 211.744L173.88 210.523Z" fill="#121213"/>
<path d="M171.333 213.871L185.416 224.646L184.482 225.867L170.398 215.092L171.333 213.871Z" fill="#121213"/>
<path d="M169.161 216.694L183.242 227.47L179.259 232.676L165.177 221.9L169.161 216.694Z" fill="#121213"/>
<path d="M216.059 189.461L186.794 167.059L124.38 248.642C124.38 248.642 134.836 282.885 154.233 265.321C165.035 255.544 153.953 243.138 162.425 229.15C172.454 212.608 195.047 196.256 216.059 189.461Z" fill="white"/>
<path d="M163.503 222.117L164.18 200.398L130.174 244.187C130.174 244.187 129.703 274.023 150.312 265.667C156.125 263.315 158.159 252.114 156.901 245.856C155.636 239.58 152.075 236.142 163.503 222.117Z" fill="#121213"/>
<path d="M177.397 208.176L176.912 200.488L170.449 208.94L171.851 191.825L168.018 196.837L167.268 217.206L177.397 208.176Z" fill="#121213"/>
<path d="M196.06 194.331C191.313 192.458 189.597 185.474 191.815 183.89C189.427 182.885 189.17 177.451 193.319 176.647L187.629 172.294L186.754 171.625L181.153 178.95L180.923 197.127L186.699 187.106L185.117 201.537L196.06 194.331Z" fill="#121213"/>
<path d="M187.553 172.799L128.966 249.383C130.535 253.548 133.953 260.839 138.502 264.317C141.215 266.395 145.143 268.036 151.493 262.284C155.517 258.641 155.483 254.934 155.065 248.158C154.7 242.19 154.24 234.772 158.926 227.036C168.206 211.723 187.56 196.458 207.657 188.192L187.553 172.799ZM186.794 167.059L216.059 189.461C195.051 196.264 172.454 212.608 162.428 229.158C153.953 243.138 165.039 255.552 154.237 265.329C146.83 272.031 140.72 271.188 136.006 267.58C128.37 261.732 124.375 248.654 124.375 248.654L186.794 167.059Z" fill="white"/>
<path d="M134.937 268.996C136.52 270.203 138.248 271.139 140.13 271.66C145.094 273.031 150.247 271.339 155.434 266.642C161.74 260.928 161.333 254.248 160.937 247.783C160.587 242.109 160.225 236.24 163.96 230.079C173.516 214.309 195.661 197.937 216.609 191.158C217.241 190.95 217.712 190.409 217.826 189.76C217.937 189.103 217.677 188.443 217.153 188.036L187.889 165.633C187.105 165.036 185.978 165.185 185.381 165.97L122.966 247.553C122.612 248.014 122.505 248.61 122.672 249.169C122.871 249.825 126.934 262.874 134.937 268.996ZM212.318 188.851C191.336 196.494 170.528 212.338 160.902 228.227C156.584 235.347 157.001 242.073 157.363 248.012C157.756 254.399 158.066 259.439 153.037 263.989C148.811 267.818 144.792 269.237 141.086 268.212C132.756 265.911 127.608 252.523 126.38 248.973L187.13 169.568L212.318 188.851Z" fill="#121213"/>
<path d="M78.4171 134.696L96.2734 148.358L84.8715 163.26L67.0152 149.598L78.4171 134.696Z" fill="white"/>
<path d="M65.9022 150.99L83.7494 164.65C84.5525 165.269 85.705 165.109 86.3155 164.309L97.7195 149.403C98.3385 148.6 98.1789 147.447 97.3793 146.837L79.5321 133.176C78.729 132.557 77.5765 132.717 76.966 133.517L65.562 148.423C64.9431 149.226 65.0942 150.383 65.9022 150.99ZM84.5222 160.629L69.5811 149.195L78.7508 137.201L93.6918 148.635L84.5222 160.629Z" fill="#121213"/>
<path d="M72.4582 142.49L90.3125 156.153L87.0842 160.372L69.2299 146.709L72.4582 142.49Z" fill="#121213"/>
<path d="M138.114 180.371L155.48 193.658L144.079 208.561L126.712 195.273L138.114 180.371Z" fill="white"/>
<path d="M132.412 187.819L149.779 201.106L147.776 203.724L130.409 190.436L132.412 187.819Z" fill="#121213"/>
<path d="M129.595 191.498L146.962 204.785L146.011 206.028L128.644 192.741L129.595 191.498Z" fill="#121213"/>
<path d="M125.597 196.647L142.955 209.935C143.743 210.54 144.878 210.388 145.492 209.596L156.896 194.69C157.502 193.902 157.349 192.767 156.558 192.153L139.2 178.865C138.412 178.259 137.277 178.412 136.663 179.203L125.259 194.109C124.657 194.906 124.809 196.041 125.597 196.647ZM143.729 205.964L129.233 194.87L138.438 182.841L152.934 193.934L143.729 205.964Z" fill="#121213"/>
<path d="M92.1911 124.62L101.521 131.759L12.1414 248.579L2.81104 241.44L92.1911 124.62Z" fill="white"/>
<path d="M74.6899 166.746L72.8691 149.792L28.5226 207.764L32.363 222.079L74.6899 166.746Z" fill="#121213"/>
<path d="M1.69866 242.818L11.0242 249.958C11.8081 250.555 12.9352 250.406 13.5323 249.622L102.92 132.777C103.518 131.992 103.369 130.865 102.585 130.268L93.2593 123.128C92.4755 122.531 91.3484 122.68 90.7512 123.465L1.36309 240.31C0.76594 241.094 0.914786 242.221 1.69866 242.818ZM11.7834 246.023L5.29299 241.06L92.5086 127.059L98.999 132.023L11.7834 246.023Z" fill="#121213"/>
<path d="M90.1218 127.328L99.4521 134.466L97.2759 137.311L87.9455 130.172L90.1218 127.328Z" fill="#121213"/>
<path d="M14.6776 225.923L24.0068 233.062L21.4499 236.403L12.1206 229.264L14.6776 225.923Z" fill="#121213"/>
<path d="M95.4635 282.273L134.864 230.768C138.02 226.634 137.239 220.723 133.108 217.567L80.546 177.34C76.4146 174.184 70.5049 174.967 67.3493 179.1L57.0315 192.583L50.6756 257.919L85.2249 291.68L95.4635 282.273Z" fill="white"/>
<path d="M113.564 254.657C113.564 254.657 112.248 256.718 98.6539 246.311C85.0596 235.904 76.2262 229.146 76.2262 229.146L84.5944 228.028L116.836 252.706L113.564 254.657Z" fill="#121213"/>
<path d="M65.9672 184.958L68.8145 187.138C71.0537 184.215 75.2548 183.649 78.1769 185.888L125.483 222.099C128.405 224.338 128.97 228.54 126.731 231.464L129.578 233.645C133.02 229.149 132.158 222.693 127.664 219.251L80.3579 183.04C75.856 179.602 69.4092 180.462 65.9672 184.958Z" fill="#121213"/>
<path d="M49.9958 217.268L102.56 257.496C107.467 261.252 114.513 260.317 118.269 255.408L115.422 253.227C112.868 256.564 108.077 257.201 104.733 254.651L52.1683 214.423C48.8326 211.87 48.1934 207.069 50.7471 203.732L47.8998 201.551C44.1555 206.465 45.0887 213.512 49.9958 217.268Z" fill="#121213"/>
<path d="M85.1951 294.155L96.7902 283.49L136.289 231.863C140.046 226.953 139.113 219.906 134.206 216.15L81.6441 175.922C76.7373 172.166 69.6921 173.102 65.9357 178.011L55.3036 191.908L48.8092 258.613L85.1951 294.155ZM94.1361 281.057L85.2661 289.212L52.545 257.235L58.771 193.265L68.7792 180.183C71.3328 176.846 76.1324 176.205 79.468 178.759L132.03 218.987C135.365 221.54 136.004 226.341 133.451 229.678L94.1361 281.057Z" fill="#121213"/>
<path d="M63.4804 252.733L91.941 274.516C92.2365 274.74 92.6146 274.83 92.9823 274.753L97.8012 273.734C98.1024 273.666 98.364 273.505 98.5485 273.256L103.095 267.311C103.283 267.071 103.372 266.763 103.354 266.46L103.085 261.542C103.067 261.169 102.882 260.828 102.583 260.595L74.1222 238.812C73.559 238.381 72.756 238.492 72.3336 239.052L63.2454 250.932C62.8096 251.507 62.9208 252.31 63.4804 252.733ZM93.0291 272.132L66.0493 251.48L73.5804 241.634L100.56 262.286L100.779 266.145L96.8114 271.334L93.0291 272.132Z" fill="#121213"/>
<path d="M96.928 273.286L100.665 276.149C101.299 276.629 102.201 276.516 102.691 275.877L106.976 270.283C107.457 269.648 107.344 268.746 106.706 268.257L102.969 265.394C102.334 264.913 101.432 265.027 100.943 265.665L96.6575 271.26C96.1768 271.894 96.2986 272.793 96.928 273.286ZM101.278 272.976L99.8286 271.872L102.356 268.566L103.805 269.67L101.278 272.976Z" fill="#121213"/>
<path d="M103.951 271.848L100.209 268.998L97.8083 272.13L101.785 275.181L103.951 271.848Z" fill="#121213"/>
<path d="M71.9918 182.515L130.511 227.289L129.269 228.912L70.7498 184.138L71.9918 182.515Z" fill="#121213"/>
<path d="M70.1885 184.792L128.697 229.566C128.697 229.566 115.67 231.914 95.9109 216.795C76.1675 201.689 70.1885 184.792 70.1885 184.792Z" fill="#121213"/>
<path d="M101.219 261.222L102.44 262.157L93.3486 274.039L92.1275 273.105L101.219 261.222Z" fill="#121213"/>
<path d="M76.1758 251.486L97.2788 267.632L94.4423 271.34L73.3393 255.193L76.1758 251.486Z" fill="#121213"/>
<path d="M79.2608 247.457L100.364 263.603L99.312 264.977L78.209 248.831L79.2608 247.457Z" fill="#121213"/>
<path d="M99.5103 268.814L97.1078 267.775L95.263 270.19L97.8957 270.641L99.5103 268.814Z" fill="#121213"/>
<path d="M210.17 213.654L288.109 273.304L291.379 290.443L281.276 303.655L271.173 316.866L253.776 318.182L175.837 258.532L172.564 241.384L182.67 228.181L192.773 214.97L210.17 213.654Z" fill="#121213"/>
<path d="M283.313 281.556L286.536 291.851L281.186 298.849L274.288 292.478L283.313 281.556Z" fill="white"/>
<path d="M280.084 300.276L272.66 294.599L269.985 298.098L278.419 303.115L280.084 300.276Z" fill="white"/>
<path d="M275.374 305.999L266.232 303.554L264.697 305.567L274.544 307.083L275.374 305.999Z" fill="white"/>
<path d="M184.257 228.356L190.573 239.668L189.23 240.417L182.915 229.106L184.257 228.356Z" fill="white"/>
<path d="M193.404 235.549L185.602 226.721L190.763 219.984L202.133 224.143L193.404 235.549Z" fill="white"/>
<path d="M188.863 241.565L264.332 299.307L262.463 301.75L186.994 244.007L188.863 241.565Z" fill="white"/>
<path d="M195.286 233.169L270.755 290.911L268.887 293.353L193.418 235.611L195.286 233.169Z" fill="white"/>
<path d="M206.101 219.034L281.57 276.777L280.636 277.998L205.167 220.255L206.101 219.034Z" fill="white"/>
<path d="M201.946 224.471L277.416 282.214L271.815 289.533L196.346 231.791L201.946 224.471Z" fill="white"/>
<path d="M284.637 270.661L286.669 272.216L252.341 317.084L250.308 315.528L284.637 270.661Z" fill="white"/>
<path d="M266.438 256.743L268.471 258.299L234.142 303.166L232.109 301.611L266.438 256.743Z" fill="white"/>
<path d="M256.745 249.247L258.777 250.802L224.441 295.667L222.409 294.111L256.745 249.247Z" fill="white"/>
<path d="M246.873 241.698L248.906 243.254L214.57 288.119L212.537 286.563L246.873 241.698Z" fill="white"/>
<path d="M237.226 234.307L239.259 235.863L204.923 280.728L202.89 279.172L237.226 234.307Z" fill="white"/>
<path d="M227.598 226.959L229.631 228.515L195.295 273.38L193.262 271.824L227.598 226.959Z" fill="white"/>
<path d="M208.925 217.856L191.822 218.617L183.828 229.071L175.673 239.733L179.569 256.226L255.021 313.982L269.036 312.923L278.03 301.174L287.023 289.424L284.381 275.621L208.925 217.856ZM210.171 213.655L288.108 273.305L291.39 290.449L281.287 303.661L271.184 316.872L253.787 318.188L175.849 258.538L172.568 241.394L182.671 228.182L192.774 214.971L210.171 213.655Z" fill="white"/>
<path d="M174.203 259.538L253.225 320.018L272.106 318.591L293.293 290.9L289.735 272.304L210.713 211.823L191.832 213.25L170.644 240.941L174.203 259.538ZM254.323 316.339L177.476 257.515L174.475 241.833L193.706 216.695L209.62 215.49L286.467 274.314L289.468 289.996L270.237 315.134L254.323 316.339Z" fill="#121213"/>
<path d="M286.557 272.025L289.81 274.515L255.479 319.377L252.226 316.888L286.557 272.025Z" fill="#121213"/>
<path d="M208.813 212.538L211.657 214.714L177.326 259.577L174.482 257.4L208.813 212.538Z" fill="#121213"/>
<path d="M268.222 258.039L271.066 260.216L236.73 305.08L233.885 302.904L268.222 258.039Z" fill="#121213"/>
<path d="M258.603 250.647L261.447 252.824L227.116 297.686L224.272 295.51L258.603 250.647Z" fill="#121213"/>
<path d="M248.856 243.302L251.7 245.478L217.371 290.346L214.527 288.17L248.856 243.302Z" fill="#121213"/>
<path d="M239.198 235.791L242.042 237.968L207.711 282.83L204.867 280.653L239.198 235.791Z" fill="#121213"/>
<path d="M229.445 228.441L232.289 230.617L197.96 275.484L195.116 273.308L229.445 228.441Z" fill="#121213"/>
<path d="M287.318 295.779L275.277 311.515C275.277 311.515 307.885 336.467 318.695 344.747C329.513 353.022 345.534 361.417 349.205 355.623C353.837 350.562 341.546 337.289 330.732 329.002L324.892 324.532C321.1 325.754 315.546 324.385 310.702 320.682C305.854 316.971 303.087 311.964 303.28 307.99C294.533 301.295 287.318 295.779 287.318 295.779Z" fill="white"/>
<path d="M280.698 304.446L345.642 354.156C345.642 354.156 336.329 353.474 325.809 346.322C315.288 339.171 277.156 309.084 277.156 309.084L280.698 304.446Z" fill="#121213"/>
<path d="M285.16 299.929L278.723 308.349L321.503 341.091C326.347 344.794 331.805 348.175 336.475 350.361C342.444 353.156 344.928 352.999 345.516 352.9C345.547 352.856 345.579 352.813 345.614 352.778C345.56 352.18 345.059 349.752 340.809 344.716C337.485 340.777 332.794 336.399 327.955 332.684L323.788 329.493C318.839 330.088 312.99 328.233 307.933 324.361C302.868 320.492 299.563 315.324 298.837 310.39L288.196 302.249L285.16 299.929ZM287.318 295.779C287.318 295.779 294.525 301.298 303.283 307.999C303.094 311.981 305.861 316.987 310.705 320.69C315.553 324.401 321.103 325.763 324.895 324.54L330.736 329.01C341.554 337.286 353.848 350.566 349.207 355.632C345.537 361.425 329.508 353.034 318.698 344.755C307.888 336.476 275.281 311.524 275.281 311.524L287.318 295.779Z" fill="white"/>
<path d="M272.768 311.852L317.608 346.17C324.767 351.649 338.937 360.561 346.611 359.198C348.367 358.881 349.756 358.03 350.638 356.715C351.669 355.516 352.137 353.956 351.979 352.172C351.292 344.41 338.99 333.064 331.826 327.576L325.246 322.541L324.358 322.829C321.033 323.902 315.99 322.465 311.808 319.261C307.614 316.052 304.914 311.558 305.085 308.073L305.126 307.135L286.995 293.255L272.768 311.852ZM329.653 330.442C338.395 337.129 347.939 347.137 348.411 352.509C348.511 353.617 348.162 354.136 347.896 354.429L347.786 354.546L347.703 354.681C347.488 355.023 347.075 355.489 345.987 355.681C340.686 356.625 328.53 350.029 319.796 343.338L277.8 311.193L287.66 298.305L301.507 308.905C301.73 313.362 304.822 318.451 309.626 322.13C314.43 325.81 320.148 327.471 324.513 326.514L329.653 330.442Z" fill="#121213"/>
<path d="M348.145 357.046L365.566 368.126L350.317 354.201L348.145 357.046Z" fill="#121213"/>
<path d="M318.166 324.197L325.043 329.527C326.365 330.566 327.692 331.593 329.025 332.657C330.34 333.728 331.643 334.815 332.914 335.946C335.47 338.171 337.9 340.569 340.125 343.145C341.212 344.454 342.267 345.806 343.197 347.242C344.115 348.672 344.957 350.205 345.387 351.853C344.55 350.378 343.508 349.08 342.41 347.837C341.302 346.596 340.143 345.399 338.952 344.244C336.566 341.927 334.08 339.702 331.54 337.54C330.271 336.459 328.969 335.422 327.651 334.391C326.34 333.378 324.983 332.374 323.634 331.367L315.578 325.287C314.884 324.762 314.187 324.228 313.494 323.702C315.014 324.196 316.607 324.39 318.166 324.197Z" fill="#121213"/>
<path d="M292.983 304.988C295.68 307.003 298.369 309.021 301.039 311.068C302.284 312.019 303.529 312.971 304.77 313.914C305.014 315.501 305.65 317.021 306.572 318.39C304.237 316.591 301.894 314.796 299.55 313.001C296.875 310.967 294.223 308.893 291.579 306.816C288.927 304.742 286.278 302.676 283.644 300.574L284.884 298.947C287.594 300.946 290.295 302.97 292.983 304.988Z" fill="#121213"/>
<path d="M39.1246 217.304C32.5843 198.164 22.399 154.691 27.9112 118.899C30.1343 104.447 42.4591 89.6598 59.8617 95.9155C77.2727 102.167 68.9166 120.009 65.7938 133.003C64.001 140.439 63.2228 159.4 68.2042 178.802C71.9305 193.296 78.8677 208.025 90.9957 218.395C106.666 231.781 123.26 231.777 134.975 229.095C144.477 226.925 150.767 222.989 150.767 222.989L168.089 236.283L121.579 297.075C72.6925 310.873 24.2845 295.023 -6.00495 271.336C-36.2944 247.65 -33.7371 235.726 -27.3515 225.727C-21.1991 216.096 -9.80413 212.661 5.31786 224.238C15.9744 232.393 35.256 247.404 42.0399 241.497C44.1488 240.08 45.665 236.444 39.1246 217.304ZM80.6783 278.032C89.9287 285.113 103.163 283.346 110.245 274.091C117.327 264.836 115.565 251.598 106.314 244.517C97.0637 237.435 83.8294 239.202 76.7475 248.457C69.6655 257.712 71.4278 270.95 80.6783 278.032Z" fill="white"/>
<path d="M149.542 226.591L154.642 230.495C154.642 230.495 151.927 229.048 150.306 231.969C148.686 234.889 153.58 239.391 156.869 238.633C160.593 237.769 159.67 233.829 159.67 233.829L163.412 237.01L134.59 274.682L138.722 231.543L149.542 226.591ZM145.214 238.067C145.884 238.582 146.837 238.447 147.352 237.778C147.868 237.108 147.733 236.155 147.064 235.639C146.395 235.123 145.442 235.258 144.926 235.928C144.422 236.602 144.549 237.559 145.214 238.067Z" fill="#121213"/>
<path d="M4.25953 227.416C3.91828 227.531 -9.78085 239.999 -9.78085 239.999L0.628284 224.638L4.25953 227.416Z" fill="white"/>
<path d="M13.9746 235.102L5.19694 275.143L1.18948 272.915L4.7938 253.473L-1.15014 271.129C-1.15014 271.129 -20.5406 257.134 -26.6206 245.743C-32.7092 234.355 -27.007 226.467 -23.2811 223.582C-19.5636 220.7 -15.3359 217.371 -9.19331 219.892C-3.05076 222.412 8.43068 229.375 8.43068 229.375L13.9746 235.102Z" fill="#121213"/>
<path d="M98.3873 286.089L97.3481 298.077C97.3481 298.077 72.1372 303.676 45.4345 293.331L61.0888 271.336L70.3059 238.191L73.514 243.67L75.7494 231.083L78.2709 236.124L77.5122 241.849C77.5122 241.849 69.099 249.289 68.739 260.498C68.3791 271.707 75.332 289.251 98.3873 286.089Z" fill="#121213"/>
<path d="M97.2201 240.483L98.9126 228.337C98.9126 228.337 113.982 235.836 133.256 233.051L127.697 283.66L125.072 287.088L125.372 262.718L121.786 291.387L118.68 295.449L101.168 298.825L102.487 285.117C102.487 285.117 119.005 279.543 116.389 260.385L112.911 252.93C112.911 252.93 107.365 243.572 103.479 242.313C99.602 241.051 97.2201 240.483 97.2201 240.483Z" fill="#121213"/>
<path d="M93.3929 224.566L96.4443 224.947L94.5147 240.387L91.4633 240.006L93.3929 224.566Z" fill="#121213"/>
<path d="M87.951 220.745L84.9525 241.66L78.5794 246.061L83.0289 215.634L87.951 220.745Z" fill="#121213"/>
<path d="M71.1044 197.803C68.6952 211.064 64.0794 224.853 55.9565 223.676C47.8373 222.506 47.1071 201.926 51.3086 192.695C45.3251 203.594 44.9086 213.116 49.5468 223.54C49.5468 223.54 45.1579 218.483 43.668 212.103L42.9456 212.711C42.9456 212.711 44.0745 216.263 48.2144 225.608C52.3459 234.956 47.4772 242.64 46.479 243.705C45.4809 244.77 34.5764 250.278 20.1339 239.052L11.4642 279.939C11.4642 279.939 36.6596 293.165 42.1555 293.669C47.6515 294.173 57.3552 268.294 57.3552 268.294L68.5237 226.885L71.8 232.925L76.1773 207.201L71.1044 197.803Z" fill="#121213"/>
<path d="M50.9119 278.374L63.981 227.122L47.4725 277.365L50.9119 278.374Z" fill="white"/>
<path d="M69.1026 111.686L64.965 112.425C64.965 112.425 63.0323 122.922 53.8517 124.035C44.6747 125.156 36.7523 116.939 39.4552 109.927C42.1544 102.906 46.5698 99.4774 52.8226 100.35L53.9251 95.2688C53.9251 95.2688 45.6508 94.1353 39.0335 98.9506C32.4113 103.778 28.973 110.943 27.3657 122.912C25.7584 134.882 28.4855 167.249 28.4855 167.249L34.5355 201.645L35.98 201.631C35.98 201.631 34.8991 184.912 38.87 172.808C42.8324 160.707 54.3966 149.876 64.9776 171.98L64.1688 162.659C64.1688 162.659 59.5769 161.41 56.9525 156.763C54.3365 152.113 55.961 145.529 58.4945 142.05C61.0365 138.568 63.7506 139.635 63.7506 139.635L69.0498 118.202L69.1026 111.686Z" fill="#121213"/>
<path d="M62.3654 102.375C61.2945 101.549 59.9236 100.842 58.3056 100.259C53.0159 98.3568 48.1144 98.7106 43.7548 101.305C38.0848 104.677 33.6637 111.86 32.4623 119.605C30.1293 134.765 30.5064 153.454 33.5488 173.661C36.833 195.427 41.9798 211.427 43.4819 215.811C49.6809 233.935 50.0505 241.422 44.8618 245.15C38.1432 250.669 27.3699 244.665 23.8054 242.679C16.5846 238.657 8.68471 232.612 3.95877 228.999L3.21834 228.433L2.52495 227.908C-3.86272 223.02 -9.78509 220.877 -14.6059 221.726C-18.1338 222.346 -21.1069 224.531 -23.4634 228.215C-26.2766 232.613 -27.7881 236.638 -26.0519 241.973C-23.7746 248.958 -16.0738 257.619 -3.16525 267.707C-2.82278 267.972 -2.48883 268.24 -2.14996 268.496C13.5352 280.505 32.4711 289.31 52.6129 293.96C63.5601 296.488 74.6746 297.714 85.6409 297.602C96.9167 297.489 108.082 295.962 118.859 293.049L161.625 237.151L150.328 228.478C147.383 229.951 142.343 232.145 135.987 233.597C124.444 236.236 107.193 236.719 90.5745 223.997C89.7038 223.337 88.8321 222.627 87.9857 221.906C76.5232 212.114 68.3644 197.994 63.7232 179.958C58.4551 159.457 59.4403 139.617 61.2979 131.934C61.7719 129.941 62.3463 127.926 62.9525 125.797C66.1115 114.749 67.898 106.615 62.3654 102.375ZM65.1617 98.714C75.3022 106.477 68.5331 121.603 65.7936 133.003C64.0009 140.439 63.2227 159.4 68.2041 178.802C71.9304 193.296 78.8676 208.025 90.9956 218.395C91.7949 219.075 92.5883 219.718 93.3878 220.329C108.333 231.772 123.854 231.644 134.975 229.095C144.477 226.925 150.767 222.989 150.767 222.989L168.089 236.283L121.579 297.075C73.2549 310.714 25.4086 295.385 -4.94995 272.148C-5.30449 271.879 -5.66259 271.601 -6.00866 271.328C-36.3017 247.633 -33.7408 235.718 -27.3552 225.718C-21.2028 216.088 -9.80786 212.652 5.31413 224.23C5.77478 224.584 6.25108 224.952 6.74795 225.321C17.6167 233.645 35.5493 247.129 42.041 241.477C44.1378 240.055 45.6577 236.427 39.1173 217.287C32.5769 198.147 22.3917 154.674 27.9039 118.882C30.127 104.43 42.4517 89.643 59.8543 95.8986C61.9999 96.687 63.7485 97.6242 65.1617 98.714Z" fill="white"/>
<path d="M55.4844 123.488C49.7847 125.911 43.2003 123.254 40.7779 117.554C38.3554 111.854 41.0122 105.269 46.7119 102.846C52.4117 100.423 58.996 103.079 61.4185 108.779C63.8409 114.479 61.1842 121.065 55.4844 123.488Z" fill="white"/>
<path d="M57.9142 104.257C52.9955 100.496 45.9588 101.428 42.189 106.354C38.4277 111.275 39.357 118.314 44.2794 122.083C49.1982 125.844 56.2348 124.912 60.0046 119.987C63.7659 115.066 62.8366 108.027 57.9142 104.257ZM60.0868 101.412C66.5648 106.371 67.7988 115.682 62.8396 122.163C57.8803 128.645 48.5727 129.882 42.0947 124.923C35.6168 119.965 34.3827 110.654 39.3419 104.173C44.3011 97.691 53.6088 96.4536 60.0868 101.412Z" fill="white"/>
<path d="M43.374 123.264C48.9354 127.522 56.9259 126.456 61.1847 120.894C65.4435 115.332 64.3783 107.341 58.8169 103.082C53.2555 98.8234 45.265 99.8893 41.0062 105.452C36.7474 111.014 37.8126 119.005 43.374 123.264ZM57.0085 105.442C61.2661 108.704 62.0843 114.819 58.8219 119.077C55.5596 123.336 49.4449 124.154 45.1873 120.892C40.9297 117.63 40.1116 111.515 43.3739 107.256C46.6327 102.99 52.7509 102.179 57.0085 105.442Z" fill="#121213"/>
<path d="M47.7901 118.708C44.7584 116.872 43.789 112.926 45.6247 109.894C47.4605 106.863 51.4063 105.893 54.4379 107.729C57.4696 109.565 58.4391 113.511 56.6033 116.542C54.7676 119.574 50.8217 120.543 47.7901 118.708Z" fill="#121213"/>
<path d="M47.843 105.7L49.3008 105.211L54.4495 120.566L52.9917 121.055L47.843 105.7Z" fill="white"/>
<path d="M38.0154 134.684C35.372 138.139 36.0268 143.093 39.4812 145.737C42.9355 148.38 47.8807 147.728 50.5326 144.27C53.176 140.815 52.5247 135.869 49.0668 133.218C45.6004 130.569 40.6588 131.23 38.0154 134.684Z" fill="white"/>
<path d="M49.0538 133.214C45.6002 130.571 40.6555 131.223 38.0036 134.683C35.3601 138.138 36.0107 143.084 39.468 145.736C42.9216 148.379 47.8662 147.727 50.5182 144.268C53.1701 140.809 52.5195 135.862 49.0538 133.214ZM51.2348 130.366C56.2561 134.203 57.2115 141.421 53.3701 146.437C49.5323 151.461 42.3166 152.419 37.3038 148.578C32.2826 144.74 31.3272 137.522 35.1686 132.507C39.01 127.491 46.2136 126.528 51.2348 130.366Z" fill="white"/>
<path d="M38.6241 146.852C42.6887 149.966 48.5288 149.184 51.6431 145.119C54.7574 141.053 53.9759 135.213 49.9113 132.099C45.8466 128.984 40.0065 129.766 36.8922 133.832C33.7864 137.893 34.5594 143.737 38.6241 146.852ZM48.2096 134.333C51.0416 136.5 51.5819 140.573 49.4178 143.413C47.2502 146.246 43.1782 146.786 40.3377 144.622C37.5057 142.455 36.9656 138.383 39.1296 135.542C41.2936 132.701 45.3656 132.16 48.2096 134.333Z" fill="#121213"/>
<path d="M40.8195 136.833C39.3655 138.732 39.7249 141.461 41.6233 142.915C43.5218 144.368 46.2502 144.009 47.7042 142.11C49.1581 140.212 48.7989 137.483 46.9004 136.029C45.0019 134.575 42.282 134.931 40.8195 136.833Z" fill="#121213"/>
<path d="M44.3524 139.543C44.3357 140.681 44.9387 141.605 45.7051 141.62C46.4715 141.634 47.1053 140.724 47.122 139.587C47.1387 138.449 46.5357 137.525 45.7693 137.511C45.0029 137.496 44.3691 138.406 44.3524 139.543Z" fill="white"/>
<path d="M42.9084 141.418C42.6389 141.772 42.7028 142.276 43.0574 142.545C43.412 142.814 43.9151 142.751 44.1845 142.396C44.454 142.041 44.3817 141.542 44.0356 141.269C43.6809 140.999 43.1778 141.063 42.9084 141.418Z" fill="white"/>
<path d="M41.3751 137.928C41.1323 138.251 41.1866 138.708 41.5135 138.959C41.8367 139.202 42.2939 139.148 42.5451 138.821C42.7878 138.498 42.7336 138.041 42.4067 137.789C42.0835 137.547 41.6178 137.604 41.3751 137.928Z" fill="white"/>
<path d="M42.1531 273.657C38.8458 277.974 39.5021 284.038 43.6187 287.18C47.7388 290.331 53.7462 289.378 57.0535 285.06C60.3608 280.743 59.7045 274.679 55.588 271.537C51.4799 268.391 45.4604 269.339 42.1531 273.657Z" fill="white"/>
<path d="M55.5867 271.538C51.4674 268.388 45.4606 269.342 42.1532 273.66C38.8459 277.978 39.5014 284.043 43.6171 287.185C47.7364 290.336 53.7432 289.382 57.0506 285.063C60.3579 280.745 59.706 274.689 55.5867 271.538ZM57.7678 268.69C63.4462 273.038 64.3993 281.357 59.8977 287.244C55.396 293.131 47.1145 294.382 41.436 290.034C35.7576 285.685 34.8045 277.366 39.3062 271.479C43.8114 265.601 52.0929 264.35 57.7678 268.69Z" fill="white"/>
<path d="M42.6802 288.409C47.4577 292.071 54.4508 290.989 58.2738 286.002C62.0884 281.019 61.3068 273.978 56.5245 270.328C51.7471 266.667 44.754 267.749 40.9309 272.736C37.1163 277.719 37.9028 284.748 42.6802 288.409ZM54.658 272.762C58.0967 275.392 58.6229 280.491 55.8399 284.135C53.0569 287.78 47.9939 288.602 44.5552 285.972C41.1166 283.342 40.5904 278.243 43.3733 274.599C46.1563 270.954 51.2193 270.132 54.658 272.762Z" fill="#121213"/>
<path d="M45.5051 276.223C43.6834 278.598 44.042 281.938 46.3108 283.674C48.5795 285.411 51.8875 284.885 53.7092 282.51C55.5309 280.135 55.1722 276.796 52.9035 275.059C50.6347 273.322 47.3232 273.84 45.5051 276.223Z" fill="#121213"/>
<path d="M50.0109 279.67C50.4569 280.931 51.6673 281.637 52.7227 281.248C53.778 280.86 54.2741 279.508 53.8281 278.247C53.3822 276.986 52.1718 276.28 51.1164 276.669C50.0647 277.066 49.565 278.409 50.0109 279.67Z" fill="white"/>
<path d="M49.4755 282.529C49.1429 282.97 49.204 283.584 49.6213 283.907C50.0387 284.23 50.647 284.131 50.9881 283.686C51.3206 283.245 51.2597 282.63 50.8423 282.308C50.425 281.985 49.8165 282.083 49.4755 282.529Z" fill="white"/>
<path d="M131.761 244.211C129.087 247.71 129.612 252.619 132.945 255.164C136.281 257.717 141.155 256.946 143.83 253.447C146.505 249.949 145.979 245.04 142.647 242.495C139.311 239.941 134.436 240.713 131.761 244.211Z" fill="white"/>
<path d="M142.637 242.5C139.302 239.947 134.428 240.719 131.753 244.218C129.078 247.717 129.603 252.627 132.935 255.171C136.27 257.725 141.144 256.953 143.819 253.454C146.502 249.951 145.969 245.045 142.637 242.5ZM144.818 239.652C149.713 243.403 150.544 250.563 146.666 255.635C142.793 260.694 135.657 261.768 130.757 258.029C125.863 254.277 125.032 247.117 128.909 242.046C132.787 236.975 139.923 235.9 144.818 239.652Z" fill="white"/>
<path d="M132.015 256.389C136.017 259.45 141.868 258.553 145.047 254.381C148.238 250.213 147.578 244.33 143.576 241.27C139.574 238.209 133.723 239.106 130.544 243.278C127.354 247.446 128.013 253.329 132.015 256.389ZM141.705 243.716C144.36 245.749 144.767 249.697 142.604 252.518C140.442 255.338 136.533 255.98 133.869 253.95C131.215 251.917 130.807 247.969 132.97 245.148C135.133 242.328 139.05 241.683 141.705 243.716Z" fill="#121213"/>
<path d="M134.467 246.292C132.994 248.219 133.281 250.918 135.121 252.327C136.956 253.728 139.639 253.308 141.111 251.381C142.583 249.455 142.297 246.756 140.457 245.347C138.63 243.942 135.947 244.362 134.467 246.292Z" fill="#121213"/>
<path d="M138.126 249.089C138.48 250.109 139.463 250.681 140.32 250.367C141.174 250.044 141.575 248.963 141.217 247.935C140.864 246.915 139.88 246.342 139.023 246.656C138.167 246.971 137.761 248.064 138.126 249.089Z" fill="white"/>
<path d="M137.206 251.02C136.878 251.45 136.944 252.052 137.35 252.37C137.763 252.684 138.363 252.589 138.691 252.16C139.019 251.73 138.953 251.128 138.547 250.81C138.142 250.492 137.534 250.591 137.206 251.02Z" fill="white"/>
<path d="M134.996 248.879C134.726 249.233 134.778 249.731 135.117 249.988C135.456 250.244 135.955 250.171 136.225 249.817C136.494 249.462 136.442 248.964 136.104 248.708C135.761 248.443 135.265 248.524 134.996 248.879Z" fill="white"/>
<path d="M43.2185 242.841C44.7833 241.485 45.8706 239.712 46.547 237.914C47.2282 236.104 47.4998 234.248 47.6165 232.427C47.8257 228.777 47.3056 225.246 46.4939 221.829C46.2994 220.972 46.0504 220.127 45.8221 219.284L45.051 216.81C44.519 215.206 44.0549 213.572 43.6452 211.925C43.244 210.275 42.8258 208.632 42.5214 206.951C42.1795 205.275 42.0564 203.597 41.584 201.897C41.5283 202.331 41.51 202.759 41.5124 203.188C41.5062 203.621 41.5086 204.05 41.5109 204.479C41.5567 205.34 41.6025 206.201 41.6857 207.056C41.8438 208.769 42.0634 210.487 42.3545 212.184C42.6371 213.885 42.9899 215.586 43.4019 217.261L43.9819 219.756C44.1451 220.587 44.3251 221.411 44.4472 222.239C44.9764 225.556 45.2043 228.941 44.7703 232.157C44.5515 233.76 44.1829 235.318 43.549 236.698C42.915 238.078 42.0458 239.258 40.9432 240.076L43.2185 242.841Z" fill="#121213"/>
<path d="M24.9952 245.506L23.9573 250.08C23.9573 250.08 33.4235 256.82 44.3271 249.332C36.3387 252.639 32.1488 251.489 27.2127 248.465C27.2127 248.465 31.9647 250.397 36.4106 250.077C31.9894 249.466 24.9952 245.506 24.9952 245.506Z" fill="white"/>
<path d="M-6.05549 273.55C22.4833 295.399 70.7737 313.281 122.083 298.803L122.654 298.64L170.609 235.952L150.882 220.81L149.83 221.467C149.766 221.504 143.646 225.278 134.584 227.351C123.672 229.851 107.447 230.088 92.1687 217.036C81.7249 208.111 74.248 195.102 69.9473 178.362C64.9682 158.988 65.8355 140.52 67.545 133.43C67.9945 131.568 68.5529 129.609 69.1347 127.541C70.9215 121.268 72.7584 114.784 72.285 108.842C71.7171 101.759 67.7483 96.8441 60.4856 94.23C53.4126 91.6853 46.5028 92.2329 40.495 95.7986C33.1417 100.177 27.6423 108.919 26.1543 118.627C20.6051 154.684 30.6362 197.983 37.4389 217.881C41.9645 231.125 43.1863 238.569 41.0556 240.006L40.8823 240.139C38.6679 242.062 33.6902 240.917 26.4732 236.833C19.751 233.018 12.4505 227.419 7.10952 223.347L6.41243 222.813C-1.55013 216.715 -8.99808 214.229 -15.7165 215.416C-21.0006 216.353 -25.5435 219.575 -28.8511 224.764C-36.7672 237.166 -36.0979 250.068 -7.09863 272.743C-6.75256 273.016 -6.40643 273.289 -6.05549 273.55ZM120.537 295.518C70.1122 309.51 22.6912 291.509 -4.88262 269.929C-34.7633 246.569 -31.6111 235.763 -25.8195 226.697C-23.0609 222.382 -19.3477 219.702 -15.0772 218.946C-9.46418 217.96 -2.77724 220.278 4.25194 225.663L4.94543 226.188C5.00453 226.233 5.06362 226.278 5.12271 226.323C20.4654 238.067 36.0053 248.957 43.1607 242.912C46.4679 240.595 47.2022 235.33 40.8355 216.717C34.1333 197.126 24.2524 154.534 29.6968 119.171C31.0341 110.498 35.8752 102.726 42.3336 98.8786C47.4513 95.8315 53.1581 95.3954 59.2749 97.5964C72.5662 102.369 69.0745 114.66 65.694 126.553C65.0976 128.657 64.533 130.649 64.0628 132.579C62.2664 140.007 61.3435 159.239 66.4814 179.246C70.972 196.716 78.8314 210.342 89.843 219.756C90.6616 220.458 91.4827 221.12 92.31 221.748C107.979 233.744 124.253 233.386 135.395 230.838C142.88 229.125 148.413 226.372 150.647 225.132L165.606 236.609L120.537 295.518ZM79.5918 279.455C89.6104 287.12 104.004 285.21 111.679 275.183C119.344 265.159 117.44 250.761 107.417 243.088C97.3987 235.422 83.0047 237.332 75.3304 247.36C67.6597 257.396 69.5732 271.79 79.5918 279.455ZM105.228 245.94C113.679 252.411 115.295 264.55 108.823 273.006C102.352 281.461 90.2153 283.081 81.7644 276.61C73.3134 270.139 71.6976 257.999 78.1691 249.544C84.6406 241.089 96.7805 239.477 105.228 245.94Z" fill="#121213"/>
<path d="M79.5604 296.654C79.55 297.689 82.2395 298.556 85.5746 298.589C88.9097 298.622 91.6164 297.811 91.6268 296.776C91.6372 295.741 88.9477 294.874 85.6126 294.841C82.286 294.805 79.5708 295.619 79.5604 296.654Z" fill="white"/>
<path d="M-1.70749 208.654L9.33398 217.102L-26.9417 264.514L-37.9832 256.066L-1.70749 208.654Z" fill="white"/>
<path d="M-6.82529 217.482L-5.40054 231.663L5.47411 217.446L-1.52126 212.096L-6.82529 217.482Z" fill="#121213"/>
<path d="M-0.945574 214.322L-32.2488 255.232L-27.7113 258.706L3.59189 217.796L-0.945574 214.322ZM-1.713 208.586L9.33172 217.036L-26.9488 264.454L-37.9934 256.004L-1.713 208.586Z" fill="white"/>
<path d="M-39.084 257.428L-28.0414 265.878C-27.2575 266.475 -26.1305 266.326 -25.5333 265.542L10.7481 218.115C11.3537 217.327 11.1964 216.204 10.4125 215.606L-0.630021 207.156C-1.41388 206.559 -2.54096 206.708 -3.13812 207.492L-39.4195 254.919C-40.0166 255.703 -39.8678 256.831 -39.084 257.428ZM-27.2906 261.947L-35.486 255.678L-1.38571 211.099L6.80976 217.369L-27.2906 261.947Z" fill="#121213"/>
<path d="M204.269 161.261L217.328 171.255C219.513 168.394 218.36 163.842 214.757 161.083C211.145 158.326 206.455 158.4 204.269 161.261Z" fill="white"/>
<path d="M195.282 158.759L194.396 165.479L215.713 181.796L221.975 179.183L221.39 174.369L200.073 158.052L195.282 158.759Z" fill="white"/>
<path d="M193.309 166.902L214.626 183.219C215.134 183.614 215.809 183.697 216.406 183.453L222.668 180.84C223.409 180.535 223.852 179.766 223.757 178.976L223.181 174.158C223.128 173.68 222.871 173.24 222.488 172.952L201.168 156.626C200.782 156.33 200.299 156.206 199.82 156.279L195.025 156.978C194.234 157.094 193.61 157.72 193.507 158.514L192.624 165.243C192.535 165.881 192.796 166.52 193.309 166.902ZM215.98 179.742L196.309 164.686L196.88 160.331L199.585 159.941L219.701 175.338L220.023 178.052L215.98 179.742Z" fill="#121213"/>
<path d="M202.391 171.637L208.357 176.202L204.788 180.867L198.821 176.302L202.391 171.637Z" fill="#121213"/>
<path d="M203.182 162.684L216.241 172.678C217.024 173.275 218.152 173.126 218.749 172.341C221.535 168.705 220.229 163.017 215.842 159.66C211.455 156.303 205.629 156.53 202.846 160.175C202.241 160.963 202.398 162.087 203.182 162.684ZM216.609 168.459L207.154 161.225C208.963 160.445 211.53 160.884 213.653 162.513C215.796 164.142 216.887 166.5 216.609 168.459Z" fill="#121213"/>
<path d="M202.894 160.259L206.236 162.816L200.557 170.238L197.216 167.681L202.894 160.259Z" fill="#121213"/>
<path d="M207.475 163.647L212.966 167.849L207.287 175.27L201.797 171.068L207.475 163.647Z" fill="#121213"/>
<path d="M218.739 172.214L219.831 173.296L213.193 179.992L212.101 178.91L218.739 172.214Z" fill="#121213"/>
<path d="M36.0061 81.5459L51.8101 76.9973C50.8112 73.5402 46.4708 71.7539 42.1029 73.0108C37.7351 74.2676 35.0072 78.0887 36.0061 81.5459Z" fill="white"/>
<path d="M28.639 87.2787L33.5125 91.99L59.3174 84.5615L60.9498 77.9749L56.7379 75.5735L30.9331 83.0019L28.639 87.2787Z" fill="white"/>
<path d="M32.4267 93.4139C32.8718 93.7549 33.4625 93.8739 34.0131 93.7099L59.8173 86.2805C60.4308 86.0997 60.9025 85.609 61.0603 84.9917L62.6845 78.4084C62.873 77.6279 62.5273 76.8144 61.8298 76.4207L57.6181 74.0194C57.1957 73.7788 56.7002 73.7193 56.238 73.8558L30.4337 81.2852C29.9715 81.4216 29.5765 81.7397 29.3528 82.1549L27.0587 86.4318C26.6806 87.1429 26.8206 88.0138 27.3967 88.5692L32.27 93.2805C32.3206 93.329 32.3712 93.3775 32.4267 93.4139ZM57.8262 83.1252L34.0171 89.9764L30.8603 86.9265L32.1563 84.5147L56.5074 77.503L58.8824 78.8544L57.8262 83.1252Z" fill="#121213"/>
<path d="M43.1732 89.2053L50.3931 87.1274L52.0177 92.7724L44.7978 94.8503L43.1732 89.2053Z" fill="#121213"/>
<path d="M34.9114 82.9733C34.9826 83.0231 35.0537 83.0729 35.1334 83.1191C35.5521 83.3512 36.0355 83.4058 36.4977 83.2693L52.3013 78.72C53.2547 78.4446 53.8029 77.4511 53.5278 76.4975C52.2576 72.0952 46.9157 69.7646 41.6031 71.2934C36.2989 72.8185 33.0094 77.6491 34.276 82.0429C34.3849 82.4168 34.6123 82.7403 34.9114 82.9733ZM49.1344 75.9046L37.6985 79.1968C38.1468 77.2853 40.0284 75.4747 42.6067 74.7385C45.1814 73.9938 47.7267 74.5222 49.1344 75.9046Z" fill="#121213"/>
<path d="M34.3271 82.026L38.3706 80.8623L40.9552 89.8429L36.9117 91.0066L34.3271 82.026Z" fill="#121213"/>
<path d="M39.8186 80.445L46.4634 78.5327L49.0479 87.5134L42.4032 89.4257L39.8186 80.445Z" fill="#121213"/>
<path d="M53.3977 76.4164L54.9175 76.1831L56.3481 85.5019L54.8283 85.7352L53.3977 76.4164Z" fill="#121213"/>
</g>
</svg>
