<svg width="72" height="72" viewBox="0 0 72 72" fill="none" xmlns="http://www.w3.org/2000/svg">
<rect width="72" height="72" fill="#F8133C"/>
<path opacity="0.35" d="M42.5454 54H29.4545C26.743 54 24.5454 51.8024 24.5454 49.0909V22.9091C24.5454 20.1976 26.743 18 29.4545 18H42.5454C45.2569 18 47.4545 20.1976 47.4545 22.9091V49.0909C47.4545 51.8024 45.2569 54 42.5454 54Z" fill="white"/>
<path d="M36 50.7273C37.3556 50.7273 38.4545 49.6283 38.4545 48.2727C38.4545 46.9171 37.3556 45.8182 36 45.8182C34.6443 45.8182 33.5454 46.9171 33.5454 48.2727C33.5454 49.6283 34.6443 50.7273 36 50.7273Z" fill="white"/>
</svg>
