<svg width="72" height="72" viewBox="0 0 72 72" fill="none" xmlns="http://www.w3.org/2000/svg">
<rect width="72" height="72" fill="#F8133C"/>
<path d="M44.6654 51.9787L35.1718 42.4851L45.0713 32.5856L48.9929 49.5802C49.1923 50.4443 48.9321 51.3522 48.3056 51.9787C47.3001 52.9842 45.6709 52.9842 44.6654 51.9787Z" fill="white"/>
<path d="M29.0863 53.3703L26.6864 50.9703L32.3433 45.3135L33.4845 51.017C33.6542 51.8712 33.3884 52.7537 32.7718 53.3703C31.7535 54.3885 30.1046 54.3885 29.0863 53.3703Z" fill="white"/>
<path d="M20.0212 27.3346L29.5148 36.8282L39.4143 26.9287L22.4197 23.0071C21.5556 22.8077 20.6477 23.0679 20.0212 23.6944C19.0157 24.6999 19.0157 26.3291 20.0212 27.3346Z" fill="white"/>
<path d="M18.6297 42.9135L21.0296 45.3134L26.6865 39.6566L20.983 38.5153C20.1288 38.3456 19.2449 38.6129 18.6297 39.2281C17.6115 40.2463 17.6115 41.8953 18.6297 42.9135Z" fill="white"/>
<path opacity="0.35" d="M52.1419 25.5145C53.7046 23.9518 53.7046 21.4203 52.1419 19.8576C50.5792 18.2949 48.0478 18.2949 46.485 19.8576C45.6351 20.7075 21.0292 45.3134 21.0292 45.3134L26.6861 50.9703C26.6861 50.9703 51.292 26.3644 52.1419 25.5145Z" fill="white"/>
</svg>
