<svg width="76" height="81" viewBox="0 0 76 81" fill="none" xmlns="http://www.w3.org/2000/svg">
<path d="M19.9926 63.2559C20.3882 63.2559 23.7843 63.2559 25.4329 63.2559V58.8047L30.8733 53.8589" stroke="white" stroke-width="2"/>
<rect x="33.3569" y="53.3745" width="8.88078" height="13.8266" fill="#202020" stroke="white" stroke-width="2"/>
<path d="M16.5305 27.656H40.2704V25.656H16.5305V27.656ZM40.2704 27.656C46.82 27.656 52.1295 32.9655 52.1295 39.5151H54.1295C54.1295 31.861 47.9246 25.656 40.2704 25.656V27.656Z" fill="white"/>
<path d="M31.1811 54.3424L29.6473 47.4399H45.9481L44.4142 54.3424H31.1811Z" fill="#202020" stroke="white" stroke-width="2"/>
<path d="M31.1333 67.2238L29.7264 72.1479H45.869L44.4621 67.2238H31.1333Z" fill="#202020" stroke="white" stroke-width="2"/>
<path d="M23.1803 73.157L20.1458 79.0703H55.4489L52.4144 73.157H23.1803Z" fill="#202020" stroke="white" stroke-width="2"/>
<line x1="0.703857" y1="79.0703" x2="71.9235" y2="79.0703" stroke="white" stroke-width="2"/>
<mask id="path-8-inside-1_6_21308" fill="white">
<path fill-rule="evenodd" clip-rule="evenodd" d="M1.98445 6.29694C1.27749 3.65852 2.84324 0.946539 5.48166 0.239576C8.12009 -0.467387 10.8321 1.09837 11.539 3.73679L20.8607 38.5258H56.6262C58.7365 37.9586 61.046 38.8489 62.1905 40.8312L74.6326 62.3816C75.9984 64.7471 75.1879 67.7719 72.8223 69.1377C70.4568 70.5034 67.432 69.6929 66.0662 67.3274L55.1486 48.4175H17.5197C15.8563 48.4175 14.3846 47.5962 13.4881 46.3371C12.8334 45.7266 12.3364 44.9311 12.0877 44.0027L1.98445 6.29694Z"/>
</mask>
<path fill-rule="evenodd" clip-rule="evenodd" d="M1.98445 6.29694C1.27749 3.65852 2.84324 0.946539 5.48166 0.239576C8.12009 -0.467387 10.8321 1.09837 11.539 3.73679L20.8607 38.5258H56.6262C58.7365 37.9586 61.046 38.8489 62.1905 40.8312L74.6326 62.3816C75.9984 64.7471 75.1879 67.7719 72.8223 69.1377C70.4568 70.5034 67.432 69.6929 66.0662 67.3274L55.1486 48.4175H17.5197C15.8563 48.4175 14.3846 47.5962 13.4881 46.3371C12.8334 45.7266 12.3364 44.9311 12.0877 44.0027L1.98445 6.29694Z" fill="#202020"/>
<path d="M5.48166 0.239576L5.9993 2.17143L5.48166 0.239576ZM1.98445 6.29694L3.9163 5.7793L1.98445 6.29694ZM11.539 3.73679L13.4709 3.21915V3.21915L11.539 3.73679ZM20.8607 38.5258L18.9289 39.0435L19.3261 40.5258H20.8607V38.5258ZM56.6262 38.5258V40.5258H56.8903L57.1454 40.4573L56.6262 38.5258ZM62.1905 40.8312L63.9226 39.8312H63.9226L62.1905 40.8312ZM74.6326 62.3816L76.3647 61.3816L74.6326 62.3816ZM72.8223 69.1377L73.8223 70.8697V70.8697L72.8223 69.1377ZM66.0662 67.3274L67.7983 66.3274H67.7983L66.0662 67.3274ZM55.1486 48.4175L56.8806 47.4175L56.3033 46.4175H55.1486V48.4175ZM13.4881 46.3371L15.1173 45.1771L15 45.0123L14.8521 44.8744L13.4881 46.3371ZM12.0877 44.0027L14.0195 43.4851L14.0195 43.4851L12.0877 44.0027ZM4.96403 -1.69228C1.25867 -0.699428 -0.940248 3.10922 0.0525976 6.81458L3.9163 5.7793C3.49522 4.20781 4.42781 2.59251 5.9993 2.17143L4.96403 -1.69228ZM13.4709 3.21915C12.478 -0.486199 8.66938 -2.68512 4.96403 -1.69228L5.9993 2.17143C7.57079 1.75035 9.18609 2.68294 9.60717 4.25443L13.4709 3.21915ZM22.7926 38.0082L13.4709 3.21915L9.60717 4.25443L18.9289 39.0435L22.7926 38.0082ZM56.6262 36.5258H20.8607V40.5258H56.6262V36.5258ZM57.1454 40.4573C58.403 40.1192 59.7782 40.6529 60.4585 41.8312L63.9226 39.8312C62.3139 37.0449 59.0701 35.798 56.1071 36.5944L57.1454 40.4573ZM60.4585 41.8312L72.9006 63.3816L76.3647 61.3816L63.9226 39.8312L60.4585 41.8312ZM72.9006 63.3816C73.714 64.7905 73.2313 66.5921 71.8223 67.4056L73.8223 70.8697C77.1445 68.9517 78.2827 64.7037 76.3647 61.3816L72.9006 63.3816ZM71.8223 67.4056C70.4134 68.2191 68.6117 67.7363 67.7983 66.3274L64.3342 68.3274C66.2522 71.6495 70.5002 72.7877 73.8223 70.8697L71.8223 67.4056ZM67.7983 66.3274L56.8806 47.4175L53.4165 49.4175L64.3342 68.3274L67.7983 66.3274ZM17.5197 50.4175H55.1486V46.4175H17.5197V50.4175ZM11.8589 47.4971C13.1145 49.2606 15.182 50.4175 17.5197 50.4175V46.4175C16.5305 46.4175 15.6547 45.9318 15.1173 45.1771L11.8589 47.4971ZM10.1558 44.5204C10.5044 45.8211 11.2033 46.9412 12.1241 47.7998L14.8521 44.8744C14.4635 44.5121 14.1685 44.041 14.0195 43.4851L10.1558 44.5204ZM0.0525976 6.81458L10.1558 44.5204L14.0195 43.4851L3.9163 5.7793L0.0525976 6.81458Z" fill="white" mask="url(#path-8-inside-1_6_21308)"/>
</svg>
