<svg width="57" height="41" viewBox="0 0 57 41" fill="none" xmlns="http://www.w3.org/2000/svg">
<path d="M28.61 39.19L56.25 9.36002L44.82 0H11.43L0 9.36002L28.13 39.88L28.24 39.72L28.35 40.07L28.61 39.19ZM36.98 11.31L28.29 35.25L19.21 11.31H36.98ZM19.4 8.43002L21.68 2.89001H35.28L36.97 8.43002H19.4ZM39.99 11.31H51.39L30 35.5L39.99 11.31ZM50.56 8.43002H39.98L38.29 2.89001H43.79L50.56 8.43002ZM12.46 2.89001H18.56L16.28 8.43002H5.69L12.46 2.89001ZM4.86 11.31H16.18L26.5 35.5L4.86 11.31Z" fill="white"/>
</svg>
