<svg width="80" height="80" viewBox="0 0 80 80" fill="none" xmlns="http://www.w3.org/2000/svg">
<rect width="80" height="80" fill="white"/>
<path fill-rule="evenodd" clip-rule="evenodd" d="M56.3104 30.0661C59.8316 30.0661 62.6862 27.2115 62.6862 23.6903C62.6862 20.169 59.8316 17.3145 56.3104 17.3145C52.7891 17.3145 49.9346 20.169 49.9346 23.6903C49.9346 27.2115 52.7891 30.0661 56.3104 30.0661Z" fill="#8055FA"/>
<path fill-rule="evenodd" clip-rule="evenodd" d="M56.3101 46.0793C59.8314 46.0793 62.6859 43.2249 62.6859 39.7037C62.6859 36.1826 59.8314 33.3281 56.3101 33.3281C52.7889 33.3281 49.9343 36.1826 49.9343 39.7037C49.9343 43.2249 52.7889 46.0793 56.3101 46.0793Z" fill="#7550FB"/>
<path fill-rule="evenodd" clip-rule="evenodd" d="M56.3101 62.6872C59.8314 62.6872 62.6859 59.8326 62.6859 56.3113C62.6859 52.7901 59.8314 49.9355 56.3101 49.9355C52.7889 49.9355 49.9343 52.7901 49.9343 56.3113C49.9343 59.8326 52.7889 62.6872 56.3101 62.6872Z" fill="#6A4AFC"/>
<path fill-rule="evenodd" clip-rule="evenodd" d="M39.7037 46.0793C43.2249 46.0793 46.0793 43.2249 46.0793 39.7037C46.0793 36.1826 43.2249 33.3281 39.7037 33.3281C36.1826 33.3281 33.3281 36.1826 33.3281 39.7037C33.3281 43.2249 36.1826 46.0793 39.7037 46.0793Z" fill="#6045FD"/>
<path fill-rule="evenodd" clip-rule="evenodd" d="M39.7035 62.6872C43.2246 62.6872 46.0791 59.8326 46.0791 56.3113C46.0791 52.7901 43.2246 49.9355 39.7035 49.9355C36.1823 49.9355 33.3279 52.7901 33.3279 56.3113C33.3279 59.8326 36.1823 62.6872 39.7035 62.6872Z" fill="#553FFE"/>
<path fill-rule="evenodd" clip-rule="evenodd" d="M23.6895 62.6872C27.2108 62.6872 30.0653 59.8326 30.0653 56.3113C30.0653 52.7901 27.2108 49.9355 23.6895 49.9355C20.1683 49.9355 17.3137 52.7901 17.3137 56.3113C17.3137 59.8326 20.1683 62.6872 23.6895 62.6872Z" fill="#4A3AFF"/>
</svg>
