<svg width="28" height="20" viewBox="0 0 28 20" fill="none" xmlns="http://www.w3.org/2000/svg">
<path d="M11.7596 0C10.9706 0 10.1255 0.258978 9.14193 0.611328C8.15832 0.963679 7.06893 1.42652 5.98828 1.90039C3.82699 2.84813 1.59532 3.84341 0.75651 4.01758L0 4.17578V5.7168L0.515885 5.99414C0.588739 6.03322 1.00679 6.42426 1.47839 7.02148C1.94998 7.61871 2.52705 8.40756 3.21745 9.24805C4.4913 10.7988 6.17077 12.5365 8.41641 13.6523C8.77251 15.0382 9.26085 16.4008 9.99505 17.5371C10.8931 18.9269 12.263 20 14 20C15.737 20 17.1069 18.9269 18.0049 17.5371C18.7391 16.4008 19.2275 15.0382 19.5836 13.6523C21.8292 12.5365 23.5087 10.7988 24.7826 9.24805C25.4729 8.40756 26.05 7.61871 26.5216 7.02148C26.9932 6.42426 27.4113 6.03322 27.4841 5.99414L28 5.7168V4.17578L27.2435 4.01758C26.4047 3.84341 24.173 2.84813 22.0117 1.90039C20.9311 1.42652 19.8417 0.963679 18.8581 0.611328C17.8745 0.258978 17.0294 0 16.2404 0C15.4684 0 14.8582 0.331791 14.3536 0.613281C14.1524 0.725554 14.1456 0.743014 14 0.837891C13.8544 0.743014 13.8476 0.725554 13.6464 0.613281C13.1418 0.331791 12.5316 0 11.7596 0ZM11.7596 2C11.8828 2 12.3924 2.16821 12.7841 2.38672C13.1758 2.60523 13.4677 2.82227 13.4677 2.82227L14 3.2168L14.5323 2.82227C14.5323 2.82227 14.8242 2.60523 15.2159 2.38672C15.6076 2.16821 16.1172 2 16.2404 2C16.5704 2 17.3589 2.18235 18.2674 2.50781C19.176 2.83327 20.2363 3.28357 21.3044 3.75195C22.2018 4.14545 22.9978 4.47042 23.7563 4.76758C21.2046 5.32962 17.5259 6 14 6C10.4741 6 6.79537 5.32962 4.24375 4.76758C5.00223 4.47042 5.79821 4.14545 6.69557 3.75195C7.76369 3.28357 8.824 2.83327 9.73255 2.50781C10.6411 2.18235 11.4296 2 11.7596 2ZM3.64766 6.68359C4.77031 6.93669 5.99268 7.18949 7.52135 7.42969C7.5694 8.36273 7.66703 9.60829 7.89141 11.0625C6.60187 10.164 5.52487 9.02826 4.61927 7.92578C4.25245 7.47921 3.96443 7.0966 3.64766 6.68359ZM24.3523 6.68359C24.0356 7.0966 23.7476 7.47921 23.3807 7.92578C22.4751 9.02826 21.3981 10.164 20.1086 11.0625C20.333 9.60829 20.4306 8.36273 20.4786 7.42969C22.0073 7.18949 23.2297 6.93669 24.3523 6.68359ZM9.40625 7.69727C10.9044 7.87757 12.4697 8 14 8C15.5303 8 17.0956 7.87757 18.5938 7.69727C18.5169 8.9052 18.3572 10.5719 17.9904 12.2754C17.6557 13.8292 17.1471 15.3527 16.4701 16.4004C15.7931 17.4481 15.063 18 14 18C12.937 18 12.2069 17.4481 11.5299 16.4004C10.853 15.3527 10.3443 13.8292 10.0096 12.2754C9.64273 10.5719 9.48305 8.9052 9.40625 7.69727ZM14 11C13.5049 11 13.0301 11.2107 12.6801 11.5858C12.33 11.9609 12.1333 12.4696 12.1333 13C12.1333 13.5304 12.33 14.0391 12.6801 14.4142C13.0301 14.7893 13.5049 15 14 15C14.4951 15 14.9699 14.7893 15.3199 14.4142C15.67 14.0391 15.8667 13.5304 15.8667 13C15.8667 12.4696 15.67 11.9609 15.3199 11.5858C14.9699 11.2107 14.4951 11 14 11Z" fill="white"/>
</svg>
