<svg width="72" height="72" viewBox="0 0 72 72" fill="none" xmlns="http://www.w3.org/2000/svg">
<rect width="72" height="72" fill="#F8133C"/>
<path d="M43.7909 34.1005L32.7086 27.4511C32.3723 27.249 31.9884 27.1399 31.5961 27.1347C31.2038 27.1296 30.8172 27.2286 30.4758 27.4218C30.1343 27.615 29.8502 27.8953 29.6525 28.2341C29.4549 28.573 29.3507 28.9583 29.3506 29.3506V42.6495C29.3503 43.0419 29.4542 43.4275 29.6517 43.7667C29.8492 44.1058 30.1333 44.3865 30.4748 44.5799C30.8163 44.7733 31.2031 44.8726 31.5956 44.8675C31.988 44.8625 32.3721 44.7533 32.7086 44.5512L43.7909 37.9018C44.1192 37.7048 44.3908 37.4263 44.5794 37.0932C44.768 36.7601 44.8671 36.3839 44.8671 36.0011C44.8671 35.6184 44.768 35.2421 44.5794 34.9091C44.3908 34.576 44.1192 34.2974 43.7909 34.1005Z" fill="white"/>
<path opacity="0.35" d="M51.5156 18.2682H20.4849C16.8125 18.2682 13.8354 21.2452 13.8354 24.9176V47.0824C13.8354 50.7548 16.8125 53.7318 20.4849 53.7318H51.5156C55.188 53.7318 58.165 50.7548 58.165 47.0824V24.9176C58.165 21.2452 55.188 18.2682 51.5156 18.2682Z" fill="white"/>
</svg>
