<svg width="156" height="195" viewBox="0 0 156 195" fill="none" xmlns="http://www.w3.org/2000/svg">
<g opacity="0.05">
<path d="M117.831 121.129C107.3 125.174 97.3282 130.704 85.1906 134.794C79.0195 136.865 72.5391 138.226 66.0249 138.756C51.9255 139.906 37.7099 137.374 24.9444 131.891C20.5102 129.99 15.8936 127.525 10.438 124.38C2.88691 120.042 0.23602 117.111 0.882769 112.316C1.45849 108.081 13.3129 98.7681 17.6183 94.875C21.0045 91.8238 24.5007 88.6488 27.9799 86.1874C33.5237 82.2718 38.6204 79.4714 43.5607 77.6721C49.4989 75.501 55.7623 74.1341 62.1825 73.6191C69.305 73.0377 76.1684 73.54 82.5934 75.0907C91.9109 77.3481 105.578 86.3474 116.574 95.4384C125.502 102.821 133.436 105.29 131.01 111.819C129.772 115.17 123.189 119.072 117.831 121.129Z" fill="#121213"/>
<path d="M117.831 121.129C107.3 125.174 97.3282 130.704 85.1906 134.794C79.0195 136.865 72.5391 138.226 66.0249 138.756C51.9255 139.906 37.7099 137.374 24.9444 131.891C20.5102 129.99 15.8936 127.525 10.438 124.38C2.88691 120.042 0.23602 117.111 0.882769 112.316C1.45849 108.081 13.3129 98.7681 17.6183 94.875C21.0045 91.8238 24.5007 88.6488 27.9799 86.1874C33.5237 82.2718 38.6204 79.4714 43.5607 77.6721C49.4989 75.501 55.7623 74.1341 62.1825 73.6191C69.305 73.0377 76.1684 73.54 82.5934 75.0907C91.9109 77.3481 105.578 86.3474 116.574 95.4384C125.502 102.821 133.436 105.29 131.01 111.819C129.772 115.17 123.189 119.072 117.831 121.129ZM42.9833 113.101C42.6742 112.681 42.3803 112.267 42.0924 111.837L42.097 111.848C42.0753 111.769 41.9867 111.682 41.9438 111.612C41.8105 111.393 41.6771 111.173 41.5484 110.965C41.2249 110.425 40.9286 109.86 40.6429 109.291C40.082 108.149 39.6013 106.959 39.2465 105.739C38.5479 103.383 38.2248 100.876 38.2616 98.414C38.2743 97.488 38.3432 96.5754 38.4486 95.6596C37.6545 98.149 37.3923 100.76 37.5081 103.37C37.6515 106.535 38.488 109.612 39.9225 112.442C41.3326 115.245 43.3025 117.74 45.6734 119.796C48.0093 121.83 50.731 123.418 53.6303 124.487C56.7076 125.618 59.9922 126.154 63.2659 126.114C66.6229 126.064 69.9611 125.391 73.0679 124.101C75.9309 122.917 78.577 121.234 80.8471 119.123C83.1385 117.003 84.9433 114.489 86.3275 111.705C87.7942 108.733 88.5637 105.435 88.6244 102.13C88.676 99.0946 88.1759 95.9208 86.9253 93.1371C86.736 92.7026 86.5361 92.2728 86.3409 91.8535C86.5803 92.8083 86.8257 93.7478 86.9924 94.7091C87.178 95.8008 87.3014 96.8945 87.3262 97.9932C87.3999 100.42 87.134 102.906 86.4619 105.241C85.161 109.78 82.4835 113.821 78.906 116.867C75.5718 119.719 71.3972 121.626 67.0866 122.382C62.8184 123.119 58.36 122.755 54.2686 121.322C49.8273 119.752 45.7864 116.872 42.9833 113.101ZM61.6697 85.089C53.0605 85.7886 46.5947 93.1445 47.2728 101.473C47.9556 109.812 55.5058 116.03 64.1257 115.325C72.735 114.626 79.2008 107.27 78.5226 98.9413C77.8445 90.6127 70.279 84.3894 61.6697 85.089ZM74.6389 79.9557C74.6389 79.9557 69.9218 79.9809 66.3061 81.2031C71.3926 82.0257 75.2378 85.1794 77.0033 87.5244L81.9832 86.2501C79.4646 82.0898 74.6389 79.9557 74.6389 79.9557ZM83.0991 88.3486L78.3663 89.5532C78.7143 90.1203 79.0825 90.792 79.3973 91.3987C79.3973 91.3987 83.333 90.3902 84.1122 90.2399C84.0365 90.0081 83.5707 89.0257 83.0991 88.3486ZM113.029 99.0507C113.154 99.9166 113.221 100.795 113.227 101.675C113.236 102.074 113.234 102.504 113.178 102.894C112.796 105.318 112.005 107.641 110.684 109.73C109.627 111.414 108.266 112.864 106.901 114.303C107.766 112.729 108.646 111.16 109.224 109.446C109.904 107.448 110.16 105.344 109.991 103.249C109.916 102.411 109.867 101.575 109.745 100.746C109.587 99.7178 109.299 98.7087 108.941 97.7425C108.234 95.8313 107.231 94.0494 106.045 92.3975C105.529 91.6766 104.976 90.9847 104.39 90.3067C105.131 91.7746 105.744 93.2978 106.215 94.8705C106.699 96.4749 107.016 98.1274 107.135 99.7902C107.224 100.949 107.225 102.109 107.056 103.254C106.587 106.434 105.508 109.514 103.927 112.308C102.586 114.67 100.909 116.813 99.0052 118.752C99.5784 117.897 100.121 117.03 100.624 116.13C101.792 114.007 102.714 111.753 103.289 109.396C103.856 107.082 104.044 104.705 103.916 102.327C103.916 102.327 103.92 102.338 103.91 102.343C103.942 101.635 103.851 100.906 103.759 100.202C103.636 99.2844 103.437 98.3628 103.184 97.4643C102.291 94.3733 100.687 91.5295 98.7241 88.9928C97.7987 87.7948 96.8023 86.6654 95.7304 85.5942C95.3029 85.1627 94.8541 84.7404 94.3994 84.3333C94.1674 84.1192 93.9248 83.9097 93.6763 83.7154C95.7398 86.3971 97.4454 89.386 98.5286 92.5957C99.6441 95.8796 100.194 99.4857 99.7365 102.95C99.2268 106.816 97.9529 110.549 96.0594 113.958C94.3835 116.97 92.2627 119.685 89.8597 122.156C90.6304 121.089 91.3555 120.004 92.0363 118.876C93.6336 116.175 94.9154 113.271 95.7123 110.239C96.1338 108.63 96.4215 107.005 96.5558 105.345C96.6206 104.51 96.6491 103.678 96.6364 102.838C96.6284 102.502 96.5852 102.142 96.603 101.807C96.603 101.807 96.6076 101.817 96.597 101.822C96.5596 99.8838 96.3236 97.9819 95.7903 96.1212C94.7206 92.3635 92.6542 88.9517 90.0808 86.0257C88.8644 84.6517 87.5545 83.3816 86.1466 82.2046C85.5563 81.7179 84.96 81.2464 84.3366 80.7993C84.1323 80.6488 83.9326 80.5088 83.7223 80.3734C88.7744 85.0818 92.1459 91.5183 92.7284 98.8169C94.0224 114.694 81.7133 128.694 65.2898 130.036C48.8722 131.364 34.4645 119.535 33.1811 103.653C32.6094 96.6401 34.6946 89.995 38.6164 84.6426C38.6058 84.6472 38.6059 84.6472 38.5953 84.6518C37.992 85.2929 37.4131 85.9611 36.8541 86.6459C34.4689 89.5637 32.4729 92.854 31.2483 96.4388C30.5934 98.3505 30.1727 100.337 30.0512 102.344C29.986 103.381 30.0089 104.418 30.1046 105.448C30.1496 105.869 30.1993 106.302 30.2655 106.714C30.2766 106.797 30.2924 106.891 30.3035 106.975C30.3113 107.022 30.3192 107.069 30.3271 107.116C30.3317 107.126 30.3396 107.173 30.3317 107.126C30.5707 108.775 30.9144 110.403 31.3991 112.007C32.2723 114.88 33.5726 117.604 35.1843 120.117C36.5953 122.314 38.2542 124.327 40.0761 126.194C39.8718 126.043 39.6675 125.893 39.4692 125.727C36.6253 123.511 34.1023 120.904 32.022 117.952C30.9138 116.392 29.9401 114.736 29.1147 113.015C28.6951 112.139 28.3179 111.244 27.9725 110.336C27.6594 109.501 27.3477 108.641 27.124 107.78C26.2425 104.281 26.3369 100.533 27.0915 97.0268C27.6661 94.3809 28.6238 91.8329 29.854 89.4183C29.8328 89.4275 29.8162 89.4474 29.8056 89.452C29.7168 89.5664 29.6325 89.6913 29.5436 89.8056C29.0906 90.4443 28.6574 91.0995 28.2546 91.7667C26.5818 94.5254 25.2581 97.5356 24.5225 100.68C24.1408 102.322 23.9277 104.003 23.9317 105.691C23.9392 106.432 23.9679 107.163 24.0481 107.897C24.0755 108.163 24.1029 108.428 24.1515 108.684L24.1468 108.674C24.2681 109.907 24.4575 111.123 24.7667 112.325C25.37 114.722 26.3307 117.014 27.5744 119.146C28.6233 120.945 29.8657 122.611 31.2486 124.164C31.0747 124.026 30.8903 123.892 30.7165 123.753C28.5066 121.98 26.5394 119.924 24.9121 117.607C23.1396 115.102 21.8314 112.33 20.9775 109.386C20.7404 108.582 20.6425 107.691 20.5571 106.859C20.3737 105.136 20.3725 103.396 20.5459 101.682C20.7253 99.9517 21.0535 98.2452 21.5352 96.5727C21.2545 97.0859 20.989 97.6052 20.7539 98.1363C19.6362 100.577 18.8353 103.196 18.5644 105.873C18.424 107.258 18.4092 110.379 18.8881 112.289C19.3485 114.156 19.9223 115.936 20.8761 117.575C21.5693 118.761 22.3909 119.866 23.2126 120.97C23.1531 120.921 23.0936 120.871 23.0235 120.826C21.2559 119.402 19.5366 117.945 18.1899 116.098C17.4416 115.075 16.796 113.969 16.2776 112.808C16.0084 112.219 15.7711 111.617 15.5701 111.011C15.5128 110.821 15.4496 110.647 15.4029 110.453C14.5135 106.907 14.8615 105.709 14.8646 104.182C14.8635 104.006 14.8671 103.84 14.8766 103.66C13.9245 105.613 13.4568 107.607 13.323 109.846C13.1248 113.009 14.2068 116.535 15.316 118.762C11.5984 116.133 10.4059 109.113 10.4487 107.127C9.33624 109.175 8.77304 113.468 10.0652 116.347C7.61779 114.955 6.88146 110.862 6.85268 109.349C6.46134 109.898 5.16267 112.532 6.00093 114.89C7.25627 118.466 12.8832 121.6 22.9399 126.132C33.3603 130.834 48.2327 135.337 66.1683 133.789C94.1191 131.383 114.385 118.167 114.808 106.521C114.927 103.986 114.288 101.478 113.029 99.0507ZM119.841 103.66C120.025 104.576 120.645 107.156 120.51 108.727C120.283 111.361 119.239 114.261 117.436 116.459C117.767 116.466 125.157 113.663 126.353 110.216C127.016 108.352 122.678 105.223 119.841 103.66Z" fill="white"/>
<path d="M63.931 112.939C56.637 113.532 50.2356 108.302 49.6639 101.289C49.2625 96.345 51.8627 91.8079 55.9885 89.3548C55.0928 90.3376 54.6006 91.5229 54.696 92.7548C54.9323 95.7282 58.5104 97.8637 62.6747 97.5246C66.839 97.1855 70.0194 94.5012 69.783 91.5277C69.6876 90.2959 69.0102 89.2041 67.9611 88.3877C72.4233 90.1505 75.7244 94.1969 76.1258 99.141C76.6975 106.154 71.2249 112.346 63.931 112.939ZM53.3259 96.6424C52.1926 96.7327 51.3638 97.7242 51.4494 98.8468C51.5396 99.9801 52.5312 100.809 53.6538 100.723C54.7765 100.638 55.6159 99.6415 55.5303 98.5189C55.4447 97.3962 54.4485 96.5568 53.3259 96.6424Z" fill="white"/>
<path d="M114.982 87.3568C110.818 84.5434 106.972 81.4154 102.775 78.6417C98.859 76.0485 94.7286 73.6872 90.1876 71.9461C85.5507 70.1586 80.5898 69.0164 75.5068 68.5202C72.5864 68.2417 69.6201 68.1472 66.6396 68.2226C61.6271 68.3513 56.5735 68.9642 51.7184 70.0329C50.7286 70.2498 49.748 70.488 48.7826 70.732C44.641 71.8177 40.643 73.32 36.855 75.1594C36.7113 75.2346 36.5629 75.2993 36.4192 75.3745C35.6595 75.7433 34.9196 76.1287 34.1843 76.5247C31.6532 77.8922 29.249 79.4061 26.9227 81.0121C26.6808 81.1806 26.4284 81.3536 26.1866 81.522C24.6056 82.6394 23.075 83.7854 21.5628 84.9738C17.7134 87.9747 14.0504 91.1718 10.0866 94.0839C6.54297 96.6868 2.72904 99.0167 -1.75358 100.188C-0.964786 99.8568 -0.191221 99.5198 0.56987 99.1252C4.8807 96.894 8.36719 93.61 11.6933 90.421C15.3907 86.8685 18.9981 83.2543 22.9883 79.9399C26.9513 76.6499 31.2546 73.6781 35.9801 71.2411C40.6632 68.8226 45.7306 66.968 50.9732 65.7178C59.9017 63.5805 69.4812 62.9374 78.5674 64.0851C80.3826 64.3156 82.1678 64.6221 83.9324 65.0259C79.2298 62.914 73.9793 61.5703 68.6939 60.9857C57.1801 59.7355 45.7612 62.1761 35.0069 65.8527C39.8139 63.3424 44.9544 61.2794 50.3638 60.007C60.8946 57.5247 72.4092 57.3876 82.5231 60.8362C84.8775 61.6387 87.2171 62.5232 89.4062 63.6121C91.6912 64.7474 93.8601 66.0215 95.9402 67.41C101.542 71.1224 110.663 79.8452 117.744 86.1153C121.156 89.1427 124.845 91.8222 129.514 93.306C128.73 93.2439 127.963 93.162 127.194 93.0179C122.596 92.159 118.6 89.8152 114.982 87.3568Z" fill="white"/>
<path d="M34.508 147.621C23.0187 142.086 17.6177 139.181 6.28046 129.394C4.98362 128.269 3.48271 127.284 1.81655 126.585C2.54765 126.759 3.25021 126.982 3.93943 127.262C5.87944 128.068 7.66016 129.146 9.43167 130.202C11.3738 131.361 19.9144 136.176 28.7707 139.227C37.7593 142.321 46.9245 144.229 56.642 144.597C63.3946 144.845 70.5784 144.086 77.2354 142.812C87.4066 140.864 96.0166 137.504 105.127 133.094C112.666 129.444 120.148 125.869 127.975 122.824C127.417 123.105 114.854 130.445 108.577 134.037C104.098 136.606 87.796 145.839 73.4386 147.757C66.4684 148.688 59.2619 149.192 52.3026 148.644C50.488 148.501 48.6821 148.292 46.8941 148.037C49.0692 148.804 51.298 149.434 53.572 149.994C57.8751 151.045 62.4166 151.6 66.9012 151.765C72.6928 151.978 78.6155 151.768 84.3796 150.933C87.64 150.459 90.8944 149.999 94.1312 149.383C96.7403 148.889 99.3324 148.327 101.932 147.813C95.5064 149.906 89.0278 151.821 82.3325 153.036C76.0344 154.178 69.6696 154.82 63.2757 154.643C57.0988 154.472 51.0263 153.499 45.2557 151.714C42.1219 150.772 37.4002 149.021 34.508 147.621Z" fill="white"/>
<path d="M51.5126 19.0593C50.1587 13.7233 49.8637 6.76606 50.5717 1.30083C50.6748 0.524621 51.902 0.418571 52.1206 1.18071C53.7003 6.4562 54.5355 13.38 54.0598 18.8575C53.946 20.1301 51.8251 20.2975 51.5126 19.0593Z" fill="white"/>
<path d="M56.5003 50.8532C55.761 52.6 53.0278 52.4038 52.4421 50.6543C51.0268 46.4797 52.0691 41.8397 52.0567 37.4701C52.048 33.2249 51.6899 28.9301 52.038 24.6934C52.0905 24.0905 52.8773 24.1891 53.0878 24.6143C55.1511 28.7714 56.0505 33.4984 56.6941 38.0722C57.3037 42.3077 58.1883 46.827 56.5003 50.8532Z" fill="white"/>
<path d="M11.0741 56.1824C4.96247 48.8972 1.25197 39.078 -2.88617 30.5925C-3.31636 29.7209 -1.91353 29.0339 -1.38524 29.8124C3.93922 37.6928 10.5276 45.7539 13.7992 54.7682C14.4075 56.4827 12.1656 57.4721 11.0741 56.1824Z" fill="white"/>
<path d="M19.7695 70.8146C18.6454 69.6527 18.1259 68.3155 17.5312 66.8347C16.9397 65.3902 16.2326 63.8828 16.1033 62.3127C16.0545 61.7665 16.7533 61.3738 17.167 61.7735C18.3223 62.8336 19.0581 64.2908 19.8251 65.6462C20.6165 67.0287 21.3996 68.2763 21.6156 69.8717C21.7379 70.7892 20.4521 71.5133 19.7695 70.8146Z" fill="white"/>
<path d="M96.8895 44.6423C95.6937 46.2097 93.6982 44.4944 94.2321 42.9127C96.5227 36.1023 100.342 30.0508 103.97 23.8806C107.196 18.3775 110.137 12.4815 114.207 7.55625C114.555 7.13981 115.382 7.47331 115.212 8.03894C113.291 14.5117 109.861 20.5578 106.957 26.6266C103.945 32.8812 101.115 39.1196 96.8895 44.6423Z" fill="white"/>
<path d="M93.6528 51.133C93.0144 54.0085 90.5614 56.2498 88.2397 57.8665C86.627 58.9978 85.0179 56.925 86.0427 55.4572C86.7034 54.5137 87.2483 53.5073 87.8435 52.5293C88.4567 51.5057 89.1807 50.2445 90.0119 49.4032C91.6699 47.7101 93.905 49.3967 93.6164 51.1362C93.627 51.1316 93.6422 51.1376 93.6528 51.133Z" fill="white"/>
<path d="M67.84 164.367C68.9728 166.736 69.0709 169.19 69.2715 171.763C69.4664 174.149 69.8789 176.63 69.4013 179.006C69.3086 179.488 68.5934 179.699 68.3069 179.243C66.9733 177.051 66.4962 174.422 65.8228 171.979C65.1218 169.473 64.515 167.241 64.7619 164.624C64.9261 162.888 67.239 163.104 67.84 164.367Z" fill="white"/>
<path d="M97.626 158.389C101.796 162.258 104.411 167.827 107.429 172.614C110.825 178.006 114.216 183.387 117.334 188.951C118.029 190.199 116.442 191.332 115.506 190.226C111.4 185.346 107.578 180.278 103.737 175.193C100.321 170.68 96.0353 166.256 93.891 160.986C93.0313 158.839 95.9182 156.813 97.626 158.389Z" fill="white"/>
<path d="M42.4603 160.724C43.1065 160.152 44.2216 161.091 43.7585 161.822C41.0747 166.081 37.8804 170.007 34.9666 174.113C31.7502 178.654 28.7311 183.184 25.0024 187.33C24.0178 188.427 22.1578 187.283 22.8204 185.91C27.2864 176.627 34.7238 167.536 42.4603 160.724Z" fill="white"/>
<path d="M132.788 132.453C140.492 138.792 146.923 146.695 154.447 153.314C155.347 154.107 154.227 155.327 153.271 154.696C145.009 149.218 135.925 143.039 130.059 134.928C128.819 133.211 131.176 131.125 132.788 132.453Z" fill="white"/>
<path d="M9.12033 144.623C10.0966 144.173 10.6506 145.444 10.1889 146.15C7.55648 150.121 4.07243 153.555 0.820687 157.002C-0.265222 158.156 -2.46868 156.947 -1.62178 155.418C0.861813 150.932 4.35225 146.789 9.12033 144.623Z" fill="white"/>
<path d="M138.454 140.393C143.459 142.739 150.868 145.675 154 150.426C154.151 150.657 154.035 150.98 153.734 150.969C148.175 150.796 141.632 145.987 137.136 143.028C135.783 142.126 136.905 139.664 138.454 140.393Z" fill="white"/>
<path d="M-1.0885 81.9192C-3.65334 79.4181 -5.32746 76.1253 -7.40589 73.2357C-8.23542 72.0841 -13.4932 63.9227 -14.7068 63.7705C-14.6473 63.8203 -14.627 63.9249 -14.7223 63.9665C-14.7859 63.9942 -14.8495 64.0219 -14.9131 64.0496C-14.9661 64.0727 -15.027 64.0486 -15.0607 64.0003C-15.2885 63.7087 -15.2959 63.7497 -15.1888 63.3878C-15.1695 63.3164 -15.1197 63.257 -15.0423 63.261C-12.3213 63.1977 -8.9032 67.7731 -7.20764 69.5813C-4.17862 72.8006 -0.595404 76.308 0.995907 80.4815C1.44153 81.6491 -0.138843 82.8546 -1.0885 81.9192Z" fill="white"/>
<path d="M33.0757 52.0441C30.2827 46.4146 27.9706 39.2265 27.3336 32.9604C27.2607 32.1852 28.3706 31.752 28.7951 32.4371C32.1867 37.9066 34.7205 45.1116 35.9769 51.4105C36.3322 53.21 33.7639 53.4212 33.0757 52.0441Z" fill="white"/>
<path d="M72.6169 47.3873C72.9652 42.9488 74.148 38.6889 75.1785 34.3692C76.0864 30.6072 76.7808 26.6735 78.4415 23.1636C78.6573 22.7039 79.311 22.873 79.3745 23.3371C80.385 31.1552 78.5185 41.1094 75.7406 48.422C75.0249 50.3099 72.4845 49.1093 72.6169 47.3873Z" fill="white"/>
<path d="M105.756 65.9198C104.723 67.0507 102.556 65.8388 103.404 64.3979C105.853 60.267 108.736 56.1487 112.403 52.988C113.21 52.2956 114.26 53.4019 113.889 54.2571C112 58.5471 108.903 62.4936 105.756 65.9198Z" fill="white"/>
<path d="M126.526 80.575C125.991 81.3128 125.33 81.8524 124.617 82.4152C123.563 83.2654 121.934 81.8698 122.596 80.6986C123.138 79.7437 123.672 78.8557 124.517 78.1342C124.957 77.7537 125.49 77.3573 126.094 77.3841C126.419 77.4064 126.901 77.4992 127.07 77.8291C127.333 78.3451 127.435 78.7542 127.235 79.3079C127.071 79.7703 126.817 80.171 126.526 80.575Z" fill="white"/>
<path d="M83.9196 166.2C86.3898 172.159 88.606 178.809 89.0971 185.29C89.1437 185.976 88.1416 186.425 87.7673 185.769C84.4682 180.019 82.5851 173.237 81.2382 166.788C80.913 165.203 83.3558 164.819 83.9196 166.2Z" fill="white"/>
<path d="M115.908 144.787C117.79 147.284 119.484 149.899 121.334 152.409C123.155 154.881 125.377 157.116 127.054 159.663C127.452 160.259 126.813 160.991 126.171 160.704C120.43 158.149 115.475 151.898 113.348 146.117C112.778 144.55 114.926 143.488 115.908 144.787Z" fill="white"/>
<path d="M19.0538 157.266C19.8366 155.677 20.3711 153.691 21.6141 152.406C22.1723 151.835 23.3832 152.039 23.3903 152.981C23.3973 154.907 22.2501 156.731 21.2853 158.336C20.2136 160.102 19.0277 161.779 17.5488 163.217C17.0026 163.758 15.9597 163.216 16.3527 162.44C17.2105 160.704 18.1946 159.027 19.0538 157.266Z" fill="white"/>
<path d="M52.4483 163.912C52.7857 162.718 54.4723 163.03 54.3446 164.271C54.0866 166.804 53.7916 169.252 53.21 171.737C52.7202 173.855 52.4081 176.235 51.249 178.089C50.9558 178.544 50.3404 178.434 50.234 177.901C49.8388 175.778 50.4256 173.392 50.7453 171.26C51.1264 168.749 51.7707 166.35 52.4483 163.912Z" fill="white"/>
<path d="M138.315 97.5915C137.502 98.589 135.773 97.5141 136.398 96.3463C137.036 95.1479 137.673 93.9754 138.457 92.8521C139.096 91.9179 139.974 90.6909 141.077 90.2987C141.535 90.1366 142.078 90.4552 142.093 90.9529C142.145 92.1152 141.386 93.3537 140.782 94.3105C140.031 95.4821 139.189 96.5299 138.315 97.5915Z" fill="white"/>
<path d="M149.338 130.098C145.474 130.634 141.583 127.059 139.259 124.415C138.341 123.378 140.024 121.888 141.037 122.795C142.411 124.038 143.923 125.106 145.536 126.03C146.947 126.84 148.626 127.508 149.813 128.643C150.329 129.162 150.063 129.996 149.338 130.098Z" fill="white"/>
</g>
</svg>
