<svg width="197" height="212" viewBox="0 0 197 212" fill="none" xmlns="http://www.w3.org/2000/svg">
<g opacity="0.05">
<path d="M0.357591 91.8621L46.6973 82.5131L47.3483 85.7446L1.00864 95.0936L0.357591 91.8621Z" fill="#F8F8F8"/>
<path d="M1.18352 96.0075L47.5218 86.6567C48.0238 86.559 48.3559 86.056 48.2583 85.5538L47.6061 82.3143C47.5085 81.8122 47.0164 81.483 46.5036 81.5777L0.165364 90.9285C-0.336621 91.0262 -0.665806 91.5185 -0.571147 92.0314L0.081096 95.271C0.186583 95.7868 0.678635 96.116 1.18352 96.0075ZM46.2335 85.0113L1.72334 93.9929L1.43702 92.5927L45.9472 83.6112L46.2335 85.0113Z" fill="#121213"/>
<path d="M4.29147 92.7526L47.0269 84.1307L47.2505 85.2409L4.51513 93.8627L4.29147 92.7526Z" fill="#121213"/>
<path d="M56.5393 74.1239L61.9348 73.0354L64.9509 88.006L59.5554 89.0946L56.5393 74.1239Z" fill="#F8F8F8"/>
<path d="M59.7266 90.0081L65.1235 88.9235C65.6255 88.8258 65.9547 88.3335 65.86 87.8206L62.8392 72.848C62.7416 72.3459 62.2387 72.0138 61.7367 72.1115L56.3398 73.1961C55.8378 73.2938 55.5087 73.7861 55.6033 74.299L58.6242 89.2716C58.7297 89.7874 59.2217 90.1166 59.7266 90.0081ZM63.8352 87.278L60.2664 87.9935L57.6144 74.8495L61.1832 74.134L63.8352 87.278Z" fill="#121213"/>
<path d="M56.8218 75.5405L61.2503 74.6471L61.4075 75.4275L56.9791 76.3209L56.8218 75.5405Z" fill="#121213"/>
<path d="M57.9382 79.4219L62.059 78.5906L62.4775 80.668L58.3567 81.4994L57.9382 79.4219Z" fill="#121213"/>
<path d="M62.6704 81.7069L58.2421 82.5984L58.9072 85.8762L63.3356 84.9848C63.3247 84.9819 62.5117 81.6063 62.6704 81.7069Z" fill="#121213"/>
<path d="M65.9131 75.1952L78.7041 72.6146L80.8654 83.3425L68.0744 85.923L65.9131 75.1952Z" fill="#F8F8F8"/>
<path d="M67.3389 87.0212L81.95 84.0752L79.4264 71.5345L64.8153 74.4805L67.3389 87.0212ZM79.761 82.6296L68.7815 84.8421L66.9906 75.934L77.9701 73.7215L79.761 82.6296Z" fill="#121213"/>
<path d="M69.9927 75.7675L78.9705 73.9562L79.1278 74.7366L70.1499 76.5479L69.9927 75.7675Z" fill="#121213"/>
<path d="M70.4079 77.8481L79.3858 76.0369L79.543 76.8173L70.5652 78.6285L70.4079 77.8481Z" fill="#121213"/>
<path d="M70.7827 79.7082L79.7605 77.897L80.4293 81.2164L71.4515 83.0277L70.7827 79.7082Z" fill="#121213"/>
<path d="M76.1474 52.1511L57.4734 55.9239L67.9544 107.978C67.9544 107.978 84.8375 115.567 84.6093 102.039C84.481 94.5052 75.8814 94.5924 73.3254 86.5474C70.3027 76.9958 71.644 62.6348 76.1474 52.1511Z" fill="#F8F8F8"/>
<path d="M70.9623 83.7199L62.7437 76.0615L68.2014 104.202C68.2014 104.202 79.6486 114.536 83.4052 103.678C84.4713 100.609 80.8046 96.016 77.9364 94.3767C75.0818 92.7296 72.5304 92.9398 70.9623 83.7199Z" fill="#121213"/>
<path d="M70.2714 73.5627L67.1146 71.138L68.1981 76.5363L62.0164 70.155L62.6665 73.3592L70.3296 80.5786L70.2714 73.5627Z" fill="#121213"/>
<path d="M71.2402 61.5864C68.8947 62.8037 65.5955 61.0838 65.7388 59.6827C64.5379 60.2664 62.3378 58.516 63.4327 56.6385L59.801 57.3719L59.2362 57.4876L60.1769 62.1627L67.1761 68.438L65.246 62.778L70.3217 68.3057L71.2402 61.5864Z" fill="#121213"/>
<path d="M59.9691 57.5677L69.8079 106.431C71.9587 107.24 75.9692 108.384 78.8642 107.802C80.594 107.453 82.5709 106.485 82.4936 102.052C82.443 99.2527 80.9932 97.9936 78.2122 95.8553C75.7696 93.9702 72.7203 91.6208 71.3136 87.1691C68.5152 78.3393 69.1735 65.618 72.7983 54.9917L59.9691 57.5677ZM57.4764 55.9129L76.1503 52.1401C71.644 62.6346 70.3056 76.9848 73.3341 86.5147C75.8873 94.5706 84.4869 94.4834 84.618 102.006C84.7075 107.173 82.293 109.254 79.2861 109.865C74.4157 110.847 67.9632 107.946 67.9632 107.946L57.4764 55.9129Z" fill="#F8F8F8"/>
<path d="M79.4696 110.785C80.4764 110.579 81.4286 110.23 82.2756 109.668C84.503 108.198 85.5988 105.624 85.5349 102.008C85.4596 97.6116 82.7191 95.4958 80.0752 93.4523C77.748 91.6562 75.3429 89.8045 74.2174 86.2523C71.3363 77.1682 72.5033 62.9811 77.001 52.5191C77.1314 52.2057 77.0914 51.8352 76.873 51.5677C76.6545 51.3002 76.3059 51.1719 75.9729 51.2452L57.2989 55.0181C56.7969 55.1157 56.4678 55.608 56.5761 56.113L67.0571 108.167C67.1174 108.462 67.3171 108.713 67.587 108.832C67.9002 108.962 74.3644 111.82 79.4696 110.785ZM74.6422 53.3962C70.4684 64.1656 69.547 77.6523 72.4569 86.8022C73.7608 90.9013 76.5201 93.0338 78.9519 94.9159C81.5662 96.9399 83.6359 98.5276 83.6935 102.037C83.7388 104.987 82.9238 107.032 81.2631 108.119C77.5288 110.578 70.5646 108.027 68.7769 107.293L58.5714 56.636L74.6422 53.3962Z" fill="#121213"/>
<path d="M7.97861 87.056L19.374 84.757L21.2895 94.2647L9.89411 96.5637L7.97861 87.056Z" fill="#F8F8F8"/>
<path d="M10.0695 97.4945L21.4665 95.1965C21.9822 95.0909 22.3114 94.5986 22.2059 94.0828L20.2865 84.5714C20.181 84.0556 19.6889 83.7264 19.1732 83.832L7.77625 86.13C7.26054 86.2356 6.93135 86.7278 7.03684 87.2437L8.95626 96.755C9.06175 97.2709 9.56463 97.603 10.0695 97.4945ZM20.1623 93.5236L10.6289 95.4502L9.09121 87.8058L18.6247 85.8791L20.1623 93.5236Z" fill="#121213"/>
<path d="M8.98973 92.0889L20.3851 89.7899L20.9276 92.4829L9.53227 94.7819L8.98973 92.0889Z" fill="#121213"/>
<path d="M46.0648 79.3753L57.1415 77.1406L59.057 86.6484L47.9803 88.8831L46.0648 79.3753Z" fill="#F8F8F8"/>
<path d="M47.0245 84.1289L58.1012 81.8942L58.4378 83.5649L47.3611 85.7996L47.0245 84.1289Z" fill="#121213"/>
<path d="M47.5039 86.4743L58.5806 84.2396L58.74 85.031L47.6634 87.2657L47.5039 86.4743Z" fill="#121213"/>
<path d="M48.1543 89.798L59.232 87.5654C59.734 87.4678 60.0632 86.9755 59.9685 86.4626L58.0491 76.9512C57.9515 76.4491 57.4486 76.117 56.9467 76.2146L45.869 78.4473C45.367 78.5449 45.0378 79.0372 45.1324 79.5502L47.0519 89.0615C47.1574 89.5774 47.6494 89.9065 48.1543 89.798ZM57.9466 85.9092L48.697 87.7726L47.1572 80.0927L56.4068 78.2293L57.9466 85.9092Z" fill="#121213"/>
<path d="M8.74153 78.2597L14.6975 77.0581L29.7181 151.614L23.7622 152.816L8.74153 78.2597Z" fill="#F8F8F8"/>
<path d="M19.192 99.4398L11.9847 94.3741L19.4356 131.361L26.3071 134.734L19.192 99.4398Z" fill="#121213"/>
<path d="M23.9332 153.729L29.8841 152.526C30.3861 152.428 30.7153 151.936 30.6069 151.431L15.5925 76.8822C15.4949 76.3801 15.0029 76.0509 14.498 76.1594L8.54708 77.3627C8.0451 77.4603 7.71592 77.9526 7.82431 78.4576L22.8387 153.006C22.95 153.5 23.4312 153.827 23.9332 153.729ZM28.6146 150.897L24.4809 151.728L9.82744 78.9943L13.9611 78.1632L28.6146 150.897Z" fill="#121213"/>
<path d="M9.09157 79.9947L15.0475 78.7931L15.4129 80.6067L9.45695 81.8083L9.09157 79.9947Z" fill="#121213"/>
<path d="M21.7799 142.975L27.7359 141.774L28.1655 143.906L22.2096 145.108L21.7799 142.975Z" fill="#121213"/>
<path d="M71.2075 130.663L64.5897 97.8006C64.0551 95.1614 61.4924 93.4647 58.8567 93.9891L25.3152 100.755C22.6767 101.29 20.9801 103.854 21.5039 106.49L23.2374 115.093L46.4877 139.805L71.3824 137.85L71.2075 130.663Z" fill="#F8F8F8"/>
<path d="M66.6291 114.228C66.6291 114.228 66.9894 115.439 58.3046 117.187C49.6307 118.938 43.9882 120.073 43.9882 120.073L46.4017 116.436L66.9746 112.289L66.6291 114.228Z" fill="#121213"/>
<path d="M23.3072 109.029L25.1216 108.667C24.7399 106.8 25.9589 104.979 27.8253 104.597L58.0162 98.512C59.8825 98.1298 61.7028 99.349 62.0846 101.216L63.899 100.855C63.3221 97.9834 60.5148 96.1167 57.6553 96.6972L27.4644 102.782C24.5941 103.36 22.7304 106.157 23.3072 109.029Z" fill="#121213"/>
<path d="M30.4397 126.24L63.9813 119.474C67.1109 118.839 69.1476 115.785 68.5154 112.644L66.701 113.005C67.1272 115.14 65.7461 117.219 63.6125 117.646L30.0709 124.412C27.9373 124.839 25.8587 123.457 25.4325 121.323L23.6181 121.684C24.2474 124.837 27.3101 126.876 30.4397 126.24Z" fill="#121213"/>
<path d="M72.325 138.706L72.1282 130.562L65.4982 97.6145C64.8631 94.484 61.8113 92.4473 58.6708 93.0802L25.1293 99.8463C21.9996 100.482 19.963 103.535 20.5951 106.677L22.3868 115.538L46.126 140.764L72.325 138.706ZM70.2865 130.765L70.4396 136.993L46.86 138.848L24.0957 114.661L22.4095 106.315C21.9833 104.181 23.3644 102.102 25.4981 101.675L59.0317 94.895C61.1653 94.4684 63.2439 95.8496 63.6701 97.9837L70.2865 130.765Z" fill="#121213"/>
<path d="M48.8253 133.071L66.9944 129.406C67.1801 129.363 67.3506 129.247 67.4404 129.085L68.6852 126.864C68.7584 126.721 68.7882 126.567 68.7609 126.409L68.0011 122.618C67.9738 122.46 67.8838 122.319 67.7575 122.228L65.7528 120.657C65.5999 120.535 65.4021 120.494 65.2193 120.526L47.0502 124.19C46.6956 124.258 46.4612 124.613 46.5286 124.967L48.0591 132.552C48.1265 132.907 48.4707 133.138 48.8253 133.071ZM66.4335 128.165L49.2193 131.644L47.955 125.361L65.1692 121.882L66.7418 123.116L67.4091 126.43L66.4335 128.165Z" fill="#121213"/>
<path d="M68.2095 127.039L70.5916 126.551C70.9954 126.473 71.2522 126.078 71.1748 125.674L70.4601 122.104C70.3827 121.7 69.9873 121.443 69.5835 121.521L67.2043 121.998C66.8006 122.076 66.5437 122.471 66.6212 122.875L67.3358 126.445C67.4104 126.859 67.8029 127.127 68.2095 127.039ZM69.5723 125.245L68.6528 125.428L68.2316 123.318L69.1511 123.135L69.5723 125.245Z" fill="#121213"/>
<path d="M70.0452 123.827L67.6523 124.312L68.0671 126.316L70.5965 125.798L70.0452 123.827Z" fill="#121213"/>
<path d="M24.3944 105.832L61.7343 98.2983L61.9424 99.3315L24.6026 106.865L24.3944 105.832Z" fill="#121213"/>
<path d="M24.6793 107.33L62.0135 99.792C62.0135 99.792 58.4908 105.663 45.8905 108.207C33.2903 110.751 24.6793 107.33 24.6793 107.33Z" fill="#121213"/>
<path d="M64.9379 121.267L65.7181 121.11L67.2452 128.694L66.4649 128.852L64.9379 121.267Z" fill="#121213"/>
<path d="M52.6562 127.684L66.1175 124.969L66.5936 127.332L53.1323 130.048L52.6562 127.684Z" fill="#121213"/>
<path d="M52.1373 125.116L65.5986 122.4L65.7758 123.279L52.3145 125.995L52.1373 125.116Z" fill="#121213"/>
<path d="M67.3524 124.522L66.1299 125.1L66.4355 126.645L67.5162 125.773L67.3524 124.522Z" fill="#121213"/>
<path d="M83.5517 62.6792L133.29 52.6374L141.074 57.1959L142.772 65.6264L144.471 74.057L139.054 81.2777L89.3192 91.3087L81.5351 86.7502L79.8367 78.3197L78.1383 69.8891L83.5517 62.6792Z" fill="#121213"/>
<path d="M134.867 57.3206L139.974 59.5712L140.866 64.0361L136.039 64.5536L134.867 57.3206Z" fill="#F8F8F8"/>
<path d="M141.049 64.9557L136.315 65.9046L136.761 68.1371L141.59 66.575L141.049 64.9557Z" fill="#F8F8F8"/>
<path d="M141.673 68.7334L137.61 71.4643L137.872 72.7416L141.814 69.4212L141.673 68.7334Z" fill="#F8F8F8"/>
<path d="M80.4876 77.7653L87.0443 79.1591L86.8787 79.9378L80.3221 78.544L80.4876 77.7653Z" fill="#F8F8F8"/>
<path d="M86.3637 76.6555L80.2749 76.6842L79.4067 72.3883L84.9013 69.3795L86.3637 76.6555Z" fill="#F8F8F8"/>
<path d="M87.1533 80.4523L135.295 70.7397L135.61 72.3006L87.4678 82.0131L87.1533 80.4523Z" fill="#F8F8F8"/>
<path d="M86.0652 75.0918L134.207 65.3793L134.522 66.9401L86.3796 76.6527L86.0652 75.0918Z" fill="#F8F8F8"/>
<path d="M84.2506 66.0734L132.392 56.3608L132.55 57.1412L84.4078 66.8538L84.2506 66.0734Z" fill="#F8F8F8"/>
<path d="M84.9539 69.5424L133.096 59.8298L134.037 64.5013L85.895 74.2139L84.9539 69.5424Z" fill="#F8F8F8"/>
<path d="M131.067 53.0907L132.364 52.8291L138.133 81.4624L136.836 81.724L131.067 53.0907Z" fill="#F8F8F8"/>
<path d="M119.463 55.4453L120.76 55.1837L126.529 83.817L125.232 84.0786L119.463 55.4453Z" fill="#F8F8F8"/>
<path d="M113.308 56.69L114.605 56.4283L120.373 85.0616L119.077 85.3232L113.308 56.69Z" fill="#F8F8F8"/>
<path d="M106.988 57.9298L108.284 57.6682L114.053 86.3015L112.756 86.5631L106.988 57.9298Z" fill="#F8F8F8"/>
<path d="M100.843 59.1869L102.139 58.9253L107.908 87.5585L106.611 87.8201L100.843 59.1869Z" fill="#F8F8F8"/>
<path d="M94.6659 60.4179L95.9626 60.1565L101.728 88.7918L100.431 89.0533L94.6659 60.4179Z" fill="#F8F8F8"/>
<path d="M84.7566 64.5926L79.2258 71.504L80.5734 78.1688L81.9432 84.9673L89.689 89.0628L137.842 79.3507L142.198 73.5293L140.691 66.0322L139.183 58.5351L132.915 54.8588L84.7566 64.5926ZM83.5517 62.6793L133.287 52.6482L141.071 57.2067L142.769 65.6373L144.468 74.0678L139.052 81.2885L89.3163 91.3196L81.5322 86.7611L79.8338 78.3305L78.1354 69.9L83.5517 62.6793Z" fill="#F8F8F8"/>
<path d="M89.1612 92.288L139.595 82.119L145.465 74.2885L141.902 56.6167L133.456 51.6718L83.022 61.8408L77.1521 69.6713L80.7147 87.343L89.1612 92.288ZM138.525 80.4392L89.4771 90.3294L82.3554 86.1574L79.1214 70.1177L84.0705 63.5148L133.118 53.6245L140.24 57.7966L143.474 73.8362L138.525 80.4392Z" fill="#121213"/>
<path d="M132.256 52.8505L134.333 52.4315L140.101 81.0648L138.025 81.4838L132.256 52.8505Z" fill="#121213"/>
<path d="M82.6491 62.8547L84.4623 62.4889L90.2309 91.1221L88.4178 91.4879L82.6491 62.8547Z" fill="#121213"/>
<path d="M120.626 55.2076L122.439 54.8418L128.207 83.475L126.394 83.8408L120.626 55.2076Z" fill="#121213"/>
<path d="M114.438 56.4528L116.251 56.087L122.02 84.7203L120.207 85.0861L114.438 56.4528Z" fill="#121213"/>
<path d="M108.23 57.6938L110.043 57.328L115.811 85.9613L113.998 86.3271L108.23 57.6938Z" fill="#121213"/>
<path d="M102.043 58.9386L103.856 58.5728L109.625 87.206L107.812 87.5718L102.043 58.9386Z" fill="#121213"/>
<path d="M95.8468 60.1875L97.6599 59.8217L103.429 88.4549L101.615 88.8207L95.8468 60.1875Z" fill="#121213"/>
<path d="M141.761 60.6071L143.783 70.6452C143.783 70.6452 164.591 66.4456 171.497 65.0571C178.402 63.6685 187.12 60.2812 186.117 56.878C185.728 53.3491 176.373 53.6168 169.478 55.0082L165.748 55.7618C164.927 57.6548 162.511 59.3524 159.42 59.9752C156.328 60.598 153.443 59.9758 151.958 58.5447C146.362 59.6804 141.761 60.6071 141.761 60.6071Z" fill="#F8F8F8"/>
<path d="M142.88 66.131L184.324 57.7672C184.324 57.7672 180.884 61.1641 174.52 62.8255C168.156 64.487 143.469 69.0867 143.469 69.0867L142.88 66.131Z" fill="#121213"/>
<path d="M142.631 62.8603L143.71 68.234L171.019 62.7236C174.111 62.1007 177.284 61.1284 179.72 60.0513C182.837 58.6809 183.622 57.6604 183.787 57.3912C183.782 57.3666 183.776 57.3421 183.774 57.3067C183.522 57.1229 182.404 56.4868 178.995 56.4324C176.326 56.3904 173.035 56.7162 169.944 57.339L167.281 57.8792C165.828 60.0091 163.114 61.6501 159.886 62.3059C156.658 62.9618 153.523 62.4932 151.357 61.0888L144.571 62.463L142.631 62.8603ZM141.761 60.6071C141.761 60.6071 146.362 59.6805 151.955 58.5555C153.44 59.9867 156.325 60.6089 159.417 59.9861C162.508 59.3633 164.924 57.6657 165.745 55.7727L169.475 55.0191C176.38 53.6305 185.725 53.3599 186.115 56.8889C187.117 60.2921 178.402 63.6686 171.494 65.068C164.599 66.4594 143.78 70.656 143.78 70.656L141.761 60.6071Z" fill="#F8F8F8"/>
<path d="M143.06 71.7402L171.682 65.9661C176.258 65.0445 184.547 62.5639 186.621 59.1142C187.099 58.3253 187.241 57.4926 187.023 56.7029C186.914 55.8959 186.456 55.1811 185.709 54.6327C182.459 52.2527 173.854 53.1857 169.278 54.1074L165.081 54.9565L164.892 55.4048C164.181 57.0603 161.905 58.54 159.231 59.0773C156.557 59.6146 153.886 59.1428 152.586 57.8889L152.236 57.5512L140.667 59.8844L143.06 71.7402ZM169.65 55.9251C175.232 54.7973 182.37 54.4925 184.624 56.1296C185.091 56.4638 185.17 56.7752 185.197 56.9797L185.209 57.0642L185.235 57.1408C185.296 57.3431 185.34 57.6566 185.035 58.1439C183.595 60.5324 176.896 63.0097 171.314 64.1375L144.509 69.5395L142.848 61.3163L151.68 59.5384C153.488 60.9749 156.528 61.4991 159.595 60.8813C162.661 60.2635 165.254 58.6015 166.365 56.5773L169.65 55.9251Z" fill="#121213"/>
<path d="M186.303 57.787L196.532 54.7812L185.931 55.9692L186.303 57.787Z" fill="#121213"/>
<path d="M163.312 58.2669L167.721 57.405C168.578 57.2398 169.423 57.0718 170.299 56.9232C171.163 56.7718 172.036 56.6341 172.9 56.5288C174.636 56.2859 176.397 56.1658 178.159 56.1735C179.034 56.1991 179.928 56.2412 180.799 56.37C181.669 56.4988 182.555 56.7014 183.345 57.0873C182.486 56.9151 181.628 56.8708 180.769 56.8727C179.906 56.8855 179.049 56.9228 178.194 56.9956C176.473 57.1381 174.77 57.3435 173.064 57.606C172.205 57.7358 171.365 57.8822 170.519 58.0503C169.673 58.2183 168.825 58.3973 167.976 58.5762L162.862 59.6438C162.42 59.7344 161.978 59.8249 161.536 59.9154C162.239 59.5001 162.863 58.9475 163.312 58.2669Z" fill="#121213"/>
<path d="M147.268 61.537C148.965 61.1792 150.666 60.8106 152.382 60.4694C153.178 60.3114 153.964 60.1504 154.761 59.9924C155.466 60.4367 156.274 60.7114 157.115 60.8206C155.62 61.1166 154.125 61.4125 152.627 61.7193C150.922 62.0634 149.209 62.3937 147.509 62.7161C145.796 63.0465 144.096 63.3689 142.378 63.6747L142.17 62.6322C143.873 62.2527 145.571 61.8949 147.268 61.537Z" fill="#121213"/>
<path d="M26.7515 130.477C17.0783 126.515 -3.29848 115.68 -15.3471 101.353C-20.2146 95.5677 -21.7697 85.736 -13.4112 81.0915C-5.05273 76.4469 -0.957362 85.7635 3.0315 91.4063C5.31282 94.6297 12.4262 101.388 21.666 106.058C28.5684 109.533 36.6623 111.853 44.8265 110.662C55.3704 109.122 61.0132 102.659 63.9664 97.1811C66.35 92.7466 66.9715 88.9544 66.9715 88.9544L78.0463 86.7326L85.861 125.523C74.5831 149.248 51.9389 162.684 32.4064 166.413C12.8739 170.141 9.11175 165.082 7.40286 159.202C5.7529 153.536 8.30042 147.927 17.9429 145.983C24.7397 144.611 37.1498 142.213 37.1551 137.56C37.3156 136.268 36.4247 134.438 26.7515 130.477ZM64.5188 134.966C70.4206 133.773 74.2486 128.019 73.0567 122.115C71.8649 116.212 66.1132 112.384 60.2114 113.577C54.3096 114.77 50.4816 120.524 51.6734 126.428C52.8653 132.331 58.617 136.159 64.5188 134.966Z" fill="#F8F8F8"/>
<path d="M67.9492 90.6791L71.2016 90.0182C71.2016 90.0182 69.7156 90.5835 70.2998 92.2145C70.8841 93.8454 74.303 93.4729 75.1231 91.928C76.0554 90.1811 74.2037 89.2089 74.2037 89.2089L76.7171 88.8376L81.5561 112.876L66.1797 96.59L67.9492 90.6791ZM70.9438 96.2644C71.3721 96.1819 71.6456 95.7676 71.5631 95.3392C71.4806 94.9107 71.0665 94.6372 70.6382 94.7198C70.2098 94.8024 69.9364 95.2167 70.0189 95.6451C70.1013 96.0736 70.5155 96.347 70.9438 96.2644Z" fill="#121213"/>
<path d="M22.5233 165.878L18.9986 157.55L20.2551 166.547L22.5233 165.878Z" fill="#F8F8F8"/>
<path d="M18.8259 147.496C18.7549 147.675 18.9412 157.244 18.9412 157.244L16.5066 147.966L18.8259 147.496Z" fill="#F8F8F8"/>
<path d="M25.1244 146.34L37.709 163.387L35.4738 164.193L29.1404 156.169L33.9895 164.492C33.9895 164.492 21.9399 167.277 15.4393 165.767C8.93871 164.258 7.81418 159.359 7.95595 156.924C8.09771 154.49 8.24785 151.72 11.3166 150.186C14.3853 148.652 21.0068 146.548 21.0068 146.548L25.1244 146.34Z" fill="#121213"/>
<path d="M73.6929 130.83L78.0031 135.317C78.0031 135.317 71.6026 147.033 58.4804 153.908L55.2592 140.332L45.5039 125.459L48.7266 126.079L44.5934 120.932L47.4144 121.664L49.3778 123.908C49.3778 123.908 49.413 129.711 53.6452 133.666C57.8774 137.621 67.0757 140.887 73.6929 130.83Z" fill="#121213"/>
<path d="M55.552 115.765L51.4047 110.973C51.4047 110.973 59.4524 107.662 64.9302 99.2155L82.7261 118.6L83.1702 120.797L73.7952 112.387L83.7249 123.534L84.2494 126.124L79.5983 134.084L74.7178 128.91C74.7178 128.91 78.1786 120.585 69.8339 115.087L65.7534 113.901C65.7534 113.901 60.2263 112.873 58.416 113.955C56.5733 115.028 55.552 115.765 55.552 115.765Z" fill="#121213"/>
<path d="M48.0455 111.81L49.2342 110.75L54.5795 116.753L53.3909 117.812L48.0455 111.81Z" fill="#121213"/>
<path d="M44.7229 112.654L51.8321 120.944L51.3707 124.918L41.0544 112.832L44.7229 112.654Z" fill="#121213"/>
<path d="M30.0624 111.408C34.3945 116.852 38.1895 123.349 34.9669 126.107C31.7442 128.866 23.4934 122.15 21.3253 117.379C23.5265 123.413 27.0936 126.818 32.7202 128.558C32.7202 128.558 29.2534 128.546 26.2674 126.957L26.2646 127.444C26.2646 127.444 28.0327 128.208 33.0775 129.78C38.1222 131.352 39.4545 135.865 39.5207 136.615C39.5977 137.367 38.0287 143.482 28.7366 145.288L41.6869 162.573C41.6869 162.573 55.4107 157.264 57.4806 155.3C59.5505 153.335 52.7912 140.751 52.7912 140.751L40.4857 122.315L43.9558 123.094L35.4419 112.64L30.0624 111.408Z" fill="#121213"/>
<path d="M54.5214 146.682L39.041 124.157L52.9654 147.682L54.5214 146.682Z" fill="#F8F8F8"/>
<path d="M-4.12768 82.8708L-5.25221 84.7288C-5.25221 84.7288 -1.82851 89.0593 -4.52194 93.0044C-7.21537 96.9496 -13.0965 97.2428 -14.9147 93.8069C-16.722 90.3739 -16.5616 87.4798 -14.0864 85.3452L-15.6896 83.1859C-15.6896 83.1859 -18.9434 86.0173 -19.3301 90.2323C-19.7059 94.4502 -18.0947 98.2254 -13.9812 102.926C-9.86761 107.627 3.64457 117.575 3.64457 117.575L19.0812 126.924L19.5693 126.358C19.5693 126.358 12.6945 121.091 9.33964 115.421C5.98191 109.761 5.70429 101.572 17.9048 104.981L14.0048 102.125C14.0048 102.125 11.9559 103.491 9.25166 102.929C6.5474 102.367 4.54293 99.4965 4.05757 97.3233C3.57222 95.15 4.90537 94.4624 4.90537 94.4624L-1.62847 85.1077L-4.12768 82.8708Z" fill="#121213"/>
<path d="M-10.049 82.3174C-10.7366 82.4582 -11.4757 82.7478 -12.2525 83.1781C-14.7889 84.5882 -16.3187 86.6161 -16.8029 89.2029C-17.4225 92.5545 -16.136 96.7186 -13.5317 99.8195C-8.42703 105.889 -1.02696 112.098 7.86923 117.79C17.4487 123.921 25.4285 127.359 27.6457 128.267C36.8057 132.021 39.8405 134.425 39.5265 137.719C39.3908 142.21 33.383 144.362 31.3942 145.071C27.3753 146.513 22.3222 147.528 19.3153 148.138L18.8379 148.231L18.3959 148.321C14.3222 149.145 11.4729 150.727 10.1638 152.884C9.20721 154.462 9.04447 156.368 9.67137 158.533C10.427 161.127 11.4816 163.081 14.1461 164.225C17.645 165.72 23.6363 165.665 31.954 164.074C32.175 164.029 32.3932 163.995 32.6033 163.946C42.6142 161.927 52.491 157.55 61.1541 151.292C65.8615 147.887 70.1232 143.979 73.818 139.675C77.6154 135.248 80.822 130.384 83.3596 125.201L76.172 89.5274L68.9499 90.9705C68.5196 92.6198 67.6553 95.3253 66.0579 98.2987C63.1495 103.695 57.4672 110.566 46.8669 112.706C46.3158 112.814 45.7431 112.916 45.1761 112.996C37.4591 114.121 29.1902 112.497 20.592 108.162C10.829 103.236 3.44456 96.1026 1.07818 92.7636C0.461895 91.9019 -0.118232 90.9919 -0.743788 90.0348C-3.95294 85.0769 -6.51555 81.6041 -10.049 82.3174ZM-10.5153 79.9867C-4.03789 78.6807 -0.460483 86.4655 3.04258 91.4093C5.3239 94.6326 12.4373 101.391 21.6771 106.061C28.5795 109.536 36.6734 111.856 44.8376 110.665C45.3691 110.587 45.8928 110.495 46.4085 110.389C55.9419 108.463 61.1814 102.379 63.9775 97.1841C66.361 92.7495 66.9826 88.9574 66.9826 88.9574L78.0574 86.7356L85.872 125.526C74.7267 148.973 52.4746 162.375 33.1022 166.286C32.8812 166.331 32.6493 166.373 32.4283 166.419C12.8958 170.147 9.13366 165.088 7.42477 159.208C5.77481 153.542 8.32234 147.932 17.9649 145.989C18.2596 145.928 18.5651 145.871 18.8843 145.805C25.8176 144.401 37.1778 142.024 37.1878 137.568C37.3512 136.265 36.4466 134.444 26.7763 130.472C17.1031 126.51 -3.27367 115.675 -15.3223 101.348C-20.1898 95.5627 -21.7449 85.7311 -13.3864 81.0865C-12.3791 80.5322 -11.4211 80.1619 -10.5153 79.9867Z" fill="#F8F8F8"/>
<path d="M-10.8258 84.6981C-13.9663 85.3309 -15.9921 88.387 -15.3599 91.5283C-14.7278 94.6696 -11.673 96.6955 -8.53252 96.0626C-5.39202 95.4297 -3.36622 92.3737 -3.99837 89.2324C-4.61968 86.094 -7.68528 84.0652 -10.8258 84.6981ZM-11.1867 82.8832C-7.05303 82.0521 -3.01416 84.7364 -2.17316 88.874C-1.34299 93.0087 -4.02716 97.0492 -8.1637 97.8912C-12.2973 98.7223 -16.3362 96.038 -17.1772 91.9004C-18.0045 87.7549 -15.3203 83.7144 -11.1867 82.8832Z" fill="#F8F8F8"/>
<path d="M-5.76337 102.795C-5.32211 105.003 -3.17352 106.426 -0.96622 105.984C1.24108 105.542 2.6642 103.393 2.22294 101.185C1.78168 98.9772 -0.36691 97.554 -2.57421 97.9958C-4.77069 98.4404 -6.20464 100.587 -5.76337 102.795Z" fill="#F8F8F8"/>
<path d="M-2.57471 97.9957C-4.78201 98.4374 -6.20514 100.587 -5.76387 102.795C-5.32261 105.003 -3.17402 106.426 -0.966719 105.984C1.24058 105.542 2.66371 103.393 2.22244 101.185C1.78118 98.9771 -0.367409 97.5539 -2.57471 97.9957ZM-2.9356 96.1808C0.267747 95.53 3.40043 97.6115 4.05055 100.816C4.70066 104.02 2.61917 107.154 -0.584176 107.805C-3.78752 108.456 -6.92021 106.374 -7.57032 103.17C-8.22044 99.9656 -6.13894 96.8317 -2.9356 96.1808Z" fill="#F8F8F8"/>
<path d="M-0.821116 106.696C1.76828 106.171 3.45618 103.64 2.93455 101.039C2.41001 98.4487 -0.12022 96.7607 -2.72045 97.283C-5.30985 97.8081 -6.99775 100.339 -6.47612 102.94C-5.95159 105.53 -3.41052 107.221 -0.821116 106.696ZM-2.4291 98.7077C-0.625555 98.3435 1.14931 99.5156 1.5102 101.33C1.87399 103.134 0.701913 104.91 -1.11246 105.271C-2.91601 105.636 -4.69087 104.463 -5.05176 102.649C-5.41556 100.845 -4.23265 99.0719 -2.4291 98.7077Z" fill="#121213"/>
<path d="M-3.96303 102.441C-3.7198 103.656 -2.53655 104.437 -1.32239 104.194C-0.108232 103.95 0.673152 102.766 0.429917 101.552C0.186682 100.337 -0.996561 99.5561 -2.21072 99.7996C-3.42488 100.043 -4.20627 101.227 -3.96303 102.441Z" fill="#121213"/>
<path d="M-1.7172 101.987C-1.27795 102.383 -0.719156 102.463 -0.453038 102.163C-0.189823 101.874 -0.329914 101.314 -0.758337 100.92C-1.19759 100.524 -1.75638 100.444 -2.0225 100.744C-2.28571 101.033 -2.14562 101.593 -1.7172 101.987Z" fill="#F8F8F8"/>
<path d="M49.7183 148.495C50.278 151.257 52.847 153.06 55.4718 152.533C58.0966 152.005 59.7731 149.343 59.2243 146.584C58.6646 143.822 56.0955 142.019 53.4707 142.547C50.8351 143.071 49.1586 145.733 49.7183 148.495Z" fill="#F8F8F8"/>
<path d="M53.4595 142.543C50.8347 143.071 49.1582 145.733 49.7071 148.492C50.2668 151.254 52.8358 153.057 55.4606 152.53C58.0854 152.002 59.7619 149.34 59.2131 146.581C58.6642 143.822 56.0843 142.016 53.4595 142.543ZM53.0986 140.729C56.7194 139.992 60.2834 142.456 61.0412 146.212C61.7989 149.967 59.464 153.614 55.8432 154.35C52.2223 155.087 48.6583 152.622 47.9006 148.867C47.1458 145.101 49.4698 141.451 53.0986 140.729Z" fill="#F8F8F8"/>
<path d="M55.6247 153.305C58.6778 152.695 60.6336 149.597 59.9994 146.42C59.3543 143.241 56.3523 141.148 53.3071 141.771C50.254 142.381 48.2982 145.479 48.9433 148.659C49.5776 151.835 52.5825 153.918 55.6247 153.305ZM53.6236 143.319C55.8201 142.874 57.9858 144.406 58.4522 146.737C58.9215 149.057 57.5156 151.316 55.322 151.749C53.1255 152.194 50.9597 150.662 50.4934 148.331C50.0241 146.011 51.4271 143.764 53.6236 143.319Z" fill="#121213"/>
<path d="M51.8516 148.068C52.1522 149.588 53.5792 150.586 55.0281 150.289C56.4741 150.003 57.4017 148.534 57.0903 147.011C56.7897 145.491 55.3627 144.493 53.9137 144.79C52.4677 145.076 51.5401 146.545 51.8516 148.068Z" fill="#121213"/>
<path d="M54.7252 147.48C55.3654 147.733 56.0546 147.499 56.2567 146.962C56.4618 146.413 56.1109 145.773 55.4628 145.507C54.8227 145.254 54.1335 145.487 53.9313 146.025C53.7371 146.577 54.085 147.227 54.7252 147.48Z" fill="#F8F8F8"/>
<path d="M55.6512 148.657C55.7036 148.938 55.9669 149.124 56.237 149.069C56.5071 149.014 56.6721 148.744 56.6198 148.463C56.5674 148.182 56.3041 147.996 56.034 148.051C55.7638 148.106 55.5988 148.376 55.6512 148.657Z" fill="#F8F8F8"/>
<path d="M68.7579 103.596C69.2042 105.829 71.295 107.294 73.4178 106.865C75.5406 106.435 76.9067 104.282 76.4496 102.047C76.0033 99.8143 73.9125 98.3485 71.7897 98.7781C69.6669 99.2077 68.3117 101.364 68.7579 103.596Z" fill="#F8F8F8"/>
<path d="M71.7901 98.7781C69.6673 99.2077 68.3012 101.361 68.7583 103.596C69.2046 105.829 71.2954 107.294 73.4182 106.865C75.541 106.435 76.9071 104.282 76.4499 102.047C76.0037 99.8143 73.9237 98.3514 71.7901 98.7781ZM71.4292 96.9633C74.556 96.3383 77.6229 98.4487 78.278 101.677C78.9332 104.906 76.9196 108.047 73.7899 108.682C70.6631 109.307 67.5962 107.197 66.941 103.968C66.2888 100.729 68.3024 97.5882 71.4292 96.9633Z" fill="#F8F8F8"/>
<path d="M73.5813 107.64C76.1324 107.128 77.7778 104.539 77.2353 101.886C76.6957 99.2219 74.1908 97.4827 71.6397 97.9948C69.0886 98.507 67.4432 101.096 67.9857 103.749C68.5145 106.41 71.0273 108.163 73.5813 107.64ZM71.9532 99.5532C73.6477 99.2062 75.3243 100.398 75.6881 102.202C76.0519 104.006 74.9702 105.748 73.2786 106.084C71.5841 106.431 69.9075 105.239 69.5437 103.435C69.1661 101.639 70.2587 99.9002 71.9532 99.5532Z" fill="#121213"/>
<path d="M70.4879 103.247C70.739 104.475 71.8811 105.281 73.0569 105.05C74.222 104.816 74.9709 103.624 74.7306 102.399C74.4794 101.171 73.3374 100.365 72.1615 100.596C70.9856 100.826 70.2367 102.019 70.4879 103.247Z" fill="#121213"/>
<path d="M72.8179 102.78C73.3419 102.99 73.8916 102.801 74.0568 102.357C74.222 101.914 73.9346 101.384 73.4215 101.177C72.8975 100.967 72.3477 101.156 72.1825 101.6C72.0065 102.04 72.2939 102.57 72.8179 102.78Z" fill="#F8F8F8"/>
<path d="M73.2557 103.791C73.3109 104.061 73.5634 104.245 73.8335 104.19C74.1037 104.135 74.2658 103.876 74.2026 103.592C74.1473 103.322 73.8948 103.138 73.6247 103.194C73.3762 103.255 73.2004 103.521 73.2557 103.791Z" fill="#F8F8F8"/>
<path d="M71.6759 103.925C71.7182 104.157 71.9361 104.297 72.1542 104.262C72.3753 104.217 72.5041 103.996 72.4589 103.775C72.4137 103.554 72.1987 103.404 71.9805 103.438C71.7624 103.472 71.6336 103.693 71.6759 103.925Z" fill="#F8F8F8"/>
<path d="M38.0875 137.589C38.0947 136.523 37.7667 135.495 37.3057 134.616C36.8338 133.735 36.2073 132.999 35.5387 132.332C34.1879 131.006 32.6331 130.009 31.0376 129.164C30.6444 128.942 30.2287 128.761 29.8188 128.559L28.5933 128.021C27.7915 127.679 26.9984 127.304 26.2111 126.907C25.4375 126.502 24.6502 126.106 23.8912 125.647C23.1263 125.21 22.4309 124.687 21.6082 124.292C21.7603 124.461 21.9154 124.618 22.0871 124.757C22.2559 124.907 22.4246 125.057 22.5963 125.196C22.9397 125.473 23.2968 125.743 23.6568 126.002C24.3739 126.531 25.1242 127.022 25.8804 127.492C26.6365 127.961 27.4122 128.401 28.2074 128.812L29.3743 129.438C29.7567 129.657 30.1312 129.861 30.497 130.099C31.9689 131.015 33.3648 132.086 34.4666 133.345C35.0189 133.969 35.4968 134.654 35.8165 135.367C36.1362 136.079 36.2977 136.819 36.2448 137.536L38.0875 137.589Z" fill="#121213"/>
<path d="M32.9164 145.583L34.3408 147.544C34.3408 147.544 40.1916 146.151 40.9888 139.365C39.5522 143.6 37.6768 144.839 34.8255 145.735C34.8255 145.735 37.1977 144.548 38.5857 142.703C36.8471 144.21 32.9164 145.583 32.9164 145.583Z" fill="#F8F8F8"/>
<path d="M33.2528 167.197C51.471 163.522 74.8725 150.812 86.7056 125.923L86.8381 125.645L78.7773 85.6514L66.1691 88.182L66.0687 88.8169C66.0599 88.8494 65.4487 92.5166 63.1665 96.7461C60.4181 101.849 54.9913 108.243 44.7117 109.749C37.6815 110.779 30.0826 109.254 22.0963 105.233C12.8645 100.577 5.96896 93.9579 3.79938 90.8806C3.22853 90.0659 2.65052 89.1912 2.05455 88.2537C0.223313 85.4296 -1.67423 82.5065 -4.15301 80.6698C-7.10721 78.4851 -10.368 78.3544 -13.8568 80.287C-17.2524 82.175 -19.392 85.0496 -20.053 88.599C-20.8579 92.9457 -19.3293 98.0686 -16.053 101.953C-3.91644 116.385 16.3462 127.212 26.4056 131.336C33.0974 134.081 36.4099 136.141 36.2435 137.455L36.2362 137.569C36.2349 139.089 34.0905 140.639 30.0449 142.051C26.2674 143.372 21.6072 144.306 18.2074 144.997L17.7653 145.088C12.6848 146.118 9.17782 148.162 7.35932 151.18C5.92145 153.558 5.63112 156.417 6.51755 159.476C8.6456 166.779 13.8864 170.912 32.5868 167.343C32.7999 167.284 33.0317 167.242 33.2528 167.197ZM84.8953 125.403C73.174 149.788 50.0235 162.125 32.2425 165.51C12.9802 169.183 9.84892 164.281 8.29385 158.953C7.55912 156.411 7.77301 154.054 8.9366 152.137C10.4584 149.619 13.638 147.801 18.1262 146.902L18.5683 146.812C18.6066 146.799 18.642 146.797 18.6802 146.784C28.4701 144.81 37.9998 142.464 38.0789 137.621C38.2989 135.544 36.4985 133.471 27.0981 129.617C17.1954 125.559 -2.73321 114.914 -14.6405 100.753C-17.562 97.2767 -18.9376 92.7521 -18.2287 88.9369C-17.6716 85.9052 -15.8995 83.5358 -12.957 81.9096C-6.57485 78.3607 -2.9787 83.9099 0.495681 89.264C1.11041 90.2181 1.69634 91.1065 2.28305 91.9486C4.56436 95.1719 11.7296 102.084 21.258 106.889C29.5813 111.081 37.5599 112.662 44.9744 111.584C45.5305 111.501 46.065 111.412 46.5915 111.309C56.5916 109.287 61.9975 102.841 64.7966 97.6356C66.6857 94.1366 67.4883 91.0547 67.7658 89.7592L77.3209 87.8384L84.8953 125.403ZM64.705 135.875C71.0979 134.581 75.2551 128.335 73.9657 121.929C72.6734 115.535 66.4297 111.377 60.0259 112.668C53.6329 113.962 49.4757 120.208 50.7651 126.614C52.0574 133.008 58.312 137.168 64.705 135.875ZM60.3976 114.486C65.7945 113.401 71.065 116.903 72.1484 122.301C73.2319 127.7 69.7302 132.972 64.3332 134.057C58.9363 135.142 53.6659 131.64 52.5824 126.241C51.4961 120.854 55.0086 115.584 60.3976 114.486Z" fill="#121213"/>
<path d="M71.3898 141.764C71.7945 142.116 73.0389 141.37 74.1865 140.075C75.3312 138.792 75.9438 137.458 75.5392 137.106C75.1345 136.754 73.8901 137.5 72.7425 138.795C71.6007 140.067 70.9881 141.401 71.3898 141.764Z" fill="#F8F8F8"/>
<path d="M8.90286 154.473C9.45396 154.365 10.1112 155.377 10.3875 156.728C10.6609 158.09 10.437 159.272 9.89379 159.394C9.34269 159.502 8.68542 158.49 8.40914 157.139C8.13867 155.766 8.35176 154.581 8.90286 154.473Z" fill="#F8F8F8"/>
<path d="M9.48496 143.421L16.5288 142L22.6252 172.26L15.5814 173.681L9.48496 143.421Z" fill="#F8F8F8"/>
<path d="M12.5444 158.816L13.7274 157.153L20.3309 161.853L19.1479 163.516L12.5444 158.816Z" fill="#121213"/>
<path d="M13.9583 162.155L19.9527 166.419L20.8834 171.045L16.2203 171.99L13.9583 162.155Z" fill="#121213"/>
<path d="M11.1929 148.435L17.1874 152.699L15.3584 143.63L10.8918 144.534L11.1929 148.435Z" fill="#121213"/>
<path d="M11.9572 145.064L17.2182 171.166L20.1131 170.583L14.8521 144.481L11.9572 145.064ZM9.46449 143.409L16.5068 141.987L22.603 172.249L15.5607 173.671L9.46449 143.409Z" fill="#F8F8F8"/>
<path d="M15.7465 174.58L22.7888 173.158C23.2908 173.06 23.62 172.568 23.5116 172.063L17.4154 141.801C17.3179 141.299 16.8258 140.97 16.3209 141.079L9.27862 142.5C8.77664 142.598 8.44745 143.09 8.55584 143.595L14.652 173.857C14.7496 174.359 15.2445 174.677 15.7465 174.58ZM21.5193 171.529L16.2914 172.589L10.5669 144.146L15.7948 143.085L21.5193 171.529Z" fill="#121213"/>
<path d="M61.1635 47.1376L69.4936 45.4573C69.1248 43.6288 66.957 42.5371 64.6623 43.0019C62.3676 43.4667 60.7918 45.3198 61.1635 47.1376Z" fill="#F8F8F8"/>
<path d="M57.135 49.7847L59.4482 52.4128L73.0524 49.6731L74.1637 46.3488L72.0938 44.9351L58.4895 47.6749L57.135 49.7847Z" fill="#F8F8F8"/>
<path d="M59.6341 53.3218L73.2383 50.5821C73.5576 50.5167 73.8279 50.2873 73.9367 49.9681L75.0479 46.6439C75.177 46.2489 75.0374 45.8168 74.6933 45.5853L72.6234 44.1716C72.4163 44.0348 72.1644 43.9789 71.9188 44.0292L58.3145 46.769C58.069 46.8192 57.8572 46.9599 57.7176 47.1779L56.3523 49.2848C56.1316 49.632 56.1591 50.0921 56.4368 50.3987L58.7499 53.0268C58.9712 53.2835 59.3011 53.3951 59.6341 53.3218ZM72.3401 48.867L59.7889 51.4014L58.2949 49.7008L59.0655 48.5142L71.9113 45.9195L73.0779 46.7197L72.3401 48.867Z" fill="#121213"/>
<path d="M64.5492 51.397L68.3513 50.6299L68.9515 53.6086L65.1493 54.3757L64.5492 51.397Z" fill="#121213"/>
<path d="M61.3494 48.0465L69.6795 46.3663C70.1815 46.2686 70.5107 45.7764 70.4023 45.2713C69.933 42.9515 67.2761 41.5198 64.4794 42.0822C61.6827 42.6447 59.7885 44.993 60.2578 47.3129C60.3524 47.8258 60.8474 48.1442 61.3494 48.0465ZM68.1644 44.7878L62.129 46.0032C62.4472 45.0321 63.4867 44.1845 64.8482 43.9108C66.2097 43.6372 67.5032 44.007 68.1644 44.7878Z" fill="#121213"/>
<path d="M60.295 47.3236L62.4268 46.8936L63.3812 51.631L61.2494 52.061L60.295 47.3236Z" fill="#121213"/>
<path d="M63.1762 46.7297L66.6817 46.0225L67.6361 50.7599L64.1307 51.4671L63.1762 46.7297Z" fill="#121213"/>
<path d="M70.3405 45.2494L71.1344 45.1927L71.4805 50.0582L70.6866 50.1148L70.3405 45.2494Z" fill="#121213"/>
</g>
</svg>
