<svg width="72" height="72" viewBox="0 0 72 72" fill="none" xmlns="http://www.w3.org/2000/svg">
<rect width="72" height="72" fill="#F8133C"/>
<path d="M20.1407 30.402H51.8608C52.9207 30.402 53.8835 30.7566 54.6598 31.3425V30.402C54.6598 27.3101 52.1538 24.804 49.0618 24.804H34.1338L33.1187 21.7587C32.6112 20.2342 31.1837 19.2061 29.5771 19.2061H21.0718C19.0099 19.2061 17.3398 20.8761 17.3398 22.938V31.3425C18.1161 30.7566 19.079 30.402 20.1407 30.402Z" fill="white"/>
<path opacity="0.35" d="M51.859 30.402H20.1408C17.2578 30.402 15.0653 32.9902 15.5393 35.834L17.5863 48.116C18.036 50.816 20.3703 52.794 23.1077 52.794H48.8921C51.6295 52.794 53.9639 50.816 54.4136 48.116L56.4606 35.834C56.9345 32.9902 54.742 30.402 51.859 30.402Z" fill="white"/>
</svg>
