<svg width="63" height="81" viewBox="0 0 63 81" fill="none" xmlns="http://www.w3.org/2000/svg">
<path d="M11.3903 74.1865L9.90274 73.9936L9.43932 77.5656L12.3012 75.3783L11.3903 74.1865ZM11.3903 74.1865C12.3012 75.3783 12.3013 75.3782 12.3015 75.378L12.302 75.3777L12.3036 75.3764L12.3092 75.3721L12.3299 75.3563L12.4078 75.2962C12.4755 75.2438 12.5743 75.1672 12.7002 75.0685C12.9521 74.8713 13.3132 74.5858 13.7536 74.2304C14.6336 73.5203 15.8342 72.5276 17.1144 71.3984C19.6132 69.1946 22.6253 66.2927 23.9907 63.9279C27.1931 58.3813 30.651 51.4257 33.0569 45.6923C34.2568 42.8329 35.2158 40.2284 35.7445 38.2342C36.0058 37.2488 36.1848 36.3302 36.208 35.5706C36.2196 35.1933 36.1964 34.7694 36.0745 34.3644C35.951 33.9539 35.6818 33.4292 35.1119 33.1002C34.542 32.7712 33.9529 32.8004 33.5357 32.8987C33.124 32.9956 32.7453 33.1875 32.4244 33.3861C31.7781 33.786 31.0721 34.4003 30.3493 35.1193C28.8866 36.5743 27.1105 38.7071 25.2341 41.1759C21.4717 46.1261 17.1769 52.5985 13.9745 58.1451C12.6092 60.5099 11.602 64.5695 10.9428 67.8353C10.6051 69.5086 10.3456 71.0447 10.1706 72.1618C10.083 72.7209 10.0164 73.1763 9.97148 73.4931C9.94904 73.6515 9.93202 73.7753 9.92053 73.8602L9.90746 73.9577L9.90405 73.9835L9.90313 73.9906L9.90287 73.9926L9.90279 73.9932C9.90276 73.9934 9.90274 73.9936 11.3903 74.1865Z" fill="#121213" stroke="white" stroke-width="3"/>
<rect x="-0.549034" y="-2.04902" width="24.8035" height="43.4918" transform="matrix(0.866029 0.499994 -0.500006 0.866022 34.2828 11.6089)" fill="#121213" stroke="white" stroke-width="3"/>
<rect x="-0.549034" y="-2.04902" width="15.4591" height="7.67213" transform="matrix(0.866029 0.499994 -0.500006 0.866022 43.7801 4.50438)" fill="#121213" stroke="white" stroke-width="3"/>
<path d="M34.7671 56.2786L36.6405 57.3602L34.9708 58.7354L27.9111 64.5502L27.1082 65.2115L26.2074 64.6915L12.8786 56.9962L11.9778 56.4762L12.1491 55.4502L13.6551 46.4291L14.0113 44.2954L15.8847 45.377L34.7671 56.2786Z" fill="#121213" stroke="white" stroke-width="3"/>
<path d="M55.0705 21.1125L57.5376 22.5368L57.316 19.6968L56.8753 14.0475L56.8139 13.26L56.1298 12.8651L42.8011 5.16985L42.117 4.77494L41.4044 5.11545L36.2914 7.55845L33.7211 8.78659L36.1881 10.2109L55.0705 21.1125Z" fill="#121213" stroke="white" stroke-width="3"/>
<rect x="-0.549034" y="-2.04902" width="29.4756" height="9.22951" transform="matrix(0.866029 0.499994 -0.500006 0.866022 34.596 6.39501)" fill="#121213" stroke="white" stroke-width="3"/>
<rect x="-0.549034" y="-2.04902" width="29.4756" height="9.22951" transform="matrix(0.866029 0.499994 -0.500006 0.866022 13.5709 42.8105)" fill="#121213" stroke="white" stroke-width="3"/>
<line x1="9.51562" y1="77.2227" x2="59.4806" y2="77.2227" stroke="white" stroke-width="3"/>
</svg>
