<svg width="74" height="74" viewBox="0 0 74 74" fill="none" xmlns="http://www.w3.org/2000/svg">
<path d="M57.2812 24.0793L58.5261 24.1924L58.5312 24.136L58.5312 24.0793L57.2812 24.0793ZM40.2966 60.4748L41.4292 61.0036L40.2966 60.4748ZM23.921 21.0465L22.8163 20.4616L22.8163 20.4616L23.921 21.0465ZM19.6749 36.2113L19.1825 35.0623L18.4249 35.387L18.4249 36.2113L19.6749 36.2113ZM29.3803 47.1299L28.1347 47.0261L28.1347 47.0261L29.3803 47.1299ZM56.6053 36.5967L56.6053 35.3467L56.578 35.3467L56.5507 35.3479L56.6053 36.5967ZM14.2478 24.1528C14.6855 16.7228 17.5472 11.4411 21.501 8.05351C25.4723 4.6509 30.634 3.08393 35.7802 3.26388C46.0788 3.62398 56.0312 10.9231 56.0312 24.0793L58.5312 24.0793C58.5312 9.33241 47.2541 1.16355 35.8676 0.765402C30.1713 0.566222 24.3766 2.29756 19.8744 6.15504C15.3546 10.0276 12.2256 15.9677 11.7522 24.0058L14.2478 24.1528ZM25.1342 70.75C21.2447 70.75 18.6586 69.3403 16.9679 66.889C15.2194 64.3538 14.3236 60.5515 14.2499 55.6034L11.7501 55.6406C11.8269 60.793 12.752 65.1797 14.9099 68.3084C17.1257 71.521 20.5314 73.25 25.1342 73.25L25.1342 70.75ZM56.0363 23.9661C54.8391 37.1352 51.7147 43.728 48.4663 48.1317C46.8117 50.3748 45.1235 52.0593 43.4787 53.8596C41.8533 55.6389 40.3082 57.4956 39.164 59.9459L41.4292 61.0036C42.4093 58.9046 43.7461 57.2735 45.3245 55.5458C46.8835 53.8393 48.7209 51.998 50.4782 49.6158C54.0533 44.769 57.2969 37.7133 58.5261 24.1924L56.0363 23.9661ZM39.164 59.9459C36.7831 65.0448 33.9211 67.7144 31.386 69.1259C28.8402 70.5433 26.5193 70.75 25.1342 70.75L25.1342 73.25C26.7821 73.25 29.5641 73.0016 32.6021 71.3102C35.6508 69.6128 38.8536 66.5197 41.4292 61.0036L39.164 59.9459ZM47.4999 20.5226C45.4597 16.1023 40.7666 13.3044 35.9099 12.9752C30.9862 12.6414 25.7961 14.8331 22.8163 20.4616L25.0258 21.6313C27.5053 16.9477 31.7173 15.1967 35.7408 15.4694C39.8314 15.7468 43.6306 18.1049 45.23 21.5703L47.4999 20.5226ZM22.8163 20.4616C22.0242 21.9578 21.6512 23.613 21.4459 25.2086C21.2428 26.7869 21.1922 28.4326 21.1037 29.8301C21.0113 31.2871 20.8779 32.4804 20.559 33.4007C20.2563 34.2739 19.829 34.7853 19.1825 35.0623L20.1673 37.3602C21.6439 36.7274 22.4625 35.5424 22.9211 34.2195C23.3634 32.9435 23.5066 31.4407 23.5986 29.9883C23.6945 28.4763 23.7361 26.9991 23.9255 25.5277C24.1126 24.0736 24.4324 22.7521 25.0258 21.6313L22.8163 20.4616ZM18.4249 36.2113C18.4249 38.502 19.1959 40.0779 20.4609 41.1675C21.6358 42.1796 23.1503 42.6808 24.3598 43.0839C25.6853 43.5257 26.6523 43.8555 27.3105 44.4146C27.8399 44.8643 28.258 45.546 28.1347 47.0261L30.626 47.2337C30.806 45.0742 30.1626 43.5571 28.929 42.5092C27.8244 41.5709 26.3271 41.1044 25.1504 40.7122C23.8576 40.2813 22.8321 39.9105 22.0925 39.2734C21.4429 38.7138 20.9249 37.8633 20.9249 36.2113L18.4249 36.2113ZM28.1347 47.0261C28.0629 47.8878 27.7956 48.5191 27.4127 49.0075C27.0221 49.5058 26.4595 49.9203 25.7076 50.2572C24.166 50.948 22.0355 51.2257 19.6156 51.3406L19.7342 53.8378C22.1852 53.7214 24.7268 53.4363 26.7299 52.5386C27.7503 52.0814 28.6783 51.4452 29.3802 50.5498C30.0899 49.6445 30.5173 48.5388 30.626 47.2337L28.1347 47.0261ZM42.926 46.1321C43.448 48.174 44.85 49.8863 46.4212 51.0992C47.9876 52.3083 49.8733 53.1386 51.5492 53.2814C52.3904 53.3531 53.2757 53.2587 54.042 52.846C54.8505 52.4106 55.4192 51.6759 55.6464 50.7087C55.8625 49.7879 55.7566 48.7238 55.4018 47.5573C55.0438 46.3806 54.4071 45.0159 53.4586 43.4462L51.3189 44.7391C52.1996 46.1966 52.731 47.3678 53.01 48.2849C53.2921 49.2121 53.2918 49.7995 53.2126 50.1372C53.1442 50.4284 53.0162 50.559 52.8567 50.6449C52.655 50.7535 52.301 50.8364 51.7615 50.7904C50.6761 50.6979 49.2351 50.1131 47.9489 49.1202C46.6675 48.1311 45.691 46.8544 45.3481 45.5129L42.926 46.1321ZM48.2865 33.2538C49.5588 35.1623 52.6293 38.0216 56.6598 37.8455L56.5507 35.3479C53.7618 35.4698 51.4007 33.4182 50.3666 31.867L48.2865 33.2538ZM56.6053 37.8467C58.1015 37.8467 59.3798 37.4727 60.3185 36.7485C61.2744 36.011 61.808 34.9573 61.8287 33.8081C61.8696 31.5267 59.9756 29.4433 56.9862 28.4868L56.2244 30.8679C58.6416 31.6413 59.3424 33.0175 59.3291 33.7633C59.3225 34.1278 59.1668 34.4795 58.7914 34.7691C58.3987 35.072 57.7038 35.3467 56.6053 35.3467L56.6053 37.8467Z" fill="white"/>
<circle cx="25.741" cy="62.2949" r="3.03296" fill="white"/>
</svg>
