<svg width="72" height="72" viewBox="0 0 72 72" fill="none" xmlns="http://www.w3.org/2000/svg">
<rect width="72" height="72" fill="#F8133C"/>
<path opacity="0.35" d="M49.1431 55.7148H22.8567C19.227 55.7148 16.2852 52.7729 16.2852 49.1432V25.0474H55.7147V49.1432C55.7147 52.7729 52.7728 55.7148 49.1431 55.7148Z" fill="white"/>
<path d="M55.7147 25.0473H16.2852V22.8568C16.2852 19.2271 19.227 16.2852 22.8567 16.2852H49.1431C52.7728 16.2852 55.7147 19.2271 55.7147 22.8568V25.0473Z" fill="white"/>
<path d="M33.8116 51.3337C33.6342 51.3337 33.4567 51.314 33.2771 51.268C32.103 50.9745 31.3911 49.785 31.6824 48.6109L36.0635 31.0866C36.357 29.9125 37.5508 29.2028 38.7206 29.4919C39.8947 29.7855 40.6066 30.9749 40.3153 32.149L35.9342 49.6733C35.6845 50.67 34.793 51.3337 33.8116 51.3337Z" fill="white"/>
<path d="M44.7624 46.9526C44.2016 46.9526 43.6408 46.738 43.2137 46.3108C42.3572 45.4543 42.3572 44.0699 43.2137 43.2134L46.046 40.381L43.2137 37.5487C42.3572 36.6922 42.3572 35.3078 43.2137 34.4513C44.0702 33.5948 45.4546 33.5948 46.3111 34.4513L50.6921 38.8323C51.5486 39.6888 51.5486 41.0732 50.6921 41.9297L46.3111 46.3108C45.8839 46.738 45.3231 46.9526 44.7624 46.9526Z" fill="white"/>
<path d="M27.2377 46.9526C26.6769 46.9526 26.1161 46.738 25.689 46.3108L21.3079 41.9297C20.4514 41.0732 20.4514 39.6888 21.3079 38.8323L25.689 34.4513C26.5455 33.5948 27.9299 33.5948 28.7864 34.4513C29.6429 35.3078 29.6429 36.6922 28.7864 37.5487L25.954 40.381L28.7864 43.2134C29.6429 44.0699 29.6429 45.4543 28.7864 46.3108C28.3592 46.738 27.7984 46.9526 27.2377 46.9526Z" fill="white"/>
</svg>
