<svg width="72" height="72" viewBox="0 0 72 72" fill="none" xmlns="http://www.w3.org/2000/svg">
<rect width="72" height="72" fill="#F8133C"/>
<path d="M30.6999 35.6108L43.9346 29.5026C42.3881 28.0508 41.4034 26.0309 41.2982 23.769L28.0635 29.8771C29.6121 31.3248 30.5947 33.3468 30.6999 35.6108Z" fill="white"/>
<path d="M43.937 42.4995L30.7023 36.3914C30.5971 38.6533 29.6124 40.6753 28.0659 42.1271L41.3006 48.2353C41.4058 45.9713 42.3884 43.9492 43.937 42.4995Z" fill="white"/>
<path opacity="0.35" d="M22.3236 27.5836C17.6756 27.5836 13.9072 31.352 13.9072 36C13.9072 40.6479 17.6756 44.4163 22.3236 44.4163C26.9715 44.4163 30.7399 40.6479 30.7399 36C30.7399 31.352 26.9715 27.5836 22.3236 27.5836Z" fill="white"/>
<path opacity="0.35" d="M49.6771 14.9591C45.0292 14.9591 41.2607 18.7275 41.2607 23.3755C41.2607 28.0234 45.0292 31.7918 49.6771 31.7918C54.325 31.7918 58.0934 28.0234 58.0934 23.3755C58.0934 18.7275 54.325 14.9591 49.6771 14.9591Z" fill="white"/>
<path opacity="0.35" d="M49.6771 40.2082C45.0292 40.2082 41.2607 43.9766 41.2607 48.6245C41.2607 53.2725 45.0292 57.0409 49.6771 57.0409C54.325 57.0409 58.0934 53.2725 58.0934 48.6245C58.0934 43.9766 54.325 40.2082 49.6771 40.2082Z" fill="white"/>
</svg>
