<svg width="72" height="72" viewBox="0 0 72 72" fill="none" xmlns="http://www.w3.org/2000/svg">
<rect width="72" height="72" fill="#F8133C"/>
<path opacity="0.35" d="M52.9643 19.0344C50.1732 16.2433 45.6477 16.2433 42.8566 19.0344L19.4984 42.3481C18.8589 42.9877 18.4332 43.8072 18.2786 44.6988L16.9763 52.2526C16.6946 53.8874 18.1156 55.3063 19.7504 55.0225L27.2153 53.7244C28.1005 53.5698 28.9179 53.1463 29.5532 52.5109L52.9643 29.1401C55.7576 26.349 55.7576 21.8256 52.9643 19.0344Z" fill="white"/>
<path d="M38.2759 23.5981L48.3836 33.7058L52.5851 29.5191L42.4774 19.4114L38.2759 23.5981Z" fill="white"/>
<path d="M17.7704 47.6466L16.9763 52.2526C16.6946 53.8874 18.1156 55.3063 19.7504 55.0225L24.348 54.222L17.7704 47.6466Z" fill="white"/>
</svg>
