<svg width="84" height="82" viewBox="0 0 84 82" fill="none" xmlns="http://www.w3.org/2000/svg">
<mask id="path-1-inside-1_6_25196" fill="white">
<path d="M54.501 58.4316C54.501 51.4276 60.1788 45.7498 67.1828 45.7498H70.5692C77.5731 45.7498 83.251 51.4276 83.251 58.4316V79.1816C83.251 80.738 81.9892 81.9997 80.4328 81.9997H57.3192C55.7627 81.9997 54.501 80.738 54.501 79.1816V58.4316Z"/>
</mask>
<path d="M54.501 58.4316C54.501 51.4276 60.1788 45.7498 67.1828 45.7498H70.5692C77.5731 45.7498 83.251 51.4276 83.251 58.4316V79.1816C83.251 80.738 81.9892 81.9997 80.4328 81.9997H57.3192C55.7627 81.9997 54.501 80.738 54.501 79.1816V58.4316Z" fill="#121213"/>
<path d="M67.1828 48.5679H70.5692V42.9316H67.1828V48.5679ZM80.4328 58.4316V79.1816H86.0691V58.4316H80.4328ZM80.4328 79.1816H57.3192V84.8179H80.4328V79.1816ZM57.3192 79.1816V58.4316H51.6828V79.1816H57.3192ZM57.3192 79.1816H57.3192H51.6828C51.6828 82.2944 54.2063 84.8179 57.3192 84.8179V79.1816ZM80.4328 79.1816V79.1816V84.8179C83.5457 84.8179 86.0691 82.2944 86.0691 79.1816H80.4328ZM70.5692 48.5679C76.0167 48.5679 80.4328 52.984 80.4328 58.4316H86.0691C86.0691 49.8712 79.1296 42.9316 70.5692 42.9316V48.5679ZM67.1828 42.9316C58.6224 42.9316 51.6828 49.8712 51.6828 58.4316H57.3192C57.3192 52.984 61.7353 48.5679 67.1828 48.5679V42.9316Z" fill="white" mask="url(#path-1-inside-1_6_25196)"/>
<path d="M60.9101 40.9086H76.8419V46.8404H60.9101V40.9086Z" fill="#121213" stroke="white" stroke-width="2.81818"/>
<mask id="path-4-inside-2_6_25196" fill="white">
<path d="M59.501 28.727C59.501 26.3924 61.3936 24.4998 63.7282 24.4998H74.0237C76.3584 24.4998 78.251 26.3924 78.251 28.727V40.7498H59.501V28.727Z"/>
</mask>
<path d="M59.501 28.727C59.501 26.3924 61.3936 24.4998 63.7282 24.4998H74.0237C76.3584 24.4998 78.251 26.3924 78.251 28.727V40.7498H59.501V28.727Z" fill="#121213"/>
<path d="M78.251 40.7498V43.5679H81.0692V40.7498H78.251ZM59.501 40.7498H56.6828V43.5679H59.501V40.7498ZM63.7282 27.3179H74.0237V21.6816H63.7282V27.3179ZM75.4328 28.727V40.7498H81.0692V28.727H75.4328ZM78.251 37.9316H59.501V43.5679H78.251V37.9316ZM62.3192 40.7498V28.727H56.6828V40.7498H62.3192ZM74.0237 27.3179C74.8019 27.3179 75.4328 27.9488 75.4328 28.727H81.0692C81.0692 24.8359 77.9148 21.6816 74.0237 21.6816V27.3179ZM63.7282 21.6816C59.8372 21.6816 56.6828 24.8359 56.6828 28.727H62.3192C62.3192 27.9488 62.95 27.3179 63.7282 27.3179V21.6816Z" fill="white" mask="url(#path-4-inside-2_6_25196)"/>
<mask id="path-6-inside-3_6_25196" fill="white">
<path d="M64.5005 34.8179C64.5005 33.2615 65.7622 31.9998 67.3187 31.9998H70.4323C71.9887 31.9998 73.2505 33.2615 73.2505 34.8179V40.7498H64.5005V34.8179Z"/>
</mask>
<path d="M64.5005 34.8179C64.5005 33.2615 65.7622 31.9998 67.3187 31.9998H70.4323C71.9887 31.9998 73.2505 33.2615 73.2505 34.8179V40.7498H64.5005V34.8179Z" fill="#121213"/>
<path d="M73.2505 40.7498V43.5679H76.0687V40.7498H73.2505ZM64.5005 40.7498H61.6823V43.5679H64.5005V40.7498ZM67.3187 34.8179H70.4323V29.1816H67.3187V34.8179ZM70.4323 34.8179V40.7498H76.0687V34.8179H70.4323ZM73.2505 37.9316H64.5005V43.5679H73.2505V37.9316ZM67.3187 40.7498V34.8179H61.6823V40.7498H67.3187ZM70.4323 34.8179L70.4323 34.8179H76.0687C76.0687 31.7051 73.5452 29.1816 70.4323 29.1816V34.8179ZM67.3187 29.1816C64.2058 29.1816 61.6823 31.7051 61.6823 34.8179H67.3187V34.8179V29.1816Z" fill="white" mask="url(#path-6-inside-3_6_25196)"/>
<circle cx="71.3755" cy="36.3748" r="1.40909" fill="#121213" stroke="white" stroke-width="0.931817"/>
<mask id="path-9-inside-4_6_25196" fill="white">
<path d="M0.749023 28.4318C0.749023 21.4278 6.42687 15.75 13.4308 15.75H16.8172C23.8212 15.75 29.499 21.4278 29.499 28.4318V79.1818C29.499 80.7382 28.2373 82 26.6808 82H3.5672C2.01077 82 0.749023 80.7382 0.749023 79.1818V28.4318Z"/>
</mask>
<path d="M0.749023 28.4318C0.749023 21.4278 6.42687 15.75 13.4308 15.75H16.8172C23.8212 15.75 29.499 21.4278 29.499 28.4318V79.1818C29.499 80.7382 28.2373 82 26.6808 82H3.5672C2.01077 82 0.749023 80.7382 0.749023 79.1818V28.4318Z" fill="#121213"/>
<path d="M13.4308 18.5682H16.8172V12.9318H13.4308V18.5682ZM26.6808 28.4318V79.1818H32.3172V28.4318H26.6808ZM26.6808 79.1818H3.5672V84.8182H26.6808V79.1818ZM3.56721 79.1818V28.4318H-2.06916V79.1818H3.56721ZM3.5672 79.1818H3.56721H-2.06916C-2.06916 82.2947 0.454325 84.8182 3.5672 84.8182V79.1818ZM26.6808 79.1818V79.1818V84.8182C29.7937 84.8182 32.3172 82.2947 32.3172 79.1818H26.6808ZM16.8172 18.5682C22.2647 18.5682 26.6808 22.9843 26.6808 28.4318H32.3172C32.3172 19.8714 25.3776 12.9318 16.8172 12.9318V18.5682ZM13.4308 12.9318C4.87043 12.9318 -2.06916 19.8714 -2.06916 28.4318H3.56721C3.56721 22.9843 7.9833 18.5682 13.4308 18.5682V12.9318Z" fill="white" mask="url(#path-9-inside-4_6_25196)"/>
<rect x="10.9081" y="10.9091" width="8.43181" height="4.68182" fill="#121213" stroke="white" stroke-width="2.81818"/>
<rect x="2.15811" y="32.1586" width="17.1818" height="38.4318" fill="#121213" stroke="white" stroke-width="2.81818"/>
<path d="M60.124 2H54.499V9.5H60.124L60.749 8.09375V3.40625L60.124 2Z" fill="#121213"/>
<path d="M35.9525 18.25L26.999 9.8L35.9525 2H54.499V9.8C53.4976 10.004 52.6442 10.2556 51.9096 10.5657L59.499 21.1535H51.999L47.7639 15.125C47.4198 16.0288 47.1236 17.0641 46.8246 18.25H35.9525Z" fill="#121213"/>
<path d="M60.124 2L61.4117 1.42771L61.0397 0.590909H60.124V2ZM60.749 3.40625H62.1581V3.10722L62.0367 2.83396L60.749 3.40625ZM60.749 8.09375L62.0367 8.66603L62.1581 8.39278V8.09375H60.749ZM60.124 9.5V10.9091H61.0397L61.4117 10.0723L60.124 9.5ZM54.499 9.5H53.0899V10.9091H54.499V9.5ZM26.999 9.8L26.0734 8.73753L24.9018 9.75824L26.0319 10.8248L26.999 9.8ZM35.9525 18.25L34.9854 19.2748L35.3926 19.6591H35.9525V18.25ZM46.8246 18.25V19.6591H47.9225L48.1909 18.5945L46.8246 18.25ZM47.7639 15.125L46.447 14.6237L46.447 14.6237L47.7639 15.125ZM54.499 9.8L54.7803 11.1807L55.9081 10.951V9.8H54.499ZM35.9525 2V0.590909H35.4248L35.0269 0.937536L35.9525 2ZM51.999 21.1535L50.846 21.9635L51.2669 22.5626H51.999V21.1535ZM59.499 21.1535V22.5626H62.2428L60.6443 20.3325L59.499 21.1535ZM54.499 3.40909H60.124V0.590909H54.499V3.40909ZM58.8364 2.57229L59.4614 3.97854L62.0367 2.83396L61.4117 1.42771L58.8364 2.57229ZM59.3399 3.40625V8.09375H62.1581V3.40625H59.3399ZM59.4614 7.52146L58.8364 8.92771L61.4117 10.0723L62.0367 8.66603L59.4614 7.52146ZM60.124 8.09091H54.499V10.9091H60.124V8.09091ZM55.9081 9.5V2H53.0899V9.5H55.9081ZM26.0319 10.8248L34.9854 19.2748L36.9197 17.2252L27.9662 8.77522L26.0319 10.8248ZM35.9525 19.6591H46.8246V16.8409H35.9525V19.6591ZM48.1909 18.5945C48.4853 17.427 48.7658 16.4537 49.0808 15.6263L46.447 14.6237C46.0738 15.6039 45.7619 16.7013 45.4583 17.9055L48.1909 18.5945ZM49.0808 15.6263C49.8225 13.6781 50.7228 12.5963 52.4576 11.8638L51.3615 9.26756C48.7583 10.3666 47.3937 12.1368 46.447 14.6237L49.0808 15.6263ZM52.4576 11.8638C53.0852 11.5989 53.8449 11.3713 54.7803 11.1807L54.2178 8.41926C53.1503 8.6367 52.2031 8.91227 51.3615 9.26756L52.4576 11.8638ZM55.9081 9.8V2H53.0899V9.8H55.9081ZM54.499 0.590909H35.9525V3.40909H54.499V0.590909ZM46.6109 15.935L50.846 21.9635L53.152 20.3435L48.9169 14.315L46.6109 15.935ZM51.999 22.5626H59.499V19.7444H51.999V22.5626ZM60.6443 20.3325L53.0548 9.74477L50.7643 11.3866L58.3538 21.9744L60.6443 20.3325ZM35.0269 0.937536L26.0734 8.73753L27.9246 10.8625L36.8781 3.06246L35.0269 0.937536Z" fill="white"/>
<mask id="path-15-inside-5_6_25196" fill="white">
<path d="M24.499 38.7118C24.499 31.7079 30.1769 26.03 37.1808 26.03H44.3172C51.3212 26.03 56.999 31.7079 56.999 38.7118V79.1817C56.999 80.7381 55.7373 81.9998 54.1808 81.9998H27.3172C25.7608 81.9998 24.499 80.7381 24.499 79.1817V38.7118Z"/>
</mask>
<path d="M24.499 38.7118C24.499 31.7079 30.1769 26.03 37.1808 26.03H44.3172C51.3212 26.03 56.999 31.7079 56.999 38.7118V79.1817C56.999 80.7381 55.7373 81.9998 54.1808 81.9998H27.3172C25.7608 81.9998 24.499 80.7381 24.499 79.1817V38.7118Z" fill="#121213"/>
<path d="M37.1808 28.8482H44.3172V23.2118H37.1808V28.8482ZM54.1808 38.7118V79.1817H59.8172V38.7118H54.1808ZM54.1808 79.1817H27.3172V84.818H54.1808V79.1817ZM27.3172 79.1817V38.7118H21.6808V79.1817H27.3172ZM27.3172 79.1817H21.6808C21.6808 82.2945 24.2043 84.818 27.3172 84.818V79.1817ZM54.1808 79.1817V79.1817V84.818C57.2937 84.818 59.8172 82.2945 59.8172 79.1817H54.1808ZM44.3172 28.8482C49.7647 28.8482 54.1808 33.2643 54.1808 38.7118H59.8172C59.8172 30.1514 52.8776 23.2118 44.3172 23.2118V28.8482ZM37.1808 23.2118C28.6204 23.2118 21.6808 30.1514 21.6808 38.7118H27.3172C27.3172 33.2643 31.7333 28.8482 37.1808 28.8482V23.2118Z" fill="white" mask="url(#path-15-inside-5_6_25196)"/>
<rect x="35.9076" y="18.4088" width="9.68181" height="7.18181" fill="#121213" stroke="white" stroke-width="2.81818"/>
<rect x="25.9081" y="39.6591" width="29.6818" height="32.1818" fill="#121213" stroke="white" stroke-width="2.81818"/>
<mask id="path-19-inside-6_6_25196" fill="white">
<path fill-rule="evenodd" clip-rule="evenodd" d="M44.4993 45.7495H36.9993V51.3745L31.374 51.3745L31.374 58.8745H36.9993V64.4995H44.4993V58.8745H50.124V51.3745L44.4993 51.3745V45.7495Z"/>
</mask>
<path fill-rule="evenodd" clip-rule="evenodd" d="M44.4993 45.7495H36.9993V51.3745L31.374 51.3745L31.374 58.8745H36.9993V64.4995H44.4993V58.8745H50.124V51.3745L44.4993 51.3745V45.7495Z" fill="#121213"/>
<path d="M36.9993 45.7495V42.9313H34.1811V45.7495H36.9993ZM44.4993 45.7495H47.3175V42.9313H44.4993V45.7495ZM36.9993 51.3745L36.9993 54.1927H39.8175V51.3745H36.9993ZM31.374 51.3745L31.374 48.5563L28.5558 48.5563L28.5558 51.3745H31.374ZM31.374 58.8745H28.5558L28.5558 61.6927H31.374V58.8745ZM36.9993 58.8745H39.8175V56.0563H36.9993V58.8745ZM36.9993 64.4995H34.1811V67.3177H36.9993V64.4995ZM44.4993 64.4995V67.3177H47.3175V64.4995H44.4993ZM44.4993 58.8745V56.0563H41.6811V58.8745H44.4993ZM50.124 58.8745V61.6927H52.9422V58.8745H50.124ZM50.124 51.3745H52.9422V48.5564L50.124 48.5564V51.3745ZM44.4993 51.3745H41.6811V54.1927H44.4993V51.3745ZM36.9993 48.5677H44.4993V42.9313H36.9993V48.5677ZM39.8175 51.3745V45.7495H34.1811V51.3745H39.8175ZM31.374 54.1927L36.9993 54.1927L36.9993 48.5564L31.374 48.5563L31.374 54.1927ZM34.1922 58.8745L34.1922 51.3745L28.5558 51.3745L28.5558 58.8745H34.1922ZM36.9993 56.0563H31.374V61.6927H36.9993V56.0563ZM39.8175 64.4995V58.8745H34.1811V64.4995H39.8175ZM44.4993 61.6813H36.9993V67.3177H44.4993V61.6813ZM41.6811 58.8745V64.4995H47.3175V58.8745H41.6811ZM50.124 56.0563H44.4993V61.6927H50.124V56.0563ZM47.3058 51.3745V58.8745H52.9422V51.3745H47.3058ZM44.4993 54.1927H50.124V48.5564L44.4993 48.5564L44.4993 54.1927ZM41.6811 45.7495V51.3745H47.3175V45.7495H41.6811Z" fill="white" mask="url(#path-19-inside-6_6_25196)"/>
</svg>
