<svg width="208" height="303" viewBox="0 0 208 303" fill="none" xmlns="http://www.w3.org/2000/svg">
<g opacity="0.05">
<path d="M-38.2773 231.353C-38.2986 231.222 -38.1563 231.143 -38.0361 231.084C-32.4662 228.543 -26.7529 226.182 -21.3783 223.979C-16.3518 221.952 -10.8552 219.798 -4.56589 217.351C-1.87771 216.304 0.994248 215.18 3.81447 214.016C4.8096 213.613 5.78863 213.201 6.76766 212.789L9.96043 211.389C10.1535 211.297 10.3432 211.191 10.5236 211.102L11.052 210.838C11.1375 210.801 11.2197 210.752 11.3145 210.7L11.7946 210.408C12.9411 209.706 14.068 208.982 15.2077 208.254L15.593 208.015C16.8715 207.196 18.1534 206.39 19.4514 205.592C22.1423 203.946 24.857 202.388 26.9333 201.192C27.4458 200.36 28.0126 199.528 28.7114 198.578C29.3975 197.632 30.0998 196.695 30.8215 195.78C32.105 194.116 33.5171 192.321 35.1206 190.326C37.5396 187.309 40.0384 184.285 42.4432 181.367L44.0974 179.358C46.4988 176.428 48.9882 173.419 51.4005 170.377C50.8471 170.294 50.2971 170.223 49.7531 170.124C49.7403 170.127 49.7242 170.118 49.7115 170.121C20.8252 165.487 2.72511 147.997 -3.7115 140.696L-4.24173 140.09C-6.96848 136.927 -9.2451 133.97 -11.0003 131.282L-13.742 133.705C-14.0501 133.978 -14.4372 134.109 -14.8524 134.084C-15.2549 134.056 -15.6313 133.871 -15.9011 133.576L-21.4758 127.255C-21.7489 126.947 -21.8799 126.56 -21.8549 126.145C-21.8265 125.743 -21.6414 125.366 -21.346 125.097L-15.8151 120.225C-16.4631 115.825 -15.1395 112.175 -11.5299 108.417C-8.85804 105.632 -5.67206 104.207 -2.29209 104.268C-1.03128 104.297 0.242469 104.528 1.50374 104.966L5.81145 101.171C6.11957 100.898 6.50661 100.767 6.92182 100.792C7.32433 100.82 7.70076 101.005 7.97052 101.3L13.5452 107.62C14.0949 108.249 14.0409 109.217 13.4154 109.779L10.8591 112.029C11.4283 112.68 12.0493 113.371 12.6932 114.097L27.5971 100.956C27.0893 90.0648 27.2061 69.4093 33.5626 51.9145C35.6398 46.1985 40.0287 41.5375 45.0402 39.759C45.7729 39.4946 46.5259 39.3065 47.3468 39.1682L47.2592 38.1298L41.626 38.6046C41.1482 38.651 40.6726 38.4517 40.3443 38.0904C40.3053 38.0464 40.2663 38.0024 40.24 37.955L37.8926 34.5816C37.5098 34.0171 37.542 33.2734 37.9701 32.7367L39.8402 30.4659C40.0966 30.1521 40.4793 29.9543 40.8902 29.9122L42.821 29.7488C43.4259 27.3814 45.8421 25.5224 48.7192 25.2824C51.5964 25.0423 54.2907 26.4577 55.282 28.6833L57.1205 28.5311C57.5314 28.489 57.9357 28.6257 58.2529 28.8947L60.4707 30.8189C60.9855 31.2663 61.1414 32.0005 60.8583 32.6209L59.1178 36.3409C58.8836 36.8392 58.401 37.1728 57.869 37.22L52.6916 37.668L52.8307 39.3052C54.4418 39.6766 56.016 40.3167 57.5082 41.2101C61.6789 43.7137 63.5376 47.2453 63.0189 51.7133C62.5985 55.379 60.7233 59.0534 58.9005 62.6185C58.4862 63.4101 58.1066 64.1789 57.7456 64.9155L60.5036 68.0426L62.167 66.576C62.8052 66.0102 63.789 66.0733 64.3549 66.7112L65.2753 67.7578L71.5672 62.2194C72.1961 61.6697 73.1638 61.7235 73.7136 62.3521L78.4263 67.6919C78.976 68.3205 78.922 69.2879 78.2931 69.8376L72.0012 75.3761L73.3705 76.9287C73.6437 77.2367 73.778 77.6363 73.7531 78.0514C73.7281 78.4665 73.543 78.8428 73.2349 79.116L71.5715 80.5826L90.6599 102.218L92.3232 100.752C92.9649 100.198 93.9326 100.252 94.4984 100.89L102.249 109.69L103.802 108.321C104.111 108.048 104.51 107.914 104.913 107.942C105.328 107.967 105.704 108.152 105.965 108.463L108.466 111.292L122.854 98.6151C123.483 98.0654 124.451 98.1192 125.013 98.7445L130.787 105.297L131.173 104.962L127.436 100.723C127.082 100.314 126.957 99.7483 127.13 99.2254L128.444 95.3341C128.666 94.6892 129.287 94.264 129.964 94.3004L132.905 94.4516C133.321 94.4765 133.697 94.6615 133.97 94.9695L135.245 96.4248C137.505 95.5062 140.438 96.3402 142.338 98.4995C144.254 100.668 144.719 103.674 143.503 105.797L144.72 107.186C144.993 107.494 145.131 107.907 145.103 108.309L144.88 111.241C144.831 111.921 144.327 112.478 143.656 112.617L139.627 113.438C139.096 113.54 138.544 113.361 138.177 112.956L134.736 109.058L134.349 109.394L139.768 115.538C140.142 115.969 140.247 116.566 140.049 117.096C139.954 117.353 139.783 117.576 139.581 117.739C140.307 117.857 141.718 118.446 145.283 120.622C148.004 122.288 151.54 124.608 155.236 127.171C161.625 131.599 169.663 137.559 171.308 139.786C172.892 141.935 174.5 149.209 176.247 162.027C176.742 165.706 177.077 168.584 177.135 169.154L177.184 169.59C177.202 169.708 177.162 169.814 177.09 169.901L176.828 170.244C176.809 170.276 176.312 170.913 175.419 171.697C174.803 172.243 173.846 172.99 172.593 173.652L173.061 174.18C173.136 174.255 173.167 174.37 173.169 174.478L173.099 185.959C173.092 186.084 173.043 186.206 172.955 186.284L170.675 188.297L178.11 196.732C178.208 196.842 178.245 196.982 178.203 197.129L178.066 197.684C177.587 199.609 178.63 202.433 180.663 204.734C182.679 207.025 185.367 208.415 187.335 208.187L187.902 208.117C188.048 208.105 188.183 208.15 188.281 208.26L191.604 212.025C195.263 216.177 201.338 224.515 200.813 229.366C200.75 229.995 200.552 230.579 200.255 231.094L206.928 240.142C207.059 240.325 207.031 240.578 206.868 240.73C206.691 240.886 206.442 240.871 206.277 240.712L198.138 232.955C197.587 233.184 196.992 233.302 196.351 233.297C191.477 233.201 183.963 226.148 180.304 221.996L160.549 199.6C160.666 200.14 160.771 200.684 160.885 201.211C161.321 203.246 161.827 205.438 162.42 207.906L162.935 210.028C162.955 210.105 162.972 210.168 162.989 210.232L163.03 210.384C163.067 210.524 163.117 210.66 163.18 210.793L163.257 210.977C163.455 211.414 163.715 211.875 164 212.329C164.276 212.8 164.637 213.384 164.913 214.059C165.143 214.61 165.409 215.451 165.372 216.332C165.383 216.574 165.358 216.785 165.326 216.97L165.3 217.127C165.283 217.268 165.253 217.412 165.224 217.556L165.151 217.793C165.076 218.072 165.001 218.351 164.874 218.589L164.675 219.064C164.622 219.174 164.57 219.283 164.505 219.396L164.183 219.972C164.127 220.069 164.08 220.149 164.021 220.233L163.046 221.829C161.9 223.701 160.805 225.56 159.788 227.357L160.02 232.645C160.029 232.779 159.967 232.904 159.87 232.998L159.439 233.373C158.574 234.108 157.717 234.923 156.866 235.764L156.245 236.393L155.985 236.694C155.944 236.746 155.904 236.798 155.835 236.898C155.589 237.249 155.348 237.722 155.12 238.192L155.086 238.269C154.67 239.156 154.25 240.181 153.771 241.494C153.375 242.607 152.995 243.73 152.635 244.929C152.626 244.945 152.605 245.019 152.596 245.035L151.614 247.368C151.565 247.49 151.455 247.587 151.328 247.621L150.785 247.78C149.257 248.23 147.69 248.378 146.14 248.235C145.332 248.166 144.538 247.997 143.794 247.761C143.704 247.731 143.614 247.7 143.537 247.667C143.309 248.34 143.048 248.996 142.736 249.61C142.391 250.302 142.034 250.901 141.634 251.444C141.283 251.96 140.843 252.404 140.426 252.829L139.937 253.341C139.862 253.416 139.767 253.469 139.658 253.471L137.712 253.679C137.368 253.717 137.015 253.77 136.662 253.824L136.203 253.893C135.185 254.057 134.167 254.221 133.139 254.401C131.093 254.745 129.042 255.117 126.99 255.49C123.418 256.134 119.528 256.863 115.101 257.723C114.943 257.847 114.789 257.983 114.635 258.12C114.384 258.351 114.145 258.578 113.91 258.818C113.442 259.311 113.033 259.815 112.681 260.332L112.338 260.832C112.261 260.948 112.144 261.02 112.01 261.029L111.436 261.073C110.381 261.152 109.484 260.902 108.81 260.675C108.149 260.443 107.509 260.138 106.745 259.676C106.145 259.319 105.549 258.921 104.951 258.469C104.712 258.288 104.469 258.094 104.239 257.897L99.1153 260.781C97.0127 261.93 94.8804 263.018 92.7854 264.043C87.8923 266.416 83.7 268.151 79.5972 269.509C74.5839 271.18 69.9714 272.211 65.521 272.628C63.4089 272.826 61.1162 272.909 58.3234 272.855L57.915 272.855C56.8779 272.847 55.879 272.829 54.9453 272.902C54.4132 272.949 53.9066 272.99 53.4111 273.123C53.2679 273.147 53.1315 273.198 52.9918 273.235C52.8935 273.275 52.7919 273.302 52.6394 273.343C52.4268 273.414 52.2108 273.472 51.9669 273.578L50.3755 274.195C50.0334 274.341 49.6785 274.49 49.3363 274.637L48.7723 274.869C47.7332 275.311 46.6847 275.769 45.5795 276.269C44.5091 276.747 43.4547 277.233 42.4004 277.72L26.515 285.217C18.8128 288.846 9.83438 293.049 0.832566 296.808C0.819861 296.812 0.794436 296.819 0.781731 296.822C0.591143 296.873 0.396243 296.857 0.424828 296.659C0.439117 296.56 0.751563 296.354 0.751563 296.354L-28.0555 240.43L-37.6399 231.495C-37.673 231.422 -38.2439 231.629 -38.2773 231.353ZM28.7261 113.504L19.8026 121.368C20.0553 121.6 20.3081 121.831 20.5701 122.047C24.1797 125.15 26.8942 126.438 28.2973 125.626C28.332 125.603 28.3794 125.577 28.4141 125.554L28.4835 125.508C29.0991 125.112 29.9313 122.983 28.7261 113.504ZM60.4604 155.602C62.0384 155.138 63.4864 154.342 64.7316 153.246C65.9767 152.15 66.953 150.813 67.5979 149.306L64.6454 151.908C64.6175 151.956 64.5675 152.024 64.5015 152.082L61.2942 154.902C61.2282 154.96 61.1681 154.99 61.0952 155.023L60.4604 155.602ZM55.2961 72.5963L55.1824 72.477C55.1647 72.5634 55.1377 72.666 55.12 72.7524L55.2961 72.5963ZM54.4049 77.3003L54.2683 77.1463C54.254 77.2454 54.2304 77.3607 54.2195 77.4725L54.4049 77.3003ZM88.8074 128.594L92.719 125.15L90.218 122.321C89.9448 122.013 89.8105 121.613 89.8388 121.211C89.8638 120.796 90.0524 120.432 90.3605 120.159L91.4075 119.239L83.6568 110.439C83.0909 109.801 83.1576 108.83 83.7959 108.264L85.4592 106.797L66.3708 85.1617L64.7075 86.6284C64.0692 87.1942 63.0854 87.1311 62.5196 86.4931L61.1503 84.9405L55.4967 89.9132C57.4413 90.0047 59.281 90.8732 60.5883 92.3471L87.1348 122.453C88.6245 124.15 89.2269 126.398 88.8074 128.594ZM103.206 134.809L105.85 137.817C105.949 137.832 106.045 137.833 106.144 137.847L103.347 134.676C103.3 134.703 103.246 134.758 103.206 134.809ZM123.757 121.856C127.666 121.095 131.109 120.376 132.432 119.927C133.406 119.597 134.192 119.278 134.949 118.953C135.501 118.723 136.017 118.517 136.537 118.323C132.388 118.999 128.053 120.202 123.757 121.856Z" fill="#121213"/>
<path d="M-37.8603 231.486L0.636147 296.33C0.636147 296.33 42.4068 275.254 51.7217 271.901C52.1816 271.737 52.556 271.609 52.8516 271.544C56.1907 270.69 60.4912 271.797 68.269 270.585C74.9996 269.53 84.3211 266.76 97.8716 259.494L104.427 255.805C104.427 255.805 108.399 259.6 111.273 259.347C112.49 257.483 114.352 256.099 114.352 256.099C114.352 256.099 135.677 251.978 139.024 251.816C139.332 251.543 139.608 251.251 139.865 250.938C141.948 248.446 142.418 245.271 142.418 245.271C142.418 245.271 144.638 246.95 148.367 246.536C148.976 246.468 149.625 246.349 150.307 246.152L151.071 244.327C151.071 244.327 153.198 237.169 154.906 235.363C156.628 233.554 158.371 232.08 158.371 232.08L158.15 226.884C158.15 226.884 160.133 223.358 162.765 219.154C165.397 214.95 162.135 213.551 161.412 210.396C161.054 208.803 159.726 203.646 158.596 197.7C158.435 196.845 158.27 195.977 158.115 195.093C157.212 189.944 156.579 184.532 156.872 180.492C157.568 170.994 116.984 138.305 103.987 139.351C98.0155 139.835 93.2951 140.514 89.5864 141.209C85.2161 142.026 82.2463 142.835 80.3243 143.337C76.7692 144.248 58.7813 163.566 53.137 170.81C47.4927 178.054 30.8597 197.499 28.0605 202.401C17.3337 208.515 16.7118 209.294 12.0302 212.101C7.37739 214.913 -37.8603 231.486 -37.8603 231.486Z" fill="#F8F8F8"/>
<path d="M0.636379 296.33C9.31806 292.697 17.8189 288.745 26.3061 284.742L39.0065 278.725L42.1915 277.245C43.2586 276.755 44.3129 276.268 45.3834 275.791C46.4538 275.314 47.5116 274.84 48.5889 274.388C49.1275 274.162 49.6627 273.923 50.1921 273.713L51.7962 273.093C52.0655 272.98 52.3162 272.899 52.5703 272.831C52.8244 272.763 53.0811 272.653 53.3293 272.614C53.8282 272.494 54.3603 272.446 54.8923 272.399C55.9886 272.323 57.141 272.355 58.312 272.354C60.6641 272.391 63.0789 272.356 65.468 272.125C70.2497 271.674 74.9273 270.529 79.4392 269.021C83.9545 267.525 88.3228 265.633 92.5765 263.568C94.697 262.537 96.8166 261.451 98.8844 260.326L105.026 256.869L103.574 256.687C104.119 257.194 104.627 257.616 105.189 258.037C105.739 258.462 106.323 258.863 106.935 259.217C107.551 259.583 108.198 259.913 108.92 260.169C109.642 260.424 110.443 260.618 111.364 260.548L111.937 260.504L112.28 260.003C112.638 259.458 113.069 258.934 113.549 258.438C113.781 258.185 114.029 257.942 114.293 257.708C114.545 257.477 114.834 257.236 115.058 257.054L114.557 257.27C118.65 256.486 122.76 255.712 126.851 254.969C128.902 254.597 130.954 254.224 133 253.88C134.027 253.7 135.046 253.536 136.067 253.385C136.577 253.303 137.086 253.221 137.589 253.167L138.34 253.075L139.044 253.009L139.535 252.959L139.792 252.7C140.281 252.187 140.803 251.694 141.192 251.113C141.601 250.554 141.957 249.955 142.257 249.344C142.556 248.733 142.823 248.103 143.032 247.462C143.135 247.134 143.242 246.82 143.316 246.487C143.403 246.151 143.471 245.846 143.541 245.447L141.653 246.225C141.788 246.325 141.853 246.362 141.953 246.43L142.227 246.588C142.404 246.691 142.578 246.78 142.761 246.854C143.118 247.017 143.484 247.164 143.856 247.282C144.587 247.521 145.349 247.671 146.103 247.741C147.624 247.878 149.147 247.715 150.589 247.302L151.131 247.143L151.346 246.622L152.11 244.798L152.135 244.737L152.159 244.676C152.498 243.55 152.884 242.399 153.28 241.285C153.689 240.168 154.113 239.061 154.61 238.016C154.857 237.514 155.122 236.98 155.396 236.58C155.461 236.467 155.537 236.392 155.596 236.308L155.699 236.185L155.846 236.023L156.467 235.394C157.305 234.557 158.188 233.735 159.075 232.98L159.506 232.606L159.481 232.055L159.26 226.859L159.111 227.471C160.239 225.48 161.412 223.505 162.604 221.552L163.505 220.086C163.579 219.957 163.661 219.853 163.732 219.712L163.974 219.293C164.057 219.148 164.132 219.019 164.212 218.862L164.415 218.399C164.566 218.1 164.634 217.741 164.737 217.414C164.785 217.238 164.804 217.056 164.823 216.874C164.855 216.688 164.875 216.506 164.865 216.318C164.897 215.574 164.706 214.809 164.443 214.185C164.177 213.548 163.856 213.008 163.56 212.515C163.265 212.023 163.005 211.561 162.803 211.112C162.716 210.89 162.613 210.659 162.556 210.443C162.525 210.329 162.488 210.243 162.46 210.087L162.361 209.665L161.949 207.978C161.405 205.742 160.889 203.511 160.411 201.271C160.169 200.165 159.942 199.014 159.717 197.917L159.095 194.531C158.71 192.279 158.375 190.013 158.14 187.762C157.917 185.508 157.77 183.233 157.886 181.023L157.911 180.608L157.912 180.05C157.883 179.69 157.842 179.333 157.757 179.016C157.609 178.361 157.379 177.756 157.117 177.186C156.594 176.047 155.964 175.018 155.303 174.024C153.958 172.056 152.441 170.257 150.862 168.53C149.282 166.802 147.64 165.146 145.948 163.557C142.57 160.351 139.029 157.352 135.375 154.492C131.709 151.635 127.934 148.93 124.009 146.429C120.075 143.944 116.019 141.614 111.612 139.854C110.504 139.429 109.377 139.037 108.195 138.741C107.013 138.445 105.793 138.214 104.488 138.223C103.783 138.235 103.255 138.295 102.668 138.343L100.942 138.506C99.7853 138.612 98.6356 138.743 97.4733 138.878C92.8527 139.421 88.2519 140.191 83.7234 141.282C82.5985 141.556 81.4643 141.847 80.3554 142.13C80.203 142.171 80.0979 142.186 79.9235 142.246C79.7236 142.313 79.4856 142.391 79.3306 142.473L78.853 142.723L78.4457 142.982C77.9123 143.329 77.4272 143.704 76.9514 144.063C75.0907 145.556 73.3945 147.154 71.7144 148.761C68.3737 151.998 65.1687 155.334 62.0315 158.72C58.8977 162.119 55.8029 165.562 52.8643 169.181C50.012 172.818 47.0911 176.351 44.1642 179.912C41.2373 183.473 38.2944 187.025 35.4066 190.631C33.9563 192.435 32.5221 194.249 31.1075 196.085C30.4018 197.009 29.6962 197.933 29.0101 198.879C28.324 199.825 27.6447 200.797 27.0019 201.854L27.4412 201.41C24.8213 202.915 22.2175 204.429 19.6308 206.007C18.342 206.788 17.0508 207.611 15.785 208.426C14.5192 209.242 13.2661 210.054 11.9901 210.832L11.5099 211.124C11.3457 211.222 11.2 211.288 11.0451 211.371C10.7317 211.523 10.4345 211.684 10.1119 211.852L8.08189 212.764C6.69719 213.339 5.33203 213.936 3.92781 214.489C1.15501 215.627 -1.65686 216.721 -4.4526 217.824C-10.067 219.995 -15.6711 222.205 -21.265 224.453C-26.8488 226.738 -32.4164 229.033 -37.9134 231.541C-32.1019 229.902 -26.3712 228.013 -20.6574 226.06C-14.9632 224.085 -9.29278 222.021 -3.66571 219.846C-0.850472 218.765 1.96476 217.684 4.76639 216.552C6.17059 215.999 7.56458 215.407 8.96198 214.829L11.0555 213.9C11.7643 213.547 12.5366 213.177 13.1522 212.78C14.4536 211.996 15.7448 211.173 17.0013 210.374C18.2705 209.571 19.5305 208.784 20.8192 208.003C23.3874 206.457 25.9945 204.956 28.6085 203.479L28.8676 203.328L29.0478 203.035C29.5975 202.139 30.2455 201.203 30.9257 200.285C31.5932 199.371 32.2896 198.463 32.9986 197.552C34.4074 195.745 35.8449 193.944 37.302 192.165C40.1966 188.585 43.1235 185.024 46.0538 181.475C48.9679 177.917 51.9295 174.333 54.7724 170.712C57.6518 167.177 60.7246 163.754 63.8364 160.374C66.9515 157.007 70.1312 153.678 73.4152 150.483C75.0606 148.899 76.7221 147.324 78.4601 145.933C78.8884 145.6 79.3261 145.251 79.7553 144.973L80.0677 144.767L80.3523 144.609C80.4471 144.556 80.4886 144.559 80.5615 144.525C80.647 144.489 80.8283 144.454 80.9553 144.42C82.0734 144.12 83.1696 143.84 84.2818 143.569C88.7179 142.49 93.2103 141.722 97.7605 141.169C98.8941 141.029 100.031 140.901 101.175 140.799L102.889 140.639C103.45 140.598 104.071 140.527 104.52 140.529C105.525 140.518 106.585 140.711 107.636 140.974C108.687 141.237 109.749 141.592 110.783 141.995C114.952 143.628 118.94 145.909 122.803 148.331C126.657 150.77 130.393 153.431 134.007 156.247C137.622 159.063 141.123 162.018 144.44 165.146C146.1 166.716 147.716 168.325 149.253 169.996C150.777 171.67 152.248 173.399 153.517 175.238C154.145 176.158 154.71 177.096 155.147 178.068C155.372 178.552 155.54 179.025 155.64 179.501C155.701 179.73 155.721 179.956 155.737 180.17L155.736 180.47L155.705 180.913C155.57 183.305 155.724 185.659 155.939 187.984C156.166 190.306 156.501 192.625 156.894 194.903L157.509 198.318C157.73 199.498 157.959 200.607 158.195 201.742C158.68 204.008 159.19 206.267 159.725 208.52L160.12 210.197L160.216 210.607C160.25 210.734 160.301 210.925 160.346 211.09C160.421 211.423 160.57 211.724 160.684 212.047C161.224 213.25 161.958 214.211 162.298 215.073C162.468 215.504 162.573 215.897 162.545 216.3C162.56 216.405 162.545 216.504 162.518 216.606C162.491 216.709 162.506 216.814 162.466 216.92C162.387 217.132 162.362 217.343 162.244 217.565L162.099 217.889C162.047 217.999 161.982 218.111 161.917 218.224L161.734 218.559C161.669 218.672 161.582 218.804 161.517 218.917L160.607 220.399C159.392 222.372 158.21 224.363 157.063 226.386L156.905 226.66L156.914 226.998L157.122 232.196L157.528 231.271C156.565 232.101 155.67 232.926 154.788 233.802L154.135 234.467L153.976 234.632L153.791 234.859C153.669 235.014 153.535 235.173 153.451 235.318C153.036 235.905 152.768 236.481 152.475 237.063C151.926 238.217 151.474 239.373 151.05 240.535C150.625 241.697 150.243 242.861 149.867 244.051L149.916 243.929L149.149 245.741L149.907 245.061C148.719 245.407 147.483 245.52 146.297 245.416C145.697 245.359 145.12 245.241 144.552 245.053C144.27 244.965 143.994 244.849 143.73 244.729C143.605 244.667 143.479 244.606 143.35 244.531L143.173 244.429L143.044 244.355L141.46 243.322L141.156 245.133C141.118 245.347 141.049 245.651 140.984 245.914C140.909 246.193 140.83 246.459 140.739 246.728C140.556 247.267 140.345 247.8 140.086 248.306C139.826 248.811 139.547 249.294 139.216 249.737C138.901 250.188 138.509 250.552 138.139 250.951L138.887 250.642L138.036 250.72L137.234 250.826C136.693 250.889 136.183 250.971 135.662 251.057C134.614 251.215 133.583 251.382 132.556 251.562C130.485 251.913 128.429 252.273 126.378 252.646C122.261 253.395 118.161 254.153 114.055 254.94L113.769 254.99L113.555 255.156C113.193 255.43 112.906 255.684 112.611 255.953C112.316 256.223 112.024 256.505 111.748 256.797C111.183 257.384 110.658 258.015 110.191 258.712L111.107 258.167C110.705 258.193 110.203 258.096 109.693 257.92C109.182 257.743 108.648 257.478 108.129 257.168C107.61 256.858 107.11 256.515 106.616 256.144C106.134 255.769 105.629 255.36 105.211 254.968L104.54 254.345L103.76 254.786L97.64 258.222C95.5941 259.329 93.538 260.397 91.4396 261.408C89.3445 262.433 87.2289 263.381 85.0871 264.281C82.9453 265.182 80.7864 266.019 78.6004 266.754C74.2189 268.242 69.7388 269.36 65.1774 269.82C62.8967 270.05 60.6099 270.105 58.2739 270.077C57.1029 270.078 55.9124 270.057 54.6695 270.145C54.0451 270.203 53.408 270.265 52.7566 270.426C52.4321 270.485 52.1374 270.605 51.8359 270.7C51.5344 270.794 51.2201 270.892 50.9508 271.005L49.2772 271.671C48.7259 271.9 48.1907 272.139 47.6393 272.369C46.5528 272.837 45.4823 273.314 44.4025 273.808C43.3321 274.285 42.2684 274.788 41.2013 275.278L38.007 276.774C33.7651 278.782 29.5368 280.84 25.3475 282.943C17.0198 287.135 8.7177 291.524 0.636379 296.33Z" fill="#121213"/>
<path d="M161.41 222.838C161.004 221.627 160.569 220.463 160.119 219.291C159.656 218.121 159.184 216.968 158.67 215.813C158.159 214.67 157.623 213.534 157.027 212.428C156.431 211.321 155.8 210.238 155.069 209.236C155.649 210.333 156.121 211.486 156.539 212.64C156.958 213.794 157.319 214.99 157.661 216.165C157.994 217.355 158.301 218.553 158.579 219.744C158.858 220.936 159.117 222.159 159.325 223.342L161.41 222.838Z" fill="#121213"/>
<path d="M164.78 215.646L164.398 214.931C164.254 214.698 164.122 214.461 163.952 214.234C163.642 213.786 163.28 213.352 162.878 212.97C162.476 212.588 162.017 212.248 161.521 211.972C161.28 211.833 161.016 211.713 160.743 211.609C160.608 211.563 160.474 211.518 160.326 211.476C160.179 211.433 160.063 211.41 159.836 211.375L160.473 212.022C160.256 210.909 159.933 209.906 159.54 208.896C159.15 207.897 158.674 206.936 158.116 206.023C157.559 205.111 156.909 204.264 156.163 203.511C155.417 202.758 154.576 202.112 153.661 201.595C154.508 202.212 155.26 202.936 155.886 203.749C156.525 204.557 157.047 205.439 157.474 206.372C157.911 207.29 158.24 208.264 158.502 209.242C158.761 210.207 158.944 211.247 159.02 212.193L159.045 212.54L159.657 212.839C159.685 212.845 159.804 212.882 159.885 212.928C159.975 212.958 160.068 213.001 160.148 213.048C160.322 213.137 160.503 213.252 160.671 213.371C161.006 213.608 161.305 213.909 161.582 214.229C161.845 214.554 162.078 214.913 162.289 215.292C162.394 215.482 162.474 215.678 162.566 215.871L162.8 216.49L164.78 215.646Z" fill="#121213"/>
<path d="M146.511 233.815L151.019 228.782C151.509 228.732 152.9 228.74 154.019 230.17C155.358 231.866 154.656 233.715 153.363 236.567L154.54 237.095C155.722 234.492 156.946 231.795 155.03 229.368C153.148 226.972 150.64 227.522 150.538 227.549L150.335 227.604L145.832 232.704L146.511 233.815Z" fill="#121213"/>
<path d="M151.499 246.078C151.508 244.687 151.219 243.457 150.861 242.273C150.491 241.093 150.038 239.962 149.525 238.861C149.012 237.759 148.468 236.694 147.863 235.658C147.259 234.622 146.654 233.586 145.829 232.69C145.997 233.979 146.648 234.935 147.056 236.051C147.495 237.131 147.887 238.238 148.228 239.358C148.578 240.462 148.878 241.58 149.094 242.692C149.307 243.793 149.448 244.926 149.356 245.903L151.499 246.078Z" fill="#121213"/>
<path d="M138.161 227.299C137.895 228.037 137.638 228.854 137.413 229.745C136.365 233.81 137.959 241.946 142.44 245.251C142.44 245.251 144.66 246.93 148.389 246.516C148.226 243.211 147.968 241.538 146.94 239.785C145.899 238.035 144.288 236.547 143.926 234.888C143.563 233.229 143.058 229.213 143.72 227.157C142.099 230.409 142.19 238.321 142.188 238.567C142.126 238.338 140.147 231.054 141.747 226.555C139.521 230.242 139.452 236.591 139.442 236.961C139.347 236.605 137.851 230.921 139.257 227.427L138.161 227.299Z" fill="#121213"/>
<path d="M141.788 246.121L143.067 244.389C139.013 241.405 137.499 233.724 138.452 230.011C139.437 226.167 140.923 223.836 140.933 223.82L141.02 223.687L144.191 212.6L140.115 198.051C142.17 195.962 145.541 192.989 147.088 192.765C147.18 192.754 156.227 191.501 157.566 197.922L159.668 197.481C158.263 190.765 150.613 190.065 146.762 190.634C143.907 191.058 139.063 196.005 138.119 197.006L137.693 197.447L141.932 212.607L139.017 222.822C138.661 223.421 137.291 225.83 136.344 229.514C135.252 233.823 136.816 242.457 141.788 246.121Z" fill="#121213"/>
<path d="M141.372 222.054C142.272 218.655 143.941 217.159 144.247 218.248C146.293 216.788 146.658 212.661 146.859 211.327C147.06 209.994 148.055 205.575 150.635 202.447C147.054 204.686 145.075 209.804 145.075 209.804C145.075 209.804 146.427 201.532 148.003 198.673C145.887 200.888 142.779 207.588 142.514 210.613L143.074 212.6L140.446 221.799L141.372 222.054Z" fill="#121213"/>
<path d="M114.742 257.098C115.865 256.661 118.138 255.439 121.019 253.891C126.006 251.207 133.525 247.15 135.891 247.034L136.334 247.01L136.628 246.686C136.713 246.596 138.806 244.292 140.184 241.963L138.337 240.865C137.341 242.534 135.895 244.255 135.3 244.932C132.474 245.363 126.907 248.27 119.992 251.988C117.291 253.447 114.957 254.698 113.972 255.085L114.742 257.098Z" fill="#121213"/>
<path d="M103.603 256.489L105.261 255.105C102.887 252.242 102.637 248.361 102.829 247.398C103.055 247.174 103.434 246.76 104.245 245.875C106.342 243.584 110.703 238.822 112.694 237.662C115.898 235.796 125.611 228.592 128.569 221.946L128.797 221.422L128.489 220.933C126.02 217.007 126.631 206.987 127.292 202.236L125.155 201.937C124.956 203.379 123.33 215.808 126.364 221.543C123.388 227.513 114.444 234.13 111.594 235.792C109.499 237.021 105.878 240.891 102.641 244.413C102.052 245.06 101.429 245.731 101.278 245.881C100.85 246.213 100.728 246.777 100.672 247.227C100.44 249.155 101.011 253.371 103.603 256.489ZM101.329 245.867C101.316 245.87 101.307 245.886 101.307 245.886C101.32 245.883 101.329 245.867 101.329 245.867Z" fill="#121213"/>
<path d="M112.733 257.323C111.268 256.531 109.967 255.233 108.971 253.702C107.975 252.172 107.273 250.414 106.846 248.568C106.929 250.451 107.28 252.372 108.016 254.203C108.761 256.018 109.881 257.76 111.525 259.117L112.733 257.323Z" fill="#121213"/>
<path d="M114.91 257.012C115.713 256.197 116.513 255.37 117.293 254.522C118.073 253.673 118.866 252.82 119.597 251.889C120.329 250.958 121.049 249.989 121.533 248.743C121.762 248.124 121.934 247.343 121.674 246.527C121.434 245.734 120.799 245.142 120.172 244.834C118.892 244.224 117.628 244.235 116.44 244.322C115.238 244.413 114.094 244.665 112.966 244.981C111.839 245.297 110.748 245.698 109.684 246.146C108.619 246.595 107.566 247.136 106.728 247.973C107.875 247.679 108.908 247.266 109.964 246.888C111.024 246.522 112.113 246.217 113.206 245.978C114.303 245.752 115.405 245.593 116.493 245.588C117.035 245.579 117.565 245.627 118.074 245.695C118.576 245.792 119.064 245.934 119.434 246.147C119.805 246.361 120.046 246.651 120.118 246.972C120.196 247.264 120.114 247.667 119.93 248.098C119.536 248.965 118.842 249.832 118.122 250.651C116.659 252.309 114.995 253.871 113.378 255.462L114.91 257.012Z" fill="#121213"/>
<path d="M128.408 222.207C129.229 220.952 129.98 219.689 130.702 218.42C131.424 217.151 132.13 215.873 132.804 214.576C132.073 214.949 131.459 215.399 130.876 215.868C130.29 216.325 129.76 216.835 129.258 217.35C129.001 217.61 128.772 217.875 128.531 218.144C128.306 218.422 128.065 218.691 127.868 218.975C127.434 219.54 127.049 220.134 126.77 220.821L128.408 222.207Z" fill="#121213"/>
<path d="M117.339 234.416C118.118 233.867 118.91 233.315 119.714 232.759L122.153 231.139C122.977 230.605 123.824 230.106 124.661 229.569L125.285 229.156L125.903 228.718C126.317 228.431 126.723 228.117 127.113 227.795C125.998 227.699 124.974 227.892 123.99 228.183C123.025 228.496 122.1 228.907 121.179 229.331C120.723 229.562 120.264 229.78 119.825 230.02C119.389 230.273 118.94 230.53 118.511 230.808C117.652 231.365 116.823 231.982 116.072 232.687L117.339 234.416Z" fill="#121213"/>
<path d="M136.309 235.228C136.149 236.156 135.795 237.122 135.351 238.058C134.907 238.993 134.374 239.899 133.782 240.792C133.188 241.673 132.545 242.526 131.87 243.361C131.178 244.186 130.467 244.989 129.669 245.72C130.588 245.133 131.441 244.455 132.259 243.746C133.089 243.034 133.881 242.277 134.633 241.477C135.385 240.676 136.095 239.819 136.747 238.895C137.395 237.959 137.988 236.97 138.386 235.815L136.309 235.228Z" fill="#121213"/>
<path d="M139.346 203.008C138.83 206.114 138.129 209.188 137.19 212.189C136.267 215.2 135.094 218.142 133.751 221.007C133.412 221.724 133.044 222.435 132.702 223.139C132.334 223.85 131.959 224.536 131.579 225.251C130.808 226.642 129.992 228.017 129.143 229.375C127.447 232.089 125.605 234.72 123.654 237.298C125.984 235.067 128.171 232.657 130.163 230.081C130.644 229.435 131.15 228.782 131.627 228.124C132.088 227.456 132.562 226.784 133.007 226.107C133.448 225.417 133.906 224.736 134.319 224.04C134.728 223.331 135.153 222.632 135.547 221.914C137.135 219.051 138.463 216.027 139.493 212.906C140.506 209.776 141.217 206.536 141.482 203.253L139.346 203.008Z" fill="#121213"/>
<path d="M140.786 208.026C140.099 210.851 139.413 213.676 138.572 216.434C137.747 219.2 136.775 221.925 135.633 224.573C135.35 225.247 135.032 225.891 134.731 226.543C134.416 227.199 134.082 227.833 133.768 228.489C133.421 229.127 133.074 229.764 132.728 230.402L131.627 232.289C130.102 234.781 128.432 237.189 126.672 239.566C128.824 237.533 130.842 235.358 132.659 232.993C134.48 230.64 136.103 228.108 137.488 225.45C138.886 222.789 140.004 219.998 140.917 217.153C141.813 214.299 142.501 211.379 142.924 208.434L140.786 208.026Z" fill="#121213"/>
<path d="M136.246 230.167C135.683 231.774 134.959 233.343 134.098 234.854C133.233 236.351 132.233 237.804 131.162 239.193C130.09 240.583 128.91 241.92 127.684 243.188C126.461 244.469 125.15 245.678 123.824 246.877C125.258 245.826 126.686 244.749 128.048 243.581C129.413 242.425 130.733 241.201 131.974 239.888C133.216 238.575 134.386 237.199 135.459 235.714C136.515 234.219 137.452 232.634 138.254 230.949L136.246 230.167Z" fill="#121213"/>
<path d="M52.8514 271.543C48.823 272.01 46.4134 269.116 45.534 266.902C44.6419 264.69 41.2476 253.293 31.1166 254.211C37.0658 252.222 40.8517 253.086 44.7789 257.629C49.2788 262.835 48.2027 269.644 53.1856 271.113L52.8514 271.543Z" fill="#121213"/>
<path d="M51.4481 258.225L51.327 271.19L51.7345 271.898C52.1944 271.734 52.5687 271.606 52.8644 271.541C56.2035 270.687 60.504 271.794 68.2817 270.581L68.5973 269.421C64.2828 270.142 55.3104 269.183 54.2899 268.068C53.3084 266.997 51.5001 258.47 51.4481 258.225Z" fill="#121213"/>
<path d="M49.4373 262.969C47.0089 256.092 42.0085 251.102 40.641 250.42C45.7939 248.508 54.864 241.395 56.8225 238.692C49.3692 243.657 45.5888 244.642 42.1333 245.214C38.6744 245.774 27.6179 249.539 27.6179 249.539C27.6179 249.539 31.3794 251.431 35.981 250.511C40.2215 251.853 45.9806 255.66 49.4373 262.969Z" fill="#121213"/>
<path d="M50.4727 241.116C49.0869 241.433 47.7153 241.651 46.3293 241.763C44.9466 241.889 43.5655 241.919 42.1835 241.894C39.4289 241.829 36.6917 241.473 34.0516 240.819C31.4081 240.153 28.8457 239.179 26.4683 237.828C24.0817 236.494 21.9242 234.744 19.919 232.749C21.3477 235.184 23.3556 237.342 25.7536 238.972C28.1296 240.623 30.8389 241.789 33.6426 242.495C36.4462 243.2 39.3536 243.428 42.2156 243.233C43.6499 243.148 45.0723 242.917 46.4581 242.6C47.8626 242.251 49.2271 241.804 50.4727 241.116Z" fill="#121213"/>
<path d="M56.4804 235.381C53.3788 236.512 50.2055 237.171 47.0395 237.502C43.8735 237.833 40.7046 237.798 37.6207 237.317C34.5369 236.837 31.56 235.892 28.7303 234.581C27.3154 233.925 25.9216 233.196 24.5329 232.384C23.1534 231.555 21.8111 230.663 20.3951 229.749C21.2364 231.211 22.286 232.537 23.4803 233.741C24.6967 234.926 26.0544 235.978 27.5305 236.862C30.4735 238.647 33.8596 239.645 37.2518 240.057C40.6533 240.452 44.105 240.222 47.3849 239.452C49.0214 239.054 50.6273 238.542 52.1602 237.859C53.6837 237.192 55.1699 236.386 56.4804 235.381Z" fill="#121213"/>
<path d="M43.4338 236.345C40.0588 235.438 36.727 234.439 33.6395 232.979C30.5461 231.548 27.7097 229.654 25.2627 227.382C24.0346 226.255 22.9003 225.02 21.8542 223.708C20.786 222.415 19.8473 221.047 18.9942 219.642C18.574 218.937 18.1886 218.21 17.8158 217.48C17.4557 216.746 17.1464 215.998 16.8626 215.244C16.5915 214.486 16.3458 213.722 16.1543 212.956C16.0649 212.572 15.9755 212.187 15.9149 211.809L15.8321 211.245L15.8021 210.981C15.7944 210.902 15.7892 210.78 15.7858 210.768L12.9438 210.631C12.9313 210.838 12.9297 210.934 12.9256 211.071L12.932 211.451C12.9424 211.693 12.9563 211.948 12.9794 212.187C13.0257 212.664 13.0847 213.139 13.1818 213.603C13.3633 214.534 13.6049 215.436 13.9228 216.317C14.5331 218.087 15.3713 219.741 16.3703 221.284C18.3555 224.373 20.8504 227.026 23.6863 229.275C26.5315 231.508 29.754 233.217 33.1233 234.356C36.4697 235.461 39.957 236.024 43.4338 236.345Z" fill="#121213"/>
<path d="M14.6807 212.792C14.5371 213.934 14.8316 215.134 15.735 216.118C15.708 216.22 15.6684 216.326 15.6414 216.429C15.3435 217.502 15.11 218.613 14.9663 219.754C14.9328 220.035 14.9153 220.326 14.8851 220.62C14.855 220.914 14.8375 221.204 14.82 221.495L14.7837 222.376L14.7889 223.259C14.7828 223.846 14.847 224.442 14.8697 225.035C14.9212 225.634 15.0108 226.222 15.075 226.818C14.8202 226.273 14.54 225.736 14.2945 225.175C14.0745 224.608 13.8035 224.054 13.6182 223.464L13.3164 222.592L13.0494 221.697C12.955 221.396 12.8733 221.091 12.8078 220.795C12.7388 220.487 12.6571 220.182 12.5881 219.874C12.3249 218.638 12.1634 217.374 12.0874 216.074C12.0511 215.43 12.0495 214.764 12.064 214.106C12.084 213.774 12.1005 213.429 12.1332 213.094C12.1559 212.924 12.1625 212.746 12.1979 212.573C12.2155 212.486 12.2206 212.403 12.2349 212.304C12.2491 212.205 12.2575 212.135 12.2963 211.975L14.6807 212.792Z" fill="#121213"/>
<path d="M19.2773 222.833C18.4491 217.201 53.9504 179.944 63.8359 175.417C52.0813 179.22 31.9821 198.791 28.0767 202.41C24.1712 206.029 17.8479 212.162 15.9123 217.186L19.2773 222.833Z" fill="#121213"/>
<path d="M126 222.267C124.747 223.842 123.108 225.247 121.433 226.567C119.741 227.878 117.959 229.105 116.131 230.262C114.303 231.418 112.445 232.515 110.528 233.492L109.085 234.205C108.597 234.417 108.116 234.655 107.638 234.852C107.156 235.035 106.659 235.264 106.192 235.402C105.954 235.48 105.707 235.573 105.474 235.622C105.242 235.67 105.023 235.716 104.794 235.777L104.156 235.934L103.92 236.378C102.804 238.461 101.041 240.268 99.1045 241.835C97.1592 243.418 95.006 244.784 92.7773 246.021C91.6612 246.633 90.5095 247.214 89.3671 247.779C88.2086 248.334 87.0272 248.855 85.8424 249.363C83.466 250.354 81.0369 251.25 78.5382 251.987C81.1272 251.689 83.6922 251.097 86.1875 250.346C87.4479 249.968 88.6854 249.554 89.9092 249.09C91.133 248.626 92.3594 248.121 93.5433 247.558C95.9433 246.453 98.2439 245.128 100.403 243.529C102.542 241.907 104.552 240.007 105.988 237.54L105.115 238.141L106.046 237.96C106.355 237.891 106.615 237.794 106.904 237.703C107.485 237.534 107.998 237.314 108.543 237.114C109.073 236.904 109.579 236.659 110.105 236.437L111.624 235.703C113.627 234.69 115.558 233.56 117.442 232.361C119.324 231.149 121.159 229.867 122.9 228.434C123.768 227.711 124.621 226.979 125.437 226.162C125.851 225.778 126.233 225.322 126.625 224.904C127.013 224.473 127.356 223.973 127.721 223.507L126 222.267Z" fill="#121213"/>
<path d="M20.7966 254.117C16.8631 255.294 12.9846 256.524 9.08668 257.731L-2.60218 261.272C-6.49764 262.438 -10.4024 263.62 -14.3003 264.828C-18.2017 266.023 -22.0928 267.257 -25.9695 268.595C-21.8868 268.127 -17.8605 267.348 -13.8647 266.454C-9.86898 265.56 -5.90138 264.511 -1.98052 263.338C1.93695 262.152 5.82968 260.823 9.63325 259.314C13.4495 257.801 17.2088 256.127 20.7966 254.117Z" fill="#121213"/>
<path d="M38.4795 259.276C38.0493 258.738 37.3931 258.423 36.7701 258.182C36.1343 257.944 35.4809 257.792 34.8376 257.679C33.5385 257.455 32.2674 257.387 31.0007 257.386C29.734 257.385 28.4877 257.461 27.2482 257.561L25.3843 257.721C24.7565 257.766 24.1414 257.809 23.4746 257.81C23.9894 258.258 24.6226 258.537 25.2423 258.766C25.8746 258.991 26.5154 259.146 27.1713 259.257C28.4578 259.484 29.7415 259.548 31.0082 259.549C32.2749 259.55 33.5213 259.475 34.7607 259.374C35.3724 259.319 36.0002 259.273 36.6153 259.231C37.2143 259.179 37.8167 259.14 38.4795 259.276Z" fill="#121213"/>
<path d="M29.3576 257.963C28.7364 257.83 28.2408 257.963 27.7623 258.159L26.3361 258.732L23.4929 259.861L17.7999 262.095C14.0022 263.575 10.2343 265.116 6.47312 266.682L-4.81367 271.367L-16.159 275.986C-12.1394 275.181 -8.19227 274.055 -4.28842 272.819C-2.33014 272.199 -0.401584 271.519 1.52697 270.839C3.45553 270.158 5.36365 269.402 7.282 268.684C11.089 267.187 14.8526 265.58 18.5466 263.814C20.3919 262.925 22.2405 262.048 24.0629 261.124L26.7999 259.751L28.1667 259.058C28.6223 258.827 29.0481 258.536 29.3576 257.963Z" fill="#121213"/>
<path d="M67.7123 205.131C65.171 206.37 62.6702 207.557 60.1057 208.558C57.5445 209.571 54.9553 210.428 52.32 211.011C49.6847 211.595 46.9906 211.908 44.3054 211.798C41.6074 211.69 38.9335 211.113 36.2905 210.092C38.4777 211.902 41.2599 213.036 44.1293 213.478C47.0022 213.934 49.9599 213.74 52.7858 213.105C55.6117 212.471 58.2999 211.424 60.8267 210.08C63.3248 208.73 65.681 207.105 67.7123 205.131Z" fill="#121213"/>
<path d="M82.7412 263.1C84.8901 262.429 86.9829 261.65 89.0358 260.773C87.6967 261.214 86.344 261.603 84.981 261.955C81.3209 262.881 77.6103 263.467 73.8825 263.785C70.1548 264.103 66.4351 264.147 62.7221 264.012C66.4297 263.822 70.1278 263.444 73.7612 262.824C77.3946 262.204 80.9819 261.311 84.4299 260.101C86.4474 259.397 88.4089 258.586 90.3304 257.676C89.1413 258.118 87.9419 258.521 86.729 258.873C83.1825 259.918 79.5534 260.605 75.913 260.995C72.2725 261.385 68.6242 261.491 64.9985 261.428C68.6187 261.166 72.2362 260.741 75.7789 260.037C79.3215 259.333 82.7893 258.349 86.1143 257.036C87.9623 256.31 89.767 255.472 91.5098 254.556C90.5019 254.962 89.478 255.359 88.4531 255.702C85.0203 256.867 81.4887 257.663 77.9425 258.151C74.3962 258.638 70.8225 258.819 67.2622 258.848C70.8043 258.498 74.3184 257.992 77.7703 257.203C81.2094 256.417 84.567 255.327 87.7529 253.902C89.4315 253.153 91.0734 252.318 92.6662 251.401C91.8269 251.776 90.997 252.134 90.1441 252.458C86.8411 253.751 83.4173 254.696 79.9525 255.284C76.4877 255.872 73.0013 256.126 69.5292 256.28C72.9831 255.804 76.4098 255.226 79.7422 254.347C83.0711 253.455 86.2988 252.236 89.3457 250.698C92.396 249.173 95.2815 247.338 98.0042 245.301C100.188 243.641 102.254 241.848 104.258 239.977C104.748 239.519 104.51 237.459 104.984 236.992L117.537 231.9L107.403 240.482C106.254 241.43 105.377 242.577 104.463 243.843C103.319 245.416 102.046 246.968 101.853 248.994C101.668 250.895 102.267 252.572 103.259 254.035C103.246 254.039 103.237 254.055 103.224 254.058L103.453 254.405C103.683 254.956 103.997 255.417 104.379 255.777L104.67 256.203C101.357 258.22 97.9028 260.017 94.3127 261.51C90.7354 263 87.028 264.156 83.261 264.989C75.7269 266.654 68.0456 266.956 60.4745 266.602C68.0313 266.292 75.5899 265.329 82.7412 263.1Z" fill="#121213"/>
<path d="M101.007 240.194C102.827 237.787 103.034 236.424 103.034 236.424C103.034 236.424 97.2781 212.605 102.549 196.803L104.423 195.512C104.423 195.512 102.29 201.882 102.353 211.014C102.404 220.148 101.938 220.137 104.331 225.104C106.725 230.072 108.192 236.159 108.192 236.159L102.981 240.291L101.007 240.194Z" fill="#121213"/>
<path d="M103.817 226.945C104.399 216.157 106.57 204.235 110.126 197.483L106.488 197.069C106.488 197.069 101.629 216.137 103.303 226.552L103.817 226.945Z" fill="#121213"/>
<path d="M45.6328 249.736C45.5346 249.776 45.4363 249.816 45.3254 249.859C45.3 249.866 45.2907 249.882 45.2653 249.889C45.3762 249.845 45.5126 249.795 45.6328 249.736Z" fill="#121213"/>
<path d="M45.3382 249.856C45.5186 249.767 45.7024 249.691 45.8828 249.601C45.4294 249.587 45.0058 249.632 44.6793 250.142C44.692 250.138 44.7174 250.131 44.7302 250.128C44.7649 250.105 44.8157 250.091 44.8504 250.069C44.8724 250.049 44.9105 250.039 44.936 250.032C45.0723 249.982 45.2053 249.919 45.3382 249.856Z" fill="#121213"/>
<path d="M89.6119 141.202L89.5874 141.263C95.3876 144.664 96.8456 155.899 96.8833 156.243C96.928 156.054 97.8262 151.579 95.9294 145.009C97.3493 146.344 100.661 153.57 100.587 159.035C101.941 157.229 102.14 151.975 100.229 146.824C104.05 150.157 106.458 160.008 106.458 160.008L112.856 155.271C116.181 155.687 126.679 166.964 132.523 170.122C138.367 173.28 146.405 175.836 146.405 175.836C151.167 188.119 141.33 193.641 141.33 193.641C128.873 196.652 113.951 188.126 113.951 188.126C113.951 188.126 108.741 188.147 103.263 188.948C97.789 189.761 84.0841 195.993 84.0841 195.993L79.7192 200.185C69.685 208.223 58.1225 215.691 44.8375 217.087C56.3957 218.7 68.1991 213.046 76.7181 205.604C79.328 203.502 81.881 201.239 84.1235 198.732C82.8205 201.137 81.5336 203.551 80.2306 205.956C75.4709 214.773 70.7274 223.599 65.9194 232.389C61.6779 240.141 53.8391 245.904 45.8735 249.617C45.8862 249.614 45.9023 249.623 45.915 249.62C46.3302 249.645 46.7845 249.713 47.1926 249.509C48.5682 248.391 50.3795 248.138 52.1105 247.279C64.3581 240.335 73.673 230.121 79.2261 217.048L80.5301 213.172C81.4018 208.446 83.2175 203.889 85.6475 199.236C85.9098 198.893 86.5113 198.8 87.299 198.589C89.2149 197.913 91.1342 197.249 93.0373 196.575C93.3679 199.74 93.4468 202.932 93.3724 206.11C93.1013 219.075 90.9275 232.358 86.7139 244.637C91.2238 239.004 92.709 232.044 94.1908 225.072C95.6812 215.947 96.2952 207.26 96.1563 197.441C96.5879 196.155 98.3188 195.296 99.2629 195.465C100.55 195.896 101.929 196.929 103.219 197.373C104.163 197.542 105.373 197.381 106.387 197.913C111.732 199.108 116.889 200.871 122.342 201.601C122.21 202.127 122.095 202.661 121.995 203.205C120.681 210.092 120.679 217.553 122.96 224.238C122.172 218.704 123.745 212.633 125.771 207.489L125.691 212.017C125.691 212.017 130.052 205.321 134.384 202.785C136.283 203.216 140.073 206.584 140.073 206.584L140.958 204.958L138.926 197.729C138.926 197.729 141.084 192.822 147.62 191.602C154.16 190.394 157.708 195.351 157.708 195.351L158.153 195.082C157.25 189.933 156.617 184.521 156.91 180.481C157.606 170.983 117.022 138.295 104.025 139.341C98.0444 139.841 93.3113 140.524 89.6119 141.202Z" fill="#121213"/>
<path d="M57.083 167.697C58.8888 166.355 60.8863 165.221 62.9696 164.254C65.0529 163.288 67.2381 162.498 69.4802 161.87C73.9517 160.617 78.6315 159.989 83.324 160.121C82.7384 160.019 82.1562 159.93 81.5774 159.854C80.9859 159.781 80.4012 159.733 79.8131 159.673C78.6252 159.61 77.444 159.573 76.251 159.593C75.6511 159.59 75.0648 159.638 74.4624 159.677C73.8727 159.713 73.2772 159.777 72.6816 159.841L71.7962 159.942L70.905 160.072C70.3163 160.162 69.7241 160.239 69.1362 160.383C68.5543 160.498 67.963 160.629 67.3785 160.786C66.7906 160.93 66.2189 161.083 65.6412 161.265C65.0601 161.434 64.4918 161.6 63.9209 161.807C63.3433 161.99 62.7885 162.206 62.2245 162.439L61.3912 162.785L60.568 163.169C60.02 163.411 59.4789 163.678 58.9446 163.971C57.876 164.557 56.8463 165.187 55.8566 165.915L57.083 167.697Z" fill="#121213"/>
<path d="M60.5872 163.749C61.0441 163.218 61.7028 162.729 62.4005 162.283C63.1177 161.86 63.867 161.455 64.6589 161.106C66.2265 160.4 67.9018 159.843 69.5883 159.377C71.2841 158.895 73.007 158.515 74.7573 158.237C76.5075 157.959 78.2781 157.757 80.0599 157.647C78.2804 157.511 76.4807 157.503 74.6955 157.6C72.907 157.685 71.1075 157.881 69.3226 158.182C67.5411 158.496 65.7741 158.915 64.0293 159.519C62.2879 160.135 60.5508 160.819 58.9867 162.299L60.5872 163.749Z" fill="#121213"/>
<path d="M130.486 247.801L124.826 254.123L115.097 255.831L130.486 247.801Z" fill="#121213"/>
<path d="M53.8398 62.7911L90.5166 104.384L87.6156 106.94L50.9388 65.3478L53.8398 62.7911Z" fill="#F8F8F8"/>
<path d="M50.1133 66.0615L86.791 107.651C87.1847 108.104 87.8905 108.146 88.3434 107.753L91.2519 105.19C91.7047 104.797 91.7506 104.104 91.3535 103.638L54.6758 62.0483C54.2821 61.5956 53.589 61.5499 53.1234 61.9469L50.2149 64.5096C49.7528 64.9193 49.7069 65.6123 50.1133 66.0615ZM87.707 105.378L52.4765 65.4283L53.731 64.3162L88.9614 104.266L87.707 105.378Z" fill="#121213"/>
<path d="M55.2431 67.3098L89.0671 105.667L88.0705 106.546L54.2465 68.1882L55.2431 67.3098Z" fill="#121213"/>
<path d="M104.812 109.462L109.082 114.304L95.6428 126.149L91.3724 121.306L104.812 109.462Z" fill="#F8F8F8"/>
<path d="M90.5448 122.016L94.8121 126.862C95.2058 127.315 95.8989 127.361 96.3645 126.964L109.803 115.113C110.256 114.72 110.298 114.014 109.905 113.561L105.637 108.715C105.244 108.262 104.551 108.216 104.085 108.613L90.6464 120.464C90.1843 120.874 90.1384 121.567 90.5448 122.016ZM95.728 124.589L92.908 121.383L104.705 110.979L107.525 114.185L95.728 124.589Z" fill="#121213"/>
<path d="M103.539 110.58L107.044 114.554L106.343 115.172L102.838 111.197L103.539 110.58Z" fill="#121213"/>
<path d="M100.25 113.99L103.512 117.689L101.647 119.332L98.3853 115.634L100.25 113.99Z" fill="#121213"/>
<path d="M100.705 120.138L97.2016 116.162L94.2618 118.76L97.7648 122.736C97.7614 122.723 100.714 119.917 100.705 120.138Z" fill="#121213"/>
<path d="M109.222 119.612L119.345 131.093L109.715 139.581L99.5911 128.1L109.222 119.612Z" fill="#F8F8F8"/>
<path d="M98.0438 127.997L109.606 141.113L120.866 131.193L109.304 118.078L98.0438 127.997ZM109.791 138.041L101.104 128.185L109.103 121.14L117.79 130.997L109.791 138.041Z" fill="#121213"/>
<path d="M111.033 124.092L118.138 132.151L117.438 132.768L110.332 124.71L111.033 124.092Z" fill="#121213"/>
<path d="M109.162 125.735L116.268 133.793L115.567 134.41L108.462 126.352L109.162 125.735Z" fill="#121213"/>
<path d="M107.493 127.206L114.599 135.265L111.619 137.891L104.513 129.833L107.493 127.206Z" fill="#121213"/>
<path d="M138.634 116.493L123.849 99.7355L77.1152 140.914C77.1152 140.914 79.3083 162.516 92.9171 154.35C100.495 149.801 95.3629 141.116 102.037 133.801C109.967 125.128 125.343 118.067 138.634 116.493Z" fill="#F8F8F8"/>
<path d="M103.523 129.742L106.483 116.901L81.0966 138.95C81.0966 138.95 77.3118 156.64 90.5456 154.088C94.289 153.371 96.8043 146.952 96.7873 143.077C96.7864 139.211 95.0763 136.742 103.523 129.742Z" fill="#121213"/>
<path d="M113.436 123.083L114.048 118.454L109.199 122.72L112.056 112.698L109.183 115.238L106.343 127.257L113.436 123.083Z" fill="#121213"/>
<path d="M126.171 117.042C123.559 115.374 123.371 111.013 124.879 110.337C123.581 109.459 124.069 106.198 126.619 106.209L123.743 102.95L123.295 102.444L119.097 106.141L116.827 116.932L121.445 111.652L118.807 120.05L126.171 117.042Z" fill="#121213"/>
<path d="M123.643 103.235L79.7736 141.89C80.2138 144.549 81.4036 149.294 83.6934 151.894C85.0627 153.446 87.2054 154.887 91.6626 152.209C94.4772 150.515 94.906 148.304 95.4471 144.225C95.9295 140.638 96.5278 136.162 100.225 132.122C107.554 124.1 120.863 117.307 133.784 114.757L123.643 103.235ZM123.862 99.7322L138.647 116.49C125.343 118.067 109.98 125.124 102.075 133.791C95.3886 141.109 100.521 149.794 92.9554 154.34C87.759 157.461 84.2286 156.229 81.8447 153.533C77.9905 149.161 77.1535 140.904 77.1535 140.904L123.862 99.7322Z" fill="#F8F8F8"/>
<path d="M81.0176 154.259C81.8176 155.16 82.7302 155.923 83.7984 156.454C86.5977 157.855 89.8552 157.458 93.4911 155.273C97.9136 152.617 98.4556 148.592 98.9809 144.708C99.4406 141.29 99.9111 137.761 102.86 134.534C110.398 126.279 125.495 119.144 138.761 117.577C139.156 117.525 139.509 117.267 139.653 116.888C139.796 116.51 139.722 116.08 139.452 115.785L124.667 99.0272C124.273 98.5745 123.58 98.5288 123.131 98.9351L76.3968 140.114C76.1327 140.348 75.995 140.698 76.0327 141.042C76.0839 141.436 76.9718 149.679 81.0176 154.259ZM136.487 115.695C123.098 117.771 108.857 124.745 101.268 133.068C97.8689 136.797 97.3209 140.851 96.8352 144.425C96.3124 148.268 95.9134 151.302 92.3816 153.419C89.4121 155.195 86.8562 155.567 84.7774 154.517C80.0892 152.166 78.5961 143.595 78.2936 141.348L123.77 101.269L136.487 115.695Z" fill="#121213"/>
<path d="M63.1925 67.7144L72.2117 77.9424L63.6763 85.4648L54.6572 75.2369L63.1925 67.7144Z" fill="#F8F8F8"/>
<path d="M53.8147 75.961L62.8337 86.1912C63.2435 86.6531 63.9366 86.6988 64.3988 86.2891L72.9355 78.7606C73.3977 78.3508 73.4435 77.6579 73.0337 77.1959L64.0147 66.9657C63.6049 66.5038 62.9118 66.4581 62.4496 66.8678L53.9129 74.3964C53.4507 74.8061 53.4083 75.5117 53.8147 75.961ZM63.7683 83.8851L56.2195 75.3302L63.0835 69.2845L70.6324 77.8394L63.7683 83.8851Z" fill="#121213"/>
<path d="M58.6727 71.6934L67.6919 81.9214L65.2744 84.052L56.2552 73.824L58.6727 71.6934Z" fill="#121213"/>
<path d="M93.3331 101.901L102.1 111.843L93.5648 119.365L84.7978 109.423L93.3331 101.901Z" fill="#F8F8F8"/>
<path d="M89.067 105.664L97.834 115.606L96.3341 116.928L87.5672 106.986L89.067 105.664Z" fill="#121213"/>
<path d="M86.966 107.526L95.7329 117.468L95.0225 118.095L86.2555 108.153L86.966 107.526Z" fill="#121213"/>
<path d="M83.9707 110.137L92.7361 120.081C93.1297 120.534 93.8229 120.579 94.2885 120.182L102.825 112.654C103.278 112.26 103.32 111.554 102.927 111.102L94.1614 101.158C93.7678 100.705 93.0746 100.659 92.609 101.056L84.0723 108.585C83.6101 108.994 83.5643 109.687 83.9707 110.137ZM93.6647 117.804L86.3467 109.5L93.2454 103.431L100.564 111.735L93.6647 117.804Z" fill="#121213"/>
<path d="M72.5758 63.3301L77.2898 68.6759L10.359 127.664L5.64501 122.318L72.5758 63.3301Z" fill="#F8F8F8"/>
<path d="M57.1888 86.3693L58.1077 76.0764L24.9039 105.339L25.507 114.298L57.1888 86.3693Z" fill="#121213"/>
<path d="M4.81812 123.027L9.53085 128.367C9.9245 128.82 10.6176 128.866 11.0671 128.459L77.9936 69.482C78.4464 69.0884 78.4923 68.3954 78.0859 67.9462L73.3732 62.6064C72.9795 62.1538 72.2864 62.1081 71.8369 62.5144L4.91046 121.492C4.4737 121.895 4.42447 122.575 4.81812 123.027ZM10.4409 126.122L7.17211 122.41L72.4666 64.8642L75.7353 68.576L10.4409 126.122Z" fill="#121213"/>
<path d="M71.019 64.7034L75.7329 70.0492L74.1048 71.4841L69.3908 66.1384L71.019 64.7034Z" fill="#121213"/>
<path d="M14.4799 114.533L19.1938 119.879L17.2796 121.566L12.5656 116.22L14.4799 114.533Z" fill="#121213"/>
<path d="M55.9775 157.524L85.4806 131.527C87.8481 129.436 88.0687 125.837 85.9901 123.467L59.4436 93.3615C57.3524 90.995 53.7528 90.7751 51.3819 92.8534L43.6595 99.6601L32.1921 137.774L48.7795 161.917L55.9775 157.524Z" fill="#F8F8F8"/>
<path d="M69.9882 143.234C69.9882 143.234 68.9693 144.31 62.1 136.512C55.2341 128.728 50.7716 123.661 50.7716 123.661L55.8821 123.98L72.1607 142.448L69.9882 143.234Z" fill="#121213"/>
<path d="M49.8614 96.174L51.2926 97.8052C52.9653 96.3224 55.5302 96.4928 57.0132 98.1647L80.9025 125.266C82.3855 126.938 82.2146 129.502 80.542 130.985L81.9732 132.616C84.5516 130.346 84.8014 126.399 82.5346 123.835L58.6452 96.7336C56.3749 94.1564 52.4398 93.9039 49.8614 96.174Z" fill="#121213"/>
<path d="M36.5592 113.515L63.1057 143.621C65.5872 146.427 69.8833 146.705 72.7038 144.221L71.2726 142.59C69.3545 144.274 66.4319 144.091 64.747 142.174L38.2005 112.068C36.5157 110.15 36.6997 107.229 38.6178 105.544L37.1866 103.913C34.3534 106.401 34.0778 110.708 36.5592 113.515Z" fill="#121213"/>
<path d="M48.4626 163.377L56.6209 158.4L86.2026 132.341C89.0104 129.859 89.2894 125.564 86.8045 122.745L60.2581 92.6393C57.7766 89.8328 53.4804 89.5546 50.66 92.0392L42.7082 99.0571L31.0053 137.969L48.4626 163.377ZM55.3344 156.648L49.0966 160.457L33.3824 137.591L44.6016 100.279L52.0912 93.6705C54.0093 91.9858 56.9319 92.1692 58.6167 94.0865L85.1725 124.176C86.8574 126.093 86.6734 129.015 84.7553 130.7L55.3344 156.648Z" fill="#121213"/>
<path d="M40.4041 136.199L54.7832 152.507C54.9359 152.67 55.1546 152.775 55.3715 152.772L58.3574 152.734C58.5455 152.724 58.72 152.664 58.8647 152.543L62.2701 149.548C62.4148 149.428 62.5045 149.254 62.5238 149.072L62.9432 146.114C62.9777 145.887 62.9038 145.662 62.7638 145.495L48.3847 129.187C48.1081 128.866 47.6099 128.836 47.289 129.113L40.4817 135.116C40.1609 135.393 40.1275 135.878 40.4041 136.199ZM55.7155 151.209L42.0847 135.762L47.7256 130.793L61.3564 146.24L61.0252 148.561L58.0506 151.182L55.7155 151.209Z" fill="#121213"/>
<path d="M57.901 152.353L59.7937 154.487C60.1093 154.851 60.6618 154.88 61.0266 154.565L64.2339 151.745C64.5987 151.43 64.6278 150.877 64.3122 150.513L62.4322 148.375C62.1166 148.011 61.5641 147.982 61.1992 148.297L57.9919 151.117C57.6144 151.436 57.5727 151.992 57.901 152.353ZM60.5229 152.685L59.7975 151.858L61.6936 150.193L62.419 151.02L60.5229 152.685Z" fill="#121213"/>
<path d="M62.2401 152.334L60.344 150.188L58.552 151.784L60.5618 154.05L62.2401 152.334Z" fill="#121213"/>
<path d="M53.7464 95.4034L83.3 128.918L82.3725 129.735L52.8189 96.2208L53.7464 95.4034Z" fill="#121213"/>
<path d="M52.3919 96.5715L81.9467 130.078C81.9467 130.078 73.9167 129.942 63.9415 118.634C53.9663 107.326 52.3919 96.5715 52.3919 96.5715Z" fill="#121213"/>
<path d="M61.8459 145.644L62.4634 146.344L55.6537 152.344L55.0363 151.644L61.8459 145.644Z" fill="#121213"/>
<path d="M48.1228 136.931L58.7771 149.014L56.6556 150.883L46.0013 138.801L48.1228 136.931Z" fill="#121213"/>
<path d="M50.428 134.898L61.0823 146.98L60.2929 147.675L49.6386 135.593L50.428 134.898Z" fill="#121213"/>
<path d="M59.9552 150.006L58.651 149.103L57.2611 150.32L58.7801 150.906L59.9552 150.006Z" fill="#121213"/>
<path d="M132.282 130.19L171.656 174.829L171.59 185.41L164.022 192.08L156.454 198.75L145.942 197.483L106.58 152.841L106.646 142.26L114.214 135.59L121.782 128.92L132.282 130.19Z" fill="#121213"/>
<path d="M167.823 179.178L168.532 185.686L164.52 189.211L161.163 184.611L167.823 179.178Z" fill="#F8F8F8"/>
<path d="M163.693 189.936L159.952 185.684L157.946 187.446L162.365 191.435L163.693 189.936Z" fill="#F8F8F8"/>
<path d="M160.221 192.786L155.064 190.26L153.92 191.275L159.605 193.332L160.221 192.786Z" fill="#F8F8F8"/>
<path d="M115.159 135.926L117.589 143.404L116.701 143.693L114.271 136.214L115.159 135.926Z" fill="#F8F8F8"/>
<path d="M119.733 141.244L116.133 135.076L119.987 131.674L126.267 135.491L119.733 141.244Z" fill="#F8F8F8"/>
<path d="M116.339 144.274L154.442 187.484L153.041 188.719L114.938 145.509L116.339 144.274Z" fill="#F8F8F8"/>
<path d="M121.147 140.024L159.25 183.234L157.849 184.469L119.745 141.259L121.147 140.024Z" fill="#F8F8F8"/>
<path d="M129.244 132.891L167.347 176.101L166.646 176.719L128.543 133.509L129.244 132.891Z" fill="#F8F8F8"/>
<path d="M126.132 135.64L164.235 178.85L160.042 182.546L121.939 139.336L126.132 135.64Z" fill="#F8F8F8"/>
<path d="M169.892 172.837L170.918 174.001L145.213 196.655L144.187 195.491L169.892 172.837Z" fill="#F8F8F8"/>
<path d="M160.694 162.43L161.72 163.593L136.015 186.248L134.989 185.084L160.694 162.43Z" fill="#F8F8F8"/>
<path d="M155.819 156.906L156.845 158.07L131.141 180.725L130.114 179.561L155.819 156.906Z" fill="#F8F8F8"/>
<path d="M150.852 151.213L151.879 152.377L126.174 175.031L125.148 173.867L150.852 151.213Z" fill="#F8F8F8"/>
<path d="M145.971 145.708L146.998 146.871L121.293 169.526L120.267 168.362L145.971 145.708Z" fill="#F8F8F8"/>
<path d="M141.098 140.155L142.124 141.319L116.415 163.971L115.389 162.807L141.098 140.155Z" fill="#F8F8F8"/>
<path d="M131.045 132.537L120.78 130.972L114.799 136.25L108.696 141.629L109.079 151.9L147.188 195.121L155.657 196.132L162.389 190.204L169.121 184.275L169.179 175.751L131.045 132.537ZM132.282 130.19L171.643 174.832L171.578 185.414L164.009 192.084L156.441 198.754L145.929 197.487L106.568 152.845L106.633 142.263L114.201 135.593L121.77 128.923L132.282 130.19Z" fill="#F8F8F8"/>
<path d="M105.493 153.255L145.404 198.526L156.802 199.896L172.665 185.912L172.734 174.431L132.823 129.16L121.425 127.79L105.562 141.774L105.493 153.255ZM146.483 196.453L107.668 152.427L107.729 142.745L122.127 130.053L131.737 131.207L170.552 175.233L170.491 184.915L156.093 197.608L146.483 196.453Z" fill="#121213"/>
<path d="M170.833 173.904L172.477 175.768L146.772 198.422L145.128 196.558L170.833 173.904Z" fill="#121213"/>
<path d="M131.574 129.376L133.009 131.004L107.305 153.658L105.87 152.031L131.574 129.376Z" fill="#121213"/>
<path d="M161.617 163.471L163.052 165.098L137.347 187.752L135.912 186.125L161.617 163.471Z" fill="#121213"/>
<path d="M156.723 157.915L158.158 159.543L132.453 182.197L131.018 180.57L156.723 157.915Z" fill="#121213"/>
<path d="M151.821 152.336L153.256 153.964L127.551 176.618L126.116 174.99L151.821 152.336Z" fill="#121213"/>
<path d="M146.928 146.782L148.363 148.409L122.658 171.063L121.223 169.436L146.928 146.782Z" fill="#121213"/>
<path d="M142.025 141.219L143.46 142.847L117.755 165.501L116.32 163.874L142.025 141.219Z" fill="#121213"/>
<path d="M168.528 188.109L159.517 196.051C159.517 196.051 175.987 214.726 181.448 220.927C186.909 227.128 195.463 233.998 198.332 230.983C201.689 228.518 195.93 219.17 190.472 212.982L187.519 209.635C185.115 209.912 181.973 208.453 179.527 205.678C177.081 202.902 176.021 199.606 176.604 197.258C172.168 192.239 168.528 188.109 168.528 188.109Z" fill="#F8F8F8"/>
<path d="M163.573 192.486L196.377 229.682C196.377 229.682 190.908 228.18 185.488 222.689C180.068 217.199 160.916 194.818 160.916 194.818L163.573 192.486Z" fill="#121213"/>
<path d="M166.75 190.315L161.923 194.562L183.539 219.074C185.985 221.849 188.834 224.502 191.356 226.345C194.577 228.708 196.074 228.906 196.444 228.916C196.466 228.897 196.488 228.877 196.523 228.854C196.561 228.49 196.552 226.981 194.608 223.486C193.085 220.75 190.824 217.598 188.378 214.823L186.267 212.434C183.251 212.208 179.992 210.413 177.433 207.518C174.873 204.624 173.51 201.164 173.667 198.14L168.291 192.053L166.75 190.315ZM168.528 188.109C168.528 188.109 172.168 192.239 176.591 197.262C176.008 199.61 177.068 202.906 179.514 205.681C181.96 208.456 185.102 209.915 187.506 209.638L190.459 212.986C195.92 219.187 201.676 228.521 198.32 230.986C195.451 234.001 186.909 227.128 181.435 220.931C175.978 214.742 159.504 196.054 159.504 196.054L168.528 188.109Z" fill="#F8F8F8"/>
<path d="M157.98 195.959L180.633 221.649C184.253 225.757 191.635 232.723 196.356 232.806C197.438 232.829 198.367 232.485 199.041 231.8C199.797 231.217 200.255 230.332 200.374 229.251C200.886 224.554 194.89 216.359 191.27 212.251L187.946 208.486L187.38 208.556C185.281 208.805 182.443 207.36 180.328 204.959C178.214 202.558 177.127 199.568 177.639 197.512L177.776 196.958L168.62 186.574L157.98 195.959ZM189.642 213.695C194.062 218.704 198.558 225.777 198.216 229.026C198.151 229.697 197.881 229.96 197.689 230.107L197.61 230.169L197.548 230.24C197.378 230.422 197.085 230.65 196.412 230.626C193.14 230.564 186.695 225.212 182.275 220.202L161.065 196.14L168.445 189.629L175.431 197.559C175.033 200.238 176.283 203.634 178.709 206.387C181.136 209.14 184.344 210.799 187.052 210.74L189.642 213.695Z" fill="#121213"/>
<path d="M197.518 231.705L206.571 240.333L199.147 230.261L197.518 231.705Z" fill="#121213"/>
<path d="M183.545 208.63L187.007 212.603C187.677 213.377 188.344 214.137 189.008 214.94C189.669 215.729 190.321 216.535 190.934 217.35C192.199 218.972 193.354 220.691 194.38 222.485C194.867 223.389 195.349 224.322 195.729 225.282C196.108 226.242 196.422 227.261 196.494 228.29C196.165 227.316 195.706 226.418 195.2 225.546C194.681 224.678 194.141 223.829 193.565 223.003C192.411 221.338 191.204 219.728 189.936 218.149C189.301 217.352 188.659 216.585 187.992 215.824C187.325 215.064 186.646 214.306 185.966 213.549L181.882 208.98C181.531 208.584 181.18 208.188 180.829 207.792C181.663 208.263 182.59 208.573 183.545 208.63Z" fill="#121213"/>
<path d="M170.813 194.249C172.172 195.763 173.544 197.274 174.897 198.818C175.525 199.534 176.149 200.238 176.777 200.955C176.739 201.932 176.934 202.914 177.317 203.833C176.139 202.487 174.961 201.142 173.771 199.8C172.421 198.27 171.081 196.723 169.757 195.185C168.416 193.639 167.092 192.101 165.773 190.535L166.71 189.712C168.095 191.22 169.454 192.734 170.813 194.249Z" fill="#121213"/>
<path d="M30.0926 112.253C28.4438 100.102 27.4995 73.0466 34.987 52.4036C38.0094 44.0656 47.0852 36.7193 56.7059 42.4864C66.3267 48.2535 59.2641 57.8784 55.8712 65.2402C53.9347 69.4483 51.2409 80.6388 51.9161 92.7644C52.4346 101.814 54.8253 111.398 60.8234 118.993C68.5718 128.801 78.4476 130.743 85.7444 130.53C91.6473 130.351 95.8643 128.758 95.8643 128.758L104.617 138.705L69.7939 169.396C39.0768 171.854 12.1462 156.731 -3.09777 139.075C-18.3418 121.419 -15.4083 114.629 -10.4379 109.445C-5.64939 104.445 1.54341 103.743 9.17369 112.399C14.5532 118.499 24.2682 129.7 28.999 126.976C30.4057 126.381 31.7414 124.403 30.0926 112.253ZM47.6834 153.253C52.3571 158.549 60.4477 159.063 65.7458 154.389C71.0438 149.716 71.5593 141.628 66.8856 136.332C62.2119 131.036 54.1213 130.522 48.8232 135.196C43.5251 139.869 43.0097 147.957 47.6834 153.253Z" fill="#F8F8F8"/>
<path d="M94.6857 130.763L97.2647 133.679C97.2647 133.679 95.8188 132.501 94.5047 134.051C93.1905 135.601 95.5742 138.856 97.6246 138.783C99.9461 138.706 99.8476 136.254 99.8476 136.254L101.699 138.59L80.1165 157.605L87.6431 132.432L94.6857 130.763ZM90.768 137.081C91.1031 137.467 91.6844 137.502 92.0712 137.167C92.4581 136.832 92.493 136.251 92.1579 135.864C91.8228 135.478 91.2415 135.443 90.8547 135.778C90.4678 136.113 90.4329 136.694 90.768 137.081Z" fill="#121213"/>
<path d="M8.15422 114.184C7.93141 114.216 -1.68072 120.018 -1.68072 120.018L6.31664 112.103L8.15422 114.184Z" fill="#F8F8F8"/>
<path d="M13.0232 119.904L3.08597 142.687L0.956401 140.889L5.39322 129.749L-0.217758 139.556C-0.217758 139.556 -10.1142 128.949 -12.3933 121.46C-14.6724 113.97 -10.3556 109.955 -7.79904 108.671C-5.24245 107.387 -2.34124 105.915 1.01739 108.133C4.37603 110.35 10.3963 115.843 10.3963 115.843L13.0232 119.904Z" fill="#121213"/>
<path d="M57.2659 160.147L55.236 167.157C55.236 167.157 39.5791 167.527 24.8994 158.228L36.8008 146.994L46.1885 128.36L47.4491 131.998L50.2541 124.78L51.1644 128.075L50.0361 131.386C50.0361 131.386 44.1622 134.825 42.6266 141.444C41.091 148.063 43.1684 159.323 57.2659 160.147Z" fill="#121213"/>
<path d="M61.9304 132.882L64.3653 125.858C64.3653 125.858 72.4496 132.092 84.243 132.703L74.9885 162.15L73.017 163.89L76.0614 149.434L70.5615 166.059L68.2379 168.111L57.4237 168.055L59.8169 160.062C59.8169 160.062 70.3042 158.695 70.9953 146.993L69.807 142.152C69.807 142.152 67.6098 135.934 65.4487 134.73C63.2774 133.488 61.9304 132.882 61.9304 132.882Z" fill="#121213"/>
<path d="M61.5457 122.936L63.3188 123.523L60.3558 132.474L58.5827 131.887L61.5457 122.936Z" fill="#121213"/>
<path d="M58.7388 120.056L54.487 132.141L50.1788 134.003L56.4064 116.434L58.7388 120.056Z" fill="#121213"/>
<path d="M51.4066 104.432C48.4164 112.026 44.0427 119.692 39.3502 118.036C34.6577 116.38 36.6402 104.059 40.2162 99.0581C35.3769 104.834 34.0097 110.455 35.5423 117.191C35.5423 117.191 33.521 113.662 33.3844 109.697L32.8882 109.979C32.8882 109.979 33.1491 112.224 34.5106 118.271C35.8722 124.318 32.0689 128.318 31.3467 128.825C30.6279 129.344 23.495 131.337 16.2107 122.956L6.24689 146.25C6.24689 146.25 19.6887 157.079 22.8985 158.029C26.1083 158.98 34.9282 144.732 34.9282 144.732L46.4391 121.418L47.6831 125.4L53.3097 110.62L51.4066 104.432Z" fill="#121213"/>
<path d="M29.9175 149.969L43.7209 121.031L27.9896 148.974L29.9175 149.969Z" fill="#F8F8F8"/>
<path d="M60.3434 52.961L57.7963 52.9084C57.7963 52.9084 55.4052 58.9264 49.8176 58.5041C44.23 58.0818 40.4827 52.2792 42.9068 48.4169C45.3342 44.5673 48.3684 43.0328 51.9887 44.2953L53.242 41.4002C53.242 41.4002 48.4571 39.7554 43.9484 41.8348C39.4431 43.9269 36.553 47.7779 34.1899 54.714C31.8269 61.6502 29.6465 81.2115 29.6465 81.2115L29.2032 102.377L30.0642 102.541C30.0642 102.541 31.3825 92.4675 35.1751 85.7336C38.9551 79.0031 47.1115 73.918 50.8048 88.3115L51.4188 82.6744C51.4188 82.6744 48.8288 81.3944 47.8137 78.3175C46.7986 75.2406 48.5391 71.5207 50.4622 69.753C52.3853 67.9852 53.8658 68.9363 53.8658 68.9363L59.5368 56.8119L60.3434 52.961Z" fill="#121213"/>
<path d="M57.4327 46.621C56.8864 46.0051 56.1587 45.4241 55.2659 44.8874C52.3459 43.1377 49.3884 42.773 46.4765 43.7983C42.7083 45.1347 39.2326 48.884 37.6099 53.3484C34.438 62.094 32.4711 73.2531 31.9062 85.6293C31.2965 98.9567 32.4838 109.08 32.8623 111.865C34.4206 123.372 33.7587 127.865 30.2281 129.478C25.586 131.975 19.8766 127.133 17.9895 125.529C14.1671 122.292 10.173 117.754 7.78906 115.057L7.41492 114.627L7.06371 114.231C3.83734 110.575 0.559457 108.609 -2.3994 108.544C-4.56346 108.497 -6.59591 109.45 -8.42735 111.357C-10.6193 113.646 -11.9861 115.864 -11.585 119.241C-11.0513 123.672 -7.48167 129.727 -0.9872 137.243C-0.81159 137.441 -0.648705 137.643 -0.476496 137.828C7.44647 146.814 17.686 154.28 29.1244 159.41C35.345 162.195 41.8147 164.233 48.3539 165.462C55.0786 166.723 61.9007 167.127 68.6541 166.666L100.679 138.44L94.9768 131.95C93.0489 132.48 89.7935 133.189 85.8359 133.31C78.6476 133.521 68.3348 131.778 59.9436 122.265C59.5109 121.768 59.0714 121.246 58.6573 120.717C52.9885 113.537 49.788 104.185 49.1493 92.9071C48.4275 80.0997 51.3428 68.4142 53.3469 64.0519C53.8608 62.9204 54.445 61.7973 55.0504 60.6005C58.2048 54.4324 60.2298 49.7922 57.4327 46.621ZM59.5269 44.7803C64.6528 50.5946 58.8426 58.7948 55.8749 65.2532C53.9384 69.4613 51.2446 80.6518 51.9198 92.7773C52.4382 101.827 54.829 111.41 60.827 119.006C61.2182 119.5 61.6187 119.978 62.0284 120.44C69.5772 128.995 78.8309 130.749 85.7481 130.543C91.651 130.364 95.868 128.771 95.868 128.771L104.621 138.718L69.7976 169.409C39.4406 171.839 12.7747 157.093 -2.56046 139.707C-2.73608 139.509 -2.91508 139.298 -3.09069 139.1C-18.3347 121.444 -15.4012 114.655 -10.4308 109.47C-5.64231 104.471 1.55049 103.769 9.18077 112.424C9.41492 112.688 9.65251 112.965 9.90616 113.251C15.3994 119.471 24.4776 129.617 29.0095 127.014C30.4289 126.416 31.7485 124.429 30.1124 112.275C28.4636 100.124 27.5193 73.0688 35.0068 52.4258C38.0292 44.0878 47.105 36.7415 56.7257 42.5087C57.8797 43.2068 58.8177 43.9629 59.5269 44.7803Z" fill="#F8F8F8"/>
<path d="M44.9603 46.6287C42.1399 49.1133 41.8735 53.4048 44.3584 56.224C46.8433 59.0432 51.136 59.3088 53.9565 56.8242C56.7769 54.3395 57.0433 50.048 54.5584 47.2288C52.0735 44.4096 47.7808 44.1441 44.9603 46.6287Z" fill="#F8F8F8"/>
<path d="M54.5585 47.2284C52.0736 44.4092 47.7808 44.1436 44.9603 46.6283C42.1399 49.1129 41.8735 53.4044 44.3584 56.2236C46.8433 59.0428 51.1361 59.3084 53.9565 56.8237C56.7804 54.3518 57.0433 50.0476 54.5585 47.2284ZM56.1904 45.7973C59.4592 49.5091 59.1012 55.1866 55.3911 58.4677C51.6777 61.7362 45.9986 61.3792 42.7171 57.6708C39.4483 53.9589 39.8064 48.2815 43.5164 45.0004C47.2426 41.7285 52.9217 42.0855 56.1904 45.7973Z" fill="#F8F8F8"/>
<path d="M43.6759 56.8281C46.4891 60.0086 51.3665 60.3217 54.5484 57.5087C57.7303 54.6958 58.0443 49.8198 55.2311 46.6393C52.4179 43.4589 47.5404 43.1458 44.3586 45.9587C41.1733 48.7589 40.872 53.6315 43.6759 56.8281ZM53.8886 47.8295C56.0417 50.2747 55.801 54.0012 53.3674 56.1507C50.9211 58.3037 47.1935 58.0637 45.0438 55.6312C42.8906 53.1859 43.1313 49.4594 45.565 47.3099C47.9952 45.1476 51.7354 45.3842 53.8886 47.8295Z" fill="#121213"/>
<path d="M46.8794 48.8096C45.2728 50.2339 45.1128 52.6863 46.5279 54.3083C47.9523 55.9142 50.4055 56.0737 52.0282 54.6587C53.6348 53.2344 53.7947 50.782 52.3796 49.16C50.9518 47.5414 48.4987 47.3819 46.8794 48.8096Z" fill="#121213"/>
<path d="M48.3773 46.9031L49.3035 46.7834L50.5608 56.5252L49.6346 56.6449L48.3773 46.9031Z" fill="#F8F8F8"/>
<path d="M39.1437 62.9854C37.1596 64.7286 36.974 67.7461 38.7174 69.7293C40.4608 71.7126 43.4791 71.8976 45.4633 70.1544C47.4474 68.4111 47.633 65.3937 45.8896 63.4104C44.1495 61.4399 41.1278 61.2421 39.1437 62.9854Z" fill="#F8F8F8"/>
<path d="M45.8893 63.4099C44.1459 61.4266 41.1276 61.2416 39.1435 62.9848C37.1593 64.7281 36.9738 67.7455 38.7172 69.7288C40.4606 71.712 43.4789 71.897 45.463 70.1538C47.4472 68.4106 47.6328 65.3931 45.8893 63.4099ZM47.5214 61.9788C50.0614 64.8513 49.7841 69.2546 46.9104 71.7944C44.0366 74.3341 39.632 74.0577 37.092 71.1852C34.552 68.3127 34.8292 63.9094 37.703 61.3696C40.5768 58.8299 44.9813 59.1063 47.5214 61.9788Z" fill="#F8F8F8"/>
<path d="M38.0792 70.2944C40.1314 72.6169 43.6929 72.847 46.0292 70.7916C48.3527 68.7396 48.5835 65.1791 46.5279 62.8439C44.4757 60.5213 40.9142 60.2913 38.5779 62.3467C36.2543 64.3987 36.027 67.9719 38.0792 70.2944ZM45.2514 63.9755C46.6792 65.5941 46.5295 68.0846 44.8975 69.5157C43.2782 70.9433 40.7869 70.7941 39.3557 69.1628C37.9279 67.5442 38.0776 65.0537 39.7097 63.6226C41.329 62.1949 43.8236 62.3569 45.2514 63.9755Z" fill="#121213"/>
<path d="M40.5588 64.607C39.4677 65.5665 39.3679 67.2268 40.3274 68.3174C41.2869 69.4081 42.9477 69.5076 44.0388 68.5482C45.13 67.5887 45.2298 65.9284 44.2703 64.8378C43.3107 63.7471 41.6499 63.6476 40.5588 64.607Z" fill="#121213"/>
<path d="M42.3379 66.6217C42.1929 67.3004 42.4393 67.915 42.9003 68.0093C43.3487 68.107 43.8354 67.6363 43.9837 66.9703C44.1287 66.2916 43.8823 65.677 43.4213 65.5827C42.973 65.485 42.4863 65.9557 42.3379 66.6217Z" fill="#F8F8F8"/>
<path d="M41.2592 67.5771C41.0611 67.7527 41.0344 68.0594 41.2134 68.2701C41.389 68.4681 41.6958 68.4948 41.9065 68.3158C42.1046 68.1402 42.1314 67.8335 41.9524 67.6228C41.7733 67.4122 41.47 67.3981 41.2592 67.5771Z" fill="#F8F8F8"/>
<path d="M40.7623 65.3152C40.5735 65.4746 40.5561 65.7652 40.7249 65.9378C40.8844 66.1265 41.175 66.1439 41.3476 65.9751C41.5364 65.8156 41.5539 65.5251 41.3851 65.3525C41.229 65.1765 40.9511 65.1557 40.7623 65.3152Z" fill="#F8F8F8"/>
<path d="M25.2586 146.153C22.781 148.341 22.4563 152.009 24.5314 154.366C26.6066 156.723 30.2942 156.865 32.7752 154.689C35.2528 152.5 35.5775 148.833 33.5024 146.476C31.4238 144.106 27.7362 143.964 25.2586 146.153Z" fill="#F8F8F8"/>
<path d="M33.499 146.462C31.4239 144.105 27.7363 143.963 25.2553 146.139C22.7777 148.328 22.453 151.995 24.5281 154.352C26.6032 156.71 30.2909 156.851 32.7719 154.675C35.2529 152.5 35.5742 148.82 33.499 146.462ZM35.1311 145.031C38.0028 148.278 37.5899 153.344 34.2192 156.316C30.8485 159.288 25.7746 159.055 22.9029 155.809C20.0312 152.562 20.4441 147.496 23.8148 144.524C27.1981 141.548 32.2686 141.769 35.1311 145.031Z" fill="#F8F8F8"/>
<path d="M23.8366 154.974C26.2469 157.718 30.5412 157.888 33.3963 155.38C36.2481 152.86 36.6136 148.583 34.1941 145.855C31.7838 143.111 27.4895 142.941 24.6377 145.461C21.7826 147.969 21.4298 152.243 23.8366 154.974ZM32.8076 147.084C34.5476 149.055 34.2612 152.153 32.1671 153.994C30.0856 155.832 26.9665 155.728 25.2392 153.754C23.4992 151.784 23.7856 148.685 25.8797 146.844C27.9612 145.006 31.0676 145.113 32.8076 147.084Z" fill="#121213"/>
<path d="M26.9435 148.069C25.5756 149.266 25.399 151.301 26.5503 152.599C27.6888 153.9 29.7258 153.981 31.0904 152.771C32.4583 151.574 32.6348 149.539 31.4835 148.241C30.345 146.94 28.308 146.86 26.9435 148.069Z" fill="#121213"/>
<path d="M29.2266 150.643C29.3452 151.442 29.9864 152.005 30.6514 151.895C31.3291 151.782 31.7732 151.05 31.6638 150.235C31.5451 149.437 30.904 148.874 30.239 148.984C29.5646 149.11 29.1079 149.845 29.2266 150.643Z" fill="#F8F8F8"/>
<path d="M28.5742 152.274C28.3194 152.492 28.2842 152.869 28.4989 153.111C28.7135 153.353 29.0838 153.363 29.3385 153.145C29.5933 152.927 29.6285 152.55 29.4139 152.308C29.1992 152.066 28.829 152.056 28.5742 152.274Z" fill="#F8F8F8"/>
<path d="M82.038 139.16C80.0318 140.923 79.7691 143.907 81.4506 145.811C83.132 147.716 86.1206 147.841 88.1234 146.065C90.1295 144.302 90.3923 141.319 88.7108 139.414C87.0293 137.51 84.0441 137.397 82.038 139.16Z" fill="#F8F8F8"/>
<path d="M88.711 139.415C87.0295 137.51 84.041 137.385 82.0382 139.161C80.0321 140.924 79.7693 143.907 81.4508 145.812C83.1322 147.716 86.1208 147.841 88.1236 146.066C90.1297 144.303 90.3959 141.332 88.711 139.415ZM90.343 137.984C92.8118 140.794 92.4667 145.147 89.5709 147.706C86.6751 150.266 82.3037 150.062 79.8222 147.256C77.3534 144.446 77.6985 140.092 80.5943 137.533C83.5027 134.97 87.8742 135.174 90.343 137.984Z" fill="#F8F8F8"/>
<path d="M80.7591 146.432C82.7757 148.723 86.3709 148.876 88.7478 146.769C91.1374 144.659 91.4351 141.094 89.4185 138.803C87.4019 136.511 83.8066 136.358 81.4297 138.466C79.0367 140.563 78.7298 144.144 80.7591 146.432ZM88.0193 140.035C89.3656 141.553 89.1378 143.956 87.5185 145.383C85.8992 146.811 83.4953 146.734 82.1617 145.212C80.8153 143.694 81.0431 141.292 82.6624 139.864C84.2656 138.427 86.6729 138.517 88.0193 140.035Z" fill="#121213"/>
<path d="M83.4072 140.713C82.3068 141.688 82.1586 143.321 83.0825 144.38C84.003 145.427 85.6536 145.488 86.7575 144.525C87.8579 143.55 88.006 141.917 87.0821 140.858C86.1582 139.799 84.5076 139.737 83.4072 140.713Z" fill="#121213"/>
<path d="M85.2483 142.806C85.3422 143.462 85.857 143.909 86.4043 143.817C86.9516 143.725 87.3211 143.122 87.2306 142.479C87.1367 141.824 86.6218 141.376 86.0746 141.468C85.5239 141.548 85.1543 142.151 85.2483 142.806Z" fill="#F8F8F8"/>
<path d="M84.4779 143.844C84.2358 144.059 84.1972 144.423 84.4119 144.665C84.6265 144.907 84.9841 144.92 85.2355 144.689C85.4775 144.475 85.5161 144.11 85.3015 143.868C85.0937 143.652 84.72 143.629 84.4779 143.844Z" fill="#F8F8F8"/>
<path d="M83.4153 142.318C83.2045 142.497 83.1905 142.8 83.3534 143.001C83.529 143.199 83.8289 143.201 84.027 143.025C84.2251 142.849 84.2519 142.543 84.089 142.341C83.9261 142.14 83.6261 142.139 83.4153 142.318Z" fill="#F8F8F8"/>
<path d="M29.5165 127.94C30.6038 127.322 31.456 126.386 32.0776 125.402C32.6959 124.406 33.0769 123.338 33.3621 122.268C33.9163 120.118 34.0173 117.954 33.9404 115.837C33.9347 115.307 33.8748 114.779 33.8403 114.244L33.6675 112.684C33.5452 111.668 33.461 110.642 33.4022 109.61C33.3596 108.587 33.3008 107.554 33.3217 106.514C33.3171 105.481 33.4406 104.467 33.3589 103.4C33.277 103.654 33.2078 103.904 33.1674 104.159C33.1143 104.419 33.0612 104.678 33.0208 104.934C32.94 105.446 32.8754 105.967 32.8234 106.484C32.7068 107.523 32.6478 108.573 32.6142 109.617C32.5806 110.661 32.5886 111.707 32.638 112.755L32.6864 114.308C32.6886 114.825 32.7002 115.325 32.6737 115.836C32.6056 117.869 32.3367 119.915 31.7042 121.772C31.3943 122.7 30.9784 123.587 30.442 124.33C29.9056 125.072 29.2488 125.67 28.4892 126.037L29.5165 127.94Z" fill="#121213"/>
<path d="M18.3621 127.376L17.2058 129.973C17.2058 129.973 22.0522 135.1 29.4143 131.929C24.2689 132.954 21.9104 131.775 19.3277 129.404C19.3277 129.404 21.9249 131.118 24.6138 131.446C22.0624 130.564 18.3621 127.376 18.3621 127.376Z" fill="#F8F8F8"/>
<path d="M-3.39746 140.394C11.0207 156.747 37.6586 173.065 69.8829 170.489L70.243 170.46L106.144 138.814L96.1786 127.49L95.4748 127.76C95.4367 127.77 91.3527 129.3 85.7174 129.462C78.9214 129.663 69.2433 127.9 61.684 118.341C56.5141 111.803 53.6068 103.189 53.0071 92.7176C52.3225 80.6081 55.0023 69.7209 56.856 65.7119C57.3488 64.6542 57.8983 63.554 58.5012 62.3987C60.2961 58.882 62.1527 55.2398 62.5647 51.6444C63.0514 47.3619 61.2717 43.9726 57.2621 41.5619C53.3526 39.2197 49.1773 38.7321 45.1839 40.1425C40.296 41.8742 35.9883 46.4318 33.9636 52.0385C26.4211 72.8323 27.306 99.7675 29.0172 112.405C30.1535 120.813 30.0035 125.387 28.5714 125.988L28.4511 126.048C26.9058 126.938 24.0736 125.669 20.2664 122.387C16.7085 119.324 13.0265 115.138 10.3304 112.089L9.9792 111.693C5.95283 107.136 1.8196 104.772 -2.31364 104.696C-5.57244 104.629 -8.64746 106.011 -11.2347 108.706C-17.406 115.151 -18.5303 122.899 -3.937 139.804C-3.75209 139.986 -3.57308 140.196 -3.39746 140.394ZM69.3493 168.344C37.7026 170.739 11.5917 154.457 -2.27618 138.379C-17.3055 120.965 -14.162 114.908 -9.66213 110.204C-7.51077 107.967 -4.99046 106.801 -2.36036 106.859C1.08993 106.928 4.8018 109.092 8.34717 113.124L8.69843 113.52C8.73405 113.552 8.75695 113.586 8.79257 113.618C16.5399 122.405 24.5121 130.711 29.4785 127.95C31.7176 126.956 32.7675 123.911 31.169 112.101C29.4835 99.6605 28.6092 73.1717 36.0115 52.7694C37.8293 47.7627 41.619 43.7115 45.9106 42.194C49.3171 40.9817 52.7636 41.3923 56.1415 43.4277C63.49 47.8297 59.9619 54.7378 56.5606 61.4076C55.9518 62.5917 55.393 63.708 54.8816 64.798C52.9451 69.0061 50.126 80.339 50.833 92.8373C51.456 103.752 54.53 112.784 59.974 119.684C60.3846 120.2 60.7885 120.691 61.2016 121.166C69.1212 130.138 78.84 131.85 85.7699 131.64C90.4324 131.507 94.0341 130.515 95.5129 130.037L103.069 138.617L69.3493 168.344ZM46.8695 153.975C51.9335 159.711 60.7173 160.27 66.4682 155.204C72.2065 150.14 72.7677 141.359 67.7004 135.611C62.6365 129.875 53.8527 129.315 48.1018 134.382C42.3635 139.445 41.8056 148.239 46.8695 153.975ZM66.0718 137.054C70.3392 141.901 69.8729 149.309 65.0243 153.576C60.1757 157.843 52.7655 157.378 48.4982 152.531C44.2308 147.685 44.6971 140.277 49.5457 136.01C54.3816 131.746 61.7952 132.224 66.0718 137.054Z" fill="#121213"/>
<path d="M44.8074 164.22C44.6869 164.838 46.1748 165.665 48.1631 166.071C50.1386 166.481 51.8525 166.321 51.973 165.704C52.0934 165.086 50.6055 164.26 48.6173 163.853C46.6545 163.44 44.9405 163.599 44.8074 164.22Z" fill="#F8F8F8"/>
<path d="M6.81537 102.304L12.3904 108.626L-14.7747 132.568L-20.3497 126.246L6.81537 102.304Z" fill="#F8F8F8"/>
<path d="M2.72416 106.98L1.90759 115.571L10.0481 108.393L6.50958 104.386L2.72416 106.98Z" fill="#121213"/>
<path d="M6.59691 105.779L-16.8343 126.433L-14.5445 129.032L8.88669 108.378L6.59691 105.779ZM6.81586 102.276L12.3905 108.597L-14.7762 132.539L-20.3509 126.218L6.81586 102.276Z" fill="#F8F8F8"/>
<path d="M-21.1653 126.94L-15.5906 133.261C-15.197 133.713 -14.5038 133.759 -14.0544 133.353L13.1124 109.411C13.5653 109.017 13.6111 108.324 13.2047 107.875L7.63005 101.554C7.2364 101.102 6.54327 101.056 6.0938 101.462L-21.0729 125.404C-21.5258 125.798 -21.5589 126.488 -21.1653 126.94ZM-14.6806 131.016L-18.824 126.326L6.71411 103.828L10.8575 108.517L-14.6806 131.016Z" fill="#121213"/>
<path d="M134.939 98.331L141.532 105.808C143.173 104.361 143.011 101.518 141.193 99.4597C139.375 97.4012 136.568 96.8872 134.939 98.331Z" fill="#F8F8F8"/>
<path d="M129.887 95.7912L128.574 99.6826L139.337 111.896L143.365 111.075L143.588 108.143L132.825 95.9298L129.887 95.7912Z" fill="#F8F8F8"/>
<path d="M127.76 100.405L138.522 112.618C138.776 112.904 139.167 113.044 139.555 112.967L143.584 112.146C144.061 112.046 144.418 111.651 144.452 111.165L144.674 108.233C144.691 107.943 144.6 107.654 144.405 107.434L133.643 95.2206C133.448 95.0007 133.181 94.868 132.877 94.854L129.936 94.7028C129.454 94.6822 129.003 94.9801 128.854 95.4419L127.541 99.3333C127.41 99.7087 127.49 100.109 127.76 100.405ZM139.738 110.7L129.801 99.4354L130.653 96.9203L132.31 97.0071L142.48 108.535L142.352 110.19L139.738 110.7Z" fill="#121213"/>
<path d="M132.598 104.269L135.607 107.681L132.933 110.038L129.924 106.626L132.598 104.269Z" fill="#121213"/>
<path d="M134.125 99.053L140.718 106.53C141.111 106.983 141.804 107.028 142.254 106.622C144.335 104.785 144.231 101.246 142.02 98.7346C139.808 96.2234 136.311 95.6764 134.23 97.5138C133.764 97.9108 133.731 98.6004 134.125 99.053ZM141.433 104.065L136.658 98.6466C137.831 98.4003 139.302 98.9591 140.378 100.182C141.455 101.404 141.838 102.935 141.433 104.065Z" fill="#121213"/>
<path d="M134.241 97.5578L135.928 99.4712L131.675 103.219L129.988 101.306L134.241 97.5578Z" fill="#121213"/>
<path d="M136.534 100.137L139.308 103.283L135.055 107.031L132.281 103.885L136.534 100.137Z" fill="#121213"/>
<path d="M142.24 106.547L142.763 107.32L138.023 110.525L137.5 109.752L142.24 106.547Z" fill="#121213"/>
<path d="M44.2038 31.1483L54.1476 30.2944C53.9613 28.1254 51.593 26.5546 48.837 26.7894C46.0937 27.0207 44.0141 28.9665 44.2038 31.1483Z" fill="#F8F8F8"/>
<path d="M39.1379 33.6898L41.4853 37.0632L57.7156 35.682L59.456 31.9621L57.2382 30.0379L41.008 31.419L39.1379 33.6898Z" fill="#F8F8F8"/>
<path d="M40.6714 37.7855C40.9021 38.0367 41.2395 38.1778 41.5742 38.1562L57.8044 36.775C58.1899 36.7398 58.5337 36.4979 58.7002 36.1538L60.4406 32.4339C60.6503 31.9965 60.5362 31.4689 60.1638 31.1467L57.946 29.2225C57.7196 29.0381 57.4339 28.9377 57.1408 28.9618L40.9105 30.3429C40.6174 30.367 40.3421 30.5089 40.1577 30.7353L38.2877 33.0061C37.9814 33.3876 37.9582 33.9111 38.2298 34.3148L40.5772 37.6882C40.6255 37.7161 40.6485 37.7508 40.6714 37.7855ZM57.0031 34.6482L42.025 35.9253L40.5016 33.7469L41.5619 32.4691L56.8712 31.1577L58.1273 32.2369L57.0031 34.6482Z" fill="#121213"/>
<path d="M47.5708 36.5201L52.1055 36.1331L52.4081 39.6837L47.8734 40.0706L47.5708 36.5201Z" fill="#121213"/>
<path d="M43.3861 31.8572C43.4251 31.9012 43.4607 31.9325 43.4998 31.9765C43.7262 32.1608 44.0084 32.2486 44.2889 32.2279L54.2327 31.374C54.8317 31.3224 55.276 30.795 55.2245 30.1962C54.9867 27.4283 52.0782 25.4169 48.7486 25.6965C45.4063 25.9794 42.8858 28.4654 43.1236 31.2332C43.134 31.4755 43.2334 31.6939 43.3861 31.8572ZM52.6765 29.327L45.4887 29.9461C45.9874 28.8595 47.3133 28.0141 48.9349 27.8655C50.5471 27.733 52.0026 28.3368 52.6765 29.327Z" fill="#121213"/>
<path d="M43.1668 31.2442L45.7092 31.027L46.191 36.6737L43.6485 36.8909L43.1668 31.2442Z" fill="#121213"/>
<path d="M46.599 30.9219L50.7798 30.5651L51.261 36.2119L47.0803 36.5687L46.599 30.9219Z" fill="#121213"/>
<path d="M55.1289 30.1634L56.062 30.2032L55.8168 35.9184L54.8837 35.8785L55.1289 30.1634Z" fill="#121213"/>
<path d="M64.1297 166.503C75.7857 162.331 80.8035 163.219 83.0599 164.779C83.612 165.162 84.2874 165.295 84.9422 165.146L106.444 160.011C106.444 160.011 111.385 154.971 112.842 155.275C114.299 155.578 128.764 167.126 131.795 169.541C134.825 171.955 138.227 173.167 146.389 175.827C147.91 180.946 149.056 188.372 141.314 193.632C133.236 195.047 120.861 192.877 113.935 188.117C96.0262 186.844 83.8316 199.627 71.8891 198.307L64.1297 166.503Z" fill="#F8F8F8"/>
<path d="M64.13 166.503C67.6699 165.636 71.2497 164.867 74.7801 164.575C76.539 164.43 78.3015 164.502 79.899 164.823C80.6863 164.966 81.4584 165.154 82.1086 165.497C82.2858 165.599 82.3537 165.649 82.6954 165.857C82.9853 166.024 83.3032 166.144 83.6236 166.221C83.944 166.299 84.2829 166.344 84.6303 166.319C84.8057 166.313 84.965 166.297 85.1301 166.253L85.4927 166.183L90.8311 165.066C92.6118 164.698 94.3958 164.342 96.1662 163.936C99.7139 163.148 103.25 162.269 106.788 161.444L107.185 161.351L107.499 161.049C108.842 159.709 110.325 158.331 111.782 157.315C111.969 157.197 112.139 157.069 112.306 156.984C112.471 156.885 112.642 156.812 112.727 156.775C112.753 156.769 112.778 156.762 112.778 156.762C112.791 156.758 112.791 156.758 112.753 156.769C112.74 156.772 112.727 156.775 112.711 156.766C112.673 156.776 112.644 156.771 112.603 156.768C112.516 156.75 112.504 156.754 112.459 156.739C112.443 156.729 112.697 156.865 112.861 156.971C113.629 157.446 114.439 158.032 115.231 158.596C118.412 160.915 121.539 163.386 124.672 165.827L129.354 169.528C130.146 170.146 130.871 170.768 131.778 171.41C132.653 172.033 133.588 172.573 134.534 173.054C136.423 174.005 138.352 174.699 140.246 175.363C142.152 176.023 144.048 176.645 145.953 177.25L145.012 176.277C145.469 177.829 145.813 179.371 145.954 180.912C146.095 182.454 146.037 183.966 145.675 185.411C145.323 186.84 144.684 188.168 143.772 189.338C142.873 190.505 141.725 191.507 140.464 192.389L141.066 192.146C138.873 192.502 136.581 192.585 134.304 192.474C132.014 192.366 129.731 192.079 127.474 191.636C125.218 191.192 122.999 190.589 120.871 189.811C118.739 189.021 116.681 188.048 114.88 186.815L114.499 186.563L114.071 186.542C110.267 186.322 106.429 186.684 102.764 187.543C100.93 187.966 99.1269 188.504 97.3728 189.124C95.6154 189.731 93.9012 190.449 92.2066 191.189C88.83 192.665 85.6003 194.334 82.3024 195.748C79.0173 197.16 75.604 198.347 71.9191 198.367C73.7065 198.787 75.5986 198.784 77.4557 198.599C77.9208 198.556 78.3791 198.488 78.8501 198.416C79.3016 198.322 79.7692 198.238 80.2207 198.144C81.1331 197.94 82.042 197.724 82.9212 197.448C86.4736 196.373 89.8705 194.973 93.2473 193.701C96.6241 192.428 99.9866 191.255 103.439 190.52C106.879 189.789 110.391 189.529 113.855 189.799L113.042 189.513C115.169 190.944 117.443 192.009 119.767 192.857C122.091 193.704 124.469 194.347 126.88 194.804C129.29 195.261 131.736 195.545 134.184 195.637C136.646 195.726 139.127 195.633 141.611 195.199L141.949 195.136L142.214 194.956C143.689 193.907 145.076 192.678 146.215 191.188C147.342 189.702 148.181 187.952 148.603 186.124C149.039 184.292 149.084 182.429 148.904 180.639C148.724 178.849 148.303 177.124 147.815 175.458L147.605 174.725L146.874 174.485C144.978 173.863 143.098 173.251 141.233 172.593C139.381 171.932 137.551 171.252 135.871 170.422C135.038 170.006 134.245 169.538 133.502 169.002C132.779 168.487 131.989 167.828 131.21 167.206L126.521 163.48C123.382 161.013 120.233 158.562 116.983 156.193C116.157 155.598 115.349 155.025 114.418 154.444C114.16 154.295 113.976 154.168 113.5 153.968C113.337 153.917 113.199 153.858 112.988 153.833C112.888 153.819 112.793 153.817 112.697 153.816C112.617 153.824 112.55 153.828 112.471 153.836C112.311 153.851 112.197 153.882 112.083 153.912C111.956 153.946 111.867 153.97 111.768 154.01C111.398 154.15 111.11 154.296 110.85 154.447C110.591 154.598 110.348 154.758 110.118 154.915C109.213 155.553 108.423 156.213 107.656 156.909C106.889 157.605 106.161 158.29 105.42 159.033L106.131 158.638L100.821 159.911C99.0575 160.343 97.2871 160.749 95.521 161.223C91.9971 162.099 88.5219 163.207 84.9751 164.048L84.6702 164.13C84.6194 164.144 84.5525 164.148 84.5016 164.162C84.3805 164.167 84.272 164.169 84.1534 164.132C84.0347 164.096 83.9287 164.056 83.8253 163.975C83.7863 163.931 83.4861 163.726 83.2792 163.563C82.3845 162.918 81.3783 162.466 80.3605 162.276C79.8486 162.196 79.3436 162.14 78.8428 162.152C78.3353 162.138 77.854 162.172 77.3601 162.209C76.8755 162.23 76.3951 162.318 75.9173 162.364C75.4463 162.436 74.9821 162.533 74.5144 162.617C72.6542 162.993 70.884 163.604 69.1655 164.255C68.7344 164.425 68.3 164.582 67.8723 164.765L66.6087 165.335C65.7686 165.655 64.9429 166.081 64.13 166.503Z" fill="#121213"/>
<path d="M114.466 186.491L113.543 186.248L113.075 186.128C112.928 186.086 112.773 186.018 112.622 185.964L111.701 185.625L110.823 185.193C109.651 184.582 108.534 183.819 107.523 182.892C106.516 181.978 105.579 180.922 104.756 179.781C103.933 178.64 103.207 177.405 102.623 176.091C102.931 177.493 103.41 178.875 104.01 180.199C104.613 181.534 105.365 182.817 106.247 184.024C107.119 185.246 108.191 186.348 109.394 187.332L110.322 188.05L111.321 188.681C111.486 188.787 111.65 188.892 111.828 188.994L112.362 189.26L113.439 189.774L114.466 186.491Z" fill="#121213"/>
<path d="M105.322 186.926C104.859 186.873 104.302 186.778 103.727 186.564C103.442 186.464 103.156 186.363 102.86 186.225C102.568 186.099 102.275 185.973 101.989 185.818C100.824 185.232 99.6824 184.53 98.5784 183.764C97.4743 182.998 96.3821 182.175 95.3465 181.309C94.3076 180.43 93.2873 179.519 92.3956 178.478C93.0604 179.689 93.8802 180.817 94.7312 181.909C95.595 182.998 96.5062 184.061 97.4741 185.081C98.442 186.101 99.4666 187.079 100.595 187.988C100.877 188.226 101.177 188.432 101.468 188.653C101.759 188.875 102.084 189.073 102.413 189.285C103.055 189.698 103.801 190.043 104.668 190.328L105.322 186.926Z" fill="#121213"/>
<path d="M110.176 156.097C111.459 159.007 112.508 162.007 113.157 165.141C113.819 168.272 114.052 171.531 114.164 174.795C114.621 171.569 114.968 168.291 114.861 164.943C114.77 161.605 114.229 158.265 113.438 155.006L110.176 156.097Z" fill="#121213"/>
<path d="M115.921 159.092C116.586 160.302 117.071 161.602 117.278 162.935C117.469 164.258 117.351 165.597 116.722 166.705L116.4 167.281L116.633 167.695C117.104 168.536 117.451 169.477 117.701 170.459C117.95 171.44 118.101 172.461 118.16 173.494C118.219 174.526 118.172 175.573 117.985 176.604C117.811 177.63 117.5 178.653 117.005 179.603C117.632 178.74 118.116 177.753 118.469 176.733C118.819 175.7 119.034 174.621 119.15 173.528C119.265 172.435 119.269 171.332 119.174 170.214C119.066 169.099 118.849 167.986 118.445 166.883L118.353 167.861C118.925 167.149 119.338 166.303 119.598 165.444C119.858 164.585 119.971 163.683 119.982 162.809C120 161.048 119.636 159.335 119.067 157.718L115.921 159.092Z" fill="#121213"/>
<path d="M113.686 177.075C113.247 176.199 112.843 175.504 112.423 174.8L111.14 172.707C110.28 171.276 109.499 169.784 108.51 168.279C108.455 169.192 108.585 170.083 108.791 170.954C108.997 171.824 109.292 172.671 109.688 173.49C110.094 174.294 110.542 175.099 111.21 175.764C111.875 176.417 112.705 176.97 113.686 177.075Z" fill="#121213"/>
<path d="M142.415 176.089C142.863 176.595 143.259 177.564 143.372 178.596C143.514 179.633 143.469 180.735 143.257 181.826C143.059 182.914 142.694 183.992 142.162 185.005C141.643 186.016 140.969 186.959 140.18 187.824L140.86 187.669C139.483 187.357 138.119 186.688 136.829 185.89C135.539 185.092 134.299 184.172 133.143 183.161C134.126 184.341 135.214 185.451 136.398 186.468C137.596 187.481 138.882 188.416 140.436 189.035L140.77 189.163L141.129 188.876C142.153 188.071 143.068 187.118 143.858 186.049C144.647 184.979 145.281 183.788 145.729 182.511C146.176 181.234 146.466 179.877 146.506 178.45C146.519 178.093 146.491 177.733 146.488 177.366C146.444 176.997 146.415 176.637 146.326 176.253C146.179 175.502 145.918 174.728 145.464 173.951L142.415 176.089Z" fill="#121213"/>
<path d="M129.286 168.361C129.689 169.002 129.938 169.929 130.074 170.845C130.211 171.762 130.262 172.715 130.246 173.672C130.23 174.629 130.144 175.578 129.987 176.518C129.843 177.455 129.6 178.378 129.277 179.254L129.176 179.54L129.288 179.755C129.803 180.761 130.368 181.753 130.965 182.709C131.257 183.189 131.587 183.659 131.917 184.128C132.257 184.582 132.6 185.048 132.996 185.459C132.529 184.427 132.112 183.382 131.687 182.352L130.406 179.251L130.418 179.752C130.874 178.813 131.164 177.809 131.396 176.794C131.615 175.783 131.735 174.757 131.759 173.729C131.784 172.702 131.721 171.656 131.542 170.629C131.336 169.609 131.079 168.548 130.3 167.572L129.286 168.361Z" fill="#121213"/>
<path d="M137.603 174.192C139.781 175.052 141.443 176.376 139.69 177.812C137.937 179.249 134.026 178.527 133.394 177.947C132.762 177.368 130.759 170.349 130.759 170.349L131.358 169.181L137.603 174.192Z" fill="#121213"/>
<path d="M136.882 182.377C136.42 183.399 134.506 182.047 133.603 181.322C132.71 180.581 132.597 179.7 132.778 179.461C133.13 178.999 137.18 181.712 136.882 182.377Z" fill="#121213"/>
<path d="M115.399 125.022C127.74 132.756 140.475 140.847 146.322 144.575L147.272 144.103C147.336 144.495 147.419 144.908 147.506 145.334C149.454 154.586 155.928 171.379 163.346 173.244C168.748 174.601 172.593 172.128 174.423 170.521C175.215 169.819 175.628 169.273 175.628 169.273C175.628 169.273 175.296 166.258 174.733 162.175C173.689 154.518 171.893 143.087 170.075 140.621C167.293 136.846 141.265 118.84 139.152 119.188C137.039 119.537 135.593 120.441 132.896 121.355C130.628 122.139 122.879 123.562 115.399 125.022Z" fill="#F8F8F8"/>
<path d="M165.929 174.702C170.335 174.883 173.5 172.769 175.142 171.322C176 170.561 176.478 169.956 176.497 169.924L176.759 169.581L176.71 169.145C176.703 169.12 176.365 166.079 175.825 162.031C174.118 149.461 172.485 142.043 170.967 139.986C169.357 137.79 161.358 131.874 155.002 127.465C151.305 124.902 147.786 122.592 145.068 120.938C140.149 117.927 139.458 118.044 139.003 118.125C137.556 118.363 136.427 118.829 135.116 119.371C134.342 119.687 133.556 120.006 132.573 120.351C130.765 120.972 125.145 122.056 119.201 123.199C117.881 123.458 116.532 123.71 115.2 123.972L112.522 124.499L114.831 125.949C126.81 133.453 139.349 141.42 145.75 145.49L146.26 145.817L146.5 145.698C148.318 154.209 154.717 172.193 163.099 174.303C164.085 174.529 165.032 174.657 165.929 174.702ZM174.514 168.93C174.336 169.128 174.069 169.404 173.717 169.716C172.067 171.179 168.56 173.439 163.625 172.202C157.201 170.588 150.757 155.434 148.577 145.114C148.494 144.701 148.414 144.3 148.341 143.925L148.1 142.519L146.404 143.355C140.283 139.468 129.234 132.436 118.299 125.578C118.738 125.488 119.18 125.41 119.619 125.32C125.901 124.113 131.326 123.068 133.284 122.394C134.318 122.035 135.189 121.679 135.937 121.369C137.138 120.871 138.095 120.478 139.253 120.277C141.94 120.85 166.422 137.46 169.23 141.282C169.812 142.079 171.433 145.742 173.686 162.332C174.105 165.419 174.396 167.928 174.514 168.93Z" fill="#121213"/>
<path d="M175.745 169.813C175.22 168.211 174.401 166.729 173.516 165.305C172.63 163.882 171.679 162.516 170.646 161.201C169.615 159.897 168.491 158.647 167.262 157.519C166.038 156.405 164.674 155.381 163.148 154.769C164.551 155.632 165.684 156.812 166.71 158.049C167.739 159.298 168.642 160.635 169.475 162.018C170.309 163.401 171.07 164.817 171.745 166.27C172.42 167.722 173.019 169.195 173.729 170.625L175.745 169.813Z" fill="#121213"/>
<path d="M175.789 163.525C175.486 161.578 174.915 159.702 174.157 157.89C173.39 156.095 172.47 154.34 171.161 152.758C170.826 152.371 170.466 151.991 170.058 151.638C169.637 151.287 169.169 150.964 168.565 150.744C167.987 150.518 167.142 150.513 166.529 150.868C165.909 151.197 165.554 151.701 165.28 152.155C164.744 153.102 164.499 154.066 164.336 155.036C164.174 156.005 164.12 156.972 164.174 157.938C164.488 157.024 164.824 156.144 165.18 155.286C165.539 154.441 165.952 153.595 166.462 152.955C166.718 152.641 167.004 152.388 167.242 152.31C167.366 152.264 167.458 152.253 167.57 152.263C167.624 152.262 167.685 152.287 167.755 152.295C167.82 152.333 167.89 152.341 167.955 152.378C168.54 152.63 169.163 153.28 169.676 153.973C170.73 155.365 171.555 157.022 172.279 158.707C173.003 160.392 173.606 162.136 174.092 163.898L175.789 163.525Z" fill="#121213"/>
<path d="M175.012 156.709C174.553 155.81 174.082 154.916 173.56 154.035C173.054 153.163 172.497 152.305 171.896 151.485C171.295 150.666 170.647 149.873 169.902 149.175C169.169 148.473 168.329 147.881 167.426 147.456C168.245 148.026 168.928 148.741 169.493 149.529C170.071 150.314 170.544 151.167 170.967 152.034C171.381 152.917 171.769 153.807 172.084 154.729C172.425 155.645 172.715 156.575 173.005 157.505L175.012 156.709Z" fill="#121213"/>
<path d="M141.679 141.885C141.46 141.576 141.181 141.297 140.855 141.044C143.444 137.696 148.888 136.006 148.888 136.006C148.888 136.006 150.604 132.959 153.394 131.477C148.512 137.604 149.489 142.216 149.489 142.216C149.489 142.216 150.205 140.771 150.953 140.462C150.403 143.441 151.162 152.168 156.906 161.356C156.909 161.369 156.922 161.366 156.925 161.378C156.744 160.855 156.576 160.328 156.408 159.802C155.607 157.171 154.972 154.496 154.551 151.804C154.142 149.11 153.908 146.355 154.191 143.651C154.157 146.369 154.642 149.044 155.285 151.649C155.945 154.263 157.075 156.601 158.096 159.091C158.954 161.175 160.926 164.417 162.341 166.748C161.3 164.998 160.429 163.271 159.792 161.25C158.865 158.503 158.394 156.288 157.742 153.958C157.094 151.64 156.633 149.259 156.514 146.881C156.914 149.238 157.657 151.503 158.555 153.686C159.465 155.865 160.547 157.971 161.739 159.979C162.947 161.997 164.268 163.93 165.731 165.73C165.959 166.023 166.197 166.3 166.438 166.589C165.82 165.706 165.224 164.804 164.619 163.918C162.208 160.358 159.678 154.27 158.824 150.115C160.174 154.137 162.442 157.722 165.145 160.85C166.505 162.419 167.972 163.877 169.532 165.229C171.093 166.58 172.735 167.829 174.444 168.923L174.008 169.53L174.545 169.808L174.394 170.515C172.775 171.943 169.591 174.035 165.132 173.555L165.025 173.665C164.55 173.52 164.058 173.462 163.558 173.527C163.466 173.539 163.339 173.573 163.196 173.597C163.052 173.418 162.909 173.239 162.765 173.059C155.258 170.401 148.808 152.785 147.255 144.094L145.727 144.844C145.594 144.702 145.464 144.574 145.305 144.439C144.188 143.473 142.959 142.645 141.679 141.885Z" fill="#121213"/>
<path d="M138.892 120.047L145.712 124.917L140.349 118.472L138.892 120.047Z" fill="#121213"/>
<path d="M168.811 137.991C168.13 137.888 167.374 137.709 166.653 137.508C165.919 137.309 165.194 137.095 164.485 136.836C163.044 136.337 161.639 135.72 160.271 134.984C161.43 136.007 162.678 136.953 164.01 137.807C164.668 138.23 165.348 138.633 166.05 139.017C166.764 139.397 167.443 139.746 168.24 140.077L168.811 137.991Z" fill="#121213"/>
<path d="M126.118 131.938C125.984 130.83 125.918 129.718 125.954 128.633C126.011 127.12 126.19 125.602 126.626 124.178C126.587 125.659 126.812 127.109 127.136 128.52C127.414 129.712 127.813 130.844 128.293 131.926C128.415 130.396 128.696 128.905 129.116 127.472C129.557 126.02 130.101 124.594 130.894 123.334C130.471 124.754 130.333 126.221 130.283 127.663C130.247 129.102 130.373 130.539 130.641 131.896C130.795 132.672 131.008 133.418 131.26 134.154C131.455 133.257 131.712 132.385 132.001 131.532C132.589 129.863 133.347 128.272 134.26 126.802C135.174 125.332 136.268 123.977 137.535 122.861C136.556 124.24 135.861 125.76 135.338 127.316C134.815 128.872 134.481 130.472 134.323 132.067C134.165 133.661 134.182 135.249 134.427 136.722C134.456 136.932 134.51 137.135 134.552 137.342C133.247 136.589 131.946 135.849 130.657 135.105C129.098 134.066 127.622 132.978 126.118 131.938Z" fill="#121213"/>
<path d="M106.63 145.354L106.646 142.26L121.782 128.92L132.282 130.191L145.682 145.387L106.63 145.354Z" fill="#121213"/>
<path d="M115.159 135.926L117.589 143.405L116.701 143.693L114.271 136.215L115.159 135.926Z" fill="#F8F8F8"/>
<path d="M119.733 141.245L116.132 135.076L119.987 131.674L126.267 135.492L119.733 141.245Z" fill="#F8F8F8"/>
<path d="M115.073 145.352L116.318 144.256L117.294 145.356L115.073 145.352Z" fill="#F8F8F8"/>
<path d="M123.369 145.362L119.733 141.245L121.132 140.012L125.848 145.365L123.369 145.362Z" fill="#F8F8F8"/>
<path d="M139.007 145.378L128.537 133.494L129.228 132.874L140.257 145.37L139.007 145.378Z" fill="#F8F8F8"/>
<path d="M127.265 145.366L121.928 139.323L126.113 135.628L134.715 145.371L127.265 145.366Z" fill="#F8F8F8"/>
<path d="M135.207 145.376L141.099 140.176L142.12 141.345L137.548 145.374L135.207 145.376Z" fill="#F8F8F8"/>
<path d="M142.37 145.376L131.045 132.537L120.783 130.985L114.803 136.263L108.687 141.645L108.822 145.352L106.63 145.354L106.646 142.26L114.214 135.59L121.782 128.92L132.282 130.191L145.682 145.387L142.37 145.376Z" fill="#F8F8F8"/>
<path d="M144.236 145.379L131.741 131.221L122.13 130.066L107.732 142.759L107.718 145.349L105.539 145.347L105.559 141.762L121.425 127.791L132.823 129.161L147.137 145.378L144.236 145.379Z" fill="#121213"/>
<path d="M113.427 145.357L131.572 129.373L133.004 131.004L116.71 145.363L113.427 145.357Z" fill="#121213"/>
<path d="M137.29 145.375L142.006 141.225L143.45 142.853L140.573 145.38L137.29 145.375Z" fill="#121213"/>
<path d="M52.9927 159.346L50.1503 161.088L50.2245 159.23L52.9927 159.346Z" fill="#F8F8F8"/>
<path d="M54.9467 159.421L50.089 162.384L50.1954 159.782L51.0388 159.27L54.9467 159.421Z" fill="#121213"/>
<path d="M79.9721 160.421L69.7941 169.396C62.9273 169.943 56.2468 169.61 49.8544 168.572L50.2245 159.23L79.9721 160.421Z" fill="#F8F8F8"/>
<path d="M52.3607 159.325C53.81 159.753 55.4262 160.041 57.2658 160.148L55.2358 167.158C55.2358 167.158 53.204 167.199 49.9178 166.827L50.2245 159.23L52.3607 159.325Z" fill="#121213"/>
<path d="M75.5819 160.25L74.985 162.138L73.0263 163.875L73.8068 160.181L75.5819 160.25Z" fill="#121213"/>
<path d="M61.3483 159.68L72.5264 160.129L70.5707 166.044L68.2471 168.096L57.4329 168.04L59.8261 160.047C59.81 160.038 60.4276 159.954 61.3483 159.68Z" fill="#121213"/>
<path d="M68.6448 166.682L75.927 160.266L79.9722 160.421L69.7942 169.397C62.9274 169.943 56.2469 169.61 49.8545 168.572L49.97 165.751C56.1582 166.788 62.4396 167.106 68.6448 166.682Z" fill="#F8F8F8"/>
<path d="M69.3492 168.345L78.4048 160.365L81.5433 160.49L70.2268 170.452L69.8667 170.48C62.8949 171.041 56.1729 170.705 49.7873 169.693L49.8687 167.507C56.0755 168.512 62.5807 168.852 69.3492 168.345Z" fill="#121213"/>
<path d="M50.0278 164.238C51.273 164.666 52.0836 165.252 51.9893 165.713C51.8974 166.133 51.0808 166.338 49.9539 166.299L50.0278 164.238Z" fill="#F8F8F8"/>
</g>
</svg>
