<svg width="74" height="74" viewBox="0 0 74 74" fill="none" xmlns="http://www.w3.org/2000/svg">
<path d="M45.8565 24.5313C46.3869 23.784 47.0638 22.8058 47.7678 21.7252C49.3437 19.3062 50.9853 16.4777 51.4953 14.5689C52.0298 12.5684 52.552 10.3882 53.0338 8.16635L47.8001 6.75998C47.1095 8.92578 46.4748 11.0757 45.9403 13.0762C45.4303 14.985 45.4417 18.2577 45.6004 21.1428C45.6713 22.4316 45.7699 23.6182 45.8565 24.5313Z" fill="#121213" stroke="white" stroke-width="1.40256"/>
<path d="M42.183 1.32249L41.2416 1.06952L41.3023 2.04284L41.8519 10.855L41.8834 11.3588L42.3706 11.4897L55.3767 14.9846L55.864 15.1155L56.1423 14.695L61.0119 7.33906L61.5498 6.52658L60.6084 6.27361L42.183 1.32249Z" fill="#121213" stroke="white" stroke-width="1.40256"/>
<path d="M6.93164 56.0866L6.43986 55.5867L6.00131 56.0181L6.37189 56.5091L6.93164 56.0866ZM36.2431 71.9598L36.2113 72.6604L36.2431 71.9598ZM64.3821 57.2624L64.9505 57.6732L65.2919 57.2008L64.8899 56.7788L64.3821 57.2624ZM36.2431 42.565L36.2632 41.864L36.2431 42.565ZM6.37189 56.5091C10.3766 61.8153 14.6782 65.7178 19.574 68.3625C24.4713 71.0079 29.9268 72.375 36.2113 72.6604L36.2749 71.2593C30.1629 70.9817 24.9208 69.6566 20.2406 67.1284C15.5588 64.5994 11.4029 60.8469 7.4914 55.6642L6.37189 56.5091ZM36.2113 72.6604C42.828 72.9609 48.3102 71.5916 53.0017 68.9397C57.6852 66.2923 61.543 62.3881 64.9505 57.6732L63.8137 56.8516C60.482 61.4617 56.7653 65.2011 52.3115 67.7187C47.8658 70.2317 42.648 71.5487 36.2749 71.2593L36.2113 72.6604ZM64.8899 56.7788C60.2664 51.9242 56.2685 48.275 51.8393 45.8024C47.392 43.3197 42.5496 42.0445 36.2632 41.864L36.223 43.2659C42.3216 43.4411 46.936 44.6715 51.1557 47.0271C55.3934 49.3928 59.2726 52.9144 63.8743 57.7461L64.8899 56.7788ZM36.2632 41.864C29.8562 41.68 24.6292 42.9022 19.8747 45.2925C15.1335 47.6761 10.8933 51.2059 6.43986 55.5867L7.42342 56.5866C11.8375 52.2445 15.9557 48.8326 20.5047 46.5456C25.0403 44.2654 30.0353 43.0882 36.223 43.2659L36.2632 41.864Z" fill="white"/>
<mask id="mask0_3125_23857" style="mask-type:alpha" maskUnits="userSpaceOnUse" x="6" y="42" width="59" height="30">
<path d="M36.2431 71.9598C23.8467 71.3968 14.8478 66.5755 6.93164 56.0866C15.7992 47.3638 23.6484 42.2032 36.2431 42.565C48.6281 42.9207 55.1568 47.5762 64.3821 57.2624C57.643 66.5873 49.2329 72.5498 36.2431 71.9598Z" fill="#FF0000"/>
</mask>
<g mask="url(#mask0_3125_23857)">
<ellipse cx="36.2432" cy="51.9713" rx="15.8282" ry="15.8732" stroke="white" stroke-width="1.40256"/>
<ellipse cx="36.2434" cy="53.1471" rx="6.44852" ry="6.46688" stroke="white" stroke-width="1.40256"/>
</g>
<path d="M68.8514 32.0924C70.0243 32.4239 68.8514 36.584 67.679 36.2077C67.1773 36.0467 66.6641 35.8934 66.14 35.7476L66.9964 31.5736C67.6076 31.7427 68.2258 31.9156 68.8514 32.0924Z" fill="white"/>
<path d="M43.8633 33.683L45.0357 27.0438C46.0044 27.1402 46.9805 27.2558 47.9669 27.3901L46.7944 33.6027C45.8229 33.6148 44.8451 33.6416 43.8633 33.683Z" fill="white"/>
<path d="M49.7256 33.6116L51.0711 27.8675C51.9791 28.0225 52.8977 28.192 53.8292 28.3757L52.6567 33.7151C51.6905 33.6646 50.7126 33.6302 49.7256 33.6116Z" fill="white"/>
<path d="M55.0016 33.8713L56.1741 28.8617C57.0485 29.0513 57.9351 29.2525 58.8355 29.465L57.9328 34.1674C56.9727 34.0507 55.9947 33.952 55.0016 33.8713Z" fill="white"/>
<path d="M60.4996 34.5299L61.4502 30.1033C62.4102 30.3451 63.3867 30.5985 64.3813 30.8633L63.4791 35.0917C62.5135 34.8821 61.5191 34.6949 60.4996 34.5299Z" fill="white"/>
<mask id="path-8-inside-1_3125_23857" fill="white">
<path d="M12.5737 40.323C2.60828 45.0259 1.18933 36.2123 9.05634 32.6803C22.2096 27.8183 32.1447 26.1366 42.6911 26.8477L41.5187 33.8091C31.264 34.4791 20.768 36.7106 12.5737 40.323Z"/>
</mask>
<path d="M9.05634 32.6803L8.57005 31.3648L8.52535 31.3813L8.48189 31.4008L9.05634 32.6803ZM12.5737 40.323L12.0079 39.0396L11.9914 39.0469L11.9751 39.0546L12.5737 40.323ZM42.6911 26.8477L44.0742 27.0807L44.3316 25.5526L42.7855 25.4484L42.6911 26.8477ZM41.5187 33.8091L41.6101 35.2087L42.7174 35.1364L42.9017 34.0421L41.5187 33.8091ZM8.48189 31.4008C6.30677 32.3773 4.69659 33.7532 3.712 35.2579C2.74084 36.7422 2.32348 38.456 2.78444 39.9927C3.27099 41.6147 4.6357 42.705 6.49755 42.9954C8.29223 43.2752 10.5456 42.831 13.1723 41.5914L11.9751 39.0546C9.61908 40.1665 7.95808 40.3841 6.92977 40.2237C5.96863 40.0739 5.60178 39.6218 5.47128 39.1868C5.3152 38.6664 5.39533 37.8086 6.05929 36.7938C6.70982 35.7996 7.87241 34.7493 9.63079 33.9598L8.48189 31.4008ZM42.7855 25.4484C31.9928 24.7206 21.8565 26.4535 8.57005 31.3648L9.54263 33.9959C22.5628 29.183 32.2966 27.5526 42.5968 28.2471L42.7855 25.4484ZM13.1395 41.6064C21.1478 38.076 31.4748 35.8709 41.6101 35.2087L41.4272 32.4095C31.0532 33.0873 20.3882 35.3453 12.0079 39.0396L13.1395 41.6064ZM41.308 26.6148L40.1356 33.5762L42.9017 34.0421L44.0742 27.0807L41.308 26.6148Z" fill="white" mask="url(#path-8-inside-1_3125_23857)"/>
</svg>
