<svg width="72" height="72" viewBox="0 0 72 72" fill="none" xmlns="http://www.w3.org/2000/svg">
<rect width="72" height="72" fill="#F8133C"/>
<path opacity="0.35" d="M47.3482 58.6965H24.6517C20.8909 58.6965 17.8428 55.6484 17.8428 51.8876V20.1125C17.8428 16.3517 20.8909 13.3035 24.6517 13.3035H47.3482C51.109 13.3035 54.1572 16.3517 54.1572 20.1125V51.8876C54.1572 55.6484 51.109 58.6965 47.3482 58.6965Z" fill="white"/>
<path d="M45.0787 20.1125H26.9215C25.6687 20.1125 24.6519 21.1293 24.6519 22.3821V24.6518C24.6519 25.9046 25.6687 26.9214 26.9215 26.9214H45.0787C46.3316 26.9214 47.3484 25.9046 47.3484 24.6518V22.3821C47.3484 21.1293 46.3316 20.1125 45.0787 20.1125Z" fill="white"/>
<path d="M36.0001 36.0001C37.2536 36.0001 38.2698 34.9839 38.2698 33.7304C38.2698 32.4769 37.2536 31.4608 36.0001 31.4608C34.7466 31.4608 33.7305 32.4769 33.7305 33.7304C33.7305 34.9839 34.7466 36.0001 36.0001 36.0001Z" fill="white"/>
<path d="M45.0785 36.0001C46.332 36.0001 47.3481 34.9839 47.3481 33.7304C47.3481 32.4769 46.332 31.4608 45.0785 31.4608C43.825 31.4608 42.8088 32.4769 42.8088 33.7304C42.8088 34.9839 43.825 36.0001 45.0785 36.0001Z" fill="white"/>
<path d="M26.9215 36.0001C28.175 36.0001 29.1912 34.9839 29.1912 33.7304C29.1912 32.4769 28.175 31.4608 26.9215 31.4608C25.668 31.4608 24.6519 32.4769 24.6519 33.7304C24.6519 34.9839 25.668 36.0001 26.9215 36.0001Z" fill="white"/>
<path d="M36.0001 45.0786C37.2536 45.0786 38.2698 44.0624 38.2698 42.809C38.2698 41.5555 37.2536 40.5393 36.0001 40.5393C34.7466 40.5393 33.7305 41.5555 33.7305 42.809C33.7305 44.0624 34.7466 45.0786 36.0001 45.0786Z" fill="white"/>
<path d="M36.0001 54.1572C37.2536 54.1572 38.2698 53.1411 38.2698 51.8876C38.2698 50.6341 37.2536 49.6179 36.0001 49.6179C34.7466 49.6179 33.7305 50.6341 33.7305 51.8876C33.7305 53.1411 34.7466 54.1572 36.0001 54.1572Z" fill="white"/>
<path d="M26.9215 45.0786C28.175 45.0786 29.1912 44.0624 29.1912 42.809C29.1912 41.5555 28.175 40.5393 26.9215 40.5393C25.668 40.5393 24.6519 41.5555 24.6519 42.809C24.6519 44.0624 25.668 45.0786 26.9215 45.0786Z" fill="white"/>
<path d="M26.9215 54.1572C28.175 54.1572 29.1912 53.1411 29.1912 51.8876C29.1912 50.6341 28.175 49.6179 26.9215 49.6179C25.668 49.6179 24.6519 50.6341 24.6519 51.8876C24.6519 53.1411 25.668 54.1572 26.9215 54.1572Z" fill="white"/>
<path d="M47.3481 51.8876C47.3481 51.4654 47.3481 43.2311 47.3481 42.809C47.3481 41.5561 46.3313 40.5393 45.0785 40.5393C43.8256 40.5393 42.8088 41.5561 42.8088 42.809C42.8088 43.2311 42.8088 51.4654 42.8088 51.8876C42.8088 53.1404 43.8256 54.1572 45.0785 54.1572C46.3313 54.1572 47.3481 53.1404 47.3481 51.8876Z" fill="white"/>
</svg>
