<svg width="72" height="72" viewBox="0 0 72 72" fill="none" xmlns="http://www.w3.org/2000/svg">
<rect width="72" height="72" fill="#F8133C"/>
<path opacity="0.35" d="M51.9532 20.0467H49.1044C47.3108 20.0467 45.622 19.2034 44.5463 17.7676C43.4706 16.3318 41.7818 15.4886 39.9882 15.4886H32.0116C30.218 15.4886 28.5292 16.3318 27.4535 17.7676C26.3778 19.2034 24.689 20.0467 22.8954 20.0467H20.0466C16.2702 20.0467 13.2095 23.1074 13.2095 26.8838V49.6742C13.2095 53.4506 16.2702 56.5114 20.0466 56.5114H51.9532C55.7296 56.5114 58.7903 53.4506 58.7903 49.6742V26.8838C58.7903 23.1074 55.7296 20.0467 51.9532 20.0467Z" fill="white"/>
<path d="M35.9997 49.6742C42.2931 49.6742 47.3949 44.5724 47.3949 38.279C47.3949 31.9856 42.2931 26.8838 35.9997 26.8838C29.7063 26.8838 24.6045 31.9856 24.6045 38.279C24.6045 44.5724 29.7063 49.6742 35.9997 49.6742Z" fill="white"/>
<path d="M51.9534 29.1628C53.212 29.1628 54.2324 28.1425 54.2324 26.8838C54.2324 25.6251 53.212 24.6047 51.9534 24.6047C50.6947 24.6047 49.6743 25.6251 49.6743 26.8838C49.6743 28.1425 50.6947 29.1628 51.9534 29.1628Z" fill="white"/>
</svg>
