<svg width="32" height="32" viewBox="0 0 32 32" fill="none" xmlns="http://www.w3.org/2000/svg">
<rect width="32" height="32" fill="#121213"/>
<path d="M4.88713 7.30282L6.10649 8.64036C5.80592 8.911 5.51791 9.22848 5.30227 9.6019C4.39563 11.1719 4.66725 13.0827 5.85237 14.3325L10.0866 7L11.6483 7.90148L10.8446 9.29331L12.7798 10.4104L13.2698 9.56168L17.6155 12.0702L15.7336 15.3291L11.388 12.8206L11.878 11.9719L9.94287 10.8549L8.33542 13.6385L10.2706 14.7556L10.7607 13.9069L15.1063 16.4154L13.2244 19.6743L8.87876 17.1658L9.36884 16.3171L7.43368 15.2001L6.13988 17.4406L13.8126 21.8696L15.4468 19.0788L18.2109 14.2922L20.262 10.701L21.8237 11.6025L19.7654 15.167L24.4166 17.8518L25.1707 18.3097L24.2297 19.9392L25.6485 20.7355L29 23.7112L24.7467 22.297L23.3476 21.4668L22.4066 23.0962L21.633 22.6723L16.9818 19.9874L14.9235 23.5518L14.4654 24.3059L13.6917 23.8819L4.45729 18.5514L3.70321 18.0935L4.1273 17.3199L4.92385 15.9013C2.92297 14.1239 2.38515 11.126 3.77451 8.72002C4.08326 8.18535 4.44742 7.69682 4.88713 7.30282ZM18.8637 16.7285L17.8835 18.4259L21.761 20.6867L22.7608 18.9554L18.8637 16.7285Z" fill="#F8133C"/>
</svg>
