<svg width="72" height="72" viewBox="0 0 72 72" fill="none" xmlns="http://www.w3.org/2000/svg">
<rect width="72" height="72" fill="#F8133C"/>
<path opacity="0.35" d="M51.2999 18H21.5999C20.1095 18 18.8999 19.2096 18.8999 20.7V51.3C18.8999 52.7904 20.1095 54 21.5999 54C23.0903 54 24.2999 52.7904 24.2999 51.3C24.2999 51.0084 24.2999 45.7092 24.2999 39.6H51.2999C52.2935 39.6 53.0999 38.7936 53.0999 37.8V19.8C53.0999 18.8064 52.2935 18 51.2999 18Z" fill="white"/>
<path d="M24.3005 39.5999H31.5005V32.3999H24.3005V39.5999Z" fill="white"/>
<path d="M24.3005 25.2001H31.5005V18.0001H24.3005V25.2001Z" fill="white"/>
<path d="M31.5002 32.4001H38.7002V25.2001H31.5002V32.4001Z" fill="white"/>
<path d="M38.6999 39.5999H45.8999V32.3999H38.6999V39.5999Z" fill="white"/>
<path d="M38.6999 25.2001H45.8999V18.0001H38.6999V25.2001Z" fill="white"/>
<path d="M45.8996 32.4001H53.0996V25.2001H45.8996V32.4001Z" fill="white"/>
</svg>
