<svg width="74" height="74" viewBox="0 0 74 74" fill="none" xmlns="http://www.w3.org/2000/svg">
<path d="M23.297 33.9709L23.9188 34.607L24.1866 34.3453V33.9709H23.297ZM37.6067 6.62272L38.2337 7.25367L38.2337 7.25364L37.6067 6.62272ZM43.1104 12.6393L43.7051 13.3008L43.7051 13.3008L43.1104 12.6393ZM54.6681 2.24701L54.3884 1.40261L54.2117 1.46113L54.0734 1.58555L54.6681 2.24701ZM59.0711 6.62272L59.6981 7.25367L59.7224 7.22957L59.7447 7.20369L59.0711 6.62272ZM65.1252 12.6393L64.5483 11.9622L64.5224 11.9843L64.4981 12.0084L65.1252 12.6393ZM69.5281 18.109L70.1552 18.7399L70.233 18.6626L70.2897 18.5687L69.5281 18.109ZM69.5281 26.8604L70.1552 27.4913L70.1552 27.4913L69.5281 26.8604ZM49.7148 46.5511L50.1106 47.3477L50.2397 47.2836L50.3419 47.182L49.7148 46.5511ZM43.1104 49.8329L42.7145 49.0363L42.5823 49.102L42.4784 49.2069L43.1104 49.8329ZM33.9858 20.8438L33.391 20.1823L33.391 20.1823L33.9858 20.8438ZM25.6941 18.4615L25.0671 17.8306L25.0504 17.8472L25.0346 17.8647L25.6941 18.4615ZM23.297 24.3027L22.4075 24.294V24.3027H23.297ZM6.51073 50.3798L5.88888 49.7437L5.88173 49.7509L6.51073 50.3798ZM25.7737 67.3357L26.4027 67.9647L26.4057 67.9617L25.7737 67.3357ZM38.2337 7.25364C38.6579 6.83205 39.2172 6.70584 39.896 6.85911C40.5981 7.01763 41.364 7.47192 41.9933 8.11439C42.6238 8.75804 43.0423 9.51345 43.1521 10.202C43.255 10.8474 43.0975 11.4546 42.5156 11.9779L43.7051 13.3008C44.7743 12.3394 45.0984 11.1104 44.909 9.92192C44.7264 8.77666 44.0785 7.70068 43.2642 6.86945C42.4489 6.03704 41.3917 5.37296 40.2878 5.12372C39.1608 4.86924 37.9313 5.04587 36.9796 5.9918L38.2337 7.25364ZM43.7051 13.3008L55.2629 2.90848L54.0734 1.58555L42.5156 11.9779L43.7051 13.3008ZM54.9479 3.09141C56.3099 2.64016 57.1503 3.00403 57.637 3.57572C58.1769 4.20983 58.434 5.27998 58.1991 6.44722L59.9432 6.79822C60.2586 5.23069 59.9653 3.56597 58.9916 2.4224C57.9649 1.21642 56.3286 0.75982 54.3884 1.40261L54.9479 3.09141ZM65.4538 13.4659C66.3405 13.1134 67.4719 13.5151 68.2928 14.5058C69.1031 15.4836 69.3335 16.7102 68.7666 17.6492L70.2897 18.5687C71.3739 16.7727 70.7787 14.7174 69.6627 13.3706C68.5573 12.0367 66.6617 11.0711 64.7965 11.8127L65.4538 13.4659ZM68.9011 17.478L65.0485 21.3065L66.3026 22.5684L70.1552 18.7399L68.9011 17.478ZM68.9011 26.2294L49.0878 45.9202L50.3419 47.182L70.1552 27.4913L68.9011 26.2294ZM49.319 45.7545L42.7145 49.0363L43.5062 50.6295L50.1106 47.3477L49.319 45.7545ZM42.5156 11.9779L33.391 20.1823L34.5806 21.5053L43.7051 13.3008L42.5156 11.9779ZM33.391 20.1823L30.9578 22.3702L32.1473 23.6931L34.5806 21.5053L33.391 20.1823ZM33.1093 20.9956C33.6609 24.18 33.852 26.4419 33.6616 28.407C33.4732 30.3517 32.9058 32.0569 31.8603 34.115L33.4464 34.9208C34.5622 32.7244 35.2169 30.8025 35.4324 28.5786C35.6459 26.3752 35.4227 23.9274 34.8623 20.692L33.1093 20.9956ZM58.4441 5.99178L45.7855 18.572L47.0396 19.8338L59.6981 7.25367L58.4441 5.99178ZM64.4981 12.0084L51.2892 25.1355L52.5433 26.3974L65.7522 13.2703L64.4981 12.0084ZM65.0706 21.2853L56.8151 28.943L58.0249 30.2474L66.2805 22.5896L65.0706 21.2853ZM59.0711 6.62272C59.7447 7.20369 59.7445 7.20398 59.7442 7.20425C59.7442 7.20432 59.7439 7.20458 59.7438 7.20473C59.7436 7.20501 59.7434 7.20525 59.7432 7.20542C59.7429 7.20578 59.7428 7.20591 59.7429 7.20582C59.743 7.20565 59.7439 7.2046 59.7456 7.20273C59.7489 7.19898 59.7553 7.19192 59.7645 7.18187C59.7829 7.16177 59.8128 7.12983 59.8534 7.08862C59.9347 7.00598 60.0576 6.88741 60.2155 6.75289C60.5353 6.48045 60.9785 6.16012 61.4944 5.93221C62.0081 5.7053 62.5635 5.58292 63.1336 5.65845C63.692 5.73243 64.3438 6.00628 65.0485 6.70659L66.3026 5.4447C65.3562 4.50412 64.3569 4.02591 63.3673 3.89479C62.3895 3.76524 61.5002 3.98474 60.7756 4.30483C60.0532 4.62391 59.4644 5.05568 59.0618 5.39859C58.8586 5.57175 58.6976 5.72668 58.5855 5.8406C58.5293 5.89768 58.4851 5.9448 58.4535 5.97918C58.4377 5.99637 58.4251 6.01042 58.4158 6.02095C58.4111 6.02622 58.4072 6.03062 58.4042 6.0341C58.4026 6.03584 58.4013 6.03735 58.4002 6.03863C58.3996 6.03927 58.3991 6.03985 58.3987 6.04037C58.3985 6.04063 58.3982 6.04098 58.3981 6.04111C58.3978 6.04144 58.3975 6.04176 59.0711 6.62272ZM65.0485 6.70659C65.7533 7.40701 66.0271 8.05315 66.101 8.60401C66.1765 9.16671 66.0544 9.71574 65.8267 10.225C65.5979 10.7366 65.2761 11.1765 65.0019 11.4943C64.8666 11.6512 64.7474 11.7733 64.6642 11.8541C64.6227 11.8944 64.5906 11.9242 64.5703 11.9425C64.5602 11.9517 64.5531 11.958 64.5493 11.9613C64.5474 11.9629 64.5464 11.9639 64.5462 11.964C64.5461 11.9641 64.5462 11.964 64.5466 11.9637C64.5468 11.9635 64.547 11.9633 64.5473 11.9631C64.5474 11.9629 64.5477 11.9627 64.5478 11.9627C64.548 11.9624 64.5483 11.9622 65.1252 12.6393C65.702 13.3165 65.7023 13.3162 65.7027 13.3159C65.7028 13.3158 65.7032 13.3155 65.7034 13.3153C65.7039 13.3148 65.7045 13.3143 65.7052 13.3138C65.7064 13.3127 65.708 13.3114 65.7097 13.3099C65.7132 13.3068 65.7176 13.303 65.7229 13.2984C65.7335 13.2891 65.7476 13.2765 65.7649 13.2608C65.7995 13.2295 65.8469 13.1855 65.9044 13.1297C66.019 13.0183 66.1749 12.8583 66.3492 12.6562C66.6942 12.2561 67.1292 11.6704 67.4507 10.9513C67.7734 10.2299 67.9952 9.3431 67.8643 8.36744C67.7318 7.37994 67.2489 6.38518 66.3026 5.4447L65.0485 6.70659ZM65.6756 21.9375C66.0713 22.7342 66.0708 22.7344 66.0704 22.7346C66.0703 22.7346 66.0699 22.7348 66.0696 22.735C66.0691 22.7352 66.0687 22.7354 66.0682 22.7357C66.0673 22.7361 66.0666 22.7365 66.0659 22.7368C66.0646 22.7374 66.0638 22.7378 66.0635 22.7379C66.0629 22.7382 66.0642 22.7376 66.0672 22.7362C66.0734 22.7334 66.0868 22.7275 66.1066 22.7195C66.1466 22.7034 66.2115 22.6792 66.2965 22.6542C66.4686 22.6035 66.7091 22.5537 66.9826 22.5537C67.4939 22.5538 68.1799 22.7219 68.8181 23.5675L70.2382 22.4958C69.2253 21.1538 67.985 20.7748 66.9828 20.7747C66.4995 20.7746 66.0864 20.8615 65.7942 20.9475C65.647 20.9908 65.527 21.0349 65.4401 21.07C65.3966 21.0876 65.361 21.1031 65.3341 21.1152C65.3207 21.1213 65.3094 21.1266 65.3003 21.1309C65.2958 21.133 65.2918 21.135 65.2884 21.1366C65.2867 21.1374 65.2851 21.1382 65.2837 21.1389C65.283 21.1393 65.2823 21.1396 65.2817 21.1399C65.2813 21.1401 65.2809 21.1403 65.2807 21.1404C65.2803 21.1406 65.2799 21.1408 65.6756 21.9375ZM68.8181 23.5675C69.4643 24.4237 69.4242 25.0838 69.2957 25.5093C69.2251 25.7432 69.1176 25.9342 69.0268 26.0666C68.9821 26.1318 68.9434 26.1798 68.9191 26.2083C68.907 26.2225 68.8987 26.2315 68.8953 26.2352C68.8936 26.2371 68.8931 26.2375 68.894 26.2366C68.8945 26.2361 68.8953 26.2353 68.8964 26.2341C68.897 26.2335 68.8977 26.2328 68.8985 26.2321C68.8989 26.2317 68.8993 26.2313 68.8997 26.2309C68.8999 26.2306 68.9003 26.2303 68.9004 26.2302C68.9007 26.2298 68.9011 26.2295 69.5281 26.8604C70.1552 27.4913 70.1556 27.4909 70.156 27.4906C70.1561 27.4904 70.1565 27.49 70.1568 27.4898C70.1573 27.4893 70.1578 27.4887 70.1584 27.4881C70.1596 27.4869 70.1609 27.4857 70.1622 27.4843C70.165 27.4815 70.1681 27.4783 70.1716 27.4746C70.1787 27.4674 70.1873 27.4583 70.1973 27.4476C70.2172 27.4262 70.2428 27.3979 70.2726 27.3629C70.3322 27.2931 70.4096 27.1958 70.4939 27.073C70.661 26.8293 70.8631 26.4733 70.9989 26.0234C71.2832 25.0815 71.2431 23.8272 70.2382 22.4958L68.8181 23.5675ZM26.3212 19.0925L38.2337 7.25367L36.9796 5.99178L25.0671 17.8306L26.3212 19.0925ZM24.1866 33.9709V24.3027H22.4075V33.9709H24.1866ZM24.1865 24.3114C24.1988 23.0639 24.3459 22.2205 24.6591 21.4784C24.9757 20.7281 25.4907 20.0121 26.3537 19.0584L25.0346 17.8647C24.1223 18.8729 23.4516 19.7638 23.0199 20.7868C22.5848 21.818 22.4211 22.9142 22.4075 24.294L24.1865 24.3114ZM7.13253 51.016L23.9188 34.607L22.6752 33.3348L5.88892 49.7437L7.13253 51.016ZM42.4784 49.2069L25.1417 66.7097L26.4057 67.9617L43.7424 50.4589L42.4784 49.2069ZM5.88173 49.7509L2.371 53.2616L3.629 54.5196L7.13972 51.0088L5.88173 49.7509ZM25.1447 66.7067L20.4804 71.371L21.7384 72.629L26.4027 67.9647L25.1447 66.7067Z" fill="white"/>
<path d="M13.3691 43.4947L15.2751 44.0596L16.6965 48.8555L19.5304 44.7336L24.5309 44.8637L21.4864 40.8948L23.1554 36.1793L19.9092 37.3282" stroke="white" stroke-width="1.88373"/>
<path d="M30.5369 57.1022L32.0913 56.0731L30.3135 55.5122L27.3953 54.5916L26.5771 51.6431L26.0786 49.8468L24.9959 51.3643L23.2186 53.8551L20.1615 53.7222L18.2991 53.6411L19.4077 55.1399L21.2274 57.5999L20.1563 60.4662L19.5037 62.2124L21.2717 61.6212L24.1736 60.6507L26.5686 62.5552L28.0277 63.7154L28.0118 61.8513L27.9856 58.7915L30.5369 57.1022Z" stroke="white" stroke-width="1.77907"/>
</svg>
