<svg width="208" height="200" viewBox="0 0 208 200" fill="none" xmlns="http://www.w3.org/2000/svg">
<g opacity="0.05">
<path d="M31.6885 133.198C23.1855 132.235 16.2749 140.864 16.2749 140.864L20.6079 140.708C20.6079 140.708 12.7493 144.812 10.9198 148.019L13.8677 147.848C13.8677 147.848 9.40138 151.611 7.4608 155.285L10.1939 155.677C10.1939 155.677 5.64612 160.107 6.94972 165.654C6.94972 165.654 11.0013 162.929 14.1417 162.44L13.0529 165.729C13.0529 165.729 19.1191 165.677 23.067 164.166L21.4227 167.003C21.4227 167.003 28.3258 167.299 32.0663 164.477L31.3478 167.432C31.3478 167.432 35.4882 166.64 42.1025 162.529C48.7168 158.411 49.5908 142.353 49.5908 142.353C49.5908 142.353 36.8733 133.783 31.6885 133.198Z" fill="#F8F8F8"/>
<path d="M41.2877 159.544L36.4288 162.373L36.4436 158.507C36.4436 158.507 30.6293 162.521 27.3481 163.166C28.5035 161.077 28.985 159.24 28.985 159.24C28.985 159.24 20.8152 162.173 18.2969 162.24C18.7858 160.403 19.0672 158.529 19.0672 158.529C19.0672 158.529 14.0084 158.684 11.9567 159.899C16.0378 154.574 33.7698 146.685 39.8878 146.085C36.5844 144.389 19.7116 149.73 14.5194 154.751C17.8895 149.507 31.5996 143.752 35.4289 143.471C35.4289 143.471 26.7185 142.567 17.4747 148.981C21.0152 145.374 28.5331 141.071 32.5551 141.004C30.5108 139.59 23.7706 141.686 21.6818 143.049C27.0888 139.397 30.4663 138.227 30.4663 138.227L41.8506 137.071L48.8501 143.967L49.9389 148.759L41.2877 159.544Z" fill="#121213"/>
<path d="M6.26101 167.402L5.90547 165.899C4.94999 161.825 6.77948 158.358 8.14974 156.462L5.80179 156.129L6.51284 154.788C7.63127 152.67 9.50519 150.566 10.9792 149.085L9.01635 149.196L9.99406 147.493C11.0977 145.567 13.9715 143.463 16.3861 141.93L13.9863 142.019L15.4381 140.204C15.7343 139.834 22.8227 131.131 31.8072 132.146C37.1919 132.753 49.6576 141.115 50.1835 141.471L50.6871 141.812L50.6575 142.419C50.6205 143.1 49.6798 159.084 42.673 163.447C35.9698 167.617 31.7331 168.461 31.5553 168.498L29.9258 168.81L30.4591 166.624C26.5187 168.291 21.6302 168.106 21.3783 168.091L19.6229 168.017L20.8154 165.958C17.1713 166.773 13.2679 166.817 13.0605 166.817L11.5717 166.832L12.5124 164.01C10.0533 164.899 7.57942 166.55 7.54979 166.573L6.26101 167.402ZM12.4827 154.929L10.9347 156.44C10.8977 156.477 7.6609 159.714 7.78681 163.891C9.32003 163.003 11.8087 161.729 13.9789 161.388L15.7047 161.114L14.5493 164.602C16.5491 164.484 20.1266 164.151 22.6893 163.173L25.4965 162.099L23.2893 165.913C25.4817 165.802 29.1555 165.343 31.4294 163.632L33.8144 161.84L32.8219 165.906C34.5699 165.314 37.6141 164.069 41.5471 161.625C46.9319 158.277 48.2503 145.789 48.4873 142.893C44.6358 140.345 35.4291 134.701 31.5775 134.264C26.1557 133.649 21.3191 137.36 18.8452 139.708L25.2743 139.478L21.1043 141.656C19.4674 142.508 15.6381 144.737 13.3493 146.811L16.9935 146.604L14.5493 148.663C14.5122 148.693 11.2458 151.47 9.20152 154.455L12.4827 154.929Z" fill="#121213"/>
<path d="M57.1091 56.4332C51.7317 46.1526 53.5094 34.6127 56.8869 29.1317L58.946 33.4424C58.946 33.4424 60.7162 24.932 63.4271 18.9325L65.3381 22.8136C65.3381 22.8136 67.1157 15.4068 70.0932 11.4145L72.2857 15.4364C72.2857 15.4364 76.0187 7.4667 75.3373 1.69678C81.3961 4.22991 82.7737 15.4142 82.7737 15.4142L86.5512 10.2517C86.5512 10.2517 90.5731 19.6361 88.6696 26.0282L92.8692 22.8359C92.8692 22.8359 92.7211 30.1908 89.7806 36.42L94.2395 34.0276C94.2395 34.0276 95.0246 38.9161 93.1507 43.8342C91.2768 48.7524 78.4407 63.2031 78.4407 63.2031L57.1091 56.4332Z" fill="#F8F8F8"/>
<path d="M76.9148 55.3134L89.9805 48.4028L91.0989 40.0701C91.0989 40.0701 87.5881 41.5885 84.5735 41.5959C84.5735 41.5959 88.351 31.7967 88.8324 30.0783L84.5661 32.4337C84.5661 32.4337 86.9289 21.5605 85.1068 18.1385L81.233 21.879C81.233 21.879 79.0776 14.0722 77.5222 11.2131C77.5222 11.2131 79.9368 22.8122 78.2999 30.8783C76.663 38.9369 72.9744 46.0919 72.9744 46.0919C72.9744 46.0919 77.1445 25.7083 75.989 20.4717C74.915 28.9821 72.6189 40.8182 69.5747 47.114L68.397 47.2103C68.397 47.2103 71.8782 29.9598 71.5819 25.3009C70.2635 32.967 65.7231 46.877 65.7231 46.877L63.3085 46.7289C63.3085 46.7289 66.3379 34.4484 66.1231 30.9523C64.3825 38.1518 61.1383 46.9807 61.1383 46.9807L73.0337 48.2473L76.9889 50.2693L76.9148 55.3134Z" fill="#121213"/>
<path d="M56.3683 57.314L56.1609 56.9215C50.8946 46.8482 52.1316 34.7899 55.9757 28.5607L57.0053 26.8942L58.5978 30.2273C59.3607 27.1757 60.7087 22.3538 62.4567 18.48L63.3826 16.4209L65.0639 19.8355C65.8712 17.2431 67.3008 13.3619 69.2339 10.7621L70.2265 9.4289L72.1522 12.9619C73.1744 10.3029 74.715 5.51068 74.278 1.80727L74.0632 0L75.7446 0.703658C80.4775 2.68128 82.5588 9.14743 83.3736 12.7768L86.7955 8.10307L87.5288 9.82146C87.677 10.1696 90.6841 17.2801 90.1879 23.5241L93.9728 20.6502L93.9283 22.8501C93.9209 23.1167 93.7876 28.5311 91.8692 34.0788L95.0542 32.3752L95.2912 33.8566C95.3282 34.0714 96.0985 39.0858 94.1505 44.2114C92.2322 49.2554 79.7665 63.3136 79.2406 63.9061L78.7814 64.4246L56.3683 57.314ZM56.8497 31.5161C54.5536 36.7453 53.2204 46.3593 57.8571 55.5512L78.1148 61.9729C80.4035 59.3583 90.5804 47.6185 92.1729 43.4485C93.3135 40.4635 93.4098 37.4711 93.3358 35.7231L87.4548 38.8784L88.8324 35.9602C90.6619 32.0864 91.373 27.709 91.647 25.1092L86.7363 28.8422L87.6621 25.7165C88.9509 21.3835 87.277 15.4136 86.2623 12.4657L82.0626 18.206L81.7293 15.5395C81.7145 15.4432 80.6183 6.99945 76.4927 3.62194C76.3371 9.24372 73.404 15.5914 73.2633 15.8877L72.367 17.7986L70.0191 13.4878C67.7674 17.3912 66.3971 22.9982 66.3823 23.0649L65.6935 25.9313L63.5159 21.5094C61.3901 27.0423 60.0124 33.5826 59.9976 33.6566L59.3532 36.7527L56.8497 31.5161Z" fill="#121213"/>
<path d="M145.013 103.214C152.716 95.1261 163.575 89.571 174.078 90.4376L171.293 94.1336C178.736 90.5709 185.803 91.9708 185.803 91.9708L182.632 95.6298L182.336 95.9779C182.336 95.9779 189.743 94.2521 194.054 94.5706L190.528 98.3925C190.528 98.3925 199.683 98.874 204.92 97.4741C201.416 103.325 193.706 107.97 193.706 107.97C193.706 107.97 197.757 108.436 200.535 108.355C195.765 112.28 190.387 114.28 190.387 114.28L194.254 115.858C194.254 115.858 187.158 119.435 182.358 118.946C183.929 120.828 186.765 121.872 186.765 121.872C186.765 121.872 176.551 126.479 165.834 122.361C155.116 118.243 143.31 109.947 143.31 109.947L145.013 103.214Z" fill="#F8F8F8"/>
<path d="M163.323 119.25C170.085 120.968 178.611 120.657 178.611 120.657L175.263 116.487C175.263 116.487 182.936 115.894 184.921 115.028L181.373 113.643C181.373 113.643 189.21 111.643 190.432 110.554C190.432 110.554 186.869 110.532 184.958 110.147C191.254 106.836 196.454 101.97 196.454 101.97C196.454 101.97 180.566 109.176 165.145 108.576C178.899 105.11 188.447 102.777 188.447 102.777C188.447 102.777 172.13 104.295 164.064 105.532C173.1 103.206 181.544 99.2216 181.544 99.2216C181.544 99.2216 169.389 101.895 159.123 102.34C169.241 100.059 174.107 97.2366 174.107 97.2366L152.457 100.859C152.457 100.859 152.694 110.169 152.857 110.354C153.027 110.539 163.323 119.25 163.323 119.25Z" fill="#121213"/>
<path d="M142.11 110.391L144.05 102.68L144.243 102.48C152.85 93.4366 164.041 88.5407 174.166 89.3777L176.092 89.5406L174.396 91.7923C180.603 89.8961 185.751 90.8738 186.01 90.9257L187.81 91.2812L185.188 94.3032C187.78 93.8292 191.476 93.3033 194.128 93.5033L196.328 93.6662L192.891 97.3845C195.906 97.4289 201.201 97.3474 204.638 96.4364L207.179 95.7624L205.831 98.014C203.49 101.925 199.431 105.258 196.794 107.169C198.002 107.25 199.372 107.317 200.505 107.287L203.616 107.198L201.216 109.176C198.298 111.576 195.202 113.265 193.135 114.242L196.831 115.753L194.743 116.805C194.498 116.931 189.713 119.316 185.217 119.916C186.232 120.523 187.128 120.864 187.143 120.871L189.573 121.775L187.21 122.842C186.773 123.034 176.47 127.582 165.463 123.353C154.746 119.235 143.191 111.154 142.71 110.813L142.11 110.391ZM145.983 103.747L144.539 109.487C147.065 111.206 157.123 117.872 166.234 121.368C173.485 124.153 180.559 122.753 184.062 121.708C183.203 121.183 182.277 120.486 181.558 119.627L179.885 117.62L182.484 117.887C185.336 118.175 189.165 116.879 191.558 115.902L187.477 114.235L190.032 113.279C190.076 113.265 193.624 111.924 197.431 109.346C195.446 109.235 193.706 109.035 193.602 109.021L190.499 108.665L193.18 107.05C193.246 107.013 198.89 103.577 202.542 99.0288C197.313 99.7917 190.817 99.4658 190.491 99.451L188.225 99.3325L191.639 95.629C187.61 95.8512 182.655 96.9993 182.595 97.0067L179.396 97.7548L183.684 92.807C181.166 92.6663 176.529 92.8144 171.774 95.0957L167.834 96.9845L172.026 91.4145C163.13 91.3775 153.553 95.8809 145.983 103.747Z" fill="#121213"/>
<path d="M147.776 166.757C150.924 161.261 157.153 153.58 165.352 151.618C161.819 146.159 167.36 137.078 167.886 124.642C168.411 112.206 158.494 102.599 151.176 100.414C157.36 91.3111 149.472 77.2159 146.376 71.3645C143.28 65.5131 141.347 61.0912 141.806 56.099C135.932 59.6691 119.037 53.277 114.934 56.9434C114.934 56.9434 110.89 50.0403 104.031 49.1144C100.683 43.4852 93.5432 42.3372 93.5432 42.3372C93.5432 42.3372 87.4326 47.3516 78.1074 50.6032C73.0485 46.7739 58.3311 44.9962 51.4132 48.9366C44.4952 52.8771 36.3773 51.7735 36.3773 51.7735C36.3773 51.7735 37.9327 54.714 34.733 59.6543C33.0961 62.1801 31.311 65.3576 30.1482 69.3128C16.9196 74.4458 -5.0565 95.1775 1.16524 118.931C8.80168 117.709 15.5345 119.99 25.0004 128.086L25.0078 128.079C28.7335 140.307 41.1103 146.129 41.1103 146.129C31.4369 164.609 44.947 176.482 51.7613 180.356C58.5756 184.23 61.2643 191 61.2643 191C61.2643 191 69.1081 194.399 75.8335 193.54C82.5589 192.681 90.1138 193.873 96.3282 198.955C101.787 190.163 114.527 183.378 118.638 178.593C129.044 182.356 144.628 172.253 147.776 166.757Z" fill="#F8F8F8"/>
<path d="M117.912 177.779C118.356 177.312 118.838 176.638 119.275 175.957C119.726 175.275 120.141 174.542 120.571 173.816C121.408 172.35 122.185 170.817 122.934 169.276C123.682 167.735 124.43 166.18 125.141 164.61C125.859 163.039 126.504 161.447 127.363 159.921C127.081 161.654 126.526 163.291 126.007 164.943C125.474 166.595 124.933 168.239 124.326 169.869C123.711 171.498 123.067 173.113 122.341 174.72C121.978 175.527 121.571 176.312 121.119 177.098C120.645 177.875 120.149 178.646 119.334 179.371L117.912 177.779Z" fill="#121213"/>
<path d="M146.961 105.593L145.761 103.83C145.791 103.808 148.82 101.726 150.339 99.7561L152.028 101.052C150.302 103.304 147.095 105.504 146.961 105.593Z" fill="#121213"/>
<path d="M54.8722 130.271C47.8801 122.442 47.4135 113.384 47.0284 105.947C46.7765 100.984 46.5543 96.7033 44.3841 94.2739C44.0582 93.911 44.0212 93.3777 44.2878 92.9777C45.1841 91.6222 46.0951 90.2075 46.9765 88.8373C53.2353 79.1121 59.7163 69.0462 70.2117 64.4836C77.3593 61.3802 84.6032 61.0024 90.0842 63.4541C93.5729 65.0169 95.9949 67.5945 97.0911 70.8979L95.069 71.5646C94.1728 68.8388 92.1508 66.7057 89.2177 65.3947C84.3588 63.2171 77.5741 63.6096 71.0709 66.4316C61.1606 70.735 54.8648 80.5194 48.7764 89.9779C48.0283 91.1408 47.2654 92.3259 46.5025 93.4962C48.6801 96.4811 48.9023 100.844 49.1615 105.836C49.5689 113.754 50.08 123.598 59.057 131.397C72.2634 142.863 84.6698 153.114 91.336 152.625C97.5725 152.173 106.031 151.566 111.283 155.477C112.801 154.936 114.401 154.721 116.082 154.499C119.482 154.047 123.334 153.536 128.318 150.195C135.525 145.366 140.754 138.3 143.873 133.219C146.006 129.738 150.657 129.323 152.761 129.323C154.761 108.584 144.51 104.88 144.406 104.851L145.087 102.829C145.591 102.999 157.39 107.251 154.783 130.545C154.716 131.123 154.205 131.545 153.627 131.486C153.568 131.478 147.746 130.997 145.702 134.337C142.473 139.596 137.044 146.922 129.518 151.966C124.119 155.58 119.83 156.151 116.378 156.61C114.549 156.854 112.964 157.062 111.534 157.669C111.164 157.824 110.742 157.758 110.438 157.506C105.905 153.706 97.5874 154.306 91.5138 154.743C84.6995 155.232 74.3669 147.477 57.6794 132.997C56.6276 132.115 55.7018 131.197 54.8722 130.271Z" fill="#121213"/>
<path d="M70.1007 140.975C73.1671 141.219 76.3595 140.886 79.5 140.367C82.6553 139.856 85.8032 139.182 88.9511 138.478C90.5287 138.138 92.1064 137.782 93.6989 137.471C95.2913 137.153 96.8764 136.864 98.5207 136.649C100.172 136.456 101.795 136.434 103.417 136.375C105.031 136.338 106.646 136.293 108.253 136.227C111.468 136.108 114.66 135.916 117.823 135.531C120.986 135.168 124.126 134.649 127.2 133.871C128.741 133.486 130.252 133.02 131.755 132.501L132.874 132.094L133.977 131.649C134.725 131.368 135.436 131.02 136.162 130.701C139.043 129.346 141.777 127.657 144.369 125.724C142.132 128.064 139.525 130.072 136.696 131.716C135.266 132.516 133.807 133.271 132.288 133.894C131.533 134.22 130.763 134.501 130 134.79C129.222 135.049 128.444 135.316 127.659 135.538C126.874 135.782 126.082 135.975 125.289 136.182C124.489 136.367 123.689 136.545 122.889 136.693C121.282 137.019 119.66 137.219 118.038 137.397C114.786 137.708 111.535 137.797 108.298 137.79C106.683 137.79 105.068 137.767 103.461 137.782C101.861 137.79 100.254 137.827 98.6985 137.997C97.1504 138.204 95.5654 138.523 94.0025 138.856C92.4323 139.189 90.8695 139.56 89.2992 139.923C86.1587 140.641 83.0256 141.441 79.8259 142.056C79.026 142.211 78.226 142.36 77.4187 142.486C76.6187 142.634 75.7966 142.73 74.9818 142.848C73.3449 143.034 71.6858 143.145 69.9896 143.115L70.1007 140.975Z" fill="#121213"/>
<path d="M75.2187 110.659C68.2785 102.881 64.9676 95.1412 66.012 88.7639C66.0194 88.7269 66.0268 88.6899 66.0342 88.6528C68.7895 78.6907 79.2998 71.4394 91.5804 71.0172C96.2541 70.8542 99.1946 70.3802 101.557 69.995C105.357 69.3729 108.105 68.9285 114.571 70.2839C125.126 72.4986 132.355 82.12 134.599 90.1194C134.681 90.3934 134.636 90.6971 134.496 90.9415C134.466 90.986 131.725 95.756 130.933 101.393C129.911 108.607 123.837 119.51 116.808 126.746C116.778 126.776 116.749 126.798 116.719 126.828C109.846 132.479 90.1656 124.546 80.9664 116.369C78.8406 114.473 76.9222 112.562 75.2187 110.659ZM68.1081 89.1639C66.9601 96.3559 72.1596 105.681 82.3811 114.762C91.5285 122.887 109.779 129.635 115.319 125.198C122.711 117.569 127.992 106.948 128.822 101.081C129.548 95.9412 131.718 91.5933 132.429 90.2675C130.222 82.957 123.644 74.3577 114.134 72.3652C108.061 71.0913 105.609 71.4912 101.905 72.0986C99.4834 72.4911 96.4689 72.9874 91.6544 73.1503C80.4997 73.5281 70.6042 80.2609 68.1081 89.1639Z" fill="#121213"/>
<path d="M132.851 91.1856C132.518 90.8374 132.096 90.4449 131.688 90.0968C131.274 89.7412 130.837 89.4079 130.392 89.082C129.496 88.4376 128.54 87.8599 127.54 87.371C126.548 86.8674 125.489 86.497 124.393 86.2156C123.304 85.9193 122.171 85.8304 121.022 85.8082C122.156 85.6527 123.319 85.5638 124.481 85.6897C125.637 85.8008 126.807 86.0156 127.926 86.3785C129.051 86.7266 130.155 87.1785 131.214 87.7118C131.74 87.9858 132.266 88.2673 132.777 88.5858C133.296 88.9043 133.777 89.2153 134.303 89.6227L132.851 91.1856Z" fill="#121213"/>
<path d="M64.8418 109.77C63.7382 108.533 62.7457 107.236 61.9531 105.903C59.6052 101.955 59.02 99.2889 58.5904 97.3335C58.1757 95.4521 57.9979 94.83 56.9461 94.23C56.4499 93.9411 56.2647 93.319 56.5313 92.8153C58.2497 89.5193 62.7012 84.9567 67.9378 85.8677L67.5675 87.9713C63.5234 87.2676 60.2792 90.8451 58.8867 93.0079C60.0422 94.03 60.3236 95.3188 60.6718 96.8817C61.0717 98.6889 61.6124 101.163 63.7826 104.814C68.049 111.992 79.0407 118.339 79.1518 118.406C79.1666 118.413 79.1814 118.421 79.1888 118.428C79.4703 118.606 107.261 135.953 115.179 125.354L116.89 126.627C107.838 138.738 79.5295 121.161 78.0704 120.243C77.5001 119.909 69.9895 115.532 64.8418 109.77Z" fill="#121213"/>
<path d="M115.349 137.627L114.157 135.856C122.186 130.442 129.207 122.961 134.844 116.947C135.844 115.88 136.792 114.873 137.681 113.94C144.413 106.896 144.243 101.652 144.028 100.215C143.562 97.052 144.769 92.8893 146.702 90.4969C145.554 89.534 144.347 88.0304 142.628 85.8899C140.606 83.3715 137.829 79.9274 133.636 75.4685C124.896 66.1803 110.327 68.3875 104.468 71.6317L103.439 69.7652C111.09 65.5285 126.385 64.6471 135.192 74.0093C139.443 78.5275 142.251 82.0087 144.295 84.5566C146.339 87.0972 147.695 88.7785 148.85 89.4081C149.161 89.5785 149.369 89.8896 149.406 90.2451C149.443 90.6006 149.295 90.9413 149.02 91.1709C147.11 92.7486 145.71 97.0001 146.139 99.911C146.458 102.066 146.421 107.896 139.221 115.421C138.332 116.347 137.392 117.354 136.399 118.413C130.689 124.502 123.578 132.079 115.349 137.627Z" fill="#121213"/>
<path d="M117.275 67.7064C117.615 64.1585 115.512 58.9959 112.023 54.8703L113.653 53.4927C117.541 58.0997 119.8 63.7585 119.393 67.9138L117.275 67.7064Z" fill="#121213"/>
<path d="M40.651 147.086L41.5546 145.152C43.199 145.923 44.2729 146.189 45.1395 146.404C46.8727 146.834 47.8727 147.167 49.7688 149.471C52.413 152.655 59.3384 155.996 66.3675 156.055C69.8117 156.085 71.9004 156.877 73.7447 157.581C75.989 158.433 77.9296 159.173 82.1218 158.374C89.2324 157.011 90.336 153.552 90.3805 153.411L92.4396 153.966C92.3877 154.166 91.0693 158.825 82.5292 160.47C77.7444 161.388 75.4335 160.507 72.9892 159.581C71.2338 158.914 69.4191 158.218 66.3527 158.196C58.4126 158.122 51.0502 154.352 48.1319 150.833C46.5913 148.967 46.0135 148.826 44.6285 148.478C43.7174 148.248 42.4879 147.945 40.651 147.086Z" fill="#121213"/>
<path d="M43.1767 174.757C41.7694 173.187 40.4213 171.335 39.3029 169.202C35.6365 162.203 35.7624 154.596 39.6732 146.582C36.629 144.915 27.4075 139.138 24.0745 128.694C15.2678 121.213 8.86826 118.762 1.32811 119.969C0.787409 120.058 0.268935 119.717 0.128205 119.184C-3.44929 105.518 2.15766 93.8598 7.49798 86.4974C13.2235 78.5869 21.7191 71.58 29.2741 68.4988C30.5555 64.388 32.4812 61.1586 33.8367 59.0625C36.5994 54.7887 35.4736 52.3445 35.4217 52.2482C35.2514 51.8927 35.281 51.4705 35.5106 51.152C35.7402 50.8335 36.1254 50.6631 36.5105 50.715C36.5846 50.7224 44.3692 51.7149 50.8798 48.0041C57.9163 43.997 72.367 45.4561 78.2628 49.4114C86.9955 46.2635 92.8024 41.5601 92.8617 41.5083C93.0987 41.3157 93.4024 41.2343 93.7061 41.2787C94.0097 41.3305 101.024 42.5156 104.668 48.13C110.179 49.1003 113.845 53.5074 115.23 55.4628C117.904 54.1592 122.496 54.7369 127.711 55.4035C132.814 56.0479 138.599 56.7886 141.243 55.1813C141.584 54.9739 142.021 54.9739 142.362 55.1887C142.702 55.4035 142.895 55.7887 142.858 56.1886C142.443 60.6994 144.028 64.6695 147.309 70.8616L147.643 71.4911C150.983 77.7795 157.79 90.5785 152.761 99.8371C160.256 102.8 169.456 112.458 168.937 124.68C168.715 129.924 167.634 134.523 166.678 138.575C165.412 143.96 164.412 148.211 166.234 151.033C166.419 151.322 166.456 151.685 166.33 152.011C166.204 152.329 165.923 152.574 165.589 152.648C156.427 154.833 150.339 164.395 148.687 167.276C145.45 172.92 130.081 183.201 118.934 179.801C117.275 181.549 114.727 183.468 111.816 185.66C106.779 189.452 100.513 194.17 97.2095 199.496C97.0465 199.755 96.7799 199.933 96.4762 199.985C96.1725 200.037 95.8615 199.955 95.6244 199.755C90.373 195.459 83.3809 193.622 75.9445 194.57C69.0117 195.459 61.1456 192.097 60.8123 191.956C60.5531 191.845 60.3531 191.63 60.242 191.371C60.2198 191.311 57.5904 184.89 51.2057 181.26C49.5762 180.334 46.2505 178.201 43.1767 174.757ZM41.8953 145.411C41.9916 145.515 42.0657 145.641 42.1101 145.782C42.199 146.056 42.1768 146.359 42.0434 146.619C38.0067 154.329 37.7179 161.603 41.1842 168.217C44.5766 174.69 50.5317 178.431 52.2723 179.423C58.4125 182.912 61.3234 188.563 62.0493 190.171C63.6714 190.815 70.1449 193.185 75.6778 192.474C83.2773 191.504 90.4619 193.245 96.0466 197.392C99.6686 192.156 105.661 187.638 110.527 183.971C113.638 181.623 116.327 179.601 117.8 177.89C118.089 177.557 118.556 177.431 118.971 177.579C128.814 181.149 143.961 171.239 146.835 166.232C148.517 163.299 154.531 153.862 163.782 150.952C162.375 147.559 163.375 143.315 164.604 138.101C165.537 134.138 166.597 129.65 166.804 124.605C167.308 112.755 157.864 103.54 150.857 101.444C150.531 101.348 150.272 101.104 150.161 100.778C150.05 100.459 150.094 100.104 150.287 99.8223C155.901 91.5637 149.057 78.6906 145.769 72.5059L145.435 71.8763C142.873 67.0396 140.739 62.5807 140.673 57.7515C137.273 58.781 132.288 58.1514 127.452 57.5367C122.704 56.9367 117.319 56.2479 115.638 57.7515C115.401 57.9663 115.075 58.0626 114.764 58.0107C114.445 57.9589 114.171 57.7737 114.008 57.4996C113.971 57.433 110.134 51.0335 103.883 50.1891C103.557 50.1447 103.276 49.9595 103.105 49.678C100.513 45.3154 95.343 43.8489 93.8024 43.5007C92.2766 44.6784 86.5955 48.7818 78.448 51.626C78.1073 51.7445 77.7369 51.6853 77.4555 51.4705C72.5448 47.7523 58.257 46.2783 51.9316 49.878C46.5246 52.9593 40.5176 53.1074 37.7549 52.9741C37.9326 54.5073 37.703 57.0256 35.6217 60.2476C34.2811 62.3215 32.3627 65.5509 31.1628 69.6246C31.0665 69.9431 30.8369 70.1949 30.5258 70.3209C17.3491 75.4316 -3.16043 95.5337 1.95769 117.754C9.72746 116.806 16.6677 119.598 25.5929 127.213C25.7855 127.346 25.941 127.546 26.0151 127.776C29.5629 139.412 41.4361 145.115 41.5546 145.174C41.6879 145.219 41.8064 145.3 41.8953 145.411Z" fill="#121213"/>
<path d="M23.9856 128.413C23.2597 126.205 22.7264 123.835 22.208 121.539C20.971 116.073 19.8007 110.903 16.4603 109.999C16.1788 109.925 15.9418 109.74 15.8011 109.481C15.6603 109.229 15.6307 108.925 15.7196 108.651C16.6677 105.651 17.3491 103.111 17.949 100.867C19.9341 93.4301 21.134 88.9416 28.526 82.1125C33.3849 77.6166 38.6882 74.9131 43.8581 74.2909C48.754 73.6984 53.0204 75.0464 55.8794 78.0832L54.324 79.5423C49.8354 74.7798 39.777 74.602 29.9703 83.6753C23.0375 90.0897 22.0228 93.8746 20.0081 101.415C19.4674 103.437 18.8601 105.696 18.0527 108.325C21.8006 110.11 23.0079 115.451 24.2819 121.072C24.7929 123.317 25.3114 125.635 26.0077 127.746L23.9856 128.413Z" fill="#121213"/>
<path d="M28.5631 83.0899C26.941 79.6828 27.8002 71.8093 29.1779 68.854L31.111 69.7576C29.9556 72.2389 29.1927 79.4532 30.4889 82.1715L28.5631 83.0899Z" fill="#121213"/>
<path d="M49.8429 75.6087C55.6202 62.3282 70.0487 53.0252 77.6704 49.6255L78.5369 51.5735C71.2042 54.8547 57.3164 63.7799 51.7983 76.4604L49.8429 75.6087Z" fill="#121213"/>
<path d="M0.0985107 118.813C0.150359 118.501 0.202214 118.287 0.268876 118.042C0.328131 117.798 0.402198 117.568 0.476266 117.339C0.542928 117.109 0.6318 116.879 0.720682 116.657C0.809564 116.435 0.883644 116.205 0.987339 115.991C1.17992 115.554 1.37249 115.124 1.60951 114.709L1.95022 114.087L2.32797 113.487C3.3353 111.902 4.57224 110.495 5.9351 109.25C6.64615 108.658 7.33497 108.05 8.09788 107.554L8.6608 107.162L8.94227 106.969L9.23853 106.799L10.4162 106.11C10.8014 105.865 11.2162 105.68 11.6235 105.488L12.8457 104.903C13.6826 104.554 14.527 104.251 15.364 103.925C14.5641 104.332 13.7493 104.725 12.9642 105.14L11.8161 105.836C11.4384 106.065 11.0458 106.288 10.6977 106.562L9.61629 107.347L9.34963 107.539L9.0978 107.754L8.59414 108.184C7.90531 108.739 7.30537 109.384 6.68319 110.006C5.51291 111.309 4.49077 112.739 3.72046 114.272L3.43158 114.85L3.17975 115.442C3.00199 115.835 2.87607 116.235 2.73534 116.635C2.66127 116.835 2.61684 117.042 2.55758 117.242C2.49833 117.442 2.44647 117.65 2.40944 117.85C2.365 118.05 2.32055 118.257 2.29093 118.457C2.25389 118.65 2.23167 118.872 2.22427 119.013L0.0985107 118.813Z" fill="#121213"/>
<path d="M15.9567 108.244C17.1269 107.14 18.4009 106.177 19.7415 105.355C21.0822 104.526 22.4969 103.837 23.956 103.296C25.4152 102.755 26.9262 102.348 28.4594 102.133C29.2223 102.022 30 101.992 30.7703 102.007C31.5406 102.059 32.3109 102.17 33.0146 102.481C31.5406 102.066 30 102.289 28.5557 102.659C27.1039 103.037 25.7115 103.592 24.3856 104.274C21.734 105.622 19.3712 107.496 17.5121 109.695L15.9567 108.244Z" fill="#121213"/>
<path d="M36.9404 50.8635C37.9403 51.6338 38.9106 52.419 39.7698 53.3152C40.2216 53.7374 40.6142 54.2188 41.0363 54.6632C41.4289 55.1373 41.8289 55.6039 42.1918 56.0927C42.9325 57.063 43.6139 58.0778 44.2213 59.1221C44.8287 60.1665 45.3842 61.2479 45.836 62.3589C45.2286 61.322 44.525 60.3517 43.7843 59.4258C43.0436 58.4926 42.2363 57.6185 41.3919 56.7964C40.9771 56.3742 40.5253 55.9965 40.0957 55.6039C39.6365 55.241 39.1995 54.8484 38.7254 54.5151C37.7996 53.804 36.8071 53.2189 35.8071 52.6634L36.9404 50.8635Z" fill="#121213"/>
<path d="M104.313 47.6194C104.757 48.8711 105.113 50.1377 105.394 51.4117C105.661 52.6857 105.868 53.967 105.935 55.2484C105.52 54.0337 104.979 52.8856 104.394 51.7746C103.802 50.6636 103.135 49.6044 102.424 48.5971L104.313 47.6194Z" fill="#121213"/>
<path d="M118.119 125.316C116.986 126.775 115.741 128.161 114.386 129.427C113.031 130.701 111.571 131.842 110.031 132.856C106.957 134.901 103.617 136.427 100.224 137.715L99.802 136.656C103.076 135.234 106.253 133.597 109.098 131.508C110.52 130.471 111.853 129.331 113.068 128.072C114.29 126.82 115.393 125.464 116.408 124.035L118.119 125.316Z" fill="#121213"/>
<path d="M63.1232 103.763C63.2492 104.844 63.2862 105.896 63.2343 106.911C63.2121 107.422 63.1899 107.933 63.1455 108.429C63.1084 108.933 63.064 109.436 63.0121 109.925L62.3529 115.814C62.1529 117.754 62.0122 119.695 62.0271 121.613C62.0493 123.517 62.227 125.428 62.827 127.131C62.9973 127.546 63.1233 127.976 63.3677 128.376C63.5825 128.783 63.7899 129.198 64.0639 129.583L64.4417 130.168C64.5676 130.361 64.7231 130.546 64.8639 130.731L65.2934 131.294C65.4416 131.479 65.6045 131.649 65.7601 131.827C67.0044 133.249 68.4414 134.531 69.982 135.671C71.5226 136.805 73.1817 137.804 74.9075 138.619C76.6333 139.427 78.4554 140.071 80.2775 140.308L80.1071 141.93C78.0036 141.678 76.0556 140.997 74.2039 140.16C72.3521 139.315 70.6041 138.279 68.9524 137.093C67.3081 135.908 65.7675 134.568 64.3972 133.034C64.2269 132.842 64.0491 132.657 63.8861 132.457L63.4121 131.849C63.2566 131.642 63.0862 131.449 62.9455 131.235L62.5159 130.583C62.2122 130.161 61.9678 129.694 61.7234 129.235C61.4493 128.79 61.279 128.272 61.0716 127.776C60.3383 125.754 60.1457 123.672 60.0939 121.65C60.0568 119.621 60.1901 117.613 60.3679 115.628L60.9605 109.74C61.1234 107.807 61.2716 105.851 61.0271 104.096L63.1232 103.763Z" fill="#121213"/>
<path d="M63.2642 105.837C63.5457 106.859 63.7234 107.866 64.0716 108.873C64.3901 109.881 64.7456 110.896 65.2418 111.866C65.7233 112.844 66.2788 113.806 66.901 114.732C67.5306 115.658 68.2046 116.569 68.9675 117.436C68.4564 117.162 67.975 116.836 67.5083 116.488C67.0343 116.147 66.5899 115.769 66.1455 115.384C65.2715 114.599 64.4789 113.725 63.7605 112.769C63.042 111.814 62.4198 110.77 61.9384 109.644L61.6125 108.785C61.531 108.488 61.4495 108.192 61.3829 107.888L61.2792 107.437C61.257 107.281 61.2421 107.133 61.2199 106.977C61.1829 106.674 61.1607 106.363 61.1459 106.059L63.2642 105.837Z" fill="#121213"/>
<path d="M98.4096 104.385C99.7873 104.555 101.217 104.37 102.58 103.867C103.957 103.393 105.254 102.615 106.483 101.741C107.713 100.852 108.875 99.8446 109.994 98.7781C111.12 97.7041 112.179 96.5708 113.371 95.4672C113.683 95.1931 113.986 94.9191 114.364 94.6599C114.779 94.3784 115.142 94.208 115.549 94.0303C116.349 93.697 117.26 93.4748 118.223 93.5711C118.341 93.5859 118.46 93.6007 118.578 93.6229C118.623 93.6303 118.593 93.6229 118.601 93.6303C118.601 93.6303 118.608 93.6303 118.601 93.6303C118.601 93.6229 118.601 93.6525 118.601 93.6081L118.608 93.4673L118.63 92.9044C118.645 92.5267 118.63 92.1563 118.63 91.7786C118.601 91.4083 118.593 91.0305 118.541 90.6602C118.378 89.1788 117.964 87.7419 117.282 86.4531C116.949 85.8013 116.527 85.2013 116.053 84.6458C115.579 84.0903 115.06 83.5792 114.475 83.1274C112.164 81.2979 109.209 80.3499 106.231 79.9573C103.231 79.5796 100.158 79.6907 97.1579 80.1943C94.1581 80.7128 91.2176 81.6164 88.4993 82.9274C87.1513 83.594 85.8477 84.357 84.6848 85.2754C83.5219 86.1938 82.4701 87.253 81.7517 88.5122L81.8257 88.2752C81.7813 88.5566 81.7517 88.9492 81.7591 89.2973C81.7665 89.6528 81.7961 90.0158 81.8406 90.3787C81.9295 91.0972 82.1294 91.8082 82.4183 92.4896C82.7146 93.1637 83.0701 93.8303 83.5515 94.4154C83.7663 94.7339 84.0404 95.0006 84.2996 95.2894C84.4255 95.4376 84.5811 95.5487 84.7218 95.6894L85.1514 96.0894C84.4478 95.7413 83.7589 95.3265 83.1516 94.7858C82.5294 94.2673 82.0109 93.6155 81.5813 92.9193C81.1369 92.2156 80.8332 91.4379 80.6184 90.6231C80.5147 90.2158 80.4407 89.801 80.3962 89.3862C80.3518 88.9566 80.3296 88.564 80.3666 88.0752C80.374 88.0085 80.3888 87.9493 80.411 87.8974L80.4407 87.8382C81.1814 86.3049 82.285 85.0014 83.5219 83.8977C84.7737 82.8089 86.1439 81.8905 87.5957 81.1498C89.04 80.3943 90.5584 79.7869 92.099 79.3055C93.6396 78.8092 95.2247 78.4537 96.8172 78.1871C100.002 77.6834 103.276 77.5649 106.498 78.0685C108.105 78.3204 109.705 78.7278 111.238 79.3277C112.001 79.6314 112.749 79.9869 113.475 80.3943C114.194 80.8091 114.882 81.2831 115.527 81.8164C116.823 82.883 117.904 84.2162 118.675 85.7124C119.452 87.2012 119.897 88.8455 120.067 90.4824C120.126 90.8898 120.126 91.3046 120.156 91.7119C120.156 92.1193 120.171 92.5341 120.149 92.9415L120.119 93.5562L120.112 93.7118C120.104 93.771 120.097 93.8969 120.067 93.9784C120.023 94.171 119.934 94.3562 119.815 94.5117C119.586 94.8302 119.23 95.0524 118.838 95.1117C118.652 95.1487 118.423 95.1339 118.275 95.1043C118.201 95.0894 118.127 95.082 118.053 95.0746C117.445 95.0154 116.771 95.1635 116.134 95.445C115.823 95.5783 115.475 95.7561 115.245 95.9264C114.979 96.1116 114.697 96.3708 114.423 96.6153C112.223 98.7262 110.09 101.163 107.513 103.133C106.216 104.118 104.817 105 103.246 105.637C101.691 106.289 99.9428 106.607 98.1874 106.503L98.4096 104.385Z" fill="#121213"/>
<path d="M116.875 93.9702C118.578 95.933 119.808 98.3106 120.504 100.829C120.808 102.096 121.023 103.384 121.074 104.681C121.119 105.977 121.082 107.273 120.889 108.547C120.711 109.821 120.423 111.08 120.008 112.31C119.897 112.613 119.8 112.924 119.674 113.228C119.556 113.532 119.43 113.843 119.312 114.102C119.082 114.643 118.867 115.191 118.682 115.739C118.586 116.013 118.504 116.287 118.43 116.554C118.393 116.687 118.356 116.82 118.326 116.954L118.282 117.154L118.26 117.25L118.208 117.457C118.038 118.065 117.578 118.583 117.008 118.828C116.727 118.953 116.415 119.013 116.104 119.013C115.949 119.013 115.793 118.99 115.645 118.953L115.393 118.887C114.275 118.583 113.119 118.376 111.949 118.235C109.616 117.946 107.238 117.983 104.89 118.272C104.305 118.339 103.72 118.442 103.135 118.539C102.817 118.591 102.491 118.642 102.165 118.687C101.839 118.709 101.513 118.761 101.187 118.761C99.8834 118.813 98.602 118.687 97.3577 118.465C94.8542 118.013 92.5062 117.117 90.2619 116.065C88.0251 114.998 85.8919 113.717 84.0476 112.065C86.2771 113.117 88.4621 114.154 90.7064 115.05C92.9506 115.931 95.269 116.605 97.6021 116.909C98.765 117.057 99.9353 117.094 101.076 116.998C101.365 116.983 101.639 116.931 101.928 116.902C102.209 116.857 102.476 116.798 102.765 116.739C103.379 116.605 103.994 116.48 104.616 116.383C107.105 115.976 109.653 115.894 112.179 116.139C113.445 116.265 114.697 116.48 115.941 116.791L116.06 116.82C116.097 116.828 116.149 116.843 116.134 116.835C116.127 116.835 116.127 116.835 116.119 116.835C116.112 116.835 116.097 116.85 116.09 116.872L116.171 116.48C116.208 116.317 116.245 116.154 116.29 115.991C116.371 115.672 116.467 115.361 116.571 115.05C116.771 114.435 116.993 113.843 117.238 113.258C117.364 112.954 117.467 112.695 117.564 112.428C117.675 112.169 117.756 111.887 117.845 111.621C118.193 110.524 118.445 109.391 118.615 108.251C118.786 107.11 118.823 105.954 118.786 104.806C118.749 103.658 118.549 102.533 118.297 101.421C117.734 99.2142 116.675 97.1552 115.238 95.3701L116.875 93.9702Z" fill="#121213"/>
<path d="M86.2327 84.0083C84.6847 83.7565 82.9811 83.9787 81.4035 84.4972C79.8258 85.023 78.3371 85.86 77.1149 86.9562C75.8928 88.045 74.9595 89.4153 74.4929 90.9411C74.0189 92.4669 74.0559 94.126 74.4262 95.7333L73.33 94.8963C74.9225 94.8519 76.5002 95.1482 77.9667 95.6666C79.4333 96.1777 80.7813 96.9258 82.0331 97.7628C83.2922 98.5998 84.4403 99.5552 85.5365 100.54L85.9439 100.911C86.0772 101.029 86.1809 101.096 86.2994 101.192C86.4994 101.377 86.8253 101.548 87.0845 101.725C87.6622 102.074 88.277 102.399 88.9066 102.718C90.1657 103.348 91.4619 103.94 92.773 104.525L96.7134 106.288C98.0318 106.873 99.3428 107.495 100.646 108.147C101.957 108.799 103.239 109.488 104.505 110.391L103.298 111.577C103.098 111.347 102.898 111.117 102.706 110.888C102.506 110.658 102.269 110.436 102.046 110.206C101.624 109.74 101.12 109.31 100.669 108.851L99.2391 107.525L97.7726 106.214C95.8098 104.473 93.7803 102.792 91.6916 101.192C89.5954 99.5997 87.4697 98.0294 85.255 96.6073C83.0256 95.2 80.7665 93.8297 78.2704 92.9113L79.2333 93.178C79.5518 93.2668 79.8777 93.3483 80.1888 93.4742C80.8109 93.7112 81.4479 93.9186 82.0479 94.2001C83.2774 94.7186 84.4699 95.3111 85.6476 95.9407C88.003 97.1924 90.2843 98.5849 92.4915 100.081C94.7061 101.57 96.8763 103.125 98.9725 104.792C99.4909 105.221 100.009 105.644 100.521 106.081C101.024 106.532 101.528 106.977 102.009 107.443L102.728 108.162C102.965 108.399 103.202 108.643 103.424 108.917C103.646 109.184 103.876 109.436 104.098 109.71C104.313 109.999 104.52 110.295 104.728 110.591V110.599C104.994 110.991 104.898 111.525 104.505 111.799C104.202 112.014 103.802 111.991 103.513 111.784C102.394 111.058 101.091 110.465 99.8094 109.873C98.5206 109.28 97.2022 108.725 95.8838 108.155C93.247 107.014 90.5805 105.925 87.9437 104.614C87.2845 104.288 86.6253 103.94 85.9661 103.548L85.4698 103.229C85.3069 103.133 85.1365 103.007 84.9662 102.866C84.8032 102.74 84.6106 102.592 84.4773 102.474L84.0848 102.118C83.0404 101.185 81.9664 100.296 80.8257 99.5404C78.5667 98.0072 75.9817 96.9777 73.3967 97.0591H73.3893C72.8634 97.0739 72.4116 96.7184 72.3005 96.2222C71.8487 94.3186 71.7894 92.2299 72.3894 90.2819C72.9745 88.3339 74.1596 86.6081 75.641 85.2897C77.1223 83.9713 78.8703 83.0158 80.7221 82.4084C82.5812 81.8159 84.5662 81.5418 86.6031 81.8825L86.2327 84.0083Z" fill="#121213"/>
<path d="M118.008 94.7331C117.082 93.0888 116.023 91.5186 114.719 90.1335C113.423 88.741 111.875 87.5633 110.209 86.5486C112.031 87.2448 113.816 88.1337 115.423 89.3336C117.038 90.5261 118.467 91.9778 119.763 93.5258L118.008 94.7331Z" fill="#121213"/>
<path d="M118.652 90.9711C118.171 90.1193 117.438 89.3046 116.645 88.5713C115.845 87.838 114.971 87.164 114.053 86.5492C113.134 85.9419 112.164 85.3938 111.149 84.9494C110.134 84.5049 109.068 84.1494 107.949 84.0309C109.075 84.0161 110.201 84.2605 111.283 84.5938C112.364 84.9271 113.423 85.3715 114.438 85.89C115.453 86.4085 116.438 87.001 117.371 87.6825C118.304 88.3713 119.2 89.1268 119.949 90.1564L118.652 90.9711Z" fill="#121213"/>
<path d="M117.556 86.8894C116.927 86.0673 116.03 85.3488 115.082 84.7414C114.127 84.1267 113.09 83.6082 112.016 83.1712C110.942 82.7416 109.831 82.3861 108.69 82.1416C107.55 81.9046 106.379 81.7565 105.209 81.875C106.364 81.6306 107.572 81.6528 108.749 81.7713C109.935 81.8972 111.105 82.1342 112.26 82.4601C113.416 82.786 114.542 83.2156 115.638 83.7563C116.727 84.3044 117.793 84.9636 118.712 85.9191L117.556 86.8894Z" fill="#121213"/>
<path d="M94.0616 78.8015C95.4171 77.883 96.8688 77.1275 98.365 76.5276C99.8612 75.9128 101.402 75.4461 102.965 75.1054C104.527 74.7721 106.113 74.5425 107.705 74.4907C109.29 74.4388 110.905 74.5425 112.431 74.9351C110.853 74.9721 109.327 75.1869 107.816 75.4684C106.305 75.7647 104.816 76.135 103.365 76.609C101.913 77.0831 100.506 77.646 99.1427 78.2978C97.7873 78.957 96.4911 79.7051 95.2689 80.5569L94.0616 78.8015Z" fill="#121213"/>
<path d="M99.4242 77.6539C99.8019 77.4539 100.187 77.2317 100.557 77.1132C100.743 77.0466 100.928 76.9725 101.113 76.9132L101.668 76.7577C102.409 76.5577 103.142 76.4318 103.868 76.3281C105.327 76.1133 106.787 76.0614 108.238 76.054C109.69 76.0466 111.134 76.1725 112.571 76.3725C113.993 76.6096 115.438 76.9206 116.719 77.5724C116.015 77.4243 115.319 77.3132 114.616 77.2762C113.912 77.2169 113.208 77.2095 112.505 77.2169C111.097 77.2095 109.697 77.328 108.305 77.4761C106.912 77.6243 105.542 77.8687 104.202 78.1576C103.535 78.3057 102.876 78.4909 102.254 78.7057C101.617 78.8983 101.046 79.1797 100.58 79.4538L99.4242 77.6539Z" fill="#121213"/>
<path d="M104.498 77.5869C105.853 77.3351 107.201 77.2833 108.527 77.3647C109.853 77.4462 111.157 77.6388 112.423 77.9425C113.697 78.2461 114.942 78.6239 116.141 79.1127C117.334 79.609 118.497 80.2238 119.497 81.0385C118.297 80.5719 117.097 80.2163 115.875 79.9201C114.66 79.6238 113.431 79.4016 112.194 79.2757C110.957 79.1572 109.72 79.0979 108.505 79.1572C107.29 79.2164 106.083 79.3646 104.957 79.6609L104.498 77.5869Z" fill="#121213"/>
<path d="M117.867 112.14C119.03 111.162 120.111 110.051 121.097 108.859C122.089 107.666 122.97 106.377 123.77 105.029C124.578 103.681 125.281 102.274 125.889 100.815C126.489 99.3482 127.015 97.8595 127.585 96.3411C127.526 97.9632 127.2 99.563 126.726 101.111C126.259 102.666 125.681 104.192 124.993 105.674C124.304 107.155 123.474 108.585 122.533 109.947C121.585 111.303 120.504 112.584 119.282 113.732L117.867 112.14Z" fill="#121213"/>
<path d="M119.208 106.088C120.237 105.259 121.186 104.111 122.022 102.926C122.867 101.726 123.622 100.452 124.304 99.1258C124.985 97.8 125.578 96.4298 126.052 95.015C126.518 93.6003 126.889 92.1338 126.948 90.6228C127.067 92.1338 126.874 93.6596 126.57 95.1558C126.259 96.652 125.822 98.1185 125.289 99.5554C124.756 100.992 124.133 102.4 123.393 103.77C122.645 105.133 121.815 106.466 120.63 107.688L119.208 106.088Z" fill="#121213"/>
<path d="M118.956 102.244C119.83 101.355 120.615 100.347 121.334 99.2809C122.045 98.2143 122.682 97.081 123.23 95.9034C123.778 94.7257 124.245 93.5035 124.563 92.2444C124.882 90.9852 125.067 89.6668 124.919 88.3484C125.244 89.6372 125.237 91.0075 125.089 92.3407C124.933 93.6813 124.63 94.9997 124.222 96.2885C123.815 97.5773 123.319 98.8439 122.719 100.073C122.119 101.303 121.423 102.495 120.578 103.621L118.956 102.244Z" fill="#121213"/>
<path d="M118.178 99.1778C119.593 97.6594 120.786 95.904 121.563 93.9263C122.348 91.9561 122.711 89.7859 122.63 87.5935C123.067 89.7415 123.074 92.0154 122.585 94.2374C122.111 96.4595 121.134 98.5852 119.852 100.504L118.178 99.1778Z" fill="#121213"/>
<path d="M69.1822 102.363C68.834 101.807 68.4341 101.229 68.0267 100.681C67.6193 100.126 67.1897 99.5851 66.7379 99.0518C65.8343 98.0001 64.864 97.0001 63.7159 96.178C65.0344 96.689 66.2787 97.4446 67.4564 98.2667C68.0415 98.6815 68.6192 99.1185 69.1822 99.5777C69.7451 100.037 70.2858 100.496 70.8339 101.022L69.1822 102.363Z" fill="#121213"/>
<path d="M72.7745 101.585C76.3668 103.933 79.9073 106.34 83.707 108.155C87.4919 109.962 91.5286 111.162 95.6468 111.266L98.8466 111.392C99.9058 111.443 100.965 111.473 102.009 111.488C104.091 111.503 106.15 111.421 108.024 110.843C108.957 110.547 109.823 110.11 110.601 109.525C111.372 108.94 112.038 108.192 112.594 107.355C113.727 105.666 114.29 103.651 115.26 101.674C115.342 102.777 115.23 103.874 114.979 104.948C114.705 106.014 114.29 107.059 113.749 108.051C113.208 109.044 112.505 109.984 111.638 110.769C110.764 111.547 109.735 112.155 108.653 112.584C107.572 113.021 106.446 113.273 105.335 113.428C104.217 113.584 103.113 113.636 102.017 113.651C99.8169 113.666 97.6911 113.517 95.5579 113.406C93.3359 113.273 91.1361 112.851 89.0325 112.169C86.9364 111.48 84.9217 110.577 83.033 109.473C79.2333 107.281 75.915 104.503 72.7745 101.585Z" fill="#121213"/>
<path d="M116.601 115.088C116.66 115.043 116.734 114.851 116.756 114.629C116.778 114.406 116.771 114.147 116.734 113.88C116.697 113.621 116.638 113.347 116.564 113.103L116.512 112.94L116.415 112.74C116.349 112.607 116.289 112.473 116.215 112.34C115.675 111.273 115.038 110.229 114.29 109.251C115.29 109.977 116.215 110.807 117.089 111.725C117.201 111.836 117.304 111.955 117.408 112.073L117.571 112.251C117.638 112.332 117.689 112.407 117.741 112.488C117.941 112.784 118.104 113.088 118.252 113.406C118.4 113.725 118.519 114.066 118.6 114.443C118.674 114.821 118.734 115.258 118.6 115.791L116.601 115.088Z" fill="#121213"/>
<path d="M115.378 117.591C115.578 117.199 115.682 116.702 115.689 116.162C115.697 115.629 115.608 115.058 115.452 114.495C115.141 113.369 114.571 112.266 113.86 111.244C114.823 112.021 115.726 112.94 116.423 114.058C116.771 114.621 117.067 115.236 117.267 115.917C117.46 116.599 117.549 117.362 117.43 118.154L115.378 117.591Z" fill="#121213"/>
<path d="M91.3358 112.547C89.3952 111.933 87.3954 111.355 85.44 110.548C83.492 109.74 81.5662 108.696 79.9441 107.222C78.322 105.763 77.0258 103.926 76.1444 101.933C75.2704 99.941 74.7815 97.8375 74.4482 95.7339L76.5666 95.4673C76.8258 97.4227 77.2332 99.3559 77.9591 101.148C78.6998 102.933 79.7812 104.555 81.181 105.874C82.5735 107.207 84.2845 108.2 86.0992 109.007C87.9213 109.814 89.8545 110.429 91.8173 111.103L91.3358 112.547Z" fill="#121213"/>
<path d="M110.068 156.426C110.09 156.374 110.127 156.248 110.157 156.144C110.186 156.033 110.216 155.922 110.238 155.803C110.29 155.574 110.32 155.329 110.357 155.092C110.409 154.611 110.453 154.107 110.431 153.611C110.416 152.611 110.275 151.596 110.031 150.596C109.883 150.108 109.757 149.596 109.557 149.122C109.461 148.878 109.379 148.634 109.268 148.397L108.935 147.686C108.831 147.441 108.705 147.211 108.564 146.989L108.172 146.3C107.89 145.849 107.579 145.419 107.283 144.975C107.646 145.36 108.031 145.738 108.387 146.145L108.898 146.767C109.075 146.974 109.238 147.189 109.386 147.411L109.853 148.078C110.001 148.308 110.135 148.545 110.275 148.782C110.572 149.248 110.786 149.752 111.031 150.248C111.468 151.263 111.816 152.337 112.016 153.455C112.127 154.011 112.179 154.581 112.209 155.159C112.216 155.448 112.223 155.737 112.209 156.033C112.201 156.181 112.194 156.329 112.179 156.485C112.164 156.64 112.149 156.774 112.112 156.981L110.068 156.426Z" fill="#121213"/>
<path d="M136.703 136.82C135.244 138.035 133.444 138.805 131.592 139.234C130.659 139.434 129.703 139.546 128.755 139.538C127.8 139.546 126.852 139.412 125.941 139.16C126.889 139.057 127.807 139.005 128.711 138.872C129.622 138.738 130.518 138.605 131.407 138.397C132.296 138.205 133.177 137.96 134.059 137.694C134.933 137.435 135.799 137.124 136.703 136.82Z" fill="#121213"/>
<path d="M138.525 115.746L138.384 113.62C142.902 113.324 146.628 116.035 148.954 118.361C152.509 121.909 155.042 126.842 154.85 129.827L152.724 129.693C152.857 127.627 150.768 123.197 147.45 119.872C144.599 117.013 141.428 115.554 138.525 115.746Z" fill="#121213"/>
<path d="M139.917 111.733C141.221 111.518 142.517 111.711 143.65 112.125C144.791 112.54 145.798 113.147 146.717 113.829C148.546 115.207 150.057 116.888 151.346 118.688C149.791 117.118 148.043 115.732 146.146 114.732C145.198 114.236 144.213 113.851 143.221 113.666C142.236 113.481 141.258 113.518 140.406 113.807L139.917 111.733Z" fill="#121213"/>
<path d="M140.969 109.948C141.606 109.703 142.176 109.681 142.688 109.725C142.947 109.74 143.184 109.8 143.428 109.837C143.658 109.896 143.895 109.955 144.117 110.022C145.006 110.311 145.821 110.703 146.576 111.17C147.332 111.636 148.035 112.17 148.672 112.77C149.302 113.37 149.872 114.029 150.309 114.762C149.731 114.133 149.057 113.621 148.346 113.192C147.635 112.762 146.88 112.407 146.117 112.133C145.347 111.859 144.554 111.666 143.791 111.592C143.599 111.577 143.413 111.57 143.228 111.562C143.05 111.577 142.865 111.57 142.702 111.599C142.369 111.636 142.088 111.755 141.947 111.859L140.969 109.948Z" fill="#121213"/>
<path d="M142.606 107.644C143.125 107.496 143.51 107.54 143.858 107.585C144.199 107.644 144.51 107.74 144.799 107.844C145.376 108.066 145.902 108.34 146.391 108.651C147.361 109.288 148.235 110.059 148.821 111.007C147.969 110.303 146.961 109.896 145.961 109.629C145.458 109.503 144.947 109.422 144.465 109.407C144.228 109.399 143.991 109.414 143.791 109.444C143.599 109.481 143.428 109.562 143.436 109.599L142.606 107.644Z" fill="#121213"/>
<path d="M147.82 105.378C148.561 105.104 149.302 104.956 150.02 104.889C150.746 104.837 151.45 104.859 152.131 104.934C153.501 105.096 154.82 105.422 156.064 105.896C154.746 105.77 153.42 105.808 152.153 106C151.524 106.104 150.916 106.259 150.339 106.459C149.776 106.674 149.257 106.948 148.813 107.267L147.82 105.378Z" fill="#121213"/>
<path d="M149.88 107.889C150.731 107.6 151.539 107.496 152.331 107.459C153.124 107.422 153.894 107.459 154.657 107.533C155.42 107.607 156.168 107.726 156.909 107.896C157.642 108.067 158.375 108.274 159.049 108.6C158.323 108.444 157.583 108.422 156.849 108.43C156.116 108.444 155.39 108.504 154.672 108.6C153.953 108.704 153.25 108.844 152.583 109.037C151.917 109.23 151.28 109.489 150.783 109.815L149.88 107.889Z" fill="#121213"/>
<path d="M151.272 110.621L151.672 110.473C151.798 110.436 151.909 110.414 152.028 110.384C152.265 110.325 152.472 110.31 152.694 110.273C153.124 110.221 153.539 110.199 153.953 110.184C154.783 110.162 155.59 110.199 156.398 110.273C157.205 110.347 158.005 110.466 158.79 110.644C159.575 110.821 160.353 111.073 161.042 111.451C160.279 111.236 159.501 111.169 158.723 111.169C157.946 111.169 157.175 111.229 156.412 111.332C155.65 111.436 154.894 111.577 154.161 111.762C153.798 111.858 153.442 111.962 153.102 112.081C152.946 112.147 152.761 112.206 152.628 112.281C152.561 112.318 152.479 112.347 152.428 112.384C152.383 112.421 152.331 112.451 152.287 112.481L151.272 110.621Z" fill="#121213"/>
<path d="M152.65 113.614C153.613 113.503 154.487 113.481 155.398 113.496C156.301 113.51 157.19 113.577 158.079 113.703C158.968 113.814 159.842 114.014 160.686 114.258C161.538 114.51 162.353 114.858 163.123 115.251C162.286 115.014 161.442 114.844 160.582 114.777C159.731 114.71 158.879 114.695 158.034 114.762C157.19 114.821 156.353 114.932 155.524 115.088C154.709 115.244 153.857 115.451 153.131 115.695L152.65 113.614Z" fill="#121213"/>
<path d="M153.324 116.496C154.376 116.37 155.383 116.4 156.383 116.489C157.375 116.585 158.346 116.748 159.301 116.97C160.257 117.2 161.19 117.481 162.093 117.852C162.99 118.222 163.871 118.674 164.59 119.311C163.767 118.814 162.856 118.555 161.938 118.363C161.019 118.177 160.086 118.074 159.153 118.029C158.22 117.985 157.294 118.007 156.383 118.089C155.472 118.177 154.576 118.326 153.761 118.585L153.324 116.496Z" fill="#121213"/>
<path d="M153.857 119.369C154.916 119.414 155.894 119.525 156.901 119.666C157.901 119.814 158.894 120.006 159.864 120.273C160.834 120.54 161.797 120.843 162.701 121.288C163.604 121.725 164.463 122.265 165.16 122.969C164.352 122.399 163.441 122.043 162.516 121.791C161.59 121.532 160.627 121.406 159.679 121.325C158.723 121.243 157.76 121.236 156.805 121.266C155.857 121.303 154.872 121.369 153.975 121.503L153.857 119.369Z" fill="#121213"/>
<path d="M154.109 122.688C155.131 122.821 156.064 123.014 157.02 123.236C157.968 123.465 158.908 123.725 159.827 124.043C160.745 124.369 161.649 124.732 162.508 125.176C163.367 125.628 164.182 126.154 164.901 126.784C163.249 125.813 161.412 125.362 159.568 125.08C158.642 124.947 157.716 124.865 156.79 124.821C155.872 124.784 154.916 124.769 154.035 124.821L154.109 122.688Z" fill="#121213"/>
<path d="M154.168 126.132C156.035 126.636 157.872 127.228 159.642 127.961C160.531 128.332 161.397 128.732 162.242 129.183C163.079 129.643 163.901 130.139 164.627 130.754C163.805 130.287 162.923 129.961 162.034 129.672C161.146 129.391 160.242 129.161 159.324 128.976C157.501 128.598 155.657 128.369 153.805 128.235L154.168 126.132Z" fill="#121213"/>
<path d="M152.583 129.346C154.627 129.709 156.62 130.25 158.516 131.042C159.464 131.442 160.382 131.901 161.242 132.449C162.101 132.998 162.901 133.634 163.567 134.39C162.782 133.768 161.901 133.294 160.997 132.923C160.086 132.553 159.145 132.272 158.19 132.064C156.286 131.642 154.324 131.472 152.398 131.479L152.583 129.346Z" fill="#121213"/>
<path d="M145.109 132.065C146.68 131.776 148.205 131.88 149.687 132.102C151.168 132.339 152.605 132.717 154.012 133.176C155.42 133.643 156.783 134.213 158.094 134.895C158.745 135.235 159.382 135.606 159.99 136.028C160.597 136.443 161.167 136.917 161.671 137.428C160.442 136.65 159.108 136.139 157.76 135.695C156.405 135.265 155.02 134.954 153.635 134.702C152.242 134.458 150.842 134.302 149.457 134.221C148.072 134.132 146.702 134.11 145.406 134.184L145.109 132.065Z" fill="#121213"/>
<path d="M143.495 134.553C144.339 134.368 145.199 134.287 146.036 134.309C146.88 134.316 147.709 134.405 148.532 134.553C150.169 134.849 151.768 135.264 153.316 135.827C154.864 136.383 156.361 137.071 157.761 137.916L158.79 138.582L159.768 139.323L160.686 140.123C160.975 140.412 161.242 140.708 161.516 140.997C160.22 140.042 158.805 139.331 157.346 138.76C155.887 138.19 154.376 137.768 152.857 137.442C151.339 137.131 149.798 136.909 148.265 136.82C146.732 136.731 145.228 136.701 143.754 136.664L143.495 134.553Z" fill="#121213"/>
<path d="M141.258 137.597C143.073 136.945 144.872 137.101 146.576 137.345C148.287 137.597 149.954 137.982 151.59 138.464C153.22 138.953 154.805 139.582 156.331 140.323C157.094 140.693 157.834 141.115 158.538 141.582C158.901 141.797 159.227 142.078 159.568 142.315C159.901 142.567 160.197 142.878 160.508 143.152C159.116 142.227 157.568 141.627 156.005 141.123C154.442 140.619 152.835 140.264 151.228 139.997C149.62 139.723 147.998 139.545 146.391 139.508C144.791 139.486 143.221 139.575 141.776 139.656L141.258 137.597Z" fill="#121213"/>
<path d="M137.821 141.842C139.614 140.82 141.658 140.612 143.606 140.649C145.561 140.672 147.495 140.887 149.391 141.264C151.287 141.627 153.131 142.22 154.901 142.931C155.346 143.109 155.783 143.309 156.212 143.516C156.642 143.723 157.057 143.968 157.479 144.19C157.894 144.42 158.294 144.694 158.694 144.938C159.086 145.205 159.457 145.508 159.827 145.79C158.197 144.871 156.435 144.234 154.642 143.76C152.85 143.294 151.02 142.99 149.183 142.842C147.346 142.694 145.502 142.686 143.688 142.842C141.88 142.997 140.08 143.316 138.429 143.886L137.821 141.842Z" fill="#121213"/>
<path d="M43.6879 147.123C40.9844 151.589 37.7032 162.277 45.1618 170.462C42.3695 164.158 41.8362 156.211 43.7545 153.604C45.6655 156.078 50.2355 156.766 50.9762 157.596C51.7169 158.426 52.2798 161.729 50.8577 167.321C53.5982 162.04 54.3685 157.552 54.3685 157.552C54.3685 157.552 55.161 163.699 53.7908 169.847C56.6572 165.203 57.6053 159.581 57.6053 159.581C57.6053 159.581 58.8274 164.381 57.7386 171.173C60.7532 165.195 60.9754 161.27 60.9754 161.27C60.9754 161.27 62.5234 168.766 61.005 175.417C63.8345 170.728 64.3011 162.403 64.3011 162.403C64.3011 162.403 66.5824 171.476 65.0047 176.387C67.9601 170.839 67.686 163.107 67.686 163.107C67.686 163.107 70.308 169.714 69.6932 176.38C71.6635 170.151 71.5079 163.796 71.5079 163.796C71.5079 163.796 74.3818 172.195 73.2633 179.454C75.7076 173.173 75.3224 165.388 75.3224 165.388C75.3224 165.388 78.0926 174.173 77.9222 180.742C79.5443 174.298 78.7444 166.958 78.7444 166.958C78.7444 166.958 81.9441 173.128 82.8848 182.202C84.0921 174.787 82.4108 167.558 82.4108 167.558C82.4108 167.558 87.003 175.461 87.4252 184.705C88.6399 179.217 86.6104 169.847 86.6104 169.847C86.6104 169.847 90.462 177.669 90.5805 184.572C91.7063 177.898 89.7583 171.291 89.7583 171.291C89.7583 171.291 92.9655 176.558 93.8099 186.016C94.6543 195.482 95.3505 198.185 95.3505 198.185L96.3282 198.941C96.3282 198.941 95.8468 175.995 93.121 171.491C96.6985 174.632 99.3058 183.646 99.3058 183.646C99.3058 183.646 98.5354 174.343 97.1948 171.588C100.772 174.506 102.468 181.416 102.468 181.416C102.468 181.416 102.357 173.61 99.5131 167.499C102.646 170.669 104.572 178.343 104.572 178.343C104.572 178.343 104.039 169.647 102.476 165.299C106.705 169.869 107.276 177.269 107.276 177.269C107.276 177.269 108.438 169.891 104.35 162.21C108.986 167.321 110.083 173.721 110.083 173.721C110.083 173.721 110.697 166.98 108.498 162.092C111.786 165.736 112.379 171.528 112.379 171.528C112.379 171.528 112.742 165.107 111.631 161.736C114.149 166.314 114.912 171.054 114.912 171.054C114.912 171.054 115.608 163.107 114.053 159.966C116.897 163.692 117.386 169.573 117.386 169.573C117.386 169.573 117.919 162.499 117.097 159.655C119.549 163.788 119.778 169.003 119.778 169.003C119.778 169.003 120.756 159.07 117.667 155.737L118.564 155.611C118.564 155.611 123.282 160.744 122.771 166.003C124.852 162.522 127.659 156.211 127.659 156.211C127.659 156.211 131.933 166.262 132.007 173.358C133.155 168.699 130.97 158.848 129.644 156.678C133.385 160.381 136.488 169.358 136.488 169.358C136.488 169.358 136.132 162.011 132.466 155.389C137.392 158.655 139.866 168.691 139.866 168.691C139.866 168.691 140.621 160.522 135.11 153.47C140.658 156.181 144.191 164.825 144.191 164.825C144.191 164.825 143.213 156.47 137.473 151.471C142.999 153.589 147.969 160.218 147.969 160.218C147.969 160.218 145.065 153.078 139.154 149.404C144.71 150.989 148.546 153.596 151.102 156.581C146.539 150.589 141.228 147.782 141.228 147.782C141.228 147.782 149.561 148.9 154.909 153.574C150.465 148.597 146.784 147.241 146.784 147.241C146.784 147.241 156.983 147.434 163.878 152.034L165.389 151.604C165.389 151.604 154.983 142.975 135.429 145.738C135.429 145.738 132.251 149.041 129.296 150.834C126.341 152.626 121.06 155.389 115.66 155.626L111.89 156.752C111.89 156.752 109.135 155.552 107.987 154.826C106.839 154.1 100.365 153.196 96.6393 153.382C92.9137 153.574 91.5212 153.915 89.6102 156.226C87.7067 158.537 84.9884 158.707 82.67 159.329C80.3517 159.951 78.4481 159.781 76.0409 159.426C73.6411 159.07 70.9894 157.292 67.723 157.144C64.4566 156.996 60.5606 156.937 54.5981 154.233C48.6282 151.53 47.8579 148.552 46.3321 147.834C44.7693 147.152 43.6879 147.123 43.6879 147.123Z" fill="#121213"/>
<path d="M127.133 160.58C127.133 160.58 129.97 167.106 129.37 174.016C128.126 168.306 126.007 163.625 126.007 163.625L127.133 160.58Z" fill="#121213"/>
<path d="M126.77 176.342C126.77 176.342 127.163 169.595 125.511 164.951L124.237 168.15C124.23 168.15 125.793 171.321 126.77 176.342Z" fill="#121213"/>
<path d="M122.252 172.654C122.252 172.654 123.726 174.765 123.837 176.602C124.43 173.462 123.778 171.062 123.259 170.425L122.252 172.654Z" fill="#121213"/>
<path d="M130.659 122.902C130.659 122.902 134.755 122.443 139.34 119.184C136.251 122.909 129.629 126.361 129.629 126.361C129.629 126.361 137.103 124.983 142.176 121.124C139.043 125.116 131.925 128.487 127.007 130.412C132.585 129.909 142.406 124.872 144.436 123.131C140.236 127.701 130.066 133.345 121.585 135.627L116.253 136.627L116.356 135.619C116.364 135.619 127.237 126.487 130.659 122.902Z" fill="#121213"/>
<path d="M145.546 103.8C148.198 102.622 151.013 96.008 150.191 90.4084C149.368 84.8089 145.954 78.2316 145.954 78.2316C145.954 78.2316 143.636 79.8981 141.258 79.987C143.436 77.9131 144.917 76.4021 144.917 76.4021L139.495 78.2242L143.687 74.4837L137.806 76.3799L142.473 72.2099C142.473 72.2099 134.903 75.0022 136.503 74.6689C136.695 74.6245 140.006 71.8321 141.406 70.0989C138.347 71.9802 134.614 72.8913 134.614 72.8913C134.614 72.8913 138.94 69.8471 140.391 67.5065C137.266 70.1878 133.007 71.6025 133.007 71.6025C133.007 71.6025 138.147 67.0843 139.147 64.6993C136.11 67.4843 132.17 69.6619 132.17 69.6619C132.17 69.6619 137.347 63.8105 137.94 61.7144C134.31 66.04 130.074 68.736 130.074 68.736C130.074 68.736 132.984 64.3512 133.762 62.0477C131.392 65.6178 127.985 68.4768 127.985 68.4768C127.985 68.4768 130.459 64.7734 131.007 61.7514C129.429 64.8697 126.807 67.3658 126.074 67.8769C128.526 64.529 129.059 61.3662 129.059 61.3662C129.059 61.3662 127 65.3289 124.793 66.7362C126.526 64.3364 126.689 61.0552 126.689 61.0552C126.689 61.0552 125.748 64.329 123.126 66.1733C124.593 64.1068 124.63 60.6404 124.63 60.6404C124.63 60.6404 123.607 64.3216 121.452 66.1066C122.548 63.9809 122.341 60.8404 122.341 60.8404C122.341 60.8404 121.6 64.7734 119.052 66.9658L118.986 67.8694C118.986 67.8694 129.711 69.1879 133.762 73.8468C137.814 78.5057 144.035 86.431 144.035 86.431L147.969 90.1418C147.969 90.1418 145.539 93.3267 145.48 95.3562C145.421 97.3857 144.702 102.896 144.702 102.896L145.546 103.8Z" fill="#121213"/>
<path d="M117.519 68.5429C122.008 69.1873 128.17 72.0241 132.94 76.7052C126.889 72.713 121.415 70.8391 121.415 70.8391C121.415 70.8391 128.2 74.1573 132.511 79.4236C126.622 74.898 123.919 73.4981 122.111 72.75C128.222 76.7793 130.851 79.4087 132.799 82.5937C129.622 79.2236 125.874 77.5941 125.874 77.5941C125.874 77.5941 120.23 72.313 114.83 71.4316C109.431 70.5576 105.69 70.5205 105.69 70.5205L106.794 69.4391C106.787 69.4391 114.779 67.343 117.519 68.5429Z" fill="#121213"/>
<path d="M128.022 108.059C128.022 108.059 131.925 105.081 135.199 97.7928C134.881 101.267 130.022 111.792 124.867 118.865C130.192 113.614 136.088 104.437 138.006 96.6299C137.695 101.044 134.362 111.458 128.911 118.51C133.703 114.169 139.458 103.555 140.236 97.2669C140.717 101.985 138.021 109.029 135.044 114.377C139.169 110.133 141.547 103.481 142.221 98.9038C142.887 102.785 140.636 110.325 137.918 114.436C135.199 118.539 128.452 125.057 128.452 125.057L117.497 134.738L113.186 136.849L105.35 137.056L102.276 137.108L101.72 136.486L108.024 133.146C108.024 133.146 111.549 130.909 113.164 129.294C114.771 127.679 121 120.065 121 120.065L128.022 108.059Z" fill="#121213"/>
<path d="M106.972 129.813C106.972 129.813 101.728 134.509 97.2911 137.509L88.4251 139.353C88.4251 139.353 81.3886 140.946 78.9296 140.908C76.4705 140.879 68.1897 136.153 65.8936 133.368C65.8936 133.368 68.1304 134.672 71.0931 136.553C74.0559 138.435 76.7519 137.879 76.7519 137.879C76.7519 137.879 73.6855 136.761 70.4339 134.183C74.3151 136.087 78.4629 136.85 80.3072 136.664C76.3816 135.524 72.6264 132.954 72.6264 132.954C72.6264 132.954 79.5221 134.85 82.8626 134.331C78.0407 133.435 75.2261 131.25 75.2261 131.25C75.2261 131.25 81.8849 132.746 85.6846 132.265C80.922 131.035 78.063 129.339 78.063 129.339C78.063 129.339 85.2032 130.569 88.1585 130.057C82.4848 128.969 78.5888 125.85 78.5888 125.85C78.5888 125.85 84.6995 127.998 87.9807 127.413C80.5442 124.658 76.8334 121.599 76.8334 121.599C76.8334 121.599 82.5515 124.154 87.2993 124.954C92.0397 125.754 96.7282 127.554 96.7282 127.554L106.972 129.813Z" fill="#121213"/>
<path d="M78.2925 141.923C82.4551 141.486 87.5214 142.486 90.3064 144.693C87.7584 141.671 82.781 139.708 82.781 139.708C82.781 139.708 89.7212 139.856 93.6765 144.789C92.1581 141.33 90.5212 140.256 90.5212 140.256C90.5212 140.256 95.8763 142.449 98.8835 147.033C97.5799 142.486 93.2395 139.545 93.2395 139.545C97.1577 140.301 102.054 145.285 103.579 149.292C103.335 144.634 98.7724 140.693 96.5725 139.108C100.38 140.367 104.602 143.797 107.431 150.848C107.461 147.5 104.839 140.967 100.046 138.693C106.305 140.152 111.468 147.137 113.023 150.226C111.557 145.233 110.357 143.026 105.187 138.73C108.223 139.078 112.964 143.345 116.06 149.115C115.971 146.211 112.564 141.16 109.86 138.841C113.171 139.952 117.756 144.804 119.067 148.107C118.734 145.352 117.03 141.76 114.26 139.019C118 140.486 122.682 147.307 122.682 147.307C122.682 147.307 122.037 142.952 116.949 138.293C119.934 139.175 123.089 142.249 125.081 145.685C124.578 142.367 121.8 138.012 117.882 136.338L110.557 136.693L92.7506 137.753L83.618 138.967L78.2925 141.923Z" fill="#121213"/>
<path d="M62.4197 107.296C62.1382 104.452 58.7459 98.3118 54.1685 94.1936C59.3533 102.763 59.8125 107.948 60.2199 111.163C57.8497 102.911 53.7463 98.2303 53.7463 98.2303C53.7463 98.2303 56.3313 103.378 57.0942 110.081C57.8571 116.784 59.3458 121.117 59.3458 121.117C59.3458 121.117 55.6128 113.266 53.9167 104.934C54.0426 113.096 55.398 119.866 56.5238 123.636C53.25 119.547 52.0427 113.77 52.0427 113.77C52.0427 113.77 51.2724 121.169 54.1166 125.784C56.9683 130.398 61.2716 134.316 62.9974 136.198C64.7232 138.079 69.1525 141.331 69.1525 141.331C69.1525 141.331 71.2635 142.545 73.4559 142.182C75.6409 141.819 77.8777 140.731 77.8777 140.731C77.8777 140.731 70.7598 138.072 66.4194 134.302C62.0864 130.531 61.0494 121.903 61.0494 121.903L62.4197 107.296Z" fill="#121213"/>
<path d="M93.395 72.0026C91.7655 68.951 92.0544 68.7658 87.6621 66.3586C90.4101 69.8768 90.0619 72.173 90.0619 72.173C90.0619 72.173 88.4473 68.0844 83.4402 65.6401C85.6178 67.3881 86.6474 69.988 86.4993 72.1359C83.9365 67.7659 80.1368 66.5142 80.1368 66.5142C80.1368 66.5142 84.3142 69.4991 83.6254 72.7951C80.9886 69.3361 78.4703 67.277 75.9816 66.8697C79.8924 69.3065 80.5664 73.5729 80.5664 73.5729C80.5664 73.5729 77.8555 69.3954 73.3744 68.3585C75.4483 69.4695 77.774 73.2469 77.7296 74.7802C75.6705 71.8841 72.8114 70.1879 69.5376 69.5658C72.5966 70.899 75.0335 74.3876 74.9742 76.2319C72.0485 72.5433 67.3008 71.8989 67.3008 71.8989C69.9302 73.0914 72.13 76.0541 72.3226 78.1503C69.8858 75.3357 65.7824 74.7061 64.5677 74.8542C67.3674 75.8986 69.9006 78.7428 70.0117 80.9575C67.7674 78.0688 63.0048 77.7059 63.0048 77.7059C63.0048 77.7059 67.2934 80.2538 67.9007 83.4758C64.9158 80.1353 60.2198 79.9649 60.2198 79.9649C60.2198 79.9649 65.6564 82.0833 66.1749 86.4311L67.5304 87.4607C67.5304 87.4607 69.5969 81.6093 76.4482 76.743C83.3217 71.8915 93.395 72.0026 93.395 72.0026Z" fill="#121213"/>
<path d="M53.7315 77.6012C60.2125 67.4316 68.6415 59.4545 76.1816 56.751C72.6115 59.2693 67.4342 64.4245 64.2122 68.2464C75.0188 59.5804 81.833 57.862 84.8106 58.1064C79.6628 60.0174 74.9966 62.7357 72.9523 64.5578C72.9523 64.5578 63.5234 67.7649 58.7534 74.0311C53.9834 80.2973 52.8798 82.4823 52.8798 82.4823L54.6944 78.3641L53.7315 77.6012Z" fill="#121213"/>
<path d="M116.408 67.7731C115.941 63.492 114.638 60.8552 113.29 59.2257C113.29 59.2257 113.831 63.4031 112.579 67.7065L111.534 67.8546C111.534 67.8546 112.357 60.6329 111.497 57.5443C111.431 61.9143 109.638 67.3435 108.883 68.7879C108.883 68.7879 109.949 60.4404 108.609 55.3741C108.816 59.996 107.268 65.4029 106.076 67.8176C107.009 62.8476 106.424 58.0554 106.179 56.6555C106.179 56.6555 105.861 62.618 104.046 66.7954C104.513 60.4922 103.305 55.2556 103.142 54.9445C103.594 60.0256 101.194 67.425 101.194 67.425C101.194 67.425 101.52 59.1368 99.7279 53.7446C100.335 60.1885 98.4391 67.0473 98.4391 67.0473C98.4391 67.0473 98.3724 57.2406 95.6838 52.041C96.6837 57.3591 95.9504 64.1586 95.9504 64.1586C95.9504 64.1586 93.721 53.6631 90.9064 50.5078C93.7802 57.485 93.1284 66.6843 93.1284 66.6843L95.2986 69.8544C95.2986 69.8544 96.1726 71.8247 97.3725 71.6765C98.5724 71.5284 116.408 67.7731 116.408 67.7731Z" fill="#121213"/>
<path d="M74.9964 52.0404C68.945 50.0183 63.6788 50.1368 63.6788 50.1368L65.4564 58.1436L64.338 59.1435C64.338 59.1435 63.5158 52.9662 62.2345 50.6479C62.9381 54.4402 63.027 59.6175 63.027 59.6175L62.2863 60.2249C62.2863 60.2249 62.0122 54.1513 60.4124 51.1071C61.1827 56.2919 60.4124 60.8397 60.4124 60.8397C60.4124 60.8397 59.9754 55.1883 58.531 52.507C59.0643 57.2325 58.3162 61.5359 58.3162 61.5359C58.3162 61.5359 57.8496 56.1882 56.0646 53.2551C57.22 57.9288 56.6423 63.9209 56.6423 63.9209C56.6423 63.9209 55.2424 56.7807 53.4203 54.5513C54.8869 59.4472 54.7017 65.3801 54.7017 65.3801C54.7017 65.3801 54.0425 59.2546 50.8205 55.6475C52.7759 59.7731 52.6426 66.2689 52.6426 66.2689C52.6426 66.2689 51.5019 58.7287 45.7839 53.8847C48.517 57.2622 49.9761 63.2839 49.9761 63.2839C49.9761 63.2839 46.6801 58.4028 42.2212 55.166C47.1838 60.3508 51.1909 68.1873 51.5982 74.4238L51.1538 74.8164C51.1538 74.8164 48.6725 64.8394 41.6138 60.6841C45.8357 64.8542 48.2281 69.8834 48.4355 73.3572C45.7246 67.8613 42.6804 64.706 40.2732 63.4469C43.8729 66.7207 46.0653 71.1944 46.4875 73.6683C44.4803 69.9204 40.9991 66.7133 40.9991 66.7133C40.9991 66.7133 44.7914 72.3943 44.7691 75.2904L48.1615 75.3867L50.9761 76.5125C50.9761 76.5125 52.1538 72.6906 53.7981 70.2167C55.4424 67.7428 62.1085 61.173 62.1085 61.173L68.8043 56.0845L74.9964 52.0404Z" fill="#121213"/>
<path d="M31.348 80.3792C31.3258 79.1497 31.4072 77.9423 31.548 76.7572C31.7035 75.5721 31.9109 74.4093 32.1627 73.2612C32.6812 70.9651 33.333 68.7208 34.1404 66.5432C33.6811 68.8171 33.3775 71.1206 33.2145 73.4167C33.1404 74.5648 33.1182 75.7055 33.1405 76.8387C33.1775 77.972 33.2812 79.0904 33.4663 80.1644L31.348 80.3792Z" fill="#121213"/>
<path d="M34.2441 78.5058C34.2367 76.9059 34.2441 75.2764 34.4219 73.6543C34.5922 72.0248 34.9996 70.4472 35.57 68.9658C35.3403 70.5435 35.3033 72.1211 35.4885 73.6617C35.6662 75.2024 36.0069 76.7282 36.3625 78.2688L34.2441 78.5058Z" fill="#121213"/>
<path d="M117.341 96.3934C115.601 96.0083 114.038 97.1859 113.208 101.349C112.379 105.519 113.12 107.096 110.149 110.118C107.179 113.14 101.454 112.555 101.454 112.555C101.454 112.555 89.1584 113 82.7811 105.23C86.0994 107.57 90.4472 109.052 90.4472 109.052C90.4472 109.052 86.5216 107.074 83.4181 103.415C87.8992 106.689 94.4247 107.548 97.0615 107.555L103.157 110.533L102.565 109.355L98.5281 105.615L101.943 105.074C101.943 105.074 106.276 103.882 108.461 101.578C110.638 99.2747 113.645 96.0527 113.645 96.0527L116.371 94.3491L117.341 96.3934Z" fill="#121213"/>
<path d="M119.438 118.687C115.919 123.02 112.66 125.168 106.609 126.783C106.609 126.783 102.365 126.546 100.365 125.857C98.3577 125.168 90.1361 121.398 89.9435 121.295C89.751 121.191 88.5066 119.495 91.2546 120.813C93.9951 122.132 97.2837 122.309 99.3873 122.332C91.9212 120.161 88.3141 118.013 85.5587 115.888C93.8914 119.917 99.8465 121.028 106.12 120.124C99.8169 119.102 96.6615 118.25 96.6615 118.25L102.491 117.562L108.905 117.317L111.957 117.414L114.949 117.643C114.949 117.643 114.245 122.102 104.446 124.591C110.601 124.613 116.23 121.443 119.438 118.687Z" fill="#121213"/>
<path d="M95.2395 84.0307C101.632 82.6901 110.438 87.9045 107.898 93.4226C109.92 90.7784 109.764 88.66 109.764 88.66C109.764 88.66 110.853 91.5635 108.313 94.9484C105.772 98.3407 101.417 101.103 101.417 101.103C101.417 101.103 107.113 98.4444 109.809 95.5558C108.379 99.1925 102.809 103.355 99.3058 104.933L95.869 103.377C95.869 103.377 93.4026 100.281 92.6767 97.8C94.0692 100.022 96.2098 100.755 96.2098 100.755C96.2098 100.755 93.9433 98.2592 93.1729 96.3112C94.8395 98.5926 97.8689 99.7332 97.8689 99.7332C97.8689 99.7332 94.6765 96.6149 93.4248 94.2966C95.4246 96.5779 98.7577 98.2222 98.7577 98.2222C98.7577 98.2222 98.3503 96.7631 97.2615 95.7187C96.1801 94.6743 95.8394 95.3113 94.4469 94.0596C93.0544 92.8004 92.336 91.245 92.336 91.245C92.336 91.245 91.3879 93.6892 91.4249 95.9039C91.4546 98.1111 92.9211 99.6369 94.721 100.689L94.3358 102.289C94.3358 102.289 90.1213 99.985 90.4102 95.7039C90.6991 91.4227 92.4693 89.334 92.4693 89.334C92.4693 89.334 93.2174 91.2079 93.884 91.9857C94.5506 92.7634 95.9505 94.0522 97.7059 94.6669C99.4613 95.2817 100.461 97.4297 100.461 97.4297C100.461 97.4297 104.468 95.9854 105.046 93.3337C105.624 90.6821 103.417 89.0007 101.987 88.4896C104.076 88.423 105.728 90.3043 105.728 90.3043C105.728 90.3043 105.987 88.5267 104.831 87.3564C102.824 85.3417 99.2688 83.9863 95.2395 84.0307Z" fill="#121213"/>
<path d="M92.8915 88.9492C93.5877 89.6677 94.3877 90.201 95.232 90.6528C95.6542 90.875 96.0838 91.0824 96.5282 91.2528C96.9652 91.4305 97.4171 91.5861 97.8689 91.6972C98.3207 91.8305 98.7799 91.912 99.2317 91.9416C99.6909 91.986 100.172 91.9638 100.654 91.949C101.609 91.8971 102.58 91.7712 103.565 91.586C102.706 92.1045 101.735 92.4304 100.735 92.6082C100.232 92.7045 99.728 92.7415 99.2021 92.7415C98.6688 92.7341 98.1503 92.6452 97.6541 92.5193C96.6541 92.2453 95.7135 91.8083 94.8839 91.2157C94.0469 90.638 93.2914 89.8751 92.8915 88.9492Z" fill="#121213"/>
<path d="M102.883 91.8221C102.957 90.563 101.031 89.6001 98.9057 89.6593C96.78 89.726 95.3949 89.763 95.3949 89.763L98.565 90.3407C98.565 90.3407 96.6096 91.2148 98.0095 92.1776C99.4094 93.1331 102.883 91.8221 102.883 91.8221Z" fill="#121213"/>
<path d="M100.958 88.0082C100.624 87.8453 100.321 87.6749 100.002 87.5342C99.691 87.386 99.365 87.2675 99.0466 87.1638C98.7207 87.0527 98.3873 86.9861 98.0466 86.9194C97.7059 86.8602 97.3578 86.8157 96.9949 86.8009C97.3282 86.6454 97.7059 86.5935 98.0763 86.5935C98.4466 86.5935 98.817 86.6528 99.1725 86.7639C99.8835 86.9861 100.528 87.4157 100.958 88.0082Z" fill="#121213"/>
<path d="M91.188 98.697C90.0473 97.1712 89.4992 94.5936 90.351 91.0384C89.1067 93.1937 89.0992 96.3565 89.0992 96.3565C89.0992 96.3565 88.2697 94.0085 88.7659 92.2679C87.6993 94.1196 88.0104 96.3491 88.0104 96.3491C88.0104 96.3491 85.6921 93.6678 88.2845 90.6458C90.8769 87.6238 93.4545 87.0016 94.4544 87.0387C92.2175 86.2017 89.3066 88.246 87.2623 90.5495C87.3957 88.5645 89.3363 86.2387 89.3363 86.2387C89.3363 86.2387 86.0698 88.0756 85.5069 93.0456C85.0181 89.7496 86.0476 87.646 87.4401 85.9128C85.3736 87.3127 84.0404 89.5422 83.8774 92.8604C82.9886 90.8606 84.1144 87.572 85.2551 86.298C83.2034 88.1349 82.5442 90.3199 82.5442 90.3199L82.4035 88.3201L81.0554 88.72C81.0554 88.72 81.0628 89.8385 81.2258 90.9791C81.3961 92.1272 82.5887 94.527 85.2625 96.1639C87.9364 97.8008 91.9212 100.697 91.9212 100.697L92.5879 100.771L91.188 98.697Z" fill="#121213"/>
<path d="M29.052 73.6172C25.556 74.2468 22.6303 76.8243 22.6303 76.8243C22.6303 76.8243 26.5633 75.1356 28.4595 76.5058C28.4595 76.5058 24.6227 76.6169 20.4527 78.7723C23.371 77.8465 27.1484 78.8834 27.1484 78.8834C27.1484 78.8834 22.0081 79.4538 18.838 81.224C22.1414 80.2907 26.5781 81.187 26.5781 81.187C26.5781 81.187 20.4156 81.9869 16.2456 84.2089C21.9414 82.8165 25.4819 83.846 25.4819 83.846C25.4819 83.846 17.9344 85.1052 13.9717 87.8013C18.9639 86.1866 22.8969 87.2161 22.8969 87.2161C22.8969 87.2161 14.6457 89.4974 9.49056 92.8675C14.8679 90.7492 20.0601 91.3047 20.0601 91.3047C20.0601 91.3047 13.031 93.5119 9.49798 96.3858C14.8679 93.9415 18.838 94.697 18.838 94.697C18.838 94.697 11.246 97.8449 6.73522 102.311C11.1867 99.4003 15.5938 97.9264 17.9862 98.0227C11.9867 100.808 6.00195 106.822 6.00195 106.822C6.00195 106.822 13.1273 99.7781 18.6454 102.326C18.6454 102.326 20.6379 92.7564 23.8302 88.9123C27.0225 85.0681 29.4742 82.6609 29.3112 82.1276C29.1483 81.5943 29.052 73.6172 29.052 73.6172Z" fill="#121213"/>
<path d="M23.8376 123.902C21.4007 120.48 15.0976 116.992 7.60925 116.184C13.7421 115.851 20.4971 117.851 23.1562 120.917L23.8376 123.902Z" fill="#121213"/>
<path d="M22.534 118.273C19.2972 115.102 13.1643 112.577 8.06104 113.28C11.7422 111.821 17.1122 112.236 21.7859 115.539L22.534 118.273Z" fill="#121213"/>
<path d="M53.9907 80.6677C51.465 78.4827 48.9911 77.3421 45.5247 78.0309C48.0578 78.6753 49.9466 81.0751 49.9466 81.0751C49.9466 81.0751 47.2579 78.4753 40.6066 79.0456C45.1025 80.327 47.6356 83.2453 47.6356 83.2453C47.6356 83.2453 43.036 80.3567 37.6586 81.0233C42.599 82.0973 46.6283 86.5488 46.6283 86.5488C46.6283 86.5488 40.8658 82.8676 34.8293 82.9935C39.1771 84.0305 43.8952 88.6894 43.8952 88.6894C43.8952 88.6894 38.0956 85.3266 32.7035 85.6155C37.429 87.1561 42.1694 91.2225 42.1694 91.2225C42.1694 91.2225 35.644 87.9709 29.837 88.7338C35.7773 90.2522 41.6509 92.615 43.1619 95.3481C44.6729 98.0812 44.0804 100.177 45.4136 102.673C45.4136 102.673 39.6215 97.1257 36.2958 95.474C41.6065 100.422 44.8729 106.962 44.8729 106.962C44.8729 106.962 41.1547 103.007 36.5476 100.525C41.4213 104.784 46.5543 111.162 48.8726 116.198L48.9837 117.761C48.9837 117.761 45.3395 110.236 35.3774 109.406C40.6732 110.888 44.2507 113.954 45.6136 115.924C46.9764 117.894 51.2576 124.642 51.2576 124.642C51.2576 124.642 45.5395 119.731 36.6439 123.99C41.7028 122.827 48.8874 123.85 53.887 127.894C53.887 127.894 46.7394 126.279 38.9548 131.271C43.6804 129.679 54.1018 129.175 57.1016 131.071L57.8497 132.019C57.8497 132.019 51.102 133.093 45.1618 136.093C51.4428 134.552 58.5904 134.101 60.2865 134.367L62.3234 135.797C62.3234 135.797 56.2942 137.545 53.0649 139.811C58.1385 137.856 65.8564 137.789 65.8564 137.789L67.0193 139.152C67.0193 139.152 60.8643 141.463 58.5533 145.203C60.8568 143.589 66.3823 140.567 68.5229 140.833L70.0043 142.307C70.0043 142.307 67.4119 144.226 66.7082 147.263C68.1526 145.189 71.8041 143.47 71.8041 143.47L73.9595 145.137C73.9595 145.137 71.1375 147.277 71.4116 150.277C72.3967 147.996 75.0631 146.344 75.0631 146.344L77.2333 148.151C77.2333 148.151 78.6036 150.062 78.0851 152.988C79.0999 151.299 78.8702 148.648 78.8702 148.648L74.9076 145.84L63.3011 136.886L55.2276 128.323L50.5836 121.176L48.0875 110.991L47.8134 100.555L46.1469 94.9481L45.184 93.5853L53.9907 80.6677Z" fill="#121213"/>
</g>
</svg>
