<svg width="72" height="72" viewBox="0 0 72 72" fill="none" xmlns="http://www.w3.org/2000/svg">
<rect width="72" height="72" fill="#F8133C"/>
<path opacity="0.35" d="M51.9844 44.8707L42.0091 34.8744C41.1869 34.0504 39.8549 34.047 39.0274 34.8657L38.6904 35.1992L29.1743 25.683C28.6052 23.9774 27.5315 22.4865 26.093 21.4077L22.8686 18.9898C21.9783 18.3229 20.7336 18.4102 19.948 19.1975L19.1973 19.9482C18.41 20.7338 18.3227 21.9785 18.9895 22.8689L21.4074 26.0933C22.4863 27.5318 23.9772 28.6054 25.6828 29.1745L35.1832 38.675L34.8812 38.9735C34.0502 39.7957 34.0467 41.1382 34.8725 41.9657L44.8722 51.9846C46.8361 53.9486 50.0204 53.9486 51.9861 51.9846C53.9484 50.0207 53.9484 46.8364 51.9844 44.8707Z" fill="white"/>
<path d="M20.0212 51.9797C21.9922 53.9507 25.1886 53.9507 27.1596 51.9797L42.9832 36.1893L35.8779 29.016L20.0212 44.843C18.0502 46.8123 18.0502 50.0087 20.0212 51.9797Z" fill="white"/>
<path d="M46.848 30.0897C45.4008 31.5369 42.9986 31.4479 41.6683 29.8226C40.5126 28.4085 40.7588 26.3031 42.0506 25.0113L45.9978 21.0641C46.7275 20.3344 46.3923 19.067 45.3885 18.826C43.9273 18.4769 42.3492 18.4332 40.7116 18.7876C36.6458 19.671 33.4056 23.0019 32.6794 27.0974C31.3875 34.3773 37.6234 40.6131 44.9032 39.3213C49.0005 38.595 52.3297 35.3549 53.2113 31.2873C53.5657 29.6497 53.5238 28.0716 53.1729 26.6104C52.932 25.6066 51.6663 25.2714 50.9366 25.9994C49.1856 27.7539 47.2321 29.7056 46.848 30.0897Z" fill="white"/>
</svg>
