<svg width="84" height="80" viewBox="0 0 84 80" fill="none" xmlns="http://www.w3.org/2000/svg">
<path d="M71.1891 11.355L48.3081 34.236" stroke="white" stroke-width="3"/>
<path d="M39.1271 72.5499L39.9388 73.0636L40.745 72.5412C51.0825 65.8427 58.0586 60.7981 62.5213 55.5123C67.0661 50.1293 68.9623 44.554 69.363 36.9667C69.4014 36.4822 69.4209 35.9925 69.4209 35.4985C69.4209 25.5773 61.53 17.4829 51.733 17.4829C47.0277 17.4829 42.7555 19.3551 39.5921 22.397C36.4286 19.3551 32.1564 17.4829 27.4511 17.4829C17.6541 17.4829 9.76318 25.5773 9.76318 35.4985C9.76318 36.0101 9.78415 36.517 9.82531 37.0183C10.2424 44.5974 12.1946 50.1677 16.8494 55.5432C21.4189 60.8202 28.5556 65.859 39.1271 72.5499Z" fill="#121213" stroke="white" stroke-width="3"/>
<path d="M31.965 49.4907L9.08398 72.3717" stroke="white" stroke-width="3"/>
<line x1="19.3005" y1="62.5645" x2="19.3005" y2="75.6393" stroke="white" stroke-width="3"/>
<line y1="-1.5" x2="13.0749" y2="-1.5" transform="matrix(-1 2.3597e-08 2.3597e-08 1 17.8005 64.7427)" stroke="white" stroke-width="3"/>
<line x1="14.9412" y1="66.9238" x2="14.9412" y2="77.8195" stroke="white" stroke-width="3"/>
<line y1="-1.5" x2="10.8957" y2="-1.5" transform="matrix(-1 2.3597e-08 2.3597e-08 1 13.4412 69.1016)" stroke="white" stroke-width="3"/>
<line x1="10.584" y1="71.2837" x2="10.584" y2="80.0003" stroke="white" stroke-width="3"/>
<line y1="-1.5" x2="8.71658" y2="-1.5" transform="matrix(-1 2.3597e-08 2.3597e-08 1 9.08398 73.4609)" stroke="white" stroke-width="3"/>
<path d="M74.7293 15.7136L67.9194 8.90377L78.8152 4.81787L74.7293 15.7136Z" fill="#121213"/>
<path fill-rule="evenodd" clip-rule="evenodd" d="M62.8298 7.8011L83.6328 0L75.8317 20.8029L62.8298 7.8011ZM74.7292 15.7134L78.8151 4.81765L67.9194 8.90355L74.7292 15.7134Z" fill="white"/>
</svg>
