<svg width="74" height="74" viewBox="0 0 74 74" fill="none" xmlns="http://www.w3.org/2000/svg">
<path d="M22.6445 4.7739C22.3573 5.55114 22.0302 6.46837 21.7033 7.45103C20.7526 10.3088 19.8643 13.549 19.8643 15.55C19.8643 17.6186 19.9213 19.8521 20.0274 22.1199L25.2616 22.1199C25.3678 19.8521 25.4248 17.6186 25.4248 15.55C25.4248 13.549 24.5365 10.3088 23.5858 7.45103C23.2589 6.46837 22.9318 5.55114 22.6445 4.7739Z" fill="#121213" stroke="white" stroke-width="2"/>
<path d="M32.7246 26.6049L34.1221 26.6049L33.6711 25.2822L30.7062 16.5857L30.4753 15.9084L29.7597 15.9084L15.528 15.9084L14.8124 15.9084L14.5815 16.5857L11.6166 25.2822L11.1656 26.6049L12.5631 26.6049L32.7246 26.6049Z" fill="#121213" stroke="white" stroke-width="2"/>
<path d="M36.7706 39.2163V71H8V39.2163C8 34.1704 10.6783 29.7341 14.7246 27.2216H30.046C34.0922 29.7341 36.7706 34.1704 36.7706 39.2163Z" stroke="white" stroke-width="2"/>
<path d="M36.7769 35.791H18.9102V63.1923H36.7769" stroke="white" stroke-width="2"/>
<path d="M24.8672 41.6627V45.5073H25.1937C25.8467 42.7112 26.4998 42.0122 29.4384 42.3617V54.5945C29.4384 55.643 28.4588 55.9925 27.4793 55.9925V56.342H33.8354V55.9925C32.8559 55.9925 31.8763 55.643 31.8763 54.5945V42.3617C34.8149 42.0122 33.8136 42.7112 34.4667 45.5073H34.7932V41.6627H24.8672Z" fill="white"/>
<path d="M36.7852 43.6414H63.6199C64.689 43.6414 65.5557 44.5081 65.5557 45.5772C65.5557 46.6464 64.689 47.5131 63.6199 47.5131H36.7852V43.6414Z" stroke="white" stroke-width="2"/>
<path d="M36.2812 48.0238H64.074C63.3521 50.6337 62.3676 54.2315 61.407 57.81M36.2812 71.0213H58.1184C58.1184 70.2741 59.7261 64.0716 61.407 57.81M36.2812 57.81C41.8844 57.17 45.2975 58.7747 50.1776 58.7886C55.1783 58.8029 57.1537 59.3676 61.407 57.81" stroke="white" stroke-width="2"/>
</svg>
